<svg xmlns="http://www.w3.org/2000/svg" xmlns:xlink="http://www.w3.org/1999/xlink" width="180" height="180" viewBox="0 0 180 180">
  <defs>
    <clipPath id="clip-path">
      <rect id="Rectangle_541" data-name="Rectangle 541" width="57.397" height="93.082" fill="#141774"/>
    </clipPath>
  </defs>
  <g id="Approve_Advertise" data-name="Approve &amp; Advertise" transform="translate(-227 -3286)">
    <g id="Group_6574" data-name="Group 6574">
      <g id="Ellipse_10" data-name="Ellipse 10" transform="translate(227 3286)" fill="none" stroke="#141774" stroke-width="3">
        <circle cx="90" cy="90" r="90" stroke="none"/>
        <circle cx="90" cy="90" r="88.5" fill="none"/>
      </g>
      <g id="Group_6573" data-name="Group 6573" transform="translate(288.301 3329)">
        <g id="Group_6572" data-name="Group 6572" clip-path="url(#clip-path)">
          <path id="Path_30089" data-name="Path 30089" d="M24.79,43.386V38.764H23.271c-4,0-7.995.018-11.992-.007A4.642,4.642,0,0,1,6.291,33.8q-.031-14.416,0-28.833A4.638,4.638,0,0,1,11.276.009q19.807-.018,39.613,0A4.628,4.628,0,0,1,55.88,4.952q.023,14.416,0,28.833a4.653,4.653,0,0,1-4.974,4.971c-4.487.025-8.974.006-13.558.006v4.594c2.591.06,5.311-.289,7.418,1.831,2.061,2.073,1.879,4.711,1.835,7.567,1.923,0,3.714-.133,5.478.032a5.919,5.919,0,0,1,5.147,4.64A6.03,6.03,0,0,1,54.67,64a19.421,19.421,0,0,1-2.55,1.165c1.335,5.179.122,7.643-4.722,9.262A6.351,6.351,0,0,1,46.2,82a19.3,19.3,0,0,1,1.554,2.815,6.019,6.019,0,0,1-5.489,8.129c-8.262.106-16.537.266-24.788-.056A18.133,18.133,0,0,1,.171,75.472a126.05,126.05,0,0,1,.2-16.144c.566-7.674,7.7-14.782,15.348-15.644,2.4-.271,4.835-.212,7.254-.294.573-.02,1.148,0,1.816,0m.01,3.123c-2.082,0-4.01-.019-5.938,0A15.434,15.434,0,0,0,3.211,62.251c-.023,3.952-.013,7.9,0,11.857a14.229,14.229,0,0,0,.158,2.685c1.6,8.113,7.681,13.078,16.005,13.1q9.5.023,19,0a37.757,37.757,0,0,0,3.9-.065,3.05,3.05,0,0,0,2.208-4.763,3.286,3.286,0,0,0-3.045-1.346c-5.165.019-10.33.009-15.495.006-1.772,0-2.646-.542-2.628-1.612s.858-1.548,2.669-1.548c5.255,0,10.51.019,15.764-.011a3.057,3.057,0,0,0,3.091-4.079,3.167,3.167,0,0,0-3.264-2.085q-8.152-.013-16.3,0c-1.115,0-1.917-.429-1.921-1.573,0-1.091.813-1.514,1.841-1.525.4,0,.808-.006,1.213-.006q9.5,0,19,0a10.239,10.239,0,0,0,1.742-.11,3.033,3.033,0,0,0,.036-5.969,9.3,9.3,0,0,0-1.741-.119q-9.566-.012-19.133-.005c-.359,0-.719,0-1.078,0-1.093,0-1.929-.442-1.879-1.611.045-1.064.828-1.481,1.886-1.471,2.695.025,5.39.007,8.084.007,5.884,0,11.767.011,17.651-.007a3.106,3.106,0,0,0,3.292-3.642c-.247-1.575-1.519-2.531-3.446-2.533q-14.686-.011-29.373,0c-.359,0-.72.015-1.078-.008-.982-.062-1.656-.535-1.655-1.566a1.5,1.5,0,0,1,1.665-1.559c1.459-.041,2.921-.011,4.419-.011Zm6.162-10.892q9.7,0,19.4,0c2.044,0,2.406-.34,2.407-2.31q.009-13.945,0-27.891c0-1.91-.4-2.311-2.293-2.311q-19.4-.009-38.806,0C9.8,3.1,9.4,3.517,9.4,5.434q-.008,13.946,0,27.891c0,1.908.385,2.288,2.293,2.289q9.634.008,19.268,0m3.195,3.239H28.14V52.563h6.016ZM43.3,52.587c.759-5.219-.8-6.76-5.954-5.865v5.865Z" transform="translate(0)" fill="#141774"/>
          <path id="Path_30090" data-name="Path 30090" d="M65.619,52.574,79.471,40.7q3.17-2.718,6.338-5.437c.82-.707,1.66-1.162,2.587-.213.745.762.532,1.644-.6,2.613q-10.276,8.81-20.558,17.612c-1.524,1.3-1.975,1.28-3.389-.127-1.75-1.743-3.5-3.484-5.237-5.243-.947-.96-1.067-1.933-.3-2.568.922-.761,1.737-.409,2.482.35,1.571,1.6,3.15,3.193,4.824,4.887" transform="translate(-42.233 -25.212)" fill="#141774"/>
        </g>
      </g>
    </g>
  </g>
</svg>
