<svg xmlns="http://www.w3.org/2000/svg" xmlns:xlink="http://www.w3.org/1999/xlink" width="180" height="180" viewBox="0 0 180 180">
  <defs>
    <clipPath id="clip-path">
      <rect id="Rectangle_570" data-name="Rectangle 570" width="91.706" height="95.954" fill="#141774"/>
    </clipPath>
  </defs>
  <g id="Centralized_Document" data-name="Centralized Document" transform="translate(-227 -5555)">
    <g id="Ellipse_10" data-name="Ellipse 10" transform="translate(227 5555)" fill="none" stroke="#141774" stroke-width="3">
      <circle cx="90" cy="90" r="90" stroke="none"/>
      <circle cx="90" cy="90" r="88.5" fill="none"/>
    </g>
    <g id="Group_6611" data-name="Group 6611" transform="translate(271.146 5599.018)">
      <g id="Group_6610" data-name="Group 6610" clip-path="url(#clip-path)">
        <path id="Path_30201" data-name="Path 30201" d="M93.982,34.569V19.242H72.213c-.062.079-.161.146-.17.224-.265,2.244-.255,2.3-2.482,2.652a2.14,2.14,0,0,0-1.822,1.448,2.017,2.017,0,0,0,.419,2.188c1.268,1.861,1.24,2-.328,3.568-.866.866-1.769,1.7-2.587,2.608a1.74,1.74,0,0,1-2.7.223c-.836-.641-1.59-1.263-2.89-.675C58.5,32,58.462,32.9,58.358,33.752c-.183,1.5-.945,2.006-2.373,1.929-1.362-.073-2.732-.034-4.1-.011a1.7,1.7,0,0,1-1.918-1.612,4.436,4.436,0,0,0-1-2.3c-.84-.789-1.862-.692-2.9.1-1.726,1.317-1.867,1.236-3.413-.31-.733-.732-1.461-1.469-2.192-2.2-1.607-1.613-1.648-1.711-.357-3.554.561-.8.942-1.584.274-2.421A3.2,3.2,0,0,0,38.87,22.2c-2.371-.571-2.384-.518-2.71-2.939H14.3v15.31h2.956c1.979,0,3.96-.057,5.936.023a2.214,2.214,0,0,0,2.353-1.242,4.405,4.405,0,0,1,5.2-1.79,4.609,4.609,0,0,1-.055,8.764,4.373,4.373,0,0,1-5.181-1.858,2.176,2.176,0,0,0-2.249-1.188c-2.957.06-5.916.021-8.961.021v3.147c2.026,0,4.03,0,6.033,0,4.382-.01,4.041-.338,4.035,4.035,0,3.062.011,6.125-.01,9.187a1.448,1.448,0,0,0,.836,1.549,4.4,4.4,0,0,1,2.344,5.09,4.592,4.592,0,0,1-4.505,3.574,4.624,4.624,0,0,1-2.079-8.741c.333-.207.747-.635.752-.966.054-3.62.034-7.242.034-11.066-2.577,0-5.057,0-7.536,0-2.569,0-2.66-.088-2.66-2.6q0-10.953,0-21.907c0-1.849.29-2.141,2.129-2.142q10.461-.008,20.921,0H36.11c.479-2.977.479-2.547,2.934-3.038A2.133,2.133,0,0,0,40.4,10.3a10.707,10.707,0,0,0-.633-.935,1.714,1.714,0,0,1,.2-2.609c1.1-1.029,2.154-2.109,3.2-3.194a1.669,1.669,0,0,1,2.383-.236,5.1,5.1,0,0,0,2.42.931c1.46.006,1.887-1.2,1.978-2.44.1-1.371.772-1.884,2.12-1.805a36.554,36.554,0,0,0,4.1,0c1.313-.071,2,.367,2.186,1.757a3.52,3.52,0,0,0,1.038,2.125,2.019,2.019,0,0,0,2.755-.107c1.719-1.362,1.941-1.242,3.537.348.834.831,1.63,1.705,2.507,2.489a1.808,1.808,0,0,1,.261,2.826c-.691.864-1.383,1.785-.518,2.886a2.881,2.881,0,0,0,1.413,1.06c2.374.546,2.385.5,2.805,3.064H73.64q10.46,0,20.92,0c1.87,0,2.163.285,2.164,2.108q.007,11.236,0,22.472c0,1.759-.3,2.056-2.059,2.063-2.634.011-5.267,0-8,0a10.753,10.753,0,0,0-.128,1.141c-.01,3.157.012,6.313-.019,9.469a1.441,1.441,0,0,0,.87,1.52,4.513,4.513,0,0,1,2.273,5.27,4.677,4.677,0,0,1-4.392,3.372,4.6,4.6,0,0,1-4.527-3.545,4.4,4.4,0,0,1,2.307-5.106,1.451,1.451,0,0,0,.869-1.529c-.028-3.345-.012-6.69-.012-10.035,0-3.218,0-3.218,3.153-3.218h6.886V37.31c-3.371,0-6.7-.036-10.03.051-.376.01-.791.674-1.091,1.1a4.607,4.607,0,1,1-6.1-6.551,4.534,4.534,0,0,1,6.148,1.645,1.861,1.861,0,0,0,1.9,1.031c3.012-.052,6.024-.02,9.216-.02m-28.01-7.186a7.151,7.151,0,0,0-.589-.941,2.6,2.6,0,0,1-.314-3.357,4.993,4.993,0,0,0,.54-1.3,2.521,2.521,0,0,1,2.464-2.106c1.918-.138,1.027-1.613,1.2-2.562.2-1.138-.706-1.019-1.4-1.268A3.845,3.845,0,0,1,66,14.628a10.4,10.4,0,0,1-1.247-2.975,2.075,2.075,0,0,1,.181-1.686c1.348-1.4.7-2.355-.5-3.3-.254-.2-.479-.436-.858-.786-1.366,1.572-2.841,1.578-4.763.81C56.842,5.9,55.8,4.8,55.824,2.681H52.47c-.037,2.035-1,3.174-2.968,4.02a4.1,4.1,0,0,1-4.946-.823,11,11,0,0,1-1.2,1.256c-.991.741-1.108,1.491-.241,2.417a2.155,2.155,0,0,1,.244,2.6c-.874,1.961-1.282,4.338-4.371,3.862a13.071,13.071,0,0,1-.015,1.912c-.2,1.191.31,1.771,1.457,1.823A2.254,2.254,0,0,1,42.6,21.621a17.688,17.688,0,0,1,.836,2.085,2.889,2.889,0,0,1-.192,2.068c-1.086,1.266-.749,2.119.413,2.976.33.244.616.548,1.074.961,1.391-1.6,2.89-1.573,4.793-.8s2.9,1.891,2.924,3.875H55.89c-.15-2.243,1.22-3.053,2.97-3.913,1.95-.958,3.374-.408,4.811.759l2.3-2.254M79.015,34a1.975,1.975,0,0,0-1.971,1.817,1.927,1.927,0,1,0,3.847.221A1.958,1.958,0,0,0,79.015,34M29.279,34a1.949,1.949,0,0,0-1.9,2.013,2.036,2.036,0,0,0,1.93,1.876,2.071,2.071,0,0,0,1.92-2.05A1.975,1.975,0,0,0,29.279,34M24.945,59.252a1.887,1.887,0,1,0-1.835,1.917,1.838,1.838,0,0,0,1.835-1.917m60.208-1.883a1.9,1.9,0,1,0,1.946,1.8,1.838,1.838,0,0,0-1.946-1.8" transform="translate(-8.281 0)" fill="#141774"/>
        <path id="Path_30202" data-name="Path 30202" d="M65.746,197.988c0,1.141.023,2.118,0,3.094a4.053,4.053,0,0,1-4.3,4.221q-15.619.022-31.238,0a4.039,4.039,0,0,1-4.232-4.145c-.032-.984-.005-1.97-.005-3.168H24.359q-9.4,0-18.8,0c-2.073,0-2.295-.223-2.3-2.257q0-14.062.013-28.124a1.92,1.92,0,0,0-1.069-2.02,4.365,4.365,0,0,1-2-5.228,4.453,4.453,0,0,1,4.316-3.219,4.549,4.549,0,0,1,4.446,3.071,4.433,4.433,0,0,1-1.864,5.3,2.186,2.186,0,0,0-1.2,2.241c.036,8.621.02,17.242.02,25.862v1.622H25.962v-1.682q0-15.051,0-30.1c0-3.434,1.544-4.965,5.009-4.987.848-.005,1.7-.03,2.544.006,1.191.05,2.152.083,2.8-1.387.307-.7,1.739-1.023,2.723-1.278a5.55,5.55,0,0,1,2,.29c.178-.33.352-.649.521-.97a4.613,4.613,0,0,1,4.327-2.669,4.438,4.438,0,0,1,4.2,2.616c.387.8.731,1.108,1.7.858,2.1-.545,3.071.009,4.132,1.916a1.479,1.479,0,0,0,1.071.588c1.41.07,2.826.006,4.239.037,2.9.064,4.514,1.71,4.517,4.622q.017,15.192,0,30.385v1.762H85.78v-1.552c0-8.668-.015-17.336.02-26a2.066,2.066,0,0,0-1.135-2.13,4.431,4.431,0,0,1-1.944-5.271,4.536,4.536,0,0,1,4.53-3.141,4.426,4.426,0,0,1,4.263,3.281,4.373,4.373,0,0,1-2.07,5.2,1.839,1.839,0,0,0-1.013,1.909q.038,14.132.014,28.265c0,1.928-.261,2.189-2.221,2.191q-9.4.009-18.8,0H65.746m-30.225-36.7c-.084-.039-.168-.111-.252-.111-1.412-.015-2.824-.029-4.237-.027-2.056,0-2.333.282-2.333,2.391q0,18.36,0,36.719c0,2.128.328,2.452,2.451,2.453q14.548,0,29.1,0c2.549,0,2.766-.209,2.766-2.705q0-18.077,0-36.154c0-.423,0-.848-.02-1.27a1.348,1.348,0,0,0-1.438-1.416c-1.782-.032-3.565-.009-5.327-.009-.419,2.635-.419,2.636-3.014,2.636H38.382c-2.518,0-2.518,0-2.861-2.5m17.751-.212v-2.69c-1.18.2-2.228.4-3.283.544-1.447.2-1.831-.125-2.011-1.595-.172-1.4-.925-2.19-2.1-2.2s-1.971.778-2.144,2.154c-.194,1.545-.576,1.853-2.105,1.634-1.042-.15-2.078-.341-3.2-.527v2.684Zm-46.762.636a1.967,1.967,0,0,0-1.83-1.952,1.949,1.949,0,0,0-1.986,1.926,2.007,2.007,0,0,0,1.96,1.974,2.016,2.016,0,0,0,1.857-1.948m78.69.051a1.91,1.91,0,1,0,3.816-.128,1.909,1.909,0,1,0-3.816.128" transform="translate(0 -109.36)" fill="#141774"/>
        <path id="Path_30203" data-name="Path 30203" d="M137.433,47.879a9.775,9.775,0,1,1,9.732-9.815,9.753,9.753,0,0,1-9.732,9.815m-.112-16.861a7.115,7.115,0,1,0,7.156,7.018,7.11,7.11,0,0,0-7.156-7.018" transform="translate(-91.518 -20.321)" fill="#141774"/>
        <path id="Path_30204" data-name="Path 30204" d="M130.434,212.011q-5.156,0-10.312,0c-.376,0-.859.113-1.1-.073-.469-.358-1.118-.9-1.1-1.353s.7-.943,1.176-1.3c.214-.161.639-.046.969-.046h20.765c.235,0,.542-.093.693.021.54.406,1.026.882,1.533,1.332-.486.471-.9,1.18-1.475,1.357a8.951,8.951,0,0,1-2.525.067q-4.309,0-8.617,0" transform="translate(-84.584 -150.063)" fill="#141774"/>
        <path id="Path_30205" data-name="Path 30205" d="M130.132,235.133c-3.483,0-6.966,0-10.45,0-1.015,0-2.013-.115-1.985-1.411.026-1.178.968-1.344,1.932-1.344q10.661,0,21.323,0c.968,0,1.893.181,1.917,1.361s-.878,1.395-1.864,1.393q-5.437-.011-10.873,0" transform="translate(-84.427 -166.695)" fill="#141774"/>
        <path id="Path_30206" data-name="Path 30206" d="M130.117,258.228q-5.292,0-10.584,0c-.917,0-1.8-.139-1.852-1.25-.057-1.3.932-1.457,1.944-1.457q6.562,0,13.125,0,4.093,0,8.185,0c.95,0,1.9.129,1.924,1.338s-.9,1.371-1.874,1.369q-5.434-.01-10.867,0" transform="translate(-84.414 -183.293)" fill="#141774"/>
        <path id="Path_30207" data-name="Path 30207" d="M130.433,301.621h10.159c.329,0,.659,0,.987.01.866.035,1.483.4,1.462,1.345s-.672,1.279-1.515,1.319c-.516.024-1.035.009-1.552.009q-9.806,0-19.612,0c-.423,0-.956.145-1.245-.056-.507-.351-1.113-.88-1.2-1.409-.051-.328.741-.869,1.242-1.17.278-.168.735-.047,1.111-.047q5.08,0,10.159,0" transform="translate(-84.588 -216.333)" fill="#141774"/>
        <path id="Path_30208" data-name="Path 30208" d="M130.2,281.333q-5.291,0-10.581,0c-.953,0-1.9-.1-1.934-1.313s.912-1.37,1.871-1.37q10.723,0,21.445,0c.96,0,1.9.148,1.864,1.377-.037,1.213-.989,1.308-1.942,1.306q-5.361-.007-10.722,0" transform="translate(-84.416 -199.886)" fill="#141774"/>
      </g>
    </g>
  </g>
</svg>
