<svg xmlns="http://www.w3.org/2000/svg" xmlns:xlink="http://www.w3.org/1999/xlink" width="180" height="180" viewBox="0 0 180 180">
  <defs>
    <clipPath id="clip-path">
      <rect id="Rectangle_562" data-name="Rectangle 562" width="100.215" height="100.131" fill="#141774"/>
    </clipPath>
  </defs>
  <g id="Collaborate_Negotiate" data-name="Collaborate &amp; Negotiate" transform="translate(-661 -4403)">
    <g id="Ellipse_11" data-name="Ellipse 11" transform="translate(661 4403)" fill="none" stroke="#141774" stroke-width="3">
      <circle cx="90" cy="90" r="90" stroke="none"/>
      <circle cx="90" cy="90" r="88.5" fill="none"/>
    </g>
    <g id="Group_6596" data-name="Group 6596" transform="translate(701.064 4442.779)">
      <g id="Group_6595" data-name="Group 6595" clip-path="url(#clip-path)">
        <path id="Path_30145" data-name="Path 30145" d="M66.351,85.571c-.465,2.544-1.676,4.271-4.3,4.745-.289.052-.625.541-.714.886a4.986,4.986,0,0,1-4.646,4.027c-.08.287-.168.6-.255.917a5.047,5.047,0,0,1-8.345,2.667,2.464,2.464,0,0,0-2.9-.6c-2.6,1.005-5.346-.744-6.285-3.621a1.855,1.855,0,0,0-1.021-1.1,5.293,5.293,0,0,1-3.871-3.932c-.092-.309-.341-.749-.59-.805a5.378,5.378,0,0,1-4.394-4.8c-2.579-.439-4.257-1.778-4.724-4.429a1.509,1.509,0,0,0-.677-.84c-1.3-.825-2.637-1.6-3.952-2.386A3.779,3.779,0,0,1,15.5,77.34c-4.813-1.585-9.611-3.216-14.424-4.8A1.264,1.264,0,0,1,0,71.135c.037-10.6.025-21.192.029-31.788a6.148,6.148,0,0,1,.08-.617c2.278.1,4.6-.669,6.781.855,1.38.966,2.973,1.628,4.35,2.6a4.33,4.33,0,0,0,4.44.637c.657-.266,1.364-.408,2.307-.682a8.658,8.658,0,0,0-.934-1.2,10.928,10.928,0,0,1-4.072-8.775,23.726,23.726,0,0,1,.886-7.4c1.585-4.38,5.137-6.6,9.751-7.094.286-.03.574-.051.86-.083.04,0,.075-.046.187-.118-.412-1.006-.893-2.008-1.216-3.059a1.642,1.642,0,0,1,.2-1.368c2.568-2.693,5.2-5.327,7.887-8.054,1.43.922,2.788,1.737,4.075,2.651A1.741,1.741,0,0,0,37.7,7.8c1.279-.662,2.692-1.066,3.98-1.714a2.506,2.506,0,0,0,1.208-1.335c.444-1.525.7-3.1,1.043-4.747H56.263c.329,1.532.6,3.138,1.052,4.692a2.5,2.5,0,0,0,1.173,1.364,31.1,31.1,0,0,0,4.137,1.717,2.481,2.481,0,0,0,1.783-.082c1.394-.762,2.693-1.7,4.349-2.771L73.579,10c.1.105.2.207.3.311,1.016,1.033,2.579,1.926,2.891,3.14.3,1.163-.7,2.66-1.154,4.094,6.129.463,10.273,3.641,11.393,9.738C88.026,32.8,87.364,38.126,82,41.834l.432.373c1.323.353,2.65.693,3.968,1.063,1.392.39,2.767.847,4.168,1.193a2.269,2.269,0,0,0,1.347-.137,14.866,14.866,0,0,0,2.562-1.347c1.725-1.19,3.609-1.134,5.634-.941.027.457.075.879.075,1.3,0,6.967-.025,13.935.033,20.9a1.873,1.873,0,0,1-1.272,1.948c-8.866,4.4-17.71,8.843-26.573,13.25a2.086,2.086,0,0,0-1.345,1.787c-.374,2.555-2.035,3.957-4.674,4.346m30.591-40.1c-.583.264-.976.419-1.347.614-9.182,4.833-18.375,9.646-27.53,14.531a5.863,5.863,0,0,1-4.468.452c-2.887-.767-5.746-1.644-8.615-2.48a8.236,8.236,0,0,0-6.33.407c-2.747,1.413-5.528,2.76-8.279,4.165a2.436,2.436,0,0,0-1.259,3.477c.659,1.153,1.993,1.4,3.4.577,1.584-.926,3.14-1.9,4.717-2.838,3.73-2.218,6.169-1.963,9.429.973,4.057,3.654,8.1,7.322,12.192,10.94.383.339,1.194.664,1.555.485q12.919-6.369,25.762-12.893A1.62,1.62,0,0,0,96.91,62.7c.048-5.655.033-11.311.033-17.224M55.983,74.611c2.9,2.411,5.67,4.736,8.467,7.028,1.122.919,2.262.922,2.955.03.847-1.091.344-1.981-.529-2.767Q60.463,73.131,54.04,67.369c-1.624-1.45-2.828-1.556-4.737-.449-1.8,1.041-3.558,2.141-5.342,3.2a5.408,5.408,0,0,1-8.35-4.353,5.338,5.338,0,0,1,3.108-5.429c2.522-1.294,5.065-2.545,7.817-3.924-3.1-1.117-5.994-1.973-9.011-1.447-3.991.7-7.945,1.613-11.9,2.5a1.721,1.721,0,0,0-1.135.905C23.073,63.174,21.731,68,20.348,72.9l4.976,2.977c1.162-1.208,2.2-2.423,3.38-3.485a4.943,4.943,0,0,1,8.258,2.422,1.373,1.373,0,0,0,1.149,1.212,4.816,4.816,0,0,1,3.764,3.789,1.477,1.477,0,0,0,.836.956,5.176,5.176,0,0,1,4.162,4.6c2.438.807,2.371.872,4.339,2.921a30.46,30.46,0,0,0,3.9,3.234,1.743,1.743,0,0,0,2.687-.262c.683-.962.282-1.83-.571-2.522q-.282-.229-.559-.461L49.076,81.94l2.04-2.457c.355.28.617.477.868.685,2.566,2.13,5.115,4.282,7.7,6.382a1.969,1.969,0,0,0,2.954-.106c.766-1.1.184-1.907-.657-2.618S60.27,82.412,59.418,81.7c-1.808-1.514-3.611-3.034-5.478-4.6l2.043-2.484M66.244,58.283c0-2.4.021-4.369-.006-6.337a4.842,4.842,0,0,0-3.778-4.868c-1.77-.473-3.555-.894-5.341-1.306-3.8-.878-3.78-.87-3.8-4.757a2,2,0,0,1,1.052-1.991A7.258,7.258,0,0,0,58.024,33.4,27.133,27.133,0,0,0,58,28.04a8.157,8.157,0,0,0-7.916-7.1,7.932,7.932,0,0,0-7.961,7.607c-.073,1.4-.053,2.8-.009,4.2a6.567,6.567,0,0,0,2.873,5.592,3.821,3.821,0,0,1,1.88,4.2,3.023,3.023,0,0,0,0,.868c.212,1.188-.409,1.567-1.467,1.8-2.545.553-5.07,1.2-7.592,1.849a4.517,4.517,0,0,0-3.649,5.121,7.083,7.083,0,0,1,.972-.14c2.64-.024,5.391-.515,7.9.052,6.057,1.369,12,3.246,17.993,4.895,1.638.451,3.3.823,5.213,1.3M69.5,56.15l17.715-9.328c-1.613-.406-2.846-.744-4.092-1.025-4.012-.906-4.046-.9-3.881-5.062a2.309,2.309,0,0,1,.889-1.573,7.826,7.826,0,0,0,3.72-5.619,25.007,25.007,0,0,0,0-5.5A8.114,8.114,0,0,0,75.8,20.955a7.9,7.9,0,0,0-7.832,7.724c-.054,1.351-.035,2.707,0,4.059a6.409,6.409,0,0,0,2.752,5.494A4.172,4.172,0,0,1,72.742,42.8a3.426,3.426,0,0,0,0,.869c.135.921-.336,1.279-1.17,1.456-1.394.3-2.77.67-4.452,1.085,3.017,2.822,2.146,6.378,2.377,9.936M33,46.2c-.726-.183-1.19-.309-1.658-.416-3.909-.884-3.888-.883-3.887-4.837a1.922,1.922,0,0,1,1-1.876,7.689,7.689,0,0,0,3.814-6.9c-.006-1.209.021-2.421-.054-3.627a8.215,8.215,0,0,0-7.9-7.609,7.958,7.958,0,0,0-8.03,7.546,41.257,41.257,0,0,0-.011,4.35,6.4,6.4,0,0,0,2.721,5.373A4.158,4.158,0,0,1,21,42.78a.95.95,0,0,0,0,.29c.261,1.367-.286,2.065-1.69,2.171a11.343,11.343,0,0,0-1.862.51,64.937,64.937,0,0,0,5.724,3.305c2.121.956,3.21,2.276,2.686,4.652-.016.071.079.165.171.342l4.749-1.1A8.617,8.617,0,0,1,33,46.2M43.81,41.939c-.4-.441-.717-.761-1-1.1a29.208,29.208,0,0,1-2.388-2.888c-2.015-3.124-1.8-6.65-1.536-10.124a11.12,11.12,0,0,1,8.142-9.7A11.382,11.382,0,0,1,59.113,22.3c3.18,4.085,3.711,14.608-1.883,18.684-.781.569-.971,1.063.154,1.49a15.284,15.284,0,0,0,11.257.015c.894-.341,1.1-.744.324-1.406-5.274-4.526-4.947-10.261-3.54-16.248a2.349,2.349,0,0,0-.088-1.584c-3.465-5.69-8.591-8.732-15.219-8.731-6.685,0-11.844,3.064-15.309,8.829a2.063,2.063,0,0,0-.17,1.457c1.682,6.054,1.846,11.763-3.457,16.337-.543.468-.664.932.2,1.267a14.834,14.834,0,0,0,12.428-.475M46.589,3.216c-.333,1.515-.583,2.945-.991,4.328a2.037,2.037,0,0,1-1.061,1.08c-2.331,1.029-4.721,1.924-7.034,2.988a1.521,1.521,0,0,1-1.8-.039c-1.166-.837-2.4-1.576-3.743-2.442-1.533,1.576-3.043,3.071-4.466,4.644a1.8,1.8,0,0,0-.223,1.358c.561,2.895,2.647,4.5,5.049,5.815a21.191,21.191,0,0,1,35.549-.1c1.137-.714,2.544-1.211,3.342-2.2A17.048,17.048,0,0,0,73.158,14.5c.059-.138-.136-.447-.288-.6-1.55-1.584-3.115-3.153-4.692-4.742-1.249.815-2.411,1.51-3.5,2.307a1.723,1.723,0,0,1-2.053.113c-2.258-1.068-4.614-1.926-6.9-2.947A2.219,2.219,0,0,1,54.6,7.455c-.42-1.37-.661-2.794-.982-4.239ZM3.27,41.777c0,9.371-.005,18.362.024,27.353a1.109,1.109,0,0,0,.552.848C5.909,70.723,8,71.4,10.035,72.082a2.019,2.019,0,0,0,.252-.388C12.146,64.3,14.014,56.911,15.813,49.5a1.6,1.6,0,0,0-.682-1.3c-3.264-1.976-6.566-3.893-9.878-5.787a11.276,11.276,0,0,0-1.983-.643m15.68,8.7-5.675,22.7L16.49,74.2c.17-.431.3-.691.376-.966,1.669-5.838,3.354-11.672,4.988-17.521.881-3.151.841-3.162-1.975-4.757-.246-.139-.5-.26-.93-.479M39.117,90.312c.184-.042.493-.018.641-.161a40.581,40.581,0,0,0,3.6-3.694,1.955,1.955,0,0,0-.342-1.891,2.183,2.183,0,0,0-2.044-.272,19.155,19.155,0,0,0-3.519,3.574c-.789,1.072.245,2.489,1.659,2.445m-9.758-9.674c.126-.021.446.023.587-.115a50.338,50.338,0,0,0,3.8-3.912c.246-.3-.039-1.426-.43-1.755a2.059,2.059,0,0,0-1.9-.32,21.337,21.337,0,0,0-3.607,3.513,1.683,1.683,0,0,0,1.544,2.588m19.279,9.876c-.4-.5-.7-1.257-1.2-1.429a2.434,2.434,0,0,0-1.962.274,22.09,22.09,0,0,0-2.8,2.711,1.788,1.788,0,1,0,2.52,2.532c.919-.852,1.8-1.744,2.65-2.668a7.752,7.752,0,0,0,.794-1.42m-9.73-9.8c-.382-.47-.68-1.187-1.144-1.319a2.548,2.548,0,0,0-1.984.26,22.083,22.083,0,0,0-2.884,2.834,1.657,1.657,0,0,0,0,2.464,1.634,1.634,0,0,0,2.459.059c1-.9,1.953-1.867,2.865-2.861a6.084,6.084,0,0,0,.69-1.437m10.22,14.647c.841.889,1.645,1.853,2.962,1.346a2.021,2.021,0,0,0,1.1-1.316c.219-1.393-.949-1.915-1.856-2.559l-2.206,2.529" transform="translate(-0.001)" fill="#141774"/>
      </g>
    </g>
  </g>
</svg>
