<svg xmlns="http://www.w3.org/2000/svg" xmlns:xlink="http://www.w3.org/1999/xlink" width="180" height="180" viewBox="0 0 180 180">
  <defs>
    <clipPath id="clip-path">
      <rect id="Rectangle_594" data-name="Rectangle 594" width="89.582" height="89.627" fill="#141774"/>
    </clipPath>
  </defs>
  <g id="Configurable_Workflows" data-name="Configurable Workflows" transform="translate(-1091 -6645)">
    <g id="Ellipse_12" data-name="Ellipse 12" transform="translate(1091 6645)" fill="none" stroke="#141774" stroke-width="3">
      <circle cx="90" cy="90" r="90" stroke="none"/>
      <circle cx="90" cy="90" r="88.5" fill="none"/>
    </g>
    <g id="Group_6633" data-name="Group 6633" transform="translate(1135 6702.373)">
      <g id="Group_6632" data-name="Group 6632" transform="translate(1 -10)" clip-path="url(#clip-path)">
        <path id="Path_30286" data-name="Path 30286" d="M60.233,72.673V70.249a1.392,1.392,0,0,1,.385-.188c2.4-.2,2.4-.2,2.4,2.222q0,7.531,0,15.062c0,1.908-.376,2.28-2.273,2.281q-29.265,0-58.531,0C.374,89.625,0,89.259,0,87.443Q0,44.79,0,2.135C0,.4.4,0,2.132,0q29.33,0,58.661,0c1.82,0,2.223.393,2.225,2.2q.009,8.83,0,17.659c0,.34-.03.68-.049,1.1H60.247V14.1H2.951v58.57ZM60.2,75.68H2.951V86.665H60.2ZM2.912,11.075H60.16V2.927H2.912Z" transform="translate(0 0)" fill="#141774"/>
        <path id="Path_30287" data-name="Path 30287" d="M165.83,87.916H136.586v2.369q0,5.454,0,10.908c0,1.639-.457,2.118-2.045,2.122q-5.646.016-11.292,0c-1.586,0-2.011-.429-2.014-1.989-.007-4.413,0-8.826,0-13.36h-8.419V94.74H110.02c0-.928,0-1.9,0-2.871,0-1.688.02-3.377-.005-5.064-.018-1.2.531-1.727,1.731-1.714,2.6.028,5.191.008,7.787.008h46.854c2.161,0,2.392.229,2.392,2.365q0,19.349,0,38.7c0,1.971-.385,2.362-2.332,2.362q-23.362,0-46.725,0h-1.233v-2.773H165.83Zm-32.156.01H124.1v12.489h9.575Z" transform="translate(-79.199 -61.257)" fill="#141774"/>
        <path id="Path_30288" data-name="Path 30288" d="M20.089,138.161a18.2,18.2,0,1,1,18.022,18.17,18.222,18.222,0,0,1-18.022-18.17m33.57-.094A15.412,15.412,0,1,0,38.37,153.549a15.52,15.52,0,0,0,15.289-15.482" transform="translate(-14.462 -86.301)" fill="#141774"/>
        <rect id="Rectangle_587" data-name="Rectangle 587" width="18.031" height="2.662" transform="translate(65.848 53.308)" fill="#141774"/>
        <rect id="Rectangle_588" data-name="Rectangle 588" width="18.062" height="2.648" transform="translate(65.819 58.862)" fill="#141774"/>
        <rect id="Rectangle_589" data-name="Rectangle 589" width="12.499" height="2.675" transform="translate(65.822 47.662)" fill="#141774"/>
        <rect id="Rectangle_590" data-name="Rectangle 590" width="18.068" height="2.665" transform="translate(22.428 79.874)" fill="#141774"/>
        <rect id="Rectangle_591" data-name="Rectangle 591" width="18.053" height="2.534" transform="translate(22.435 5.746)" fill="#141774"/>
        <rect id="Rectangle_592" data-name="Rectangle 592" width="2.703" height="2.602" transform="translate(43.45 5.71)" fill="#141774"/>
        <rect id="Rectangle_593" data-name="Rectangle 593" width="2.62" height="2.555" transform="translate(16.932 5.711)" fill="#141774"/>
        <path id="Path_30289" data-name="Path 30289" d="M46.714,161.221c3.556-3.573,6.94-6.977,10.329-10.377,1.424-1.428,1.955-1.418,3.412.04.886.887,1.764,1.783,2.659,2.661a1.453,1.453,0,0,1,.037,2.353q-7.618,7.615-15.231,15.235a1.464,1.464,0,0,1-2.359-.049q-3.982-4-7.981-7.987a1.484,1.484,0,0,1,.025-2.372q1.609-1.605,3.213-3.214a1.465,1.465,0,0,1,2.365.037c1.142,1.18,2.277,2.368,3.532,3.674m11.865-8.231a12.611,12.611,0,0,1-.952,1.25q-4.7,4.739-9.438,9.451c-1.128,1.123-1.723,1.135-2.83,0-1.078-1.107-2.1-2.27-3.155-3.421l-1.555,1.5,6,6.188,13.509-13.432-1.583-1.536" transform="translate(-26.635 -107.827)" fill="#141774"/>
      </g>
    </g>
  </g>
</svg>
