<svg xmlns="http://www.w3.org/2000/svg" xmlns:xlink="http://www.w3.org/1999/xlink" width="180" height="180" viewBox="0 0 180 180">
  <defs>
    <clipPath id="clip-path">
      <rect id="Rectangle_586" data-name="Rectangle 586" width="87.38" height="87.109" fill="#141774"/>
    </clipPath>
  </defs>
  <g id="Configurable_Templates" data-name="Configurable Templates" transform="translate(-661 -6645)">
    <g id="Ellipse_11" data-name="Ellipse 11" transform="translate(661 6645)" fill="none" stroke="#141774" stroke-width="3">
      <circle cx="90" cy="90" r="90" stroke="none"/>
      <circle cx="90" cy="90" r="88.5" fill="none"/>
    </g>
    <g id="Group_6631" data-name="Group 6631" transform="translate(707.311 6695.391)">
      <g id="Group_6630" data-name="Group 6630" clip-path="url(#clip-path)">
        <path id="Path_30282" data-name="Path 30282" d="M166.211,0c4.851,0,9.7-.012,14.552,0,3.35.011,5.416,2.086,5.42,5.455q.017,14.552,0,29.1a5.239,5.239,0,0,1-5.577,5.555q-14.39.031-28.781,0a5.44,5.44,0,0,1-5.758-5.8q-.022-14.309,0-28.618c.005-3.556,2.181-5.7,5.754-5.7q7.2-.012,14.39,0M149.659,33.521l-.467.207c.516.9.831,2.069,1.6,2.627,1.15.84,3.8.182,4.844-.861L181.55,9.567a5.408,5.408,0,0,0,1.014-5.031,2.008,2.008,0,0,0-.867-.893,5.46,5.46,0,0,0-5.04.966q-12.906,12.9-25.83,25.787a3.053,3.053,0,0,0-1.167,3.123m33.05-19.326-22.484,22.4c2.54,0,5.341.04,8.14-.033a2.707,2.707,0,0,0,1.664-.721q6-5.89,11.9-11.871c.324-.327.737-.774.746-1.173.063-2.994.034-5.989.034-8.6M172.458,3.483c-3.073,0-6.07-.022-9.065.029a1.891,1.891,0,0,0-1.054.644q-6.079,6.037-12.119,12.115a1.839,1.839,0,0,0-.591,1.078c-.048,2.988-.027,5.977-.027,9.022L172.458,3.483M149.6,11.1l7.734-7.624c-1.855,0-3.887-.027-5.917.01-1.266.023-1.8.833-1.81,2.005-.024,1.978-.006,3.957-.006,5.609m25.067,25.467c2.172,0,4.31.1,6.429-.065a2.1,2.1,0,0,0,1.5-1.352c.168-2.162.071-4.344.071-6.5l-8,7.92" transform="translate(-98.811 0)" fill="#141774"/>
        <path id="Path_30283" data-name="Path 30283" d="M40.865,43.566q0,18.683,0,37.365c0,4.158-1.993,6.173-6.1,6.174q-14.153,0-28.307,0c-3.7,0-5.711-1.987-5.711-5.656Q.735,52.494.74,23.54c0-.377-.138-.869.046-1.109.446-.58,1.032-1.426,1.585-1.444S3.706,21.7,4.064,22.3a4.074,4.074,0,0,1,.129,1.9q.006,28.145,0,56.29c0,2.937.213,3.153,3.11,3.153q13.587,0,27.175,0c2.445,0,2.846-.4,2.846-2.8q0-37.284,0-74.568c0-2.413-.4-2.814-2.83-2.815q-13.749-.008-27.5,0c-2.477,0-2.786.325-2.8,2.812a7.136,7.136,0,0,1-.115,2.557,2.776,2.776,0,0,1-1.734,1.475C1.4,10.49.768,9.74.755,8.71A42.953,42.953,0,0,1,.8,4.346,5.022,5.022,0,0,1,5.992.011C12.57-.008,19.148,0,25.726,0q4.529,0,9.058,0c4.034,0,6.078,2.027,6.079,6.035q.005,18.764,0,37.527" transform="translate(-0.467 0)" fill="#141774"/>
        <path id="Path_30284" data-name="Path 30284" d="M186.187,165.319q0,7.195,0,14.39c-.006,3.594-2.015,5.642-5.559,5.645q-14.471.013-28.942,0c-3.445,0-5.612-2.185-5.617-5.677q-.022-14.31,0-28.619c.005-3.582,2.275-5.818,5.9-5.822q14.228-.016,28.457,0c3.65,0,5.762,2.162,5.767,5.854q.009,7.114,0,14.228m-3.458.108c0-4.689.009-9.378,0-14.067-.006-2.107-.483-2.587-2.564-2.589q-13.986-.011-27.973,0c-2.013,0-2.587.577-2.589,2.592q-.01,13.986,0,27.972c0,2.077.485,2.559,2.593,2.561q13.986.014,27.972,0c2.16,0,2.554-.4,2.56-2.563.013-4.635,0-9.27,0-13.905" transform="translate(-98.811 -98.251)" fill="#141774"/>
        <path id="Path_30285" data-name="Path 30285" d="M0,45.219c.364-1.5,1.036-2.212,2.059-1.933a2.563,2.563,0,0,1,1.553,1.623,1.409,1.409,0,0,1-1.658,1.674c-.7-.1-1.306-.885-1.954-1.364" transform="translate(0 -29.244)" fill="#141774"/>
      </g>
    </g>
  </g>
</svg>
