<svg xmlns="http://www.w3.org/2000/svg" xmlns:xlink="http://www.w3.org/1999/xlink" width="180" height="180" viewBox="0 0 180 180">
  <defs>
    <clipPath id="clip-path">
      <rect id="Rectangle_548" data-name="Rectangle 548" width="81.745" height="92.084" fill="#141774"/>
    </clipPath>
  </defs>
  <g id="Convert_Solicitations_to" data-name="Convert Solicitations to" transform="translate(-1091 -3621)">
    <g id="Group_6590" data-name="Group 6590">
      <g id="Ellipse_445" data-name="Ellipse 445" transform="translate(1091 3621)" fill="none" stroke="#141774" stroke-width="3">
        <circle cx="90" cy="90" r="90" stroke="none"/>
        <circle cx="90" cy="90" r="88.5" fill="none"/>
      </g>
      <g id="Group_6589" data-name="Group 6589" transform="translate(1144.57 3667.148)">
        <g id="Group_6588" data-name="Group 6588" clip-path="url(#clip-path)">
          <path id="Path_30126" data-name="Path 30126" d="M100.016,198.459c1.078,1.82,1.322,3.635.1,5.421-1.295,1.9-3.181,2.231-5.27,1.79-1.137,3.068-2.2,3.815-5.564,3.968-1.55,3.714-3.275,4.616-6.588,3.672a19.141,19.141,0,0,1-2.712,3.079,3.976,3.976,0,0,1-4.422.069c-1.09-.591-2.144-1.248-3.2-1.866-2.745,2.143-5.673,2.3-7.906-1.212-3.72.378-4.929-.275-6.336-3.489a4.73,4.73,0,0,1-5.092-3.727c-2.35.042-4.114-.845-5-3.16-.9-2.366.69-4.013,1.973-6.141-.717.212-1.036.278-1.332.4a5.484,5.484,0,0,1-5.107-.34c-.88-.517-1.775-1.012-2.624-1.575a2.853,2.853,0,0,1-1.032-4.051q5.656-9.651,11.392-19.255a2.892,2.892,0,0,1,4.241-1.08c.893.494,1.759,1.035,2.633,1.561a5.686,5.686,0,0,1,2.715,4.63c.053.49.515,1.276.88,1.331a12.654,12.654,0,0,0,3.623.057,11.568,11.568,0,0,0,2.739-1,6.147,6.147,0,0,1,5.633.4,2.835,2.835,0,0,0,2.615.263c.285-.113.619-.1.9-.214a10.246,10.246,0,0,1,8.738.4,12.99,12.99,0,0,0,3.4.642c-.049-.826-.086-1.262-.1-1.7a5.032,5.032,0,0,1,2.239-4.574,33.753,33.753,0,0,1,3.205-1.9,2.794,2.794,0,0,1,3.94,1.029q5.812,9.712,11.528,19.483a2.567,2.567,0,0,1-.547,3.5,44.152,44.152,0,0,1-5.249,2.748,2.206,2.206,0,0,1-1.43.022,2.759,2.759,0,0,0-3,.81M73.942,212.327c.88.531,1.769,1.1,2.693,1.613a1.827,1.827,0,1,0,1.886-3.109,14.528,14.528,0,0,1-2.355-1.479,2.136,2.136,0,0,1-.493-1.8c.235-.765,1.04-.873,1.788-.5.358.176.7.393,1.039.6,1.68.994,3.343,2.019,5.045,2.976a1.782,1.782,0,0,0,2.577-.539,1.829,1.829,0,0,0-.753-2.615c-.259-.171-.533-.32-.8-.478-1.794-1.061-3.593-2.114-5.38-3.188-.782-.47-1.4-1.069-.765-2.046.6-.925,1.4-.756,2.2-.26.151.093.3.194.451.284,2.711,1.6,5.412,3.222,8.14,4.8a1.813,1.813,0,1,0,1.868-3.1c-.813-.539-1.67-1.011-2.508-1.51-2.1-1.248-4.2-2.484-6.29-3.746-.714-.431-1.153-1.03-.655-1.881.477-.816,1.2-.8,1.972-.466a6.706,6.706,0,0,1,.688.4q5.328,3.152,10.656,6.3c1.371.809,2.392.68,3-.354s.244-1.918-1.169-2.794c-.113-.07-.221-.149-.335-.217q-7.962-4.708-15.926-9.413c-.325-.192-.669-.35-1.033-.539a6.081,6.081,0,0,1-5.232,3.936c-1.625.147-3.25-.822-3.229-2.283.052-3.565-.988-7.284,1.261-10.611-1.553-.96-2.991-.408-4.363.209-2.756,1.239-5.487,1.728-8.263-.006l-8.573,14.485a14.423,14.423,0,0,1,3.873-.268,14.571,14.571,0,0,1,3.434,1.774c3.152-1.915,5.453-1.291,7.275,2.133a1.637,1.637,0,0,0,1.137.539,4.57,4.57,0,0,1,4.181,4.417c.01.562-.046,1.125-.07,1.655,3.488,1.705,4.149,3.246,3.028,7.092m-.276-21.958a3.083,3.083,0,0,0,3.388-2.861c.285-2,.982-2.34,2.742-1.3,5.383,3.183,10.793,6.321,16.121,9.593,1.331.817,2.295.8,3.375-.356-1.36-2.3-2.721-4.632-4.116-6.946-.532-.883-.874-1.768.222-2.4,1.041-.6,1.622.151,2.107.976,1.259,2.142,2.515,4.286,3.8,6.412.811,1.339,1.975,1.875,3.249,1.33a36.363,36.363,0,0,0,3.451-1.927L96.274,173.083a37.582,37.582,0,0,0-3.35,2.108,2.271,2.271,0,0,0-.626,3,26.778,26.778,0,0,0,1.374,2.43c.533.842.806,1.69-.177,2.316-1.013.644-1.6-.059-2.149-.862-.226-.33-.762-.766-1.037-.694-2.288.6-4.353.015-6.465-.829a7.838,7.838,0,0,0-3.458-.516,23.733,23.733,0,0,0-4.123,1,3.249,3.249,0,0,0-2.576,2.882c-.075,2.123-.02,4.25-.02,6.452m-31.559,2.5c1.05.632,1.938,1.214,2.869,1.717a2.608,2.608,0,0,0,3.774-1.015c.7-1.128,1.359-2.288,2.037-3.433,2.236-3.777,4.484-7.547,6.705-11.332.914-1.559.767-2.9-.468-3.775-.965-.686-2.027-1.236-3.2-1.936L42.107,192.87M62.9,210.834c.222-.111.788-.217,1.046-.556,1.421-1.873,2.82-3.767,4.112-5.73a1.612,1.612,0,0,0-.6-2.326,1.58,1.58,0,0,0-2.279.3c-1.407,1.827-2.782,3.687-4.037,5.621-.768,1.183.135,2.657,1.759,2.7m.441-11.065c-.5-.492-.952-1.295-1.519-1.39a2.538,2.538,0,0,0-2.023.725c-1.286,1.522-2.393,3.2-3.537,4.836-.778,1.113-.678,2.21.193,2.829.933.663,1.908.446,2.74-.68q1.741-2.357,3.41-4.766a11.727,11.727,0,0,0,.735-1.553m-9.516-2.462a2.751,2.751,0,0,0-.991.565,26.476,26.476,0,0,0-2.036,2.8,1.652,1.652,0,0,0,.466,2.36,1.6,1.6,0,0,0,2.379-.215,19.021,19.021,0,0,0,2.089-2.916c.7-1.222-.219-2.611-1.907-2.588M72.2,209.918c-.62-.742-.957-1.493-1.5-1.7a2.262,2.262,0,0,0-1.9.3,5.4,5.4,0,0,0-1.629,2.22,2.408,2.408,0,0,0,.323,2.034c.339.405,1.541.677,1.847.413a28.738,28.738,0,0,0,2.86-3.267" transform="translate(-28.934 -125.01)" fill="#141774"/>
          <path id="Path_30127" data-name="Path 30127" d="M63.347,18.1c-2.874,0-5.575.022-8.276-.006a6.8,6.8,0,0,1-6.738-4.672,8.566,8.566,0,0,1-.38-2.612c-.047-2.655-.017-5.31-.017-8.05-.57-.029-1-.069-1.433-.069q-19.4,0-38.8,0c-3.334,0-4.937,1.564-4.937,4.865q-.01,35.14,0,70.28c0,3.225,1.6,4.791,4.865,4.8,4,.01,8,0,12,0,.311,0,.622.006.933,0,.937-.018,1.746.2,1.75,1.331s-.784,1.369-1.729,1.368c-4.355,0-8.711,0-13.066-.006A10.7,10.7,0,0,1,5.8,85.208,6.791,6.791,0,0,1,.069,79.072C.025,78.63.013,78.184.013,77.74Q.009,42.667,0,7.594C0,4.462,1.144,2.033,4.039.69A7.592,7.592,0,0,1,7.125.034C20.5-.008,33.879.01,47.257,0a5.961,5.961,0,0,1,4.421,1.825q6.255,6.283,12.535,12.542a6.155,6.155,0,0,1,1.848,4.556q0,10.935-.006,21.871c0,.393.055.92-.163,1.148a2.322,2.322,0,0,1-1.447.828c-.374-.015-.81-.664-1.049-1.119a2.792,2.792,0,0,1-.049-1.184q0-10.335,0-20.67c0-.484,0-.967,0-1.7M50.683,4.945c0,2.346-.086,4.552.029,6.748a3.284,3.284,0,0,0,2.5,3.272,77.18,77.18,0,0,0,8.008.571L50.683,4.945" transform="translate(0 -0.001)" fill="#141774"/>
          <path id="Path_30128" data-name="Path 30128" d="M59.684,95.549H38.757c-.4,0-.905.136-1.175-.055-.484-.342-1.089-.856-1.142-1.352-.04-.375.651-.9,1.113-1.228.242-.17.69-.053,1.045-.053q21.127,0,42.253,0c.4,0,.91-.126,1.173.07a2.311,2.311,0,0,1,1,1.33c.028.388-.542.937-.976,1.2-.33.2-.864.083-1.307.083q-10.53,0-21.06,0" transform="translate(-26.723 -68.075)" fill="#141774"/>
          <path id="Path_30129" data-name="Path 30129" d="M59.556,126.737q-10.463,0-20.926,0c-.4,0-.884.118-1.178-.064-.441-.273-1.009-.742-1.042-1.165s.444-1,.852-1.305c.3-.224.851-.148,1.29-.148q21.192-.009,42.385,0c.4,0,.921-.094,1.162.115a2.3,2.3,0,0,1,.9,1.4c0,.381-.62.854-1.066,1.111-.3.175-.781.055-1.181.055H59.556" transform="translate(-26.702 -90.965)" fill="#141774"/>
          <path id="Path_30130" data-name="Path 30130" d="M48.585,60.428l-10.779,0c-.934,0-1.608-.43-1.6-1.389.012-.883.652-1.306,1.533-1.314.4,0,.8-.008,1.2-.008h18.63c.532,0,1.065,0,1.6,0,.935.009,1.731.248,1.7,1.384s-.85,1.327-1.771,1.327q-5.256,0-10.513,0" transform="translate(-26.557 -42.328)" fill="#141774"/>
        </g>
      </g>
    </g>
  </g>
</svg>
