<svg xmlns="http://www.w3.org/2000/svg" xmlns:xlink="http://www.w3.org/1999/xlink" width="180" height="180" viewBox="0 0 180 180">
  <defs>
    <clipPath id="clip-path">
      <rect id="Rectangle_575" data-name="Rectangle 575" width="90.884" height="90.551" fill="#141774"/>
    </clipPath>
  </defs>
  <g id="Document_Version_Tracking" data-name="Document Version Tracking" transform="translate(-227 -5890)">
    <g id="Ellipse_444" data-name="Ellipse 444" transform="translate(227 5890)" fill="none" stroke="#141774" stroke-width="3">
      <circle cx="90" cy="90" r="90" stroke="none"/>
      <circle cx="90" cy="90" r="88.5" fill="none"/>
    </g>
    <g id="Group_6621" data-name="Group 6621" transform="translate(272.969 5934.006)">
      <g id="Group_6620" data-name="Group 6620" clip-path="url(#clip-path)">
        <path id="Path_30243" data-name="Path 30243" d="M18.325,14.275c.292-3.03.854-3.529,3.72-3.531a10.082,10.082,0,0,1,1.258.008,3,3,0,0,0,3.4-1.719c2.055-3.444,7.211-3.081,9.1.518a1.873,1.873,0,0,0,2.132,1.206,18.106,18.106,0,0,1,1.957-.013c3.137,0,3.474.285,3.975,3.519,2.189,0,4.414.042,6.633-.049.3-.013.679-.647.852-1.064C54.3,6.056,59.519,1.668,67.062.319A20.292,20.292,0,0,1,90.69,17.759a20.064,20.064,0,0,1-5.076,16.395,2.185,2.185,0,0,1-1.086.8c-.361.057-1.048-.23-1.126-.5A1.776,1.776,0,0,1,83.657,33a19.3,19.3,0,0,0,4.156-7.2,18.156,18.156,0,1,0-35.2-2.079,52.753,52.753,0,0,0,1.639,5.02,3.629,3.629,0,0,1,.063,1.95c-.477,1.588-1.114,3.129-1.752,4.867,2.067-.186,3.957-.414,5.853-.495a3.55,3.55,0,0,1,1.934.513,18.016,18.016,0,0,0,11.967,2.9c.231-.026.465-.031.7-.05.8-.064,1.54.164,1.407,1.061a1.793,1.793,0,0,1-1.2,1.162,19.247,19.247,0,0,1-9.5-.9c-.472-.162-.942-.331-1.591-.561v1.817q0,22.381,0,44.761c0,3.333-1.421,4.775-4.733,4.775q-26.363.006-52.727,0C1.457,90.546,0,89.074,0,85.841Q0,52.41,0,18.979c0-3.19,1.5-4.689,4.723-4.7,4.009-.014,8.019,0,12.028,0h1.572m.047,2.279c-4.542,0-8.92,0-13.3,0-2.383,0-2.818.443-2.818,2.863q0,33.013,0,66.027c0,2.477.356,2.836,2.819,2.836q26.015,0,52.031,0c2.419,0,2.766-.342,2.766-2.723q0-23.012,0-46.023c0-2.054-.39-2.382-2.5-2.174-2.04.2-4.079.419-6.123.555-1.365.091-1.784-.5-1.329-1.813A42.3,42.3,0,0,1,51.551,31.8a3.777,3.777,0,0,0-.045-3.783,7.188,7.188,0,0,1-.844-2.645c-.32-2.879-.516-5.771-.765-8.721H43.769c-.027.449-.038.814-.072,1.176a2.129,2.129,0,0,1-2.268,2.148q-10.35.034-20.7,0a2.161,2.161,0,0,1-2.287-2.141c-.037-.362-.041-.727-.07-1.278m23-3.383a2.141,2.141,0,0,0-.418-.131c-1.582-.012-3.166-.077-4.744-.006-1.209.055-1.885-.26-2.108-1.588A2.93,2.93,0,0,0,31.022,8.97a2.986,2.986,0,0,0-2.994,2.59,1.494,1.494,0,0,1-1.772,1.47c-1.8-.052-3.6-.014-5.448-.014v4.607H41.376Z" transform="translate(0 0)" fill="#141774"/>
        <path id="Path_30244" data-name="Path 30244" d="M225.093,24.154c6.238-.016,11.271,5.739,9.955,11.584a14.913,14.913,0,0,1-2.117,4.666c-2.274,3.513-4.709,6.923-7.113,10.351-.743,1.059-1.525,1.163-2.1.211-2.65-4.371-5.4-8.7-7.783-13.213-3.282-6.217,2.289-13.694,9.16-13.6m-.666,24.082.649.016c2.392-3.752,4.85-7.465,7.129-11.285a6.041,6.041,0,0,0,.712-3.331,7.808,7.808,0,0,0-10.787-6.644c-3.309,1.32-6.37,5.887-4.079,9.977,2.109,3.766,4.25,7.513,6.377,11.268" transform="translate(-154.832 -17.396)" fill="#141774"/>
        <path id="Path_30245" data-name="Path 30245" d="M279.993,127.99c.543.8,1.174,1.547,1.093,1.634a7.058,7.058,0,0,1-1.917,1.461c-.125.065-1.013-.884-.946-.992a17.452,17.452,0,0,1,1.769-2.1" transform="translate(-200.392 -92.187)" fill="#141774"/>
        <path id="Path_30246" data-name="Path 30246" d="M64.831,98.605c-3.682,0-7.365-.032-11.047.01-2.7.031-4.267,2.3-3.192,4.517a2.944,2.944,0,0,0,2.791,1.767c6.013.025,12.025.031,18.037-.016a1.613,1.613,0,0,0,1.063-.815,4.759,4.759,0,0,1,9.093,1.962,4.789,4.789,0,0,1-3.455,4.574,4.6,4.6,0,0,1-5.575-2.569,1.374,1.374,0,0,0-1.525-.845c-5.826.013-11.653.044-17.478-.009a5.38,5.38,0,0,1-5.185-7.342,5.553,5.553,0,0,1,5.525-3.494c7.085-.013,14.169,0,21.254-.01,2.143,0,3.416-1.126,3.461-2.985a2.876,2.876,0,0,0-2.848-3.158q-9.158-.09-18.317.01c-.4,0-.9.621-1.158,1.066a4.79,4.79,0,0,1-6.644,1.778,4.737,4.737,0,1,1,5.279-7.854A3.228,3.228,0,0,1,56.1,86.526c.415,1.307,1.291,1.4,2.449,1.391,5.732-.041,11.466-.026,17.2,0a4.877,4.877,0,0,1,4.691,3.165,5.164,5.164,0,0,1-.718,5.53A5.019,5.019,0,0,1,75.6,98.6c-3.589-.009-7.178,0-10.767,0ZM52.049,86.518A2.561,2.561,0,0,0,49.6,89.061a2.616,2.616,0,0,0,2.455,2.42,2.564,2.564,0,0,0,2.5-2.495,2.5,2.5,0,0,0-2.5-2.469m24.722,21.988a2.459,2.459,0,0,0,2.5-2.455,2.45,2.45,0,0,0-4.9-.083,2.435,2.435,0,0,0,2.4,2.538" transform="translate(-34.096 -60.676)" fill="#141774"/>
        <path id="Path_30247" data-name="Path 30247" d="M39.6,254.558c0,1.862-.03,3.724.011,5.584.026,1.192-.515,1.7-1.672,1.7q-5.654-.016-11.307,0c-1.1,0-1.594-.542-1.589-1.642q.024-5.654,0-11.309c0-1.1.479-1.612,1.6-1.605q5.653.033,11.307,0c1.194-.008,1.676.524,1.653,1.694-.036,1.861-.01,3.723-.01,5.584M27.393,259.5h9.848V249.59H27.393Z" transform="translate(-18.037 -178.107)" fill="#141774"/>
        <path id="Path_30248" data-name="Path 30248" d="M32.434,200.3c-1.912,0-3.824-.025-5.735.009-1.2.021-1.675-.526-1.668-1.7q.036-5.6,0-11.192c-.009-1.216.589-1.663,1.722-1.66q5.6.017,11.191,0c1.159,0,1.674.518,1.662,1.712-.036,3.684-.045,7.368,0,11.052.018,1.358-.577,1.823-1.859,1.786-1.77-.051-3.543-.013-5.315-.013m4.835-12.15H27.395v9.806h9.875Z" transform="translate(-18.029 -133.798)" fill="#141774"/>
        <path id="Path_30249" data-name="Path 30249" d="M101.312,221.19q6.641,0,13.282,0c.8,0,1.719-.054,1.678,1.126-.039,1.109-.919,1.136-1.734,1.137q-13.352.008-26.7,0a3.94,3.94,0,0,1-.419-.008c-.763-.081-1.517-.371-1.293-1.24a1.775,1.775,0,0,1,1.35-.972c3.306-.086,6.616-.046,9.925-.047h3.915" transform="translate(-62.001 -159.309)" fill="#141774"/>
        <path id="Path_30250" data-name="Path 30250" d="M101.111,284.628H87.824c-.8,0-1.739.089-1.744-1.064-.006-1.19.935-1.193,1.808-1.193q13.287,0,26.573,0c.187,0,.435-.074.549.018.449.361.854.775,1.276,1.169-.443.356-.876,1-1.331,1.02-2.747.1-5.5.049-8.25.049h-5.594" transform="translate(-62 -203.362)" fill="#141774"/>
        <path id="Path_30251" data-name="Path 30251" d="M97.228,261.96c-3.169,0-6.338.006-9.507,0-.813,0-1.711-.005-1.658-1.166.045-1,.841-1.111,1.626-1.111q9.577-.007,19.155,0c.8,0,1.577.16,1.6,1.146.027,1.035-.784,1.13-1.571,1.131q-4.823.009-9.647,0" transform="translate(-61.986 -187.036)" fill="#141774"/>
        <path id="Path_30252" data-name="Path 30252" d="M97.328,198.43c3.169,0,6.338,0,9.507,0,.8,0,1.593.085,1.6,1.1.007.986-.749,1.155-1.567,1.155q-9.647-.005-19.293,0c-.824,0-1.547-.184-1.524-1.191.022-.941.729-1.06,1.49-1.059q4.893.008,9.787,0" transform="translate(-61.979 -142.919)" fill="#141774"/>
        <path id="Path_30253" data-name="Path 30253" d="M238.09,42.249a5.086,5.086,0,1,1-5.06,5.059,5.1,5.1,0,0,1,5.06-5.059m2.849,5.178a2.794,2.794,0,0,0-2.746-2.9,2.846,2.846,0,0,0-2.883,2.784,2.9,2.9,0,0,0,2.7,2.837,2.823,2.823,0,0,0,2.926-2.725" transform="translate(-167.844 -30.43)" fill="#141774"/>
        <path id="Path_30254" data-name="Path 30254" d="M41.271,266.978a22.862,22.862,0,0,1,2.22-2.4c.347-.289,1.045-.155,1.584-.213.005.583.255,1.365-.029,1.712a30.827,30.827,0,0,1-3.141,3.171c-.258.236-.921.433-1.095.287A20.09,20.09,0,0,1,38.26,267c-.162-.194.058-.965.331-1.189a1.442,1.442,0,0,1,1.247-.062,7.273,7.273,0,0,1,1.432,1.225" transform="translate(-27.518 -190.409)" fill="#141774"/>
        <path id="Path_30255" data-name="Path 30255" d="M41.882,205.575a19.372,19.372,0,0,1,2.153-2.352c.387-.309,1.116-.188,1.691-.262-.045.614.137,1.408-.179,1.809a17.5,17.5,0,0,1-2.949,2.941,2.026,2.026,0,0,1-1.777-.008,4.071,4.071,0,0,1-1.554-1.554,4.511,4.511,0,0,1-.2-1.721,9.19,9.19,0,0,1,1.736.163c.313.086.543.476,1.079.984" transform="translate(-28.138 -146.185)" fill="#141774"/>
      </g>
    </g>
  </g>
</svg>
