<svg xmlns="http://www.w3.org/2000/svg" xmlns:xlink="http://www.w3.org/1999/xlink" width="180" height="180" viewBox="0 0 180 180">
  <defs>
    <clipPath id="clip-path">
      <rect id="Rectangle_577" data-name="Rectangle 577" width="96.791" height="96.693" fill="#141774"/>
    </clipPath>
  </defs>
  <g id="Intelligent_Automated" data-name="Intelligent Automated" transform="translate(-1091 -5890)">
    <g id="Ellipse_445" data-name="Ellipse 445" transform="translate(1091 5890)" fill="none" stroke="#141774" stroke-width="3">
      <circle cx="90" cy="90" r="90" stroke="none"/>
      <circle cx="90" cy="90" r="88.5" fill="none"/>
    </g>
    <g id="Group_6625" data-name="Group 6625" transform="translate(1136.213 5934.652)">
      <g id="Group_6624" data-name="Group 6624" clip-path="url(#clip-path)">
        <path id="Path_30264" data-name="Path 30264" d="M20.241,143.325c-.568-.636-1.189-1.021-1.283-1.507-.161-.836-.323-2.066.128-2.517a2.512,2.512,0,0,1,2.474-.132,36.029,36.029,0,0,1,5.045,5.075,2.838,2.838,0,0,1-.264,2.656,50.565,50.565,0,0,1-4.392,4.476c-.942.919-2.028,1.161-2.991.135-.89-.948-.633-1.969.235-2.864.318-.328.616-.675.807-.885a67.629,67.629,0,0,1-8.416-2.26C3.546,142.232-.965,133.965.2,125.168a19.187,19.187,0,0,1,16.156-16.232,58.421,58.421,0,0,1,6.79-.349c2.557-.056,5.116-.013,7.86-.013,0-1.935-.022-3.713,0-5.49.056-3.7,2.379-6.008,6.1-6.017q11.309-.026,22.617,0c3.736.008,6.088,2.3,6.117,6q.058,7.447,0,14.9c-.024,3.731-2.348,6.072-6.034,6.082q-11.4.032-22.8,0a5.66,5.66,0,0,1-6-5.932c-.033-1.784-.006-3.569-.006-5.619-5.583.406-11.122-.857-16.471.838a15.365,15.365,0,0,0-10.43,17.337c1.349,7.521,7.973,12.842,16.131,12.659m28.1-23.127c3.647,0,7.293.015,10.94-.005,2.191-.012,2.623-.453,2.629-2.646q.019-6.992,0-13.986c-.006-2.192-.436-2.637-2.631-2.641q-10.85-.023-21.7,0c-2.2,0-2.622.446-2.627,2.643q-.018,6.993,0,13.986c.006,2.193.435,2.631,2.629,2.644,3.587.02,7.174.005,10.761.005" transform="translate(-0.014 -62.209)" fill="#141774"/>
        <path id="Path_30265" data-name="Path 30265" d="M131.918,50.438c.551.608,1.179.991,1.277,1.48.168.834.331,2.052-.117,2.516a2.491,2.491,0,0,1-2.454.106,36.667,36.667,0,0,1-4.982-4.887,2.629,2.629,0,0,1-.053-2.529,36.449,36.449,0,0,1,4.926-4.945,2.747,2.747,0,0,1,2.528-.021c1,.6.873,1.742.157,2.675-.322.42-.718.783-1.081,1.172l.131.542a48.887,48.887,0,0,0,6.031-1.312,15.243,15.243,0,0,0,9.786-16.871,15.432,15.432,0,0,0-14.711-12.847c-4-.069-7.994-.013-12.209-.013,0,1.893.022,3.667,0,5.44-.055,3.717-2.367,6.039-6.072,6.049q-11.4.03-22.794,0a5.635,5.635,0,0,1-5.968-5.963q-.06-7.536,0-15.074A5.638,5.638,0,0,1,92.3.017q11.4-.034,22.794,0c3.692.01,6,2.344,6.047,6.07.023,1.729,0,3.459,0,5.448,3.648,0,7.217-.136,10.771.047a29.219,29.219,0,0,1,7.209,1.12c8.536,2.683,13.787,11.27,12.86,20.654-.83,8.41-7.981,15.571-16.579,16.61-1.067.129-2.13.288-3.49.473M103.8,3.848c-3.707,0-7.413-.023-11.119.009-1.946.017-2.426.521-2.433,2.483q-.026,7.172,0,14.345c.008,1.96.476,2.434,2.459,2.439q11.029.027,22.059,0c1.966-.005,2.427-.487,2.435-2.466q.027-7.083,0-14.166c-.006-2.171-.456-2.627-2.643-2.64-3.587-.022-7.173-.006-10.76-.005" transform="translate(-55.303 0)" fill="#141774"/>
        <path id="Path_30266" data-name="Path 30266" d="M103.779,194.109c3.768,0,7.536-.017,11.3.005,3.7.022,6.032,2.329,6.058,6.054q.051,7.444,0,14.889c-.027,3.708-2.369,6.024-6.078,6.033q-11.393.03-22.787,0a5.639,5.639,0,0,1-5.965-5.962q-.059-7.534,0-15.068a5.642,5.642,0,0,1,5.985-5.943c3.827-.026,7.655-.006,11.483-.006m-.1,23.151c3.587,0,7.174.012,10.761,0,2.328-.011,2.76-.437,2.766-2.7q.017-6.9,0-13.807c0-2.4-.377-2.769-2.854-2.771q-10.671-.011-21.342,0c-2.356,0-2.759.4-2.764,2.678q-.016,6.993,0,13.986c.006,2.153.46,2.6,2.671,2.613,3.587.02,7.173.005,10.761.006" transform="translate(-55.303 -124.414)" fill="#141774"/>
        <path id="Path_30267" data-name="Path 30267" d="M20.372,23.948c-.733-.8-1.394-1.193-1.478-1.685a3.514,3.514,0,0,1,.244-2.517,2.358,2.358,0,0,1,2.334-.128,39.633,39.633,0,0,1,5.155,5.2,2.867,2.867,0,0,1-.337,2.644,51.955,51.955,0,0,1-4.249,4.349c-.916.911-1.992,1.277-3,.315-1.1-1.05-.68-2.153.284-3.119.245-.246.475-.507.9-.964-.719-.055-1.212-.126-1.705-.127-5.255-.008-10.511.051-15.764-.061a3.425,3.425,0,0,1-2.483-1.23c-.836-1.3.336-2.654,2.207-2.665,5.255-.029,10.51-.011,15.765-.011h2.125" transform="translate(0 -12.414)" fill="#141774"/>
        <path id="Path_30268" data-name="Path 30268" d="M117.706,140.141c2.448,0,4.9.007,7.345,0,1.314-.005,2.273.464,2.265,1.918-.008,1.434-1,1.968-2.271,1.975q-7.344.039-14.689,0c-1.27-.007-2.26-.544-2.264-1.98,0-1.458.959-1.917,2.27-1.912,2.448.01,4.9,0,7.345,0" transform="translate(-69.284 -89.824)" fill="#141774"/>
        <path id="Path_30269" data-name="Path 30269" d="M135.374,122.136c-1.252,0-2.5.007-3.755,0-1.21-.009-2.132-.73-1.957-1.808a2.833,2.833,0,0,1,1.8-1.97,61.463,61.463,0,0,1,7.856-.054,1.917,1.917,0,0,1-.187,3.829c-1.251.023-2.5.005-3.755.005" transform="translate(-83.096 -75.765)" fill="#141774"/>
        <path id="Path_30270" data-name="Path 30270" d="M112.159,121.163c-.8.383-1.671,1.166-2.368,1.031a2.648,2.648,0,0,1-1.528-1.928,1.542,1.542,0,0,1,1.976-1.691c.77.191,1.356,1.124,2.023,1.726l-.1.861" transform="translate(-69.385 -75.97)" fill="#141774"/>
        <path id="Path_30271" data-name="Path 30271" d="M117.642,47c-2.329,0-4.657.006-6.986,0-1.395,0-2.574-.395-2.547-2.057.026-1.6,1.192-1.841,2.513-1.836q7.164.026,14.329,0c1.28,0,2.32.326,2.371,1.8.054,1.545-.987,2.065-2.337,2.081-2.448.029-4.9.008-7.344.009" transform="translate(-69.295 -27.63)" fill="#141774"/>
        <path id="Path_30272" data-name="Path 30272" d="M135.274,25.1c-1.192,0-2.385,0-3.577,0s-2.154-.68-2.012-1.766c.1-.768,1.071-1.963,1.734-2.02a59.643,59.643,0,0,1,8.035-.042,1.618,1.618,0,0,1,1.625,2.094,2.966,2.966,0,0,1-1.886,1.656,19.015,19.015,0,0,1-3.919.076" transform="translate(-83.115 -13.566)" fill="#141774"/>
        <path id="Path_30273" data-name="Path 30273" d="M107.209,22.944c.759-.484,1.495-1.317,2.282-1.369,1.093-.072,1.834.778,1.748,2.026-.08,1.155-.819,1.895-1.867,1.681-.8-.162-1.462-.958-2.186-1.472q.011-.433.022-.866" transform="translate(-68.704 -13.826)" fill="#141774"/>
        <path id="Path_30274" data-name="Path 30274" d="M117.115,221.828c2.492-2.428,4.773-4.621,7.018-6.85,1.013-1.006,2.085-1.543,3.242-.369,1.119,1.136.492,2.163-.442,3.089-2.629,2.607-5.225,5.247-7.887,7.819-1.467,1.417-2.16,1.383-3.643-.042-1.421-1.364-2.8-2.773-4.179-4.182-.86-.879-1.154-1.887-.171-2.826a1.952,1.952,0,0,1,3,.165c1.047,1.051,2.054,2.141,3.059,3.194" transform="translate(-70.786 -137.131)" fill="#141774"/>
      </g>
    </g>
  </g>
</svg>
