<svg xmlns="http://www.w3.org/2000/svg" xmlns:xlink="http://www.w3.org/1999/xlink" width="180" height="180" viewBox="0 0 180 180">
  <defs>
    <clipPath id="clip-path">
      <rect id="Rectangle_564" data-name="Rectangle 564" width="90.119" height="80.843" fill="#141774"/>
    </clipPath>
  </defs>
  <g id="Manage_Supplier" data-name="Manage Supplier" transform="translate(-1513 -4403)">
    <g id="Ellipse_13" data-name="Ellipse 13" transform="translate(1513 4403)" fill="none" stroke="#141774" stroke-width="3">
      <circle cx="90" cy="90" r="90" stroke="none"/>
      <circle cx="90" cy="90" r="88.5" fill="none"/>
    </g>
    <g id="Group_6600" data-name="Group 6600" transform="translate(1557.941 4452.578)">
      <g id="Group_6599" data-name="Group 6599" clip-path="url(#clip-path)">
        <path id="Path_30158" data-name="Path 30158" d="M47.621,100.22c0-5.343,0-10.371,0-15.4,0-2.034.14-2.17,2.229-2.173,2.72,0,5.44,0,8.072,0,.142-.185.239-.253.246-.329.246-2.584.245-2.584,2.819-2.584h2.688c.843-2.847,2.557-4.587,5.693-4.387,2.188.139,3.784,1.669,4.565,4.387,1.1,0,2.239,0,3.383,0,2.029,0,2.042.02,2.162,2.1.013.22.061.438.116.814,2.71,0,5.376,0,8.043,0,2.365,0,2.48.119,2.48,2.514q0,23.9,0,47.8c0,2.2-.134,2.333-2.376,2.333q-40.809,0-81.618,0C1.862,135.293,0,133.4,0,129.1q0-6.927,0-13.855c.011-11.074,7.159-19.6,18.072-21.252a52.691,52.691,0,0,1,8.439-.186c3.132.035,6.284.015,9.39.355A18.941,18.941,0,0,1,46.864,99.6c.16.15.341.279.757.616m-.169,32.739a1.581,1.581,0,0,0,.14-.375q.02-14,.007-27.993a2.4,2.4,0,0,0-.528-1.368,17.75,17.75,0,0,0-13.534-7.1c-4.566-.191-9.148-.132-13.72-.023-8.55.2-16.459,7.183-17.217,15.714-.542,6.1-.3,12.267-.339,18.4a2.61,2.61,0,0,0,2.294,2.733c2.939.113,5.885.036,8.992.036V131.4q0-6.167,0-12.334c0-.791.06-1.588,1.062-1.61,1.063-.023,1.2.778,1.2,1.64-.009,3.973,0,7.946,0,11.919v1.914H37.715v-1.618q0-6.1,0-12.2c0-.856.139-1.665,1.194-1.659,1.015.005,1.067.81,1.065,1.6-.007,3.326,0,6.652,0,9.978,0,1.282,0,2.563,0,3.925ZM79.561,84.985c-.035.435-.076.749-.084,1.063C79.418,88.387,79.4,88.4,77,88.4q-7.968,0-15.936,0c-2.226,0-3.006.5-2.853-2.8a2.785,2.785,0,0,0-.1-.574h-8.13V132.97H87.8V84.985Zm-2.462-2.9H60.559v3.959H77.1Zm-5.591-2.406c-.7-1.629-1.65-2.267-3.013-2.073a2.528,2.528,0,0,0-2.288,2.073Z" transform="translate(0 -54.452)" fill="#141774"/>
        <path id="Path_30159" data-name="Path 30159" d="M68.763,17.006A16.979,16.979,0,1,1,51.825,0,16.939,16.939,0,0,1,68.763,17.006m-31.7-.085A14.73,14.73,0,1,0,51.782,2.247a14.751,14.751,0,0,0-14.72,14.674" transform="translate(-25.159 0.001)" fill="#141774"/>
        <path id="Path_30160" data-name="Path 30160" d="M247.669,135.131q3.8,0,7.6,0c.783,0,1.57.053,1.544,1.1-.024.977-.761,1.151-1.56,1.151q-7.672,0-15.345,0c-.87,0-1.657-.218-1.624-1.239.032-1,.861-1.022,1.641-1.019,2.58.01,5.161,0,7.742,0" transform="translate(-172.244 -97.675)" fill="#141774"/>
        <path id="Path_30161" data-name="Path 30161" d="M247.627,171.883c2.541,0,5.082-.006,7.623,0,.766,0,1.575.052,1.566,1.1-.009,1.024-.809,1.137-1.572,1.139q-7.692.022-15.384,0c-.788,0-1.576-.177-1.58-1.149,0-1,.8-1.1,1.586-1.1q3.88,0,7.761,0" transform="translate(-172.239 -124.243)" fill="#141774"/>
        <path id="Path_30162" data-name="Path 30162" d="M247.663,210.676c-2.625,0-5.251-.005-7.877,0-.75,0-1.478-.113-1.512-1.014-.036-.943.676-1.235,1.492-1.237,5.205-.009,10.411-.035,15.614.046a1.865,1.865,0,0,1,1.376,1.117c.205.9-.6,1.084-1.355,1.084h-7.738" transform="translate(-172.234 -150.653)" fill="#141774"/>
        <path id="Path_30163" data-name="Path 30163" d="M247.426,247.567c-2.535,0-5.071-.01-7.607.006-.823,0-1.563-.155-1.529-1.137.032-.942.762-1.126,1.584-1.124q7.676.016,15.351,0c.8,0,1.555.131,1.588,1.106.038,1.124-.814,1.151-1.643,1.149-2.582-.006-5.163,0-7.745,0" transform="translate(-172.246 -177.321)" fill="#141774"/>
        <path id="Path_30164" data-name="Path 30164" d="M195.4,250.125c1.409-1.48,2.54-2.684,3.69-3.871.552-.57,1.214-1.009,1.89-.265.635.7.247,1.341-.338,1.916-1.347,1.323-2.69,2.651-4,4.007a1.413,1.413,0,0,1-2.354,0c-.759-.8-1.55-1.575-2.338-2.35-.566-.556-.868-1.289-.162-1.752a1.985,1.985,0,0,1,1.756.227,12.389,12.389,0,0,1,1.86,2.086" transform="translate(-138.329 -177.528)" fill="#141774"/>
        <path id="Path_30165" data-name="Path 30165" d="M195.972,213.478c1.467-1.535,2.582-2.7,3.693-3.864.559-.587,1.23-1,1.912-.343s.3,1.326-.285,1.9c-1.376,1.36-2.748,2.723-4.1,4.108-.706.724-1.379.841-2.125.075a31.551,31.551,0,0,1-2.492-2.578,1.813,1.813,0,0,1-.209-1.649c.465-.7,1.231-.486,1.767.1.585.644,1.108,1.344,1.838,2.241" transform="translate(-138.964 -151.029)" fill="#141774"/>
        <path id="Path_30166" data-name="Path 30166" d="M244.97,191.529c-1.71,0-3.42-.013-5.129.006-.848.009-1.622-.258-1.447-1.178a1.87,1.87,0,0,1,1.438-1.032c3.417-.092,6.838-.043,10.257-.051.84,0,1.623.267,1.451,1.184-.081.432-.917.981-1.445,1.022-1.7.131-3.416.049-5.125.049" transform="translate(-172.304 -136.812)" fill="#141774"/>
        <path id="Path_30167" data-name="Path 30167" d="M244.869,228.487c-1.663,0-3.326-.014-4.989.006-.822.009-1.559-.169-1.594-1.116-.036-.979.694-1.151,1.525-1.147q5.059.023,10.117,0c.8,0,1.59.105,1.6,1.083.008,1.046-.81,1.185-1.668,1.178-1.663-.014-3.326,0-4.989,0" transform="translate(-172.242 -163.529)" fill="#141774"/>
        <path id="Path_30168" data-name="Path 30168" d="M244.7,154.546c-1.708,0-3.422.074-5.122-.047-.485-.034-.93-.631-1.394-.97.459-.411.907-1.164,1.377-1.178q5.259-.15,10.524,0c.476.014.931.756,1.4,1.162-.46.344-.9.954-1.383.986-1.793.118-3.6.047-5.4.047" transform="translate(-172.172 -110.072)" fill="#141774"/>
        <path id="Path_30169" data-name="Path 30169" d="M245.041,263.145c1.707,0,3.413,0,5.12,0,.771,0,1.553.227,1.384,1.084a1.871,1.871,0,0,1-1.395,1.114q-5.185.146-10.376,0a1.863,1.863,0,0,1-1.382-1.126c-.162-.857.614-1.08,1.39-1.075,1.753.012,3.506,0,5.258,0" transform="translate(-172.305 -190.209)" fill="#141774"/>
        <path id="Path_30170" data-name="Path 30170" d="M196.235,176.729c1.457-1.558,2.584-2.764,3.713-3.969.556-.593,1.23-.993,1.907-.323s.259,1.339-.315,1.908c-1.343,1.331-2.7,2.647-4.006,4.017-.8.845-1.5.93-2.321.04-.779-.849-1.7-1.579-2.392-2.491-.295-.391-.154-1.111-.21-1.682.572.036,1.315-.141,1.68.152a15.254,15.254,0,0,1,1.945,2.347" transform="translate(-139.228 -124.393)" fill="#141774"/>
        <path id="Path_30171" data-name="Path 30171" d="M196.283,140.393c1.461-1.529,2.548-2.791,3.782-3.889a1.9,1.9,0,0,1,1.739-.323c.771.522.417,1.272-.179,1.864-1.376,1.364-2.758,2.723-4.1,4.117a1.33,1.33,0,0,1-2.23.035,33.435,33.435,0,0,1-2.486-2.59c-.279-.368-.078-1.1-.1-1.665.533.037,1.224-.123,1.565.152a17.357,17.357,0,0,1,2.007,2.3" transform="translate(-139.261 -98.362)" fill="#141774"/>
      </g>
    </g>
  </g>
</svg>
