<svg xmlns="http://www.w3.org/2000/svg" xmlns:xlink="http://www.w3.org/1999/xlink" width="180" height="180" viewBox="0 0 180 180">
  <defs>
    <clipPath id="clip-path">
      <rect id="Rectangle_545" data-name="Rectangle 545" width="81.733" height="89.258" fill="#141774"/>
    </clipPath>
  </defs>
  <g id="RFP_Rating_Scoring" data-name="RFP Rating &amp; Scoring" transform="translate(-1513 -3286)">
    <g id="Ellipse_13" data-name="Ellipse 13" transform="translate(1513 3286)" fill="none" stroke="#141774" stroke-width="3">
      <circle cx="90" cy="90" r="90" stroke="none"/>
      <circle cx="90" cy="90" r="88.5" fill="none"/>
    </g>
    <g id="Group_6583" data-name="Group 6583" transform="translate(1562.543 3331.105)">
      <g id="Group_6582" data-name="Group 6582" clip-path="url(#clip-path)">
        <path id="Path_30103" data-name="Path 30103" d="M90.137,2.721c0,2.377-.121,4.655.044,6.913a3.5,3.5,0,0,0,3.1,2.808c1.767.273,1.935.459,1.937,2.234,0,2.332.025,4.664-.017,6.995a3.526,3.526,0,0,0,2.119,3.6,29.114,29.114,0,0,0,2.812,1.537,8.864,8.864,0,0,0,3.3.514c.97-.056,1.86-.008,1.935.974A2.258,2.258,0,0,1,104.1,29.93a5.088,5.088,0,0,1-4.456-.283c-1.472-.8-2.94-1.615-4.375-2.48a4.951,4.951,0,0,1-2.6-4.075c-.119-2.232-.135-4.471-.118-6.707a1.508,1.508,0,0,0-1.067-1.666,6.279,6.279,0,0,1-4.126-6.209c0-2.285.018-4.57-.009-6.855C87.335.539,87.84.017,88.941.02c5.875.013,11.754-.087,17.625.069,4.5.119,7.8,3.825,7.831,8.558.045,7.227.055,14.456-.021,21.683-.015,1.413.368,2.117,1.773,2.416a30.488,30.488,0,0,1,3.581,1.168,9,9,0,0,1,6.452,7.849c.748,6.2,1.331,12.411,1.982,18.618.019.185,0,.374.027.559.123,1.015-.17,1.881-1.286,1.911-1,.027-1.329-.762-1.423-1.72q-.93-9.385-1.93-18.764a6.525,6.525,0,0,0-4.761-5.93c-1.853-.618-3.7-1.254-5.564-1.834a1.934,1.934,0,0,1-1.522-2.151c.041-7.694.024-15.388.019-23.082q0-6.7-6.7-6.724-6.645-.018-13.29,0c-.5,0-1.006.047-1.6.077" transform="translate(-62.901 0)" fill="#141774"/>
        <path id="Path_30104" data-name="Path 30104" d="M200.178,258.047c.3-1.884.647-3.762.861-5.655a2.176,2.176,0,0,0-.506-1.533c-1.2-1.3-2.544-2.464-3.741-3.765a1.416,1.416,0,0,1,.833-2.633,46.115,46.115,0,0,1,5.1-.782,1.811,1.811,0,0,0,1.672-1.2c.717-1.565,1.46-3.124,2.307-4.621.281-.5.913-1.1,1.385-1.1s1.1.6,1.382,1.1c.847,1.5,1.594,3.054,2.308,4.62a1.809,1.809,0,0,0,1.673,1.192,50.425,50.425,0,0,1,5.236.812,1.381,1.381,0,0,1,.786,2.52c-1.2,1.3-2.552,2.457-3.733,3.771a2.559,2.559,0,0,0-.588,1.766c.177,1.755.586,3.486.793,5.24.064.537-.064,1.383-.413,1.61a2.158,2.158,0,0,1-1.782.02c-1.606-.731-3.111-1.688-4.72-2.411a2.563,2.563,0,0,0-1.885.005c-1.651.744-3.209,1.692-4.839,2.489-1.338.653-2.209.026-2.127-1.447m3.1-2.085c1.393-.736,2.474-1.259,3.506-1.867a2.366,2.366,0,0,1,2.617,0c1.029.6,2.105,1.118,3.474,1.836-.233-1.477-.363-2.614-.6-3.727a2.48,2.48,0,0,1,.859-2.732c.926-.746,1.792-1.568,2.684-2.356l-.251-.418c-1.038-.142-2.072-.335-3.115-.413a2.93,2.93,0,0,1-2.819-2.058,32.456,32.456,0,0,0-1.551-3.114,35.566,35.566,0,0,1-1.9,3.679,3.407,3.407,0,0,1-1.762,1.289,31.069,31.069,0,0,1-3.793.629l-.292.427c.9.779,1.779,1.579,2.7,2.33a2.4,2.4,0,0,1,.86,2.717c-.282,1.111-.38,2.269-.617,3.777" transform="translate(-141.235 -170.494)" fill="#141774"/>
        <path id="Path_30105" data-name="Path 30105" d="M5.038,251.735a6.389,6.389,0,0,0-.676-.93c-1.248-1.256-2.57-2.441-3.762-3.746a2.2,2.2,0,0,1-.574-1.678c.093-.4.845-.809,1.365-.913,1.731-.348,3.5-.491,5.227-.862a2.591,2.591,0,0,0,1.542-1.087c.882-1.528,1.552-3.178,2.407-4.724.258-.467.869-1.064,1.283-1.038a2.161,2.161,0,0,1,1.423,1.045c.872,1.534,1.536,3.186,2.42,4.711a2.59,2.59,0,0,0,1.537,1.088c1.724.373,3.5.517,5.227.867.512.1,1.25.529,1.339.928a2.217,2.217,0,0,1-.566,1.683c-1.191,1.305-2.551,2.456-3.739,3.764a2.416,2.416,0,0,0-.541,1.7c.2,1.8.614,3.576.842,5.374a1.808,1.808,0,0,1-.419,1.47,1.978,1.978,0,0,1-1.655.089c-1.646-.757-3.193-1.728-4.844-2.473a2.579,2.579,0,0,0-1.9,0c-1.61.722-3.129,1.644-4.709,2.434-1.48.741-2.409.107-2.2-1.539.251-1.984.616-3.954.969-6.164m11.7,4.194a30.449,30.449,0,0,0-.56-3.33,2.908,2.908,0,0,1,1.09-3.425,33.692,33.692,0,0,0,2.455-2.414c-1.582-.243-2.8-.493-4.03-.6a2.217,2.217,0,0,1-1.986-1.48c-.51-1.124-1.091-2.216-1.765-3.571a22.891,22.891,0,0,0-1.474,2.926,3.192,3.192,0,0,1-3.255,2.288c-.932.055-1.856.26-3.246.467,1.25,1.161,2.15,2.026,3.083,2.855A2.091,2.091,0,0,1,7.758,252a38.807,38.807,0,0,0-.636,3.936c1.234-.641,2.29-1.108,3.259-1.715a2.665,2.665,0,0,1,3.116.013c.937.583,1.956,1.034,3.238,1.7" transform="translate(0 -170.492)" fill="#141774"/>
        <path id="Path_30106" data-name="Path 30106" d="M102.028,257.858c.264-1.466.525-3.167.888-4.846a2.244,2.244,0,0,0-.763-2.458,44.151,44.151,0,0,1-3.6-3.513A2,2,0,0,1,98,245.483a1.933,1.933,0,0,1,1.327-.967c1.775-.357,3.592-.512,5.366-.875a2.376,2.376,0,0,0,1.429-1.011c.854-1.491,1.5-3.1,2.351-4.595.306-.54.945-1.223,1.442-1.231s1.172.653,1.475,1.188c.87,1.535,1.54,3.183,2.4,4.722a2.184,2.184,0,0,0,1.341.918c1.73.346,3.5.5,5.228.854.556.114,1.38.552,1.459.962a2.442,2.442,0,0,1-.682,1.775c-1.158,1.273-2.491,2.385-3.647,3.659a2.4,2.4,0,0,0-.557,1.692c.2,1.705.655,3.38.857,5.086a2.344,2.344,0,0,1-.528,1.815c-.333.286-1.246.155-1.767-.084-1.562-.717-3.027-1.647-4.6-2.345a2.6,2.6,0,0,0-1.9-.01c-1.652.741-3.209,1.691-4.839,2.487-1.328.649-2.2.034-2.137-1.666m3.116-1.921c1.236-.631,2.214-1.04,3.095-1.6a2.821,2.821,0,0,1,3.367-.027c.9.582,1.9,1.016,3.193,1.693-.263-1.421-.429-2.419-.635-3.407a2.979,2.979,0,0,1,1.061-3.344,28.958,28.958,0,0,0,2.521-2.462c-1.6-.241-2.785-.476-3.982-.584a2.3,2.3,0,0,1-2.079-1.569c-.471-1.1-1.063-2.143-1.738-3.478-.684,1.348-1.286,2.436-1.795,3.565a2.243,2.243,0,0,1-2,1.473c-1.229.118-2.446.356-3.669.542l-.238.384c.847.764,1.662,1.569,2.552,2.28a2.5,2.5,0,0,1,.956,2.821c-.271,1.107-.378,2.253-.61,3.713" transform="translate(-70.553 -170.526)" fill="#141774"/>
        <path id="Path_30107" data-name="Path 30107" d="M62.668,143.9c.309-3.032.559-5.582.832-8.129.441-4.122.842-8.249,1.365-12.361a8.575,8.575,0,0,1,5.218-6.941c1.767-.829,3.608-1.507,5.432-2.209.868-.334,1.8-.514,2.207.656.369,1.07-.415,1.514-1.222,1.853-1.416.594-2.819,1.233-4.273,1.718-3.187,1.065-4.621,3.34-4.934,6.577-.592,6.12-1.28,12.23-1.9,18.348-.095.939-.516,1.638-1.42,1.5-.561-.083-1.03-.784-1.31-1.017" transform="translate(-45.128 -82.101)" fill="#141774"/>
        <path id="Path_30108" data-name="Path 30108" d="M186.5,170.21c0-2.283.012-4.566-.006-6.849-.008-.964.11-1.877,1.314-1.884,1.166-.008,1.391.848,1.389,1.84q-.018,6.989,0,13.977c0,1.027-.322,1.856-1.414,1.836-1.01-.018-1.314-.815-1.3-1.792.038-2.375.012-4.752.012-7.128" transform="translate(-134.293 -116.282)" fill="#141774"/>
        <path id="Path_30109" data-name="Path 30109" d="M102.794,170.187c0,2.419-.018,4.839.008,7.258.01.918-.293,1.651-1.253,1.67-1.028.02-1.4-.736-1.4-1.7q.009-7.118,0-14.237c0-.929.253-1.729,1.357-1.722,1.129.008,1.292.837,1.287,1.757-.011,2.326,0,4.653,0,6.979" transform="translate(-72.121 -116.263)" fill="#141774"/>
        <path id="Path_30110" data-name="Path 30110" d="M219.962,33.736c-.371-.518-1.057-1.056-1.024-1.546.032-.475.845-1.3,1.238-1.253a2.037,2.037,0,0,1,1.464,1.228c.1.417-.647,1.034-1.018,1.562l-.661.008" transform="translate(-157.66 -22.277)" fill="#141774"/>
        <path id="Path_30111" data-name="Path 30111" d="M8.061,82.639C7.7,82.1,6.986,81.5,7.075,81.053a1.97,1.97,0,0,1,1.431-1.217c.4-.037,1.22.772,1.244,1.235.025.507-.649,1.049-1.019,1.576l-.67-.007" transform="translate(-5.09 -57.49)" fill="#141774"/>
        <path id="Path_30112" data-name="Path 30112" d="M253.149,163.487c-.348-.545-1.007-1.123-.954-1.626.05-.469.908-1.241,1.317-1.186a1.972,1.972,0,0,1,1.374,1.3c.065.451-.69,1.02-1.083,1.537l-.655-.022" transform="translate(-181.607 -115.702)" fill="#141774"/>
        <path id="Path_30113" data-name="Path 30113" d="M250.073,33.734c-.367-.532-1.111-1.157-1.008-1.572a2.026,2.026,0,0,1,1.478-1.215c.411-.033,1.225.789,1.25,1.263.026.492-.68,1.024-1.066,1.537l-.654-.013" transform="translate(-179.348 -22.284)" fill="#141774"/>
        <path id="Path_30114" data-name="Path 30114" d="M237.089,47.413c-.5.408-.965,1.071-1.521,1.164a1.11,1.11,0,0,1-1.289-1.378c.114-.542.706-1.31,1.16-1.367.495-.062,1.077.582,1.621.919q.015.331.029.662" transform="translate(-168.687 -33.002)" fill="#141774"/>
        <path id="Path_30115" data-name="Path 30115" d="M39.137,82.635c-1.226-.232-1.879-.685-1.707-1.543.1-.513.84-1.3,1.216-1.261a1.979,1.979,0,0,1,1.432,1.2c.095.448-.6,1.062-.941,1.6" transform="translate(-26.935 -57.486)" fill="#141774"/>
        <path id="Path_30116" data-name="Path 30116" d="M283.627,163.513c-.37-.52-1.089-1.1-1.019-1.547a1.956,1.956,0,0,1,1.354-1.282c.392-.054,1.225.728,1.275,1.2.052.5-.59,1.071-.928,1.611l-.682.019" transform="translate(-203.507 -115.709)" fill="#141774"/>
        <path id="Path_30117" data-name="Path 30117" d="M266.565,176.558c.51-.391.976-1.013,1.539-1.12a1.094,1.094,0,0,1,1.3,1.358c-.106.537-.722,1.3-1.18,1.351-.5.058-1.08-.585-1.626-.922q-.014-.333-.029-.667" transform="translate(-191.957 -126.319)" fill="#141774"/>
        <path id="Path_30118" data-name="Path 30118" d="M21.6,95.662c.528-.368,1.078-1.047,1.577-1.012.443.031,1.068.8,1.189,1.341a1.087,1.087,0,0,1-1.289,1.37c-.533-.089-.979-.7-1.464-1.071l-.013-.628" transform="translate(-15.552 -68.158)" fill="#141774"/>
        <path id="Path_30119" data-name="Path 30119" d="M270.349,147.06c-.523.369-1.011.963-1.579,1.054a1.064,1.064,0,0,1-1.235-1.38c.129-.519.762-1.239,1.209-1.269.509-.034,1.063.6,1.6.943q0,.326.009.652" transform="translate(-192.626 -104.751)" fill="#141774"/>
        <path id="Path_30120" data-name="Path 30120" d="M237.045,17.157c-.5.341-.965.891-1.5.976a1.071,1.071,0,0,1-1.267-1.379,2.034,2.034,0,0,1,1.25-1.3c.879-.184,1.3.5,1.52,1.7" transform="translate(-168.675 -11.11)" fill="#141774"/>
        <path id="Path_30121" data-name="Path 30121" d="M25.649,65.713c-.9.63-1.36,1.2-1.9,1.279-.9.135-1.3-.542-1.287-1.408.015-.906.525-1.48,1.394-1.277.529.124.947.717,1.791,1.406" transform="translate(-16.177 -46.279)" fill="#141774"/>
      </g>
    </g>
  </g>
</svg>
