<svg xmlns="http://www.w3.org/2000/svg" xmlns:xlink="http://www.w3.org/1999/xlink" width="180" height="180" viewBox="0 0 180 180">
  <defs>
    <clipPath id="clip-path">
      <rect id="Rectangle_572" data-name="Rectangle 572" width="71.963" height="89.552" fill="#141774"/>
    </clipPath>
  </defs>
  <g id="Searching_Reporting" data-name="Searching &amp; Reporting" transform="translate(-1091 -5555)">
    <g id="Ellipse_12" data-name="Ellipse 12" transform="translate(1091 5555)" fill="none" stroke="#141774" stroke-width="3">
      <circle cx="90" cy="90" r="90" stroke="none"/>
      <circle cx="90" cy="90" r="88.5" fill="none"/>
    </g>
    <g id="Group_6615" data-name="Group 6615" transform="translate(1148.627 5602.205)">
      <g id="Group_6614" data-name="Group 6614" clip-path="url(#clip-path)">
        <path id="Path_30222" data-name="Path 30222" d="M44.928,3.971H42.857c-10.758,0-21.517.089-32.273-.048a6.293,6.293,0,0,0-6.632,6.638q.172,32.425,0,64.851a6.253,6.253,0,0,0,6.556,6.574c7.772-.144,15.549-.043,23.323-.043.407,0,.816-.023,1.22.014A2,2,0,0,1,37.1,83.89a2.047,2.047,0,0,1-2,2,7.454,7.454,0,0,1-.948.023c-7.82,0-15.64-.06-23.459.019C3.883,86-.028,81.018,0,75.247.106,53.676.039,32.1.046,10.531c0-4.861,2.281-8.4,6.527-9.89A12.406,12.406,0,0,1,10.56.029C21.363-.018,32.166.008,42.969,0a10.772,10.772,0,0,1,8.122,3.382c4,4.119,8.072,8.162,12.136,12.216A10.076,10.076,0,0,1,66.35,23q0,12.618,0,25.235a4.809,4.809,0,0,1-.049.811,1.837,1.837,0,0,1-1.685,1.676,1.794,1.794,0,0,1-2.064-1.367,5.417,5.417,0,0,1-.158-1.6q-.013-12.143-.007-24.286c0-1.94,0-1.941-1.878-1.942-3.074,0-6.149-.059-9.221.014a6.059,6.059,0,0,1-6.4-6.463c.168-3.6.037-7.22.037-11.1m3.891,3.082c0,2.876-.011,5.715.005,8.553A1.762,1.762,0,0,0,50.51,17.55c2.944.1,5.893.035,8.992.035L48.819,7.053" transform="translate(0 0.001)" fill="#141774"/>
        <path id="Path_30223" data-name="Path 30223" d="M125.412,171.872a17.739,17.739,0,0,1,16.312,24.276,1.537,1.537,0,0,0,.435,1.984c2.176,2.1,4.291,4.268,6.424,6.416,2.544,2.563,2.661,6.221.283,8.58-2.354,2.334-5.928,2.234-8.478-.269-2.226-2.185-4.445-4.377-6.614-6.617a1.363,1.363,0,0,0-1.754-.338,17.558,17.558,0,1,1-11.891-33.013,44.115,44.115,0,0,1,5.284-1.02m-13.584,17.645a13.632,13.632,0,1,0,13.748-13.5,13.694,13.694,0,0,0-13.748,13.5M136.6,203.48c2.267,2.283,4.526,4.609,6.848,6.871a1.734,1.734,0,0,0,2.652-.054,1.753,1.753,0,0,0-.009-2.658c-2.272-2.313-4.6-4.569-6.838-6.775L136.6,203.48" transform="translate(-78.61 -125.258)" fill="#141774"/>
        <path id="Path_30224" data-name="Path 30224" d="M64.9,143.908q9.285,0,18.569,0a5.79,5.79,0,0,1,1.216.042,1.83,1.83,0,0,1,1.6,2.022,1.773,1.773,0,0,1-1.667,1.816,9.518,9.518,0,0,1-1.352.048q-18.366,0-36.731,0c-.226,0-.452,0-.678,0-1.549-.045-2.376-.745-2.357-1.993s.861-1.929,2.421-1.931q9.488-.012,18.976,0" transform="translate(-31.703 -104.871)" fill="#141774"/>
        <path id="Path_30225" data-name="Path 30225" d="M83.386,107.982c5.284,0,10.569-.02,15.853.024a3.585,3.585,0,0,1,2.008.557,1.852,1.852,0,0,1-.628,3.163,5.458,5.458,0,0,1-1.731.2q-15.514.017-31.029.008c-.226,0-.452.009-.677,0-1.46-.086-2.3-.8-2.321-1.958-.019-1.2.884-1.982,2.4-1.986,5.375-.017,10.749-.007,16.124-.007" transform="translate(-47.27 -78.692)" fill="#141774"/>
        <path id="Path_30226" data-name="Path 30226" d="M56.229,64.912c3.345,0,6.69-.007,10.036,0,1.635,0,2.565.725,2.555,1.949s-.934,1.958-2.577,1.961q-10.1.017-20.206,0a5.071,5.071,0,0,1-.677-.027,1.861,1.861,0,0,1-1.838-1.958,1.81,1.81,0,0,1,1.994-1.915c3.571-.034,7.142-.012,10.713-.013" transform="translate(-31.718 -47.303)" fill="#141774"/>
        <path id="Path_30227" data-name="Path 30227" d="M51.335,183.748c-1.9,0-3.8.03-5.7-.01-1.408-.03-2.133-.725-2.13-1.913a1.9,1.9,0,0,1,2.125-1.953q5.628-.046,11.256,0a2,2,0,0,1,2.172,1.949c.008,1.119-.812,1.89-2.167,1.919-1.852.039-3.706.01-5.56.009" transform="translate(-31.709 -131.071)" fill="#141774"/>
        <path id="Path_30228" data-name="Path 30228" d="M50.264,255.667c-1.533,0-3.067.017-4.6,0-1.392-.019-2.137-.685-2.157-1.869a1.9,1.9,0,0,1,2.07-1.99q4.735-.045,9.472,0a1.962,1.962,0,0,1,2.051,2.038A1.914,1.914,0,0,1,55,255.66c-1.578.027-3.157.006-4.736.007" transform="translate(-31.707 -183.494)" fill="#141774"/>
        <path id="Path_30229" data-name="Path 30229" d="M49.173,219.818c-1.218,0-2.438.04-3.654-.011a1.883,1.883,0,0,1-2.011-2.046,1.839,1.839,0,0,1,2.081-1.826q3.721-.044,7.444,0a1.941,1.941,0,1,1,.065,3.871c-1.306.049-2.616.011-3.924.011" transform="translate(-31.706 -157.354)" fill="#141774"/>
        <path id="Path_30230" data-name="Path 30230" d="M136.849,232.768c-.017-1.448.649-2.3,1.833-2.357s1.9.705,2.053,2.166a5.855,5.855,0,0,0,5.57,5.592c1.484.143,2.351.986,2.221,2.16-.133,1.2-1.1,1.839-2.614,1.715a9.73,9.73,0,0,1-9.063-9.276" transform="translate(-99.733 -167.917)" fill="#141774"/>
      </g>
    </g>
  </g>
</svg>
