<svg xmlns="http://www.w3.org/2000/svg" xmlns:xlink="http://www.w3.org/1999/xlink" width="180" height="180" viewBox="0 0 180 180">
  <defs>
    <clipPath id="clip-path">
      <rect id="Rectangle_571" data-name="Rectangle 571" width="84.656" height="103.201" fill="#141774"/>
    </clipPath>
  </defs>
  <g id="Secure_Negotiation" data-name="Secure Negotiation" transform="translate(-661 -5555)">
    <g id="Ellipse_11" data-name="Ellipse 11" transform="translate(661 5555)" fill="none" stroke="#141774" stroke-width="3">
      <circle cx="90" cy="90" r="90" stroke="none"/>
      <circle cx="90" cy="90" r="88.5" fill="none"/>
    </g>
    <g id="Group_6613" data-name="Group 6613" transform="translate(713.939 5595.018)">
      <g id="Group_6612" data-name="Group 6612" clip-path="url(#clip-path)">
        <path id="Path_30209" data-name="Path 30209" d="M52.614,88.5c-1.476-5.991-.645-12.042-.813-18.048a2.056,2.056,0,0,1,2.159-2.193c4.46-.378,4.459-.385,4.459-4.758q0-20.424,0-40.847c0-2.062,0-2.067-2.08-2.067q-25.062,0-50.124,0c-2.094,0-2.1,0-2.1,2.058q0,10.4,0,20.8c0,.547.156,1.24-.113,1.609-.473.651-1.205,1.506-1.853,1.527S.732,45.78.2,45.171c-.262-.3-.15-.955-.151-1.449q-.011-10.7,0-21.4c0-3.951,1.928-5.86,5.886-5.864,1.737,0,3.474,0,5.416,0,0-1.744-.016-3.371,0-5A4.092,4.092,0,0,1,15.6,7.089c1.844-.052,3.694.048,5.533-.065a1.846,1.846,0,0,0,1.33-.945A9.266,9.266,0,0,1,31.23,0a9.022,9.022,0,0,1,8.76,6.02,1.319,1.319,0,0,0,1.492,1.064c1.694-.052,3.391-.034,5.087-.01,3.018.043,4.6,1.626,4.634,4.613.016,1.534,0,3.068,0,4.773,1.877,0,3.607,0,5.337,0,4.057,0,5.987,1.907,5.988,5.934q.006,20.873,0,41.745v2.2c1.5-.976,2.827-1.715,4-2.648a2.328,2.328,0,0,1,3.43.081A18.805,18.805,0,0,0,81.9,68.246c2.119.079,2.774.687,2.757,2.806-.037,4.635.083,9.283-.226,13.9-.364,5.434-3.271,9.684-7.366,13.038a73.267,73.267,0,0,1-7.226,4.734,2.979,2.979,0,0,1-3.118.073c-4.586-2.256-8.665-5.14-11.547-9.45a2.019,2.019,0,0,0-2.037-.836c-15.71,0-31.421-.079-47.131.058-4.145.036-6.065-2.63-6-6.08C.137,78.863.043,71.23.047,63.6a6.719,6.719,0,0,1,.082-1.488,1.9,1.9,0,0,1,2.009-1.648,1.906,1.906,0,0,1,1.916,1.756,9.559,9.559,0,0,1,.057,1.492c0,7.681.017,15.361-.013,23.042,0,1.213.3,1.841,1.67,1.839q23.042-.043,46.084-.022c.242,0,.485-.042.762-.069m3.293-16.283c0,2.972-.017,5.853.007,8.735a21.885,21.885,0,0,0,.193,4.472c1.445,6.557,6.075,10.411,11.71,13.316a1.583,1.583,0,0,0,1.337-.225,63.023,63.023,0,0,0,7-5.29,14.32,14.32,0,0,0,4.463-11.181c-.082-2.591-.015-5.187-.015-7.78V72.23a24.6,24.6,0,0,1-11.773-4.149,1.743,1.743,0,0,0-1.514.135,26.118,26.118,0,0,1-11.4,4M47.189,11.073c-2.663,0-5.192,0-7.721,0-2.291,0-2.63-.3-2.987-2.559A5.258,5.258,0,0,0,26.1,8.433c-.342,2.321-.708,2.637-3.075,2.64-2.526,0-5.051,0-7.619,0v5.275H47.189Z" transform="translate(0 -0.001)" fill="#141774"/>
        <path id="Path_30210" data-name="Path 30210" d="M46.792,229.387c1.134-1.237,2.034-2.3,3.016-3.272a2.029,2.029,0,0,1,3.042-.245c.87.852.843,1.991-.183,3.036-.974.992-2.034,1.9-3.338,3.106,1.223,1.087,2.3,1.964,3.283,2.939,1.1,1.1,1.123,2.25.18,3.13-.87.812-1.984.732-3.029-.3-.954-.941-1.848-1.943-3.087-3.256-1.034,1.186-1.895,2.266-2.855,3.249-1.066,1.091-2.263,1.125-3.134.207-.835-.88-.782-1.987.265-3.02.984-.971,2.056-1.854,3.276-2.943-1.3-1.207-2.352-2.12-3.326-3.109a2.023,2.023,0,1,1,2.867-2.809c.987.979,1.888,2.043,3.023,3.285" transform="translate(-28.105 -157.867)" fill="#141774"/>
        <path id="Path_30211" data-name="Path 30211" d="M43.554,166.009c2.232-2.331,4.154-4.342,6.08-6.349a1.971,1.971,0,0,1,2.682-.46,1.915,1.915,0,0,1,.342,3.086c-2.489,2.582-5.04,5.106-7.607,7.611a1.884,1.884,0,0,1-2.817.007c-1.2-1.118-2.363-2.288-3.489-3.486a1.869,1.869,0,0,1-.024-2.8,1.936,1.936,0,0,1,2.914.048,26.642,26.642,0,0,1,1.919,2.347" transform="translate(-26.697 -111.317)" fill="#141774"/>
        <path id="Path_30212" data-name="Path 30212" d="M43.531,102.28c2.208-2.247,4.046-4.138,5.907-6.006,1.2-1.2,2.349-1.338,3.265-.438.933.916.816,2.064-.378,3.267q-3.369,3.4-6.766,6.763c-1.384,1.371-2.341,1.375-3.709.04-.963-.939-1.924-1.882-2.852-2.857-1.031-1.082-1.094-2.144-.239-3.029.916-.948,1.974-.906,3.116.221a24.45,24.45,0,0,1,1.655,2.039" transform="translate(-26.746 -66.746)" fill="#141774"/>
        <path id="Path_30213" data-name="Path 30213" d="M122.126,99.2c-2.042,0-4.084.018-6.126-.005-1.569-.018-2.462-.754-2.488-1.981-.027-1.255.837-2.06,2.406-2.072q6.2-.048,12.4,0a2.066,2.066,0,0,1,2.329,1.992c.025,1.235-.868,2.035-2.4,2.057-2.042.03-4.084.007-6.126.008" transform="translate(-79.541 -66.655)" fill="#141774"/>
        <path id="Path_30214" data-name="Path 30214" d="M121.985,162.875c-2.041,0-4.083.018-6.124-.006-1.442-.018-2.317-.767-2.358-1.943-.043-1.234.865-2.058,2.389-2.066q6.2-.031,12.4,0c1.435.007,2.32.78,2.353,1.948.036,1.24-.86,2.042-2.384,2.06-2.091.025-4.182.006-6.273.006" transform="translate(-79.534 -111.308)" fill="#141774"/>
        <path id="Path_30215" data-name="Path 30215" d="M119.911,228.04c1.394,0,2.789-.01,4.183,0,1.267.011,2.113.547,2.192,1.911a1.82,1.82,0,0,1-2.014,2.063q-4.329.094-8.662,0a1.893,1.893,0,0,1-2.083-2.032,1.981,1.981,0,0,1,2.2-1.947c1.394,0,2.788,0,4.183,0" transform="translate(-79.544 -159.793)" fill="#141774"/>
        <path id="Path_30216" data-name="Path 30216" d="M118.325,188.576c-.9,0-1.8.056-2.692-.014a1.84,1.84,0,0,1-1.878-2.072,1.786,1.786,0,0,1,1.913-1.873c1.794-.038,3.59-.032,5.384-.007a1.844,1.844,0,0,1,1.978,1.984,1.906,1.906,0,0,1-2.013,1.978c-.9.039-1.795.008-2.693.008v0" transform="translate(-79.711 -129.349)" fill="#141774"/>
        <path id="Path_30217" data-name="Path 30217" d="M118.282,124.828c-.941,0-1.888.059-2.823-.018a1.748,1.748,0,0,1-1.71-1.892A1.783,1.783,0,0,1,115.5,120.9c1.88-.089,3.768-.068,5.651-.016a1.852,1.852,0,0,1,1.879,1.927,1.8,1.8,0,0,1-1.775,2c-.986.071-1.981.015-2.973.013" transform="translate(-79.707 -84.679)" fill="#141774"/>
        <path id="Path_30218" data-name="Path 30218" d="M118.377,257.7c-.894,0-1.789.034-2.68-.011a1.864,1.864,0,0,1-1.953-2,1.827,1.827,0,0,1,1.946-1.995c1.785-.048,3.574-.044,5.36,0a1.946,1.946,0,0,1,2,1.99,2.042,2.042,0,0,1-2.141,2.011c-.842.037-1.687.007-2.531.005" transform="translate(-79.704 -177.749)" fill="#141774"/>
        <path id="Path_30219" data-name="Path 30219" d="M.245,173.57a1.924,1.924,0,0,1,2.189-1.748,1.955,1.955,0,0,1,1.8,2.146,1.986,1.986,0,0,1-2.186,1.766,2.012,2.012,0,0,1-1.8-2.164" transform="translate(-0.164 -120.394)" fill="#141774"/>
        <path id="Path_30220" data-name="Path 30220" d="M209.174,261.768c2.255-2.291,4.093-4.179,5.954-6.043,1.138-1.141,2.406-1.293,3.268-.44.889.88.762,2.113-.381,3.267q-3.361,3.393-6.753,6.756c-1.3,1.282-2.318,1.289-3.6.047q-1.448-1.4-2.846-2.856c-1.094-1.143-1.166-2.244-.25-3.123.937-.9,1.984-.831,3.125.336a17.136,17.136,0,0,1,1.483,2.056" transform="translate(-142.902 -178.506)" fill="#141774"/>
        <path id="Path_30221" data-name="Path 30221" d="M99.852,28.763a1.915,1.915,0,0,1,1.987,1.958A1.972,1.972,0,0,1,99.9,32.752a2,2,0,0,1-.044-3.99" transform="translate(-68.613 -20.155)" fill="#141774"/>
      </g>
    </g>
  </g>
</svg>
