<svg xmlns="http://www.w3.org/2000/svg" xmlns:xlink="http://www.w3.org/1999/xlink" width="180" height="180" viewBox="0 0 180 180">
  <defs>
    <clipPath id="clip-path">
      <rect id="Rectangle_546" data-name="Rectangle 546" width="94.159" height="67.848" fill="#141774"/>
    </clipPath>
  </defs>
  <g id="Vendor_Collaboration" data-name="Vendor Collaboration" transform="translate(-227 -3621)">
    <g id="Ellipse_444" data-name="Ellipse 444" transform="translate(227 3621)" fill="none" stroke="#141774" stroke-width="3">
      <circle cx="90" cy="90" r="90" stroke="none"/>
      <circle cx="90" cy="90" r="88.5" fill="none"/>
    </g>
    <g id="Group_6585" data-name="Group 6585" transform="translate(270 3679.724)">
      <g id="Group_6584" data-name="Group 6584" clip-path="url(#clip-path)">
        <path id="Path_30122" data-name="Path 30122" d="M2.742,3.554c0,9.431-.007,18.566.026,27.7A1.446,1.446,0,0,0,3.36,32.3c1.7,1.046,3.444,2.017,5.3,3.088l12.3-21.3c-1.74-1.011-3.333-1.958-4.948-2.865-.894-.5-1.546-1.162-.936-2.175s1.52-.7,2.379-.195c1.762,1.034,3.556,2.017,5.3,3.081.475.29,1.132.78,1.159,1.212.068,1.088.761,1.427,1.526,1.853a23.591,23.591,0,0,1,4.071,2.453A8.069,8.069,0,0,0,32.737,19.5a3.5,3.5,0,0,0,2.96-.379c2.275-1.41,4.619-2.711,6.945-4.038a8.84,8.84,0,0,1,9.208-.051c1.983,1.1,3.927,2.277,5.9,3.4a5.41,5.41,0,0,0,4.846.53c.817-.334,1.409-1.18,2.183-1.669,1.38-.872,2.854-1.6,4.216-2.5a6.123,6.123,0,0,0,1.143-1.457c.35-.448.625-1.037,1.084-1.305Q81.285,6.163,91.4.382C92.927-.5,94.14.2,94.143,1.965c.019,10.092.034,20.185-.043,30.276a2.913,2.913,0,0,1-1.205,2.038c-2.087,1.364-4.3,2.543-6.471,3.77-.346.195-.831.481-1.125.375-1.951-.707-3.2.708-4.673,1.444-.6.3-1.159.688-1.714,1.023,1.035,4.377.076,6.332-4.06,8.233a5.915,5.915,0,0,1-1.357,6,5.7,5.7,0,0,1-6.031,1.507,6.26,6.26,0,0,1-2.882,5.112,5.855,5.855,0,0,1-5.566.342,20.679,20.679,0,0,1-1.654,3.567,5.614,5.614,0,0,1-6.731,1.732,7.019,7.019,0,0,1-1.567-.811,3.614,3.614,0,0,0-4.608-.241c-3.128,1.812-7.533-.074-8.317-4.7-2.031.73-4.058.951-5.976-.293a5.939,5.939,0,0,1-2.731-5.273c-5.308-.659-6.949-2.442-6.814-6.883a32.241,32.241,0,0,1-3.933-2.821A4.484,4.484,0,0,1,15.54,42.3,1.548,1.548,0,0,0,14.5,40.407c-.978-.475-1.9-1.066-2.837-1.622a2.2,2.2,0,0,0-2.249-.4,2.058,2.058,0,0,1-1.536-.269c-2.267-1.247-4.539-2.5-6.71-3.9A2.749,2.749,0,0,1,.054,32.264C-.016,22.172,0,12.08.014,1.988.017.213,1.222-.5,2.747.366,5.476,1.906,8.176,3.5,10.892,5.06c.793.457,1.323,1.058.827,1.991-.521.979-1.307.94-2.188.423C7.348,6.193,5.149,4.941,2.742,3.554M48.565,63.1c.994.568,1.974,1.233,3.039,1.71a3.065,3.065,0,0,0,3.908-1.267,3,3,0,0,0-1.045-4.056c-.6-.41-1.24-.757-1.876-1.105-.908-.5-1.706-1.1-1.018-2.235.641-1.06,1.527-.671,2.368-.185,2.045,1.18,4.07,2.4,6.15,3.51a3.025,3.025,0,0,0,3-5.25c-.644-.423-1.333-.778-2-1.166-1.53-.89-3.072-1.759-4.581-2.683-.688-.421-1.127-1.162-.514-1.808.386-.407,1.2-.444,1.843-.548.209-.034.469.242.705.377,2.949,1.7,5.871,3.451,8.868,5.064a4.747,4.747,0,0,0,2.683.53,2.612,2.612,0,0,0,2.218-2.443,2.941,2.941,0,0,0-1.507-3.111c-2.505-1.473-5.028-2.915-7.544-4.37a10.681,10.681,0,0,1-2.311-1.409,2.191,2.191,0,0,1-.485-1.842c.245-.787,1.063-.894,1.83-.5.364.185.715.4,1.069.6,2.908,1.68,5.805,3.378,8.727,5.034a2.933,2.933,0,0,0,3.446-.257,2.5,2.5,0,0,0,.827-3.063,5.142,5.142,0,0,0-1.795-2.238c-2.008-1.32-4.147-2.439-6.231-3.642q-4.717-2.723-9.429-5.456c-.758-.442-1.37-1.016-.815-1.98s1.382-.867,2.233-.4c.119.066.232.144.35.212q3.949,2.285,7.9,4.567c1.546.89,3.1,1.765,4.651,2.646l.16-.206L64.735,21.14c-3.545,1.648-6.706.874-9.756-1.092-1.524-.982-3.132-1.838-4.721-2.717a5.515,5.515,0,0,0-5.484-.21c-3.317,1.785-6.57,3.691-9.8,5.624a2.722,2.722,0,0,0-1.306,2.94,2.739,2.739,0,0,0,2.255,2.444,4.478,4.478,0,0,0,2.574-.457c2.723-1.449,5.379-3.026,8.04-4.589a3.265,3.265,0,0,1,3.366-.166c1.4.745,2.753,1.585,4.131,2.376.778.447,1.162,1.1.713,1.922a1.374,1.374,0,0,1-2.108.457c-1.028-.58-2.084-1.12-3.058-1.782a1.878,1.878,0,0,0-2.342-.038c-2.437,1.494-4.933,2.9-7.427,4.3-3.8,2.134-8,.323-8.807-3.943-.244-1.287.228-2.71.386-4.2L29.4,21.183l-8.63,14.948c2.588-1.383,5.165-2.1,7.737-.3,2.634,1.839,3.022,4.455,2.014,7.407,2.859,1.089,4.025,3.3,4.166,6.107,3.8.066,5.948,1.947,6.629,5.483,5.22-.988,8.9,2.858,7.253,8.272M91.416,3.552,73.192,14.075c2.155,3.738,4.216,7.309,6.27,10.884.2.352.534.734.514,1.086-.029.526-.183,1.316-.53,1.484a2.174,2.174,0,0,1-1.693-.2c-.382-.2-.566-.793-.816-1.224-1.817-3.133-3.629-6.27-5.49-9.486l-4.585,2.657,10.974,19,4.57-2.658c-.5-.873-.942-1.613-1.354-2.368-.447-.819-.677-1.676.3-2.261.994-.6,1.612.028,2.089.843.682,1.166,1.353,2.338,2.054,3.55,1.692-.967,3.244-1.911,4.85-2.749a1.835,1.835,0,0,0,1.094-1.9c-.039-8.586-.023-17.172-.023-25.758V3.552M16.327,38.272,27.3,19.263l-4.6-2.636L11.738,35.618l4.589,2.654m5.059,7.618a2.026,2.026,0,0,0,.782-.134,55.557,55.557,0,0,0,5.245-3.114,2.978,2.978,0,0,0-3.125-4.887,37.078,37.078,0,0,0-5.051,2.929,2.673,2.673,0,0,0-.761,3.341,2.878,2.878,0,0,0,2.91,1.865m5.394,7.273a8.253,8.253,0,0,0,4.529-2.785,2.66,2.66,0,0,0-.169-3.417,2.7,2.7,0,0,0-3.269-1.035,16,16,0,0,0-3.516,2.044,2.717,2.717,0,0,0-.758,3.348c.461,1.188,1.417,1.859,3.182,1.845m7.21,6.263a34.591,34.591,0,0,0,3.2-1.79,2.831,2.831,0,0,0,.827-3.96,2.959,2.959,0,0,0-3.757-1.246,15.01,15.01,0,0,0-2.918,1.7,2.809,2.809,0,0,0-.947,3.294c.4,1.252,1.576,2.011,3.591,2M39,61.175a3.011,3.011,0,0,0,3,3.044c2.019,0,4.277-2.052,4.227-3.846a2.945,2.945,0,0,0-3.1-2.907C40.99,57.5,38.994,59.294,39,61.175" transform="translate(0 0)" fill="#141774"/>
      </g>
    </g>
  </g>
</svg>
