<svg xmlns="http://www.w3.org/2000/svg" xmlns:xlink="http://www.w3.org/1999/xlink" width="180" height="180" viewBox="0 0 180 180">
  <defs>
    <clipPath id="clip-path">
      <rect id="Rectangle_563" data-name="Rectangle 563" width="65.8" height="84.977" fill="#141774"/>
    </clipPath>
  </defs>
  <g id="View_Contracts_" data-name="View Contracts &amp;" transform="translate(-1091 -4403)">
    <g id="Ellipse_12" data-name="Ellipse 12" transform="translate(1091 4403)" fill="none" stroke="#141774" stroke-width="3">
      <circle cx="90" cy="90" r="90" stroke="none"/>
      <circle cx="90" cy="90" r="88.5" fill="none"/>
    </g>
    <g id="Group_6598" data-name="Group 6598" transform="translate(1148.1 4452.578)">
      <g id="Group_6597" data-name="Group 6597" clip-path="url(#clip-path)">
        <path id="Path_30146" data-name="Path 30146" d="M65.785,50.263q0,14.855,0,29.71c0,3.392-1.589,5-4.954,5q-27.932,0-55.865,0C1.59,84.974,0,83.372,0,79.985Q0,42.467,0,4.949C0,1.648,1.614.016,4.893.015Q25.271.009,45.649,0a3.205,3.205,0,0,1,2.478,1Q56.441,9.373,64.82,17.686a3.212,3.212,0,0,1,.979,2.486q-.035,15.045-.014,30.091M45.206,2.754h-1.3q-19.422,0-38.843,0c-1.929,0-2.26.34-2.26,2.307q0,37.447,0,74.894c0,1.947.333,2.28,2.288,2.28q27.8,0,55.6,0c1.958,0,2.293-.333,2.293-2.275q0-29.005,0-58.011v-1.4c-4.467,0-8.736,0-13.006,0-3.271,0-4.769-1.519-4.771-4.83,0-4.267,0-8.534,0-12.965M48,4.929c0,3.853-.007,7.468,0,11.084,0,1.467.329,1.8,1.788,1.811,3.335.017,6.669.009,10,0a6.591,6.591,0,0,0,.938-.141L48,4.929" transform="translate(0 0)" fill="#141774"/>
        <path id="Path_30147" data-name="Path 30147" d="M137.415,168.388q-6.616,6.647-13.231,13.294c-1.372,1.378-2.7,2.805-4.146,4.1a3.776,3.776,0,0,1-1.975.834,31.356,31.356,0,0,1-3.422.037,1.376,1.376,0,0,1-1.54-1.47,31.993,31.993,0,0,1,.019-3.8,2.485,2.485,0,0,1,.71-1.413q11.318-11.377,22.684-22.708a1.5,1.5,0,0,1,2.5-.007c1.212,1.18,2.384,2.4,3.594,3.584.83.813.929,1.723,0,2.381-2.016,1.43-2.451,3.373-2.129,5.63a3.638,3.638,0,0,1-1.379,3.445c-1.446,1.3-2.775,2.725-4.146,4.105-.661.666-1.4,1.1-2.193.315-.814-.808-.452-1.591.272-2.3,1.328-1.3,2.674-2.592,3.929-3.963a8.145,8.145,0,0,0,.968-1.807l-.518-.254m.169-8.662a9.481,9.481,0,0,1-.865,1.2q-9.884,9.917-19.81,19.792a2.949,2.949,0,0,0-.957,3.135,3.044,3.044,0,0,0,3.167-.938c6.047-6.137,12.156-12.214,18.258-18.3.83-.827,1.731-1.583,2.567-2.343l-2.359-2.551" transform="translate(-84.342 -116.817)" fill="#141774"/>
        <path id="Path_30148" data-name="Path 30148" d="M82.824,134.76q7.742,0,15.483,0c.419,0,.941-.092,1.234.115.435.308,1.011.875.971,1.276-.048.486-.627.975-1.075,1.34-.21.17-.653.065-.991.065q-15.673,0-31.347,0c-.254,0-.591.1-.746-.029-.474-.385-1.112-.791-1.254-1.308-.228-.83.433-1.317,1.228-1.435a11.3,11.3,0,0,1,1.647-.028q7.424,0,14.848,0" transform="translate(-48.533 -100.523)" fill="#141774"/>
        <path id="Path_30149" data-name="Path 30149" d="M61.065,156.573H76.671c.338,0,.771-.12,1,.043.454.329,1.089.805,1.1,1.238s-.545,1.029-1,1.33c-.332.219-.9.1-1.366.1q-15.289,0-30.579,0c-.212,0-.423-.01-.634,0-1.008.048-1.879-.27-1.879-1.383,0-1.135.89-1.342,1.894-1.337,5.287.024,10.573.011,15.86.011" transform="translate(-32.311 -116.778)" fill="#141774"/>
        <path id="Path_30150" data-name="Path 30150" d="M58.242,180.669q-6.536,0-13.072,0c-1.3,0-2.106-.543-1.982-1.408.156-1.085.943-1.373,1.948-1.372q13.136.018,26.272,0c1.014,0,1.874.322,1.9,1.4.022,1.11-.842,1.4-1.861,1.392-4.4-.022-8.8-.009-13.2-.009" transform="translate(-32.21 -132.711)" fill="#141774"/>
        <path id="Path_30151" data-name="Path 30151" d="M55,102.757c3.257,0,6.514.017,9.771-.01.976-.008,1.769.269,1.774,1.327,0,1.023-.755,1.421-1.734,1.42q-9.9,0-19.795,0c-.979,0-1.739-.42-1.715-1.44.024-1.048.828-1.315,1.8-1.306,3.3.029,6.6.011,9.9.011" transform="translate(-32.306 -76.652)" fill="#141774"/>
        <path id="Path_30152" data-name="Path 30152" d="M54.948,83.645q-4.888,0-9.775,0c-1.3,0-2.105-.549-1.982-1.415.155-1.086.942-1.375,1.947-1.373q9.712.019,19.423,0c1.009,0,1.871.309,1.892,1.4.022,1.119-.839,1.405-1.856,1.4-3.216-.023-6.432-.008-9.648-.008" transform="translate(-32.212 -60.321)" fill="#141774"/>
        <path id="Path_30153" data-name="Path 30153" d="M52.814,223.822c-2.575,0-5.15-.021-7.724.011-.977.012-1.769-.277-1.786-1.318-.017-1.017.744-1.429,1.721-1.429q7.851,0,15.7,0c.974,0,1.739.406,1.722,1.427-.017,1.042-.806,1.332-1.784,1.32-2.617-.032-5.234-.011-7.851-.011" transform="translate(-32.306 -164.938)" fill="#141774"/>
        <path id="Path_30154" data-name="Path 30154" d="M74.612,199.8c2.579,0,5.157.009,7.736,0,.933-.005,1.752.149,1.764,1.3.012,1.194-.827,1.444-1.807,1.445q-7.736,0-15.471,0c-1,0-1.8-.3-1.763-1.488.04-1.16.889-1.263,1.806-1.259,2.579.013,5.157,0,7.736,0" transform="translate(-48.544 -149.05)" fill="#141774"/>
        <path id="Path_30155" data-name="Path 30155" d="M52.187,280.655c2.406,0,4.812.009,7.218,0,.918-.005,1.611.254,1.627,1.309.015,1.039-.655,1.386-1.573,1.387q-7.281.007-14.562,0c-.951,0-1.618-.455-1.6-1.4s.717-1.317,1.669-1.306c2.406.03,4.812.01,7.218.01" transform="translate(-32.303 -209.371)" fill="#141774"/>
        <path id="Path_30156" data-name="Path 30156" d="M154.791,280.651c2.364,0,4.728.023,7.091-.011.986-.014,1.762.3,1.762,1.339s-.775,1.377-1.754,1.374c-4.769-.013-9.539-.006-14.309-.006-.96,0-1.7-.3-1.665-1.423.029-1.061.751-1.283,1.658-1.277,2.406.014,4.812,0,7.218,0" transform="translate(-108.857 -209.366)" fill="#141774"/>
        <path id="Path_30157" data-name="Path 30157" d="M50.916,242.787c1.9,0,3.8.007,5.7,0,.974-.005,1.724.332,1.7,1.406-.017.982-.738,1.371-1.644,1.374-3.886.011-7.773.006-11.659,0-.975,0-1.734-.432-1.717-1.442.018-1.03.807-1.359,1.783-1.347,1.943.025,3.886.007,5.83.007" transform="translate(-32.306 -181.122)" fill="#141774"/>
      </g>
    </g>
  </g>
</svg>
