<svg width="27" height="27" viewBox="0 0 27 27" fill="none" xmlns="http://www.w3.org/2000/svg">
<g clip-path="url(#clip0_2265_2226)">
<path d="M6.88611 15.125H13.2925V18.3282H6.88611V15.125Z" fill="black" fill-opacity="0.75"/>
<path d="M26.1052 3.91412H24.5036V0.710938H8.4877V3.91412H5.28452V5.91612L4.32356 7.11731H2.08133V9.9201L0.479736 11.9221V26.3364H19.6989L26.1052 18.3285V3.91412ZM3.68292 8.71891H16.4957V11.9221H3.68292V8.71891ZM18.0973 24.7348H2.08133V13.5237H18.0973V24.7348ZM19.6989 11.9221H18.0973V7.11731H6.88611V5.51572H19.6989V11.9221ZM22.902 7.91811L21.3005 9.9201V3.91412H10.0893V2.31253H22.902V7.91811Z" fill="black" fill-opacity="0.75"/>
</g>
<defs>
<clipPath id="clip0_2265_2226">
<rect width="25.6255" height="25.6255" fill="white" transform="translate(0.479736 0.710938)"/>
</clipPath>
</defs>
</svg>
