<svg width="27" height="27" viewBox="0 0 27 27" fill="none" xmlns="http://www.w3.org/2000/svg">
<path d="M25.2317 5.51173C25.2317 5.06969 24.8738 4.71094 24.4309 4.71094H2.00862C1.56578 4.71094 1.20782 5.06969 1.20782 5.51173V21.5277C1.20782 21.9697 1.56578 22.3285 2.00862 22.3285H24.4309C24.8738 22.3285 25.2317 21.9697 25.2317 21.5277V15.1213C25.2317 14.6793 24.8738 14.3205 24.4309 14.3205C23.9881 14.3205 23.6301 14.6793 23.6301 15.1213V20.7269H2.80942V11.7588H19.426C19.8688 11.7588 20.2267 11.4 20.2267 10.958C20.2267 10.5159 19.8688 10.1572 19.426 10.1572H2.80942V8.81502H19.426C19.8688 8.81502 20.2267 8.45626 20.2267 8.01422C20.2267 7.57218 19.8688 7.21343 19.426 7.21343H2.80942V6.31253H23.6301V7.60982C23.6301 8.05186 23.9881 8.41062 24.4309 8.41062C24.8738 8.41062 25.2317 8.05186 25.2317 7.60982V5.51173Z" fill="black" fill-opacity="0.75"/>
<path d="M23.8831 10.3724L15.872 17.8679L12.1659 14.3996C11.8424 14.0969 11.337 14.1137 11.0335 14.4372C10.7316 14.76 10.7485 15.2669 11.0712 15.5688L15.3258 19.5495C15.4796 19.6937 15.6766 19.7657 15.8736 19.7657C16.0706 19.7657 16.2668 19.6937 16.4213 19.5495L24.9802 11.5416C25.3029 11.2397 25.3198 10.7328 25.0179 10.41C24.7136 10.0865 24.2075 10.0705 23.8831 10.3724Z" fill="black" fill-opacity="0.75"/>
</svg>
