<svg width="24" height="24" viewBox="0 0 24 24" fill="none" xmlns="http://www.w3.org/2000/svg">
<rect width="24" height="24" fill="white"/>
<path d="M17.4915 10.6177H16.0506C15.9168 10.6177 15.7935 10.545 15.7285 10.4284C15.6636 10.3115 15.667 10.1682 15.7377 10.0545C16.6488 8.58871 17.2529 6.98146 17.5332 5.27704C17.5626 5.0989 17.7164 4.96826 17.8969 4.96826H20.1966C20.4001 4.96826 20.5652 5.13309 20.5652 5.33678V7.54792C20.5652 9.24046 19.1862 10.6177 17.4915 10.6177ZM16.6956 9.8807H17.4915C18.7799 9.8807 19.8281 8.83415 19.8281 7.54792V5.70531H18.2062C17.9304 7.17724 17.4235 8.57755 16.6956 9.8807Z" fill="#404040"/>
<path d="M8.07208 10.618H6.63466C4.94208 10.618 3.56494 9.24071 3.56494 7.54817V5.33703C3.56494 5.13333 3.72995 4.96851 3.93347 4.96851H6.22942C6.40991 4.96851 6.56377 5.09914 6.5931 5.27729C6.87381 6.98387 7.47682 8.59147 8.38519 10.0551C8.45573 10.1689 8.45915 10.3117 8.39419 10.4287C8.32905 10.5457 8.20579 10.618 8.07208 10.618ZM4.30201 5.70555V7.54817C4.30201 8.8344 5.3484 9.88094 6.63466 9.88094H7.42769C6.70179 8.57924 6.19613 7.17892 5.92009 5.70555H4.30201Z" fill="#404040"/>
<path d="M13.0412 16.9395C12.9977 16.9395 12.9541 16.9319 12.9122 16.9161C12.3826 16.7182 11.7631 16.7153 11.213 16.9136C11.0998 16.9535 10.9745 16.9373 10.8763 16.8682C10.7782 16.7991 10.7197 16.6865 10.7197 16.5667V13.7729C10.7197 13.6239 10.8095 13.4893 10.9472 13.4324C11.0847 13.3745 11.2432 13.4069 11.3488 13.5123L12.0627 14.2263L12.7807 13.5084C12.8859 13.4029 13.0443 13.3709 13.1823 13.4285C13.32 13.4853 13.4098 13.6199 13.4098 13.7689V16.571C13.4098 16.6919 13.3506 16.8049 13.2514 16.8736C13.1888 16.9172 13.1154 16.9395 13.0412 16.9395ZM12.0627 16.0286C12.2702 16.0286 12.474 16.0481 12.6727 16.0862V14.6585L12.3232 15.008C12.2541 15.0771 12.1604 15.116 12.0627 15.116C11.965 15.116 11.8712 15.0771 11.8021 15.008L11.4568 14.6625V16.0851C11.6556 16.0477 11.8583 16.0286 12.0627 16.0286Z" fill="#404040"/>
<path d="M12.0644 15.1144C11.9701 15.1144 11.8758 15.0784 11.8039 15.0064L9.73771 12.9403C7.12397 10.3268 5.68457 6.85177 5.68457 3.15539C5.68457 2.95169 5.84958 2.78687 6.0531 2.78687H18.0758C18.2793 2.78687 18.4443 2.95169 18.4443 3.15539C18.4443 6.85177 17.0049 10.3268 14.3911 12.9403L12.325 15.0064C12.253 15.0784 12.1587 15.1144 12.0644 15.1144ZM6.42667 3.52391C6.51881 6.88524 7.87129 10.0317 10.2588 12.4192L12.0644 14.2247L13.87 12.4192C16.2576 10.0317 17.61 6.88524 17.7022 3.52391H6.42667Z" fill="#404040"/>
<path d="M14.963 19.6647H9.16883C8.9653 19.6647 8.80029 19.4999 8.80029 19.2962C8.80029 17.4946 10.2643 16.0288 12.0638 16.0288C13.8656 16.0288 15.3315 17.4946 15.3315 19.2962C15.3315 19.4999 15.1665 19.6647 14.963 19.6647ZM9.56417 18.9277H14.5676C14.3886 17.7066 13.3341 16.7659 12.0638 16.7659C10.7957 16.7659 9.74286 17.7066 9.56417 18.9277Z" fill="#404040"/>
<path d="M15.494 21.2131H8.63259C8.00242 21.2131 7.48975 20.7003 7.48975 20.0701C7.48975 19.44 8.00242 18.9275 8.63259 18.9275H15.494C16.1242 18.9275 16.6368 19.44 16.6368 20.0701C16.6368 20.7003 16.1242 21.2131 15.494 21.2131ZM8.63259 19.6645C8.40892 19.6645 8.22681 19.8466 8.22681 20.0701C8.22681 20.294 8.40892 20.4761 8.63259 20.4761H15.494C15.7177 20.4761 15.8998 20.294 15.8998 20.0701C15.8998 19.8466 15.7177 19.6645 15.494 19.6645H8.63259Z" fill="#404040"/>
</svg>
