<svg width="28" height="27" viewBox="0 0 28 27" fill="none" xmlns="http://www.w3.org/2000/svg">
<g clip-path="url(#clip0_667_1007)">
<path d="M5.97094 1.0918V3.22557H3.83716V25.6302H9.70505V20.8292H11.8388V25.6302H17.7067V3.22557H15.5729V1.0918H5.97094ZM7.03783 5.35935H8.10471V6.42624H7.03783V5.35935ZM9.1716 5.35935H10.2385V6.42624H9.1716V5.35935ZM11.3054 5.35935H12.3723V6.42624H11.3054V5.35935ZM13.4392 5.35935H14.506V6.42624H13.4392V5.35935ZM18.7736 7.49313V9.62691H19.8405V10.6938H18.7736V11.7607H19.8405V12.8276H18.7736V13.8945H19.8405V14.9614H18.7736V16.0282H19.8405V17.0951H18.7736V18.162H19.8405V19.2289H18.7736V20.2958H19.8405V21.3627H18.7736V22.4296H19.8405V23.4965H18.7736V25.6302H26.2418V7.49313H18.7736ZM7.03783 8.02658H8.10471V10.1604H7.03783V8.02658ZM9.1716 8.02658H10.2385V10.1604H9.1716V8.02658ZM11.3054 8.02658H12.3723V10.1604H11.3054V8.02658ZM13.4392 8.02658H14.506V10.1604H13.4392V8.02658ZM20.9074 9.62691H21.9743V10.6938H20.9074V9.62691ZM23.0412 9.62691H24.108V10.6938H23.0412V9.62691ZM7.03783 11.2272H8.10471V13.361H7.03783V11.2272ZM9.1716 11.2272H10.2385V13.361H9.1716V11.2272ZM11.3054 11.2272H12.3723V13.361H11.3054V11.2272ZM13.4392 11.2272H14.506V13.361H13.4392V11.2272ZM20.9074 11.7607H21.9743V12.8276H20.9074V11.7607ZM23.0412 11.7607H24.108V12.8276H23.0412V11.7607ZM20.9074 13.8945H21.9743V14.9614H20.9074V13.8945ZM23.0412 13.8945H24.108V14.9614H23.0412V13.8945ZM7.03783 14.4279H8.10471V16.5617H7.03783V14.4279ZM9.1716 14.4279H10.2385V16.5617H9.1716V14.4279ZM11.3054 14.4279H12.3723V16.5617H11.3054V14.4279ZM13.4392 14.4279H14.506V16.5617H13.4392V14.4279ZM20.9074 16.0282H21.9743V17.0951H20.9074V16.0282ZM23.0412 16.0282H24.108V17.0951H23.0412V16.0282ZM7.03783 17.6286H8.10471V19.7624H7.03783V17.6286ZM9.1716 17.6286H10.2385V19.7624H9.1716V17.6286ZM11.3054 17.6286H12.3723V19.7624H11.3054V17.6286ZM13.4392 17.6286H14.506V19.7624H13.4392V17.6286ZM20.9074 18.162H21.9743V19.2289H20.9074V18.162ZM23.0412 18.162H24.108V19.2289H23.0412V18.162ZM20.9074 20.2958H21.9743V21.3627H20.9074V20.2958ZM23.0412 20.2958H24.108V21.3627H23.0412V20.2958ZM7.03783 20.8292H8.10471V23.4965H7.03783V20.8292ZM13.4392 20.8292H14.506V23.4965H13.4392V20.8292ZM20.9074 22.4296H21.9743V23.4965H20.9074V22.4296ZM23.0412 22.4296H24.108V23.4965H23.0412V22.4296Z" fill="black" fill-opacity="0.55"/>
<rect x="5.2594" y="0.914062" width="8.89074" height="2.66722" fill="#00A9E2"/>
<rect x="18.5955" y="23.2742" width="8.00167" height="2.4005" fill="#FDB714"/>
</g>
<defs>
<clipPath id="clip0_667_1007">
<rect width="26.6722" height="26.6722" fill="white" transform="translate(0.813965 0.0249023)"/>
</clipPath>
</defs>
</svg>
