<svg width="23" height="23" viewBox="0 0 23 23" fill="none" xmlns="http://www.w3.org/2000/svg">
<g clip-path="url(#clip0_582_2189)">
<path d="M20.4202 0.180664H2.60186C1.18079 0.180664 0.0276489 1.3264 0.0276489 2.73834V20.4423C0.0276489 21.8542 1.18079 22.9999 2.60186 22.9999H20.4203C21.8414 22.9999 22.9945 21.8542 22.9945 20.4423V2.73834C22.9944 1.3264 21.8413 0.180664 20.4202 0.180664ZM22.0375 20.4423C22.0375 21.3313 21.315 22.0491 20.4203 22.0491H2.60186C1.7071 22.0491 0.984629 21.3312 0.984629 20.4423V2.73834C0.984629 1.84932 1.70714 1.1315 2.60186 1.1315H20.4203C21.315 1.1315 22.0375 1.84937 22.0375 2.73834V20.4423Z" fill="black"/>
<path d="M8.40085 6.78809H7.20465V16.201H8.40085V6.78809Z" fill="black"/>
<path d="M15.7646 6.36108H14.5732V10.2594H14.5445C14.2479 9.71743 13.6115 9.31333 12.7215 9.31333C11.2383 9.31333 9.95117 10.6064 9.95117 12.8836C9.95117 14.9801 11.0947 16.316 12.6067 16.316C13.5972 16.316 14.3292 15.774 14.6546 15.1085H14.6928L14.7646 16.2019H15.822C15.7933 15.755 15.7646 15.0562 15.7646 14.4999V6.36108H15.7646ZM14.5732 13.4968C14.578 13.668 14.5589 13.8343 14.5158 14.0008C14.2766 14.9373 13.6067 15.3842 12.9273 15.3842C11.7359 15.3842 11.1378 14.2385 11.1378 12.855C11.1378 11.4146 11.7742 10.2593 12.956 10.2593C13.779 10.2593 14.3771 10.8869 14.5302 11.6428C14.5589 11.8091 14.5732 11.9756 14.5732 12.1467V13.4968Z" fill="black"/>
</g>
<defs>
<clipPath id="clip0_582_2189">
<rect width="22.9668" height="22.8193" fill="white" transform="translate(0.0332031 0.180664)"/>
</clipPath>
</defs>
</svg>
