<svg width="30" height="29" viewBox="0 0 30 29" fill="none" xmlns="http://www.w3.org/2000/svg">
<g clip-path="url(#clip0_2265_2207)">
<path d="M0.875366 1.42969V28.0517H21.2334V23.3537H19.6674V26.4858H2.44137V2.9957H19.6674V6.1277H21.2334V1.42969H0.875366Z" fill="black" fill-opacity="0.75"/>
<path fill-rule="evenodd" clip-rule="evenodd" d="M18.8843 21.7894C20.5482 21.7894 22.0772 21.2127 23.2828 20.2484L27.722 24.6917C28.0277 24.9977 28.5235 24.9978 28.8293 24.6923C29.1352 24.3866 29.1355 23.8909 28.8299 23.5849L24.3901 19.1412C25.3547 17.9355 25.9313 16.4062 25.9313 14.7423C25.9313 10.8504 22.7762 7.69531 18.8843 7.69531C14.9923 7.69531 11.8373 10.8504 11.8373 14.7423C11.8373 18.6342 14.9923 21.7894 18.8843 21.7894ZM18.8843 20.2233C21.9113 20.2233 24.3653 17.7694 24.3653 14.7423C24.3653 11.7152 21.9113 9.26131 18.8843 9.26131C15.8572 9.26131 13.4033 11.7152 13.4033 14.7423C13.4033 17.7694 15.8572 20.2233 18.8843 20.2233Z" fill="black" fill-opacity="0.75"/>
</g>
<defs>
<clipPath id="clip0_2265_2207">
<rect width="28.188" height="28.188" fill="white" transform="translate(0.87561 0.648438)"/>
</clipPath>
</defs>
</svg>
