<svg width="24" height="24" viewBox="0 0 24 24" fill="none" xmlns="http://www.w3.org/2000/svg">
<rect width="24" height="24" fill="white"/>
<path d="M6.87527 17.4768H6.87186C6.68292 17.4768 6.53125 17.6302 6.53125 17.8191C6.53125 18.008 6.68633 18.1614 6.87527 18.1614C7.06421 18.1614 7.21757 18.008 7.21757 17.8191C7.21757 17.6302 7.06421 17.4768 6.87527 17.4768Z" fill="#404040"/>
<path fill-rule="evenodd" clip-rule="evenodd" d="M6.87176 17.377H6.87517C7.11934 17.377 7.31747 17.5751 7.31747 17.8193C7.31747 18.0634 7.11934 18.2615 6.87517 18.2615C6.63166 18.2615 6.43115 18.0641 6.43115 17.8193C6.43115 17.5757 6.62695 17.377 6.87176 17.377ZM6.87176 17.477H6.87517C7.06411 17.477 7.21747 17.6303 7.21747 17.8193C7.21747 18.0082 7.06411 18.1615 6.87517 18.1615C6.68623 18.1615 6.53115 18.0082 6.53115 17.8193C6.53115 17.6303 6.68282 17.477 6.87176 17.477Z" fill="#404040"/>
<path d="M8.92898 17.4768H8.92557C8.73663 17.4768 8.58496 17.6302 8.58496 17.8191C8.58496 18.008 8.74004 18.1614 8.92898 18.1614C9.11792 18.1614 9.27128 18.008 9.27128 17.8191C9.27128 17.6302 9.11792 17.4768 8.92898 17.4768Z" fill="#404040"/>
<path fill-rule="evenodd" clip-rule="evenodd" d="M8.92547 17.377H8.92888C9.17305 17.377 9.37118 17.5751 9.37118 17.8193C9.37118 18.0634 9.17305 18.2615 8.92888 18.2615C8.68537 18.2615 8.48486 18.0641 8.48486 17.8193C8.48486 17.5757 8.68066 17.377 8.92547 17.377ZM8.92547 17.477H8.92888C9.11782 17.477 9.27118 17.6303 9.27118 17.8193C9.27118 18.0082 9.11782 18.1615 8.92888 18.1615C8.73995 18.1615 8.58486 18.0082 8.58486 17.8193C8.58486 17.6303 8.73654 17.477 8.92547 17.477Z" fill="#404040"/>
<path d="M11.6574 12.6848H8.91896C8.72966 12.6848 8.57666 12.8382 8.57666 13.0271C8.57666 13.2161 8.72966 13.3694 8.91896 13.3694H11.6574C11.8467 13.3694 11.9997 13.2161 11.9997 13.0271C11.9997 12.8382 11.8467 12.6848 11.6574 12.6848Z" fill="#404040"/>
<path fill-rule="evenodd" clip-rule="evenodd" d="M8.91886 12.5847H11.6573C11.9019 12.5847 12.0996 12.7829 12.0996 13.027C12.0996 13.2711 11.9019 13.4693 11.6573 13.4693H8.91886C8.67426 13.4693 8.47656 13.2711 8.47656 13.027C8.47656 12.7829 8.67426 12.5847 8.91886 12.5847ZM8.91886 12.6847H11.6573C11.8466 12.6847 11.9996 12.8381 11.9996 13.027C11.9996 13.216 11.8466 13.3693 11.6573 13.3693H8.91886C8.72956 13.3693 8.57656 13.216 8.57656 13.027C8.57656 12.8381 8.72956 12.6847 8.91886 12.6847Z" fill="#404040"/>
<path d="M8.91896 15.4444H10.9728C11.1621 15.4444 11.3151 15.291 11.3151 15.1021C11.3151 14.9131 11.1621 14.7598 10.9728 14.7598H8.91896C8.72966 14.7598 8.57666 14.9131 8.57666 15.1021C8.57666 15.291 8.72966 15.4444 8.91896 15.4444Z" fill="#404040"/>
<path fill-rule="evenodd" clip-rule="evenodd" d="M10.9727 15.5445H8.91886C8.67426 15.5445 8.47656 15.3463 8.47656 15.1022C8.47656 14.8581 8.67426 14.6599 8.91886 14.6599H10.9727C11.2173 14.6599 11.415 14.8581 11.415 15.1022C11.415 15.3463 11.2173 15.5445 10.9727 15.5445ZM10.9727 15.4445H8.91886C8.72956 15.4445 8.57656 15.2911 8.57656 15.1022C8.57656 14.9133 8.72956 14.7599 8.91886 14.7599H10.9727C11.162 14.7599 11.315 14.9133 11.315 15.1022C11.315 15.2911 11.162 15.4445 10.9727 15.4445Z" fill="#404040"/>
<path d="M16.1075 13.7115C15.7299 13.7115 15.4229 13.4045 15.4229 13.0269C15.4229 12.838 15.2699 12.6846 15.0806 12.6846C14.8913 12.6846 14.7383 12.838 14.7383 13.0269C14.7383 13.6629 15.1761 14.1945 15.7652 14.3475V14.3962C15.7652 14.5851 15.9182 14.7385 16.1075 14.7385C16.2968 14.7385 16.4498 14.5851 16.4498 14.3962V14.3475C17.0389 14.1945 17.4767 13.6629 17.4767 13.0269C17.4767 12.2717 16.8626 11.6577 16.1075 11.6577C15.7299 11.6577 15.4229 11.3506 15.4229 10.973C15.4229 10.5955 15.7299 10.2884 16.1075 10.2884C16.4851 10.2884 16.7921 10.5954 16.7921 10.973C16.7921 11.162 16.9451 11.3153 17.1344 11.3153C17.3237 11.3153 17.4767 11.162 17.4767 10.973C17.4767 10.337 17.0389 9.80543 16.4498 9.65239V9.60377C16.4498 9.41483 16.2968 9.26147 16.1075 9.26147C15.9182 9.26147 15.7652 9.41483 15.7652 9.60377V9.65239C15.1761 9.80539 14.7383 10.337 14.7383 10.973C14.7383 11.7282 15.3524 12.3423 16.1075 12.3423C16.4851 12.3423 16.7921 12.6493 16.7921 13.0269C16.7921 13.4044 16.4851 13.7115 16.1075 13.7115Z" fill="#404040"/>
<path fill-rule="evenodd" clip-rule="evenodd" d="M15.5228 13.0268C15.5228 13.3492 15.7851 13.6114 16.1074 13.6114C16.4297 13.6114 16.692 13.3491 16.692 13.0268C16.692 12.7044 16.4297 12.4422 16.1074 12.4422C15.2971 12.4422 14.6382 11.7833 14.6382 10.9729C14.6382 10.3166 15.0721 9.76471 15.6659 9.57682C15.6798 9.3452 15.8718 9.16138 16.1074 9.16138C16.343 9.16138 16.535 9.34521 16.5489 9.57683C17.1427 9.76474 17.5766 10.3166 17.5766 10.9729C17.5766 11.217 17.3789 11.4152 17.1343 11.4152C16.8897 11.4152 16.692 11.217 16.692 10.9729C16.692 10.6506 16.4297 10.3883 16.1074 10.3883C15.785 10.3883 15.5228 10.6506 15.5228 10.9729C15.5228 11.2953 15.7851 11.5576 16.1074 11.5576C16.9177 11.5576 17.5766 12.2164 17.5766 13.0268C17.5766 13.6832 17.1427 14.235 16.5489 14.4229C16.535 14.6545 16.343 14.8384 16.1074 14.8384C15.8718 14.8384 15.6798 14.6545 15.6659 14.4229C15.0721 14.235 14.6382 13.6832 14.6382 13.0268C14.6382 12.7827 14.8359 12.5845 15.0805 12.5845C15.3251 12.5845 15.5228 12.7827 15.5228 13.0268ZM15.7651 14.3474C15.176 14.1944 14.7382 13.6628 14.7382 13.0268C14.7382 12.8379 14.8912 12.6845 15.0805 12.6845C15.2698 12.6845 15.4228 12.8379 15.4228 13.0268C15.4228 13.4044 15.7299 13.7114 16.1074 13.7114C16.485 13.7114 16.792 13.4044 16.792 13.0268C16.792 12.6492 16.485 12.3422 16.1074 12.3422C15.3523 12.3422 14.7382 11.7281 14.7382 10.9729C14.7382 10.3369 15.176 9.80529 15.7651 9.65229V9.60367C15.7651 9.41473 15.9181 9.26138 16.1074 9.26138C16.2967 9.26138 16.4497 9.41473 16.4497 9.60367V9.65229C17.0388 9.80533 17.4766 10.3369 17.4766 10.9729C17.4766 11.1619 17.3236 11.3152 17.1343 11.3152C16.945 11.3152 16.792 11.1619 16.792 10.9729C16.792 10.5953 16.485 10.2883 16.1074 10.2883C15.7298 10.2883 15.4228 10.5954 15.4228 10.9729C15.4228 11.3505 15.7299 11.6576 16.1074 11.6576C16.8625 11.6576 17.4766 12.2716 17.4766 13.0268C17.4766 13.6628 17.0388 14.1944 16.4497 14.3474V14.3961C16.4497 14.585 16.2967 14.7384 16.1074 14.7384C15.9181 14.7384 15.7651 14.585 15.7651 14.3961V14.3474Z" fill="#404040"/>
<path d="M15.0911 17.4768H15.0877C14.8987 17.4768 14.7471 17.6302 14.7471 17.8191C14.7471 18.008 14.9022 18.1614 15.0911 18.1614C15.28 18.1614 15.4334 18.008 15.4334 17.8191C15.4334 17.6302 15.2801 17.4768 15.0911 17.4768Z" fill="#404040"/>
<path fill-rule="evenodd" clip-rule="evenodd" d="M15.0876 17.377H15.091C15.3352 17.377 15.5333 17.5751 15.5333 17.8193C15.5333 18.0634 15.3352 18.2615 15.091 18.2615C14.8475 18.2615 14.647 18.0641 14.647 17.8193C14.647 17.5757 14.8428 17.377 15.0876 17.377ZM15.0876 17.477H15.091C15.28 17.477 15.4333 17.6303 15.4333 17.8193C15.4333 18.0082 15.2799 18.1615 15.091 18.1615C14.9021 18.1615 14.747 18.0082 14.747 17.8193C14.747 17.6303 14.8986 17.477 15.0876 17.477Z" fill="#404040"/>
<path d="M19.199 18.1616C19.3879 18.1616 19.5413 18.0083 19.5413 17.8193C19.5413 17.6304 19.3879 17.4771 19.199 17.4771H19.1956C19.0067 17.4771 18.855 17.6304 18.855 17.8193C18.855 18.0083 19.0101 18.1616 19.199 18.1616Z" fill="#404040"/>
<path fill-rule="evenodd" clip-rule="evenodd" d="M19.6412 17.8192C19.6412 18.0634 19.4431 18.2615 19.1989 18.2615C18.9554 18.2615 18.7549 18.0641 18.7549 17.8192C18.7549 17.5757 18.9507 17.377 19.1955 17.377H19.1989C19.4431 17.377 19.6412 17.5751 19.6412 17.8192ZM19.5412 17.8192C19.5412 18.0082 19.3878 18.1615 19.1989 18.1615C19.01 18.1615 18.8549 18.0082 18.8549 17.8192C18.8549 17.6303 19.0066 17.477 19.1955 17.477H19.1989C19.3878 17.477 19.5412 17.6303 19.5412 17.8192Z" fill="#404040"/>
<path d="M17.1448 17.4768H17.1414C16.9525 17.4768 16.8008 17.6302 16.8008 17.8191C16.8008 18.008 16.9559 18.1614 17.1448 18.1614C17.3337 18.1614 17.4871 18.008 17.4871 17.8191C17.4871 17.6302 17.3338 17.4768 17.1448 17.4768Z" fill="#404040"/>
<path fill-rule="evenodd" clip-rule="evenodd" d="M17.1413 17.377H17.1447C17.3889 17.377 17.587 17.5751 17.587 17.8193C17.587 18.0634 17.3889 18.2615 17.1447 18.2615C16.9012 18.2615 16.7007 18.0641 16.7007 17.8193C16.7007 17.5757 16.8965 17.377 17.1413 17.377ZM17.1413 17.477H17.1447C17.3337 17.477 17.487 17.6303 17.487 17.8193C17.487 18.0082 17.3336 18.1615 17.1447 18.1615C16.9558 18.1615 16.8007 18.0082 16.8007 17.8193C16.8007 17.6303 16.9524 17.477 17.1413 17.477Z" fill="#404040"/>
<path d="M15.919 5.78445H17.9728C18.1621 5.78445 18.3151 5.63109 18.3151 5.44215C18.3151 5.25321 18.1621 5.09985 17.9728 5.09985H15.919C15.7297 5.09985 15.5767 5.25321 15.5767 5.44215C15.5767 5.63109 15.7297 5.78445 15.919 5.78445Z" fill="#404040"/>
<path fill-rule="evenodd" clip-rule="evenodd" d="M17.9727 5.88459H15.9189C15.6743 5.88459 15.4766 5.68639 15.4766 5.4423C15.4766 5.1982 15.6743 5 15.9189 5H17.9727C18.2173 5 18.415 5.1982 18.415 5.4423C18.415 5.68639 18.2173 5.88459 17.9727 5.88459ZM17.9727 5.78459H15.9189C15.7296 5.78459 15.5766 5.63123 15.5766 5.4423C15.5766 5.25336 15.7296 5.1 15.9189 5.1H17.9727C18.162 5.1 18.315 5.25336 18.315 5.4423C18.315 5.63123 18.162 5.78459 17.9727 5.78459Z" fill="#404040"/>
<path d="M10.9827 17.4768H10.9793C10.7903 17.4768 10.6387 17.6302 10.6387 17.8191C10.6387 18.008 10.7938 18.1614 10.9827 18.1614C11.1716 18.1614 11.325 18.008 11.325 17.8191C11.325 17.6302 11.1716 17.4768 10.9827 17.4768Z" fill="#404040"/>
<path fill-rule="evenodd" clip-rule="evenodd" d="M10.9792 17.377H10.9826C11.2268 17.377 11.4249 17.5751 11.4249 17.8193C11.4249 18.0634 11.2268 18.2615 10.9826 18.2615C10.7391 18.2615 10.5386 18.0641 10.5386 17.8193C10.5386 17.5757 10.7344 17.377 10.9792 17.377ZM10.9792 17.477H10.9826C11.1715 17.477 11.3249 17.6303 11.3249 17.8193C11.3249 18.0082 11.1715 18.1615 10.9826 18.1615C10.7937 18.1615 10.6386 18.0082 10.6386 17.8193C10.6386 17.6303 10.7902 17.477 10.9792 17.477Z" fill="#404040"/>
<path d="M6.86525 13.3694H7.54988C7.73918 13.3694 7.89217 13.2161 7.89217 13.0271C7.89217 12.8382 7.73918 12.6848 7.54988 12.6848H6.86525C6.67595 12.6848 6.52295 12.8382 6.52295 13.0271C6.52295 13.2161 6.67595 13.3694 6.86525 13.3694Z" fill="#404040"/>
<path fill-rule="evenodd" clip-rule="evenodd" d="M7.54978 13.4693H6.86515C6.62055 13.4693 6.42285 13.2711 6.42285 13.027C6.42285 12.7829 6.62055 12.5847 6.86515 12.5847H7.54978C7.79438 12.5847 7.99208 12.7829 7.99208 13.027C7.99208 13.2711 7.79438 13.4693 7.54978 13.4693ZM7.54978 13.3693H6.86515C6.67585 13.3693 6.52285 13.216 6.52285 13.027C6.52285 12.8381 6.67585 12.6847 6.86515 12.6847H7.54978C7.73908 12.6847 7.89208 12.8381 7.89208 13.027C7.89208 13.216 7.73908 13.3693 7.54978 13.3693Z" fill="#404040"/>
<path d="M6.86525 15.4231H7.54988C7.73918 15.4231 7.89217 15.2698 7.89217 15.0808C7.89217 14.8919 7.73918 14.7385 7.54988 14.7385H6.86525C6.67595 14.7385 6.52295 14.8919 6.52295 15.0808C6.52295 15.2698 6.67595 15.4231 6.86525 15.4231Z" fill="#404040"/>
<path fill-rule="evenodd" clip-rule="evenodd" d="M7.54978 15.5233H6.86515C6.62055 15.5233 6.42285 15.3251 6.42285 15.081C6.42285 14.8369 6.62055 14.6387 6.86515 14.6387H7.54978C7.79438 14.6387 7.99208 14.8369 7.99208 15.081C7.99208 15.3251 7.79438 15.5233 7.54978 15.5233ZM7.54978 15.4233H6.86515C6.67585 15.4233 6.52285 15.2699 6.52285 15.081C6.52285 14.892 6.67585 14.7387 6.86515 14.7387H7.54978C7.73908 14.7387 7.89208 14.892 7.89208 15.081C7.89208 15.2699 7.73908 15.4233 7.54978 15.4233Z" fill="#404040"/>
<path d="M20.5578 1.73071H3.44239C3.25309 1.73071 3.1001 1.88407 3.1001 2.07301V21.9269C3.1001 22.0652 3.1833 22.1902 3.3113 22.2432C3.35374 22.2607 3.39823 22.2692 3.44239 22.2692C3.53141 22.2692 3.61902 22.2343 3.6844 22.169L5.49625 20.3571L7.3081 22.169C7.44196 22.3028 7.6583 22.3028 7.79212 22.169L8.91933 21.0417L10.0465 22.169C10.1804 22.3028 10.3967 22.3028 10.5306 22.169L11.6578 21.0417L12.1004 21.4844C12.2343 21.6182 12.4506 21.6182 12.5844 21.4844L13.7116 20.3572L14.8389 21.4844C14.9727 21.6182 15.1891 21.6182 15.3229 21.4844L16.1078 20.6994L16.8927 21.4844C17.0266 21.6182 17.2429 21.6182 17.3767 21.4844L19.1886 19.6725L20.3158 20.7997C20.3226 20.8069 20.3298 20.8134 20.3374 20.8196C20.3374 20.82 20.3377 20.82 20.3377 20.82V20.8203C20.3938 20.8672 20.465 20.8963 20.5428 20.8997C20.5554 20.9001 20.5681 20.9001 20.5814 20.8994H20.5818C20.6509 20.8942 20.7146 20.8693 20.7663 20.8292C20.7848 20.8152 20.8015 20.7991 20.8166 20.7816C20.8683 20.7218 20.8998 20.644 20.9001 20.5584V20.5578V2.07301C20.9002 1.88407 20.7471 1.73071 20.5578 1.73071ZM20.2155 19.7314L19.4306 18.9465C19.2968 18.8127 19.0804 18.8127 18.9466 18.9465L17.1348 20.7583L16.3498 19.9734C16.216 19.8396 15.9996 19.8396 15.8658 19.9734L15.0809 20.7583L13.9537 19.6311C13.8199 19.4973 13.6035 19.4973 13.4697 19.6311L12.3425 20.7583L11.8998 20.3157C11.766 20.1819 11.5496 20.1819 11.4158 20.3157L10.2886 21.4429L9.16138 20.3157C9.09463 20.249 9.00698 20.2154 8.91937 20.2154C8.83172 20.2154 8.74411 20.249 8.67736 20.3157L7.55015 21.4429L5.7383 19.6311C5.60444 19.4972 5.3881 19.4972 5.25428 19.6311L3.78473 21.1006V2.41535H20.2156V19.7314H20.2155Z" fill="#404040"/>
<path d="M4.82107 18.1616C5.01001 18.1616 5.16337 18.0083 5.16337 17.8193C5.16337 17.6304 5.01001 17.4771 4.82107 17.4771H4.81766C4.62872 17.4771 4.47705 17.6304 4.47705 17.8193C4.47705 18.0083 4.63213 18.1616 4.82107 18.1616Z" fill="#404040"/>
<path fill-rule="evenodd" clip-rule="evenodd" d="M5.26327 17.8195C5.26327 18.0637 5.06514 18.2618 4.82097 18.2618C4.57746 18.2618 4.37695 18.0643 4.37695 17.8195C4.37695 17.576 4.57276 17.3772 4.81756 17.3772H4.82097C5.06514 17.3772 5.26327 17.5753 5.26327 17.8195ZM5.16327 17.8195C5.16327 18.0084 5.00991 18.1618 4.82097 18.1618C4.63204 18.1618 4.47695 18.0084 4.47695 17.8195C4.47695 17.6306 4.62863 17.4772 4.81756 17.4772H4.82097C5.00991 17.4772 5.16327 17.6306 5.16327 17.8195Z" fill="#404040"/>
<path d="M6.86525 11.3155H7.54988C7.73918 11.3155 7.89217 11.1621 7.89217 10.9732C7.89217 10.7842 7.73918 10.6309 7.54988 10.6309H6.86525C6.67595 10.6309 6.52295 10.7842 6.52295 10.9732C6.52295 11.1621 6.67595 11.3155 6.86525 11.3155Z" fill="#404040"/>
<path fill-rule="evenodd" clip-rule="evenodd" d="M7.54978 11.4154H6.86515C6.62055 11.4154 6.42285 11.2172 6.42285 10.9731C6.42285 10.729 6.62055 10.5308 6.86515 10.5308H7.54978C7.79438 10.5308 7.99208 10.729 7.99208 10.9731C7.99208 11.2172 7.79438 11.4154 7.54978 11.4154ZM7.54978 11.3154H6.86515C6.67585 11.3154 6.52285 11.162 6.52285 10.9731C6.52285 10.7841 6.67585 10.6308 6.86515 10.6308H7.54978C7.73908 10.6308 7.89208 10.7841 7.89208 10.9731C7.89208 11.162 7.73908 11.3154 7.54978 11.3154Z" fill="#404040"/>
<path d="M13.0364 18.1614C13.2253 18.1614 13.3787 18.008 13.3787 17.8191C13.3787 17.6302 13.2253 17.4768 13.0364 17.4768H13.033C12.8441 17.4768 12.6924 17.6302 12.6924 17.8191C12.6924 18.008 12.8475 18.1614 13.0364 18.1614Z" fill="#404040"/>
<path fill-rule="evenodd" clip-rule="evenodd" d="M13.4791 17.8192C13.4791 18.0634 13.281 18.2615 13.0368 18.2615C12.7933 18.2615 12.5928 18.0641 12.5928 17.8192C12.5928 17.5757 12.7886 17.377 13.0334 17.377H13.0368C13.281 17.377 13.4791 17.5751 13.4791 17.8192ZM13.3791 17.8192C13.3791 18.0082 13.2257 18.1615 13.0368 18.1615C12.8479 18.1615 12.6928 18.0082 12.6928 17.8192C12.6928 17.6303 12.8444 17.477 13.0334 17.477H13.0368C13.2257 17.477 13.3791 17.6303 13.3791 17.8192Z" fill="#404040"/>
<path d="M8.91896 9.2615H10.9728C11.1621 9.2615 11.3151 9.10814 11.3151 8.9192C11.3151 8.73026 11.1621 8.5769 10.9728 8.5769H8.91896C8.72966 8.5769 8.57666 8.73026 8.57666 8.9192C8.57666 9.10814 8.72966 9.2615 8.91896 9.2615Z" fill="#404040"/>
<path fill-rule="evenodd" clip-rule="evenodd" d="M10.9727 9.36164H8.91886C8.67426 9.36164 8.47656 9.16345 8.47656 8.91935C8.47656 8.67525 8.67426 8.47705 8.91886 8.47705H10.9727C11.2173 8.47705 11.415 8.67525 11.415 8.91935C11.415 9.16345 11.2173 9.36164 10.9727 9.36164ZM10.9727 9.26164H8.91886C8.72956 9.26164 8.57656 9.10829 8.57656 8.91935C8.57656 8.73041 8.72956 8.57705 8.91886 8.57705H10.9727C11.162 8.57705 11.315 8.73041 11.315 8.91935C11.315 9.10829 11.162 9.26164 10.9727 9.26164Z" fill="#404040"/>
<path d="M6.86525 9.2615H7.54988C7.73918 9.2615 7.89217 9.10814 7.89217 8.9192C7.89217 8.73026 7.73918 8.5769 7.54988 8.5769H6.86525C6.67595 8.5769 6.52295 8.73026 6.52295 8.9192C6.52295 9.10814 6.67595 9.2615 6.86525 9.2615Z" fill="#404040"/>
<path fill-rule="evenodd" clip-rule="evenodd" d="M7.54978 9.36164H6.86515C6.62055 9.36164 6.42285 9.16345 6.42285 8.91935C6.42285 8.67525 6.62055 8.47705 6.86515 8.47705H7.54978C7.79438 8.47705 7.99208 8.67525 7.99208 8.91935C7.99208 9.16345 7.79438 9.36164 7.54978 9.36164ZM7.54978 9.26164H6.86515C6.67585 9.26164 6.52285 9.10829 6.52285 8.91935C6.52285 8.73041 6.67585 8.57705 6.86515 8.57705H7.54978C7.73908 8.57705 7.89208 8.73041 7.89208 8.91935C7.89208 9.10829 7.73908 9.26164 7.54978 9.26164Z" fill="#404040"/>
<path d="M12.342 10.6309H8.91896C8.72966 10.6309 8.57666 10.7842 8.57666 10.9732C8.57666 11.1621 8.72966 11.3155 8.91896 11.3155H12.342C12.5313 11.3155 12.6843 11.1621 12.6843 10.9732C12.6843 10.7842 12.5313 10.6309 12.342 10.6309Z" fill="#404040"/>
<path fill-rule="evenodd" clip-rule="evenodd" d="M8.91886 10.5308H12.3419C12.5865 10.5308 12.7842 10.729 12.7842 10.9731C12.7842 11.2172 12.5865 11.4154 12.3419 11.4154H8.91886C8.67426 11.4154 8.47656 11.2172 8.47656 10.9731C8.47656 10.729 8.67426 10.5308 8.91886 10.5308ZM8.91886 10.6308H12.3419C12.5312 10.6308 12.6842 10.7841 12.6842 10.9731C12.6842 11.162 12.5312 11.3154 12.3419 11.3154H8.91886C8.72956 11.3154 8.57656 11.162 8.57656 10.9731C8.57656 10.7841 8.72956 10.6308 8.91886 10.6308Z" fill="#404040"/>
<path d="M6.86525 5.78469H12.3422C12.5315 5.78469 12.6845 5.63133 12.6845 5.44239C12.6845 5.25345 12.5315 5.1001 12.3422 5.1001H6.86525C6.67595 5.1001 6.52295 5.25345 6.52295 5.44239C6.52295 5.63133 6.67595 5.78469 6.86525 5.78469Z" fill="#404040"/>
<path fill-rule="evenodd" clip-rule="evenodd" d="M12.3421 5.88459H6.86515C6.62055 5.88459 6.42285 5.68639 6.42285 5.4423C6.42285 5.1982 6.62055 5 6.86515 5H12.3421C12.5867 5 12.7844 5.1982 12.7844 5.4423C12.7844 5.68639 12.5867 5.88459 12.3421 5.88459ZM12.3421 5.78459H6.86515C6.67585 5.78459 6.52285 5.63123 6.52285 5.4423C6.52285 5.25336 6.67585 5.1 6.86515 5.1H12.3421C12.5314 5.1 12.6844 5.25336 12.6844 5.4423C12.6844 5.63123 12.5314 5.78459 12.3421 5.78459Z" fill="#404040"/>
</svg>
