<svg width="24" height="24" viewBox="0 0 24 24" fill="none" xmlns="http://www.w3.org/2000/svg">
<rect width="24" height="24" fill="white"/>
<path fill-rule="evenodd" clip-rule="evenodd" d="M7.30354 4.60121H13.3429C13.7716 4.60121 13.7491 4.7748 13.7109 5.21747L13.4678 8.32826C13.4262 8.823 13.4609 8.70322 12.9366 8.7796L8.63153 9.1563L8.88671 9.89754C10.9802 9.89754 11.4698 9.89754 13.5616 9.89754C13.6328 10.1614 13.7282 10.5884 13.7977 10.8818H12.9349L12.8516 10.5815C11.1087 10.5815 10.9646 10.5815 9.22001 10.5815C8.26698 10.5659 8.36246 10.8228 8.13505 9.99996L6.49807 4.41026H5.99291V3.71415H7.09002C7.15425 3.95544 7.24452 4.35818 7.30354 4.60121ZM15.327 1.53034C15.2506 1.46091 15.143 1.41577 15.0371 1.41577C15.0146 1.41577 14.992 1.41577 14.9677 1.42272H4.45487C4.19622 1.42272 3.95145 1.53034 3.77612 1.70567C3.60079 1.881 3.49316 2.11709 3.49316 2.38442V21.7852C3.49316 22.0526 3.60079 22.2886 3.77612 22.464C3.95145 22.6393 4.18754 22.7469 4.45487 22.7469H19.5158C19.7832 22.7469 20.0193 22.6393 20.1946 22.464C20.3699 22.2886 20.4775 22.0526 20.4775 21.7852V7.02284C20.4845 6.98465 20.4932 6.9534 20.4932 6.91521C20.4932 6.78501 20.4324 6.67044 20.3473 6.58712L15.3791 1.55985C15.3635 1.54423 15.3565 1.53729 15.3409 1.52861L15.327 1.53034ZM14.985 2.28547V5.6636C14.985 6.02294 15.1309 6.35103 15.367 6.58712C15.603 6.82321 15.9311 6.96902 16.2905 6.96902H19.5992V21.787C19.5992 21.8095 19.5922 21.8408 19.5679 21.8564C19.5523 21.872 19.5297 21.8876 19.4985 21.8876H4.44619C4.42362 21.8876 4.39238 21.8807 4.37675 21.8564C4.36113 21.8408 4.34551 21.8113 4.34551 21.787V2.38442C4.34551 2.35318 4.35245 2.33061 4.37675 2.31499C4.39238 2.29936 4.41494 2.28374 4.44619 2.28374H14.985V2.28547ZM15.8461 5.6636V2.9729L18.9343 6.10626H16.2887C16.1672 6.10626 16.0596 6.05245 15.9763 5.97607C15.8999 5.89969 15.8461 5.78512 15.8461 5.6636ZM7.0553 13.5135C6.81921 13.5135 6.62132 13.7044 6.62132 13.9475C6.62132 14.1836 6.81227 14.3832 7.0553 14.3832H16.7991C17.0352 14.3832 17.2348 14.1922 17.2348 13.9475C17.2348 13.7114 17.0439 13.5135 16.7991 13.5135H7.0553ZM7.21848 18.6675C6.98239 18.6675 6.78276 18.8584 6.78276 19.1032C6.78276 19.3393 6.97371 19.5372 7.21848 19.5372H16.898C17.1341 19.5372 17.3338 19.3462 17.3338 19.1015C17.3338 18.8654 17.1428 18.6675 16.898 18.6675H7.21848ZM7.0553 16.1816C6.81921 16.1816 6.62132 16.3726 6.62132 16.6156C6.62132 16.8517 6.81227 17.0496 7.0553 17.0496H16.898C17.1341 17.0496 17.332 16.8586 17.332 16.6156C17.332 16.3795 17.1411 16.1816 16.898 16.1816H7.0553ZM9.91612 5.38585H11.1643V6.65308H12.2874L10.5411 8.35083L8.79297 6.65135H9.91612V5.38585ZM9.22695 10.9999C9.59497 10.9999 9.89355 11.2984 9.89355 11.6665C9.89355 12.0345 9.59497 12.3331 9.22695 12.3331C8.85894 12.3331 8.56036 12.0345 8.56036 11.6665C8.56036 11.2984 8.85894 10.9999 9.22695 10.9999ZM11.9749 10.9999C12.343 10.9999 12.6415 11.2984 12.6415 11.6665C12.6415 12.0345 12.343 12.3331 11.9749 12.3331C11.6069 12.3331 11.3083 12.0345 11.3083 11.6665C11.3083 11.2984 11.6069 10.9999 11.9749 10.9999Z" fill="#404040" stroke="#404040" stroke-width="0.1"/>
</svg>
