<svg width="20" height="20" viewBox="0 0 20 20" fill="none" xmlns="http://www.w3.org/2000/svg">
<g clip-path="url(#clip0_582_2182)">
<path d="M2.5 9.4825L10 16.9825L16.9825 10L9.4825 2.5H2.5V9.4825Z" fill="black" fill-opacity="0.55"/>
<path d="M19.6337 9.11625L10.8837 0.36625C10.6494 0.131875 10.3319 0 10 0H1.25C0.559062 0 0 0.559062 0 1.25V10C0 10.3319 0.131875 10.6494 0.36625 10.8837L9.11625 19.6337C9.36031 19.8778 9.68031 20 10 20C10.3197 20 10.6397 19.8778 10.8837 19.6337L19.6337 10.8837C20.1222 10.3956 20.1222 9.60437 19.6337 9.11625ZM10 16.9825L2.5 9.4825V2.5H9.4825L16.9825 10L10 16.9825Z" fill="#00A9E2"/>
<path d="M6.25 7.5C6.94036 7.5 7.5 6.94036 7.5 6.25C7.5 5.55964 6.94036 5 6.25 5C5.55964 5 5 5.55964 5 6.25C5 6.94036 5.55964 7.5 6.25 7.5Z" fill="#FDB714"/>
</g>
<defs>
<clipPath id="clip0_582_2182">
<rect width="20" height="20" fill="white"/>
</clipPath>
</defs>
</svg>
