<svg width="38" height="38" viewBox="0 0 38 38" fill="none" xmlns="http://www.w3.org/2000/svg">
<path d="M20.874 32.2012H7.28711V11.5075L14.2256 4.04688H29.1063V23.5803" stroke="black" stroke-opacity="0.75" stroke-width="1.74043"/>
<path d="M14.2372 4.04688L14.2256 11.5075H7.28711" stroke="black" stroke-opacity="0.75" stroke-width="1.74043"/>
<path d="M10.2749 27.2031H17.2424" stroke="black" stroke-opacity="0.75" stroke-width="1.74043"/>
<path d="M10.2749 23.4219H18.9828" stroke="black" stroke-opacity="0.75" stroke-width="1.74043"/>
<path d="M10.2749 19.875H25.9445" stroke="black" stroke-opacity="0.75" stroke-width="1.74043"/>
<path d="M10.2749 16.3359H25.9445" stroke="black" stroke-opacity="0.75" stroke-width="1.74043"/>
<path d="M25.7705 34.4973C28.9777 34.4973 31.5777 31.8973 31.5777 28.69C31.5777 25.4828 28.9777 22.8828 25.7705 22.8828C22.5632 22.8828 19.9633 25.4828 19.9633 28.69C19.9633 31.8973 22.5632 34.4973 25.7705 34.4973Z" stroke="black" stroke-opacity="0.75" stroke-width="1.74043" stroke-linecap="round"/>
<path d="M23.5253 26.4375L28.0214 30.9336" stroke="black" stroke-opacity="0.75" stroke-width="1.74043"/>
<path d="M23.5253 30.9336L28.0214 26.4375" stroke="black" stroke-opacity="0.75" stroke-width="1.74043"/>
</svg>
