<svg width="38" height="38" viewBox="0 0 38 38" fill="none" xmlns="http://www.w3.org/2000/svg">
<path d="M5.45771 3.74219H31.7575C33.0391 3.74219 34.0781 4.78114 34.0781 6.06276V32.3625C34.0781 33.6441 33.0391 34.6831 31.7575 34.6831H5.45771C4.1761 34.6831 3.13715 33.6441 3.13715 32.3625V6.06276C3.13715 4.78114 4.1761 3.74219 5.45771 3.74219Z" stroke="black" stroke-opacity="0.75" stroke-width="2.32057" stroke-linecap="round" stroke-linejoin="round"/>
<g clip-path="url(#clip0_2265_2505)">
<path fill-rule="evenodd" clip-rule="evenodd" d="M21.6493 20.2763H19.1967V22.7289C19.1967 22.9987 18.9774 23.2194 18.7062 23.2194C18.4349 23.2194 18.2157 22.9987 18.2157 22.7289V20.2763H15.7631C15.4918 20.2763 15.2726 20.0556 15.2726 19.7858C15.2726 19.516 15.4918 19.2953 15.7631 19.2953H18.2157V16.8427C18.2157 16.5729 18.4349 16.3522 18.7062 16.3522C18.9774 16.3522 19.1967 16.5729 19.1967 16.8427V19.2953H21.6493C21.9205 19.2953 22.1398 19.516 22.1398 19.7858C22.1398 20.0556 21.9205 20.2763 21.6493 20.2763ZM18.7062 11.9375C14.3715 11.9375 10.8579 15.4496 10.8579 19.7858C10.8579 24.1219 14.3715 27.634 18.7062 27.634C23.0409 27.634 26.5545 24.1219 26.5545 19.7858C26.5545 15.4496 23.0409 11.9375 18.7062 11.9375Z" fill="black" fill-opacity="0.75"/>
</g>
<defs>
<clipPath id="clip0_2265_2505">
<rect width="15.6965" height="15.6965" fill="white" transform="translate(10.8578 11.9375)"/>
</clipPath>
</defs>
</svg>
