<svg xmlns="http://www.w3.org/2000/svg" xmlns:xlink="http://www.w3.org/1999/xlink" width="142" height="142" viewBox="0 0 142 142">
  <defs>
    <clipPath id="clip-path">
      <rect id="Rectangle_366" data-name="Rectangle 366" width="68.504" height="68.768" fill="#141774"/>
    </clipPath>
  </defs>
  <g id="Manage_E-Procurement_Better" data-name="Manage E-Procurement Better" transform="translate(-150 -2022)">
    <circle id="Ellipse_449" data-name="Ellipse 449" cx="71" cy="71" r="71" transform="translate(150 2022)" fill="#f0f0ff"/>
    <g id="Group_5248" data-name="Group 5248" transform="translate(187.248 2058.615)">
      <g id="Group_5247" data-name="Group 5247" clip-path="url(#clip-path)">
        <path id="Path_9728" data-name="Path 9728" d="M68.539,9.033c.35-1.685.659-1.946,2.013-1.962,1.022-.012,2.044,0,3.006,0,.1-.138.163-.189.169-.245.233-2.237.248-2.251,2.545-2.251,2.151,0,4.3-.007,6.452,0,1.212.006,1.667.462,1.669,1.684q.009,8.041,0,16.081c0,1.374-.466,1.856-1.838,1.86-3.673.01-7.346.018-11.019-.01a1.58,1.58,0,0,0-1.4.676c-2.172,2.7-4.854,4.438-8.484,4.35a1.738,1.738,0,0,0-1.062.569Q54.333,36.02,48.111,42.29c-1.168,1.171-1.716,1.166-2.895-.016Q32.991,30.008,20.768,17.74c-1.238-1.243-1.244-1.647-.039-2.856Q27.7,7.889,34.678.9c1.2-1.2,1.666-1.2,2.865,0,1.169,1.17,2.354,2.324,3.5,3.519a.982.982,0,0,0,1.2.326C43.908,4.117,45.6,3.556,47.254,2.9a10.672,10.672,0,0,1,8.661.119C58.848,4.375,61.655,6,64.554,7.428c1.247.616,2.585,1.048,3.985,1.606M43.656,7.095c1.681,1.659,3.247,3.221,4.839,4.757a2.226,2.226,0,0,0,.861.436c2.6.835,5.212,1.653,7.818,2.48.251.08.494.184.743.272,1,.35,1.433.965,1.215,1.716-.237.816-.971,1.134-2.03.814-1.482-.447-2.95-.937-4.425-1.407-2.291-.732-4.578-1.476-6.874-2.19a2.679,2.679,0,0,0-3.676,2.306A3.229,3.229,0,0,0,44.6,19.273c3.271,1.126,6.551,2.225,9.816,3.366a3.156,3.156,0,0,1,1.331.776c3.654,4.222,9.036,4.123,12.355-.3a3.111,3.111,0,0,0,.573-1.7c.056-2.975.028-5.953.024-8.929,0-.317-.032-.635-.054-1.049-3.031.006-5.339-1.678-7.806-2.993-1.919-1.023-3.872-1.987-5.842-2.909a8.1,8.1,0,0,0-6.265-.32c-1.65.57-3.274,1.212-5.074,1.883M48.8,23.567c-.13.325-.218.535-.3.747a7.6,7.6,0,0,1-14.545-1.049A7.426,7.426,0,0,1,37.607,15c1.427-.74,2.878-1.331,3.821-2.713a1.2,1.2,0,0,1,.473-.354c.628-.3,1.267-.584,2.044-.938-.805-.766-1.554-1.419-2.229-2.141a.87.87,0,0,0-1.328-.181,6.956,6.956,0,0,1-4.924,1.087c-1.5-.252-2.948-.779-4.621-1.24-.6.612-1.392,1.458-2.237,2.244-.423.394-.42.682-.14,1.175a8.288,8.288,0,0,1,.024,8.66.905.905,0,0,0,.224,1.325c2.513,2.487,5,5,7.49,7.512l5.454,5.485a8.59,8.59,0,0,1,9.848-.114l3.1-3.018a8.8,8.8,0,0,1-1.424-6.2.869.869,0,0,0-.46-.685c-1.26-.475-2.546-.881-3.914-1.342m32.926-2.133c0-4.6,0-9.126-.018-13.647,0-.184-.258-.523-.4-.526-1.6-.038-3.205-.024-4.783-.024v14.2ZM39.482,17.122a4.77,4.77,0,0,0-2.917,5.557,5.019,5.019,0,0,0,4.859,3.9c2.38-.08,4.52-1.829,4.669-3.968-2.983-.857-5.908-1.87-6.611-5.492M71.447,21.39h2.225V9.782H71.447ZM49.685,36.849a5.864,5.864,0,0,0-5.935-.048L46.7,39.755l2.989-2.905M33.183,6.267c1.3,1.226,4.77,1.2,5.65.159L35.978,3.362c-.848.863-1.7,1.732-2.555,2.6a3.616,3.616,0,0,0-.239.3M26.176,19.185a5.217,5.217,0,0,0,.035-5.69l-2.973,2.788,2.938,2.9m31.886,9.283-2.45-1.3.958,2.858,1.493-1.556" transform="translate(-15.894 0)" fill="#141774"/>
        <path id="Path_9729" data-name="Path 9729" d="M15.908,229.6c-.494,1.8-.724,1.966-2.434,1.97q-1.29,0-2.58.02a.534.534,0,0,0-.181.075c-.2,2.691-.744,2.358-2.761,2.377s-4.036.014-6.054,0c-1.516-.01-1.9-.391-1.9-1.863q0-7.939,0-15.879c0-1.415.41-1.829,1.814-1.83,3.672,0,7.344-.016,11.016.012a1.542,1.542,0,0,0,1.394-.7c4.91-6.428,12.365-4.943,16.094-.825a4.861,4.861,0,0,0,1.992.97q4.009,1.41,8.045,2.745a6.448,6.448,0,0,1,4.318,3.914c1.762-.486,3.491-.98,5.23-1.438,2-.529,4-1.129,6.032-1.51a4.938,4.938,0,0,1,5.37,2.695,5.174,5.174,0,0,1-.787,6.059c-1.342,1.521-3.185,2.049-4.986,2.694-6.422,2.3-12.831,4.636-19.263,6.908a10.031,10.031,0,0,1-7.812-.417c-2.921-1.377-5.738-2.973-8.635-4.4-1.25-.616-2.589-1.051-3.914-1.579m-.209-2.437a13.2,13.2,0,0,1,6.075,2c2.532,1.416,5.123,2.738,7.749,3.97a8.115,8.115,0,0,0,6.367.2c4.5-1.619,8.984-3.259,13.478-4.883,2.418-.874,4.845-1.722,7.259-2.605a3.573,3.573,0,0,0,2.542-2.43c.508-2.1-1.4-3.659-3.666-3.036-3.3.909-6.612,1.809-9.9,2.77a1.767,1.767,0,0,0-.975.906,4.893,4.893,0,0,1-4.184,3.336,10.582,10.582,0,0,1-3.649-.559c-3.444-1.015-6.857-2.136-10.279-3.225-1.033-.329-1.5-1.026-1.231-1.8.274-.8.988-1.064,2.056-.751.6.176,1.191.385,1.787.575,3.172,1.008,6.342,2.021,9.518,3.017A2.616,2.616,0,0,0,42,223.341a2.754,2.754,0,0,0-1.094-3.459,4.645,4.645,0,0,0-1.058-.53c-3.21-1.1-6.437-2.156-9.629-3.307a5.321,5.321,0,0,1-1.9-1.282,7.82,7.82,0,0,0-7.748-2.4,8.515,8.515,0,0,0-4.222,2.985c-.878.967-.638,2.1-.646,3.191-.021,2.839-.007,5.678-.007,8.627M2.755,231.313H7.882V217.175H2.755Zm10.2-14.13H10.7V228.8h2.256Z" transform="translate(0 -167.831)" fill="#141774"/>
        <path id="Path_9730" data-name="Path 9730" d="M230.047,83.667a1.306,1.306,0,0,1,1.315,1.326,1.376,1.376,0,0,1-1.335,1.323,1.32,1.32,0,0,1-1.3-1.342,1.28,1.28,0,0,1,1.322-1.307" transform="translate(-183.307 -67.053)" fill="#141774"/>
        <path id="Path_9731" data-name="Path 9731" d="M105.61,260.889a1.325,1.325,0,0,1-1.353,1.3,1.386,1.386,0,0,1-1.284-1.382,1.349,1.349,0,0,1,1.364-1.287,1.334,1.334,0,0,1,1.272,1.373" transform="translate(-82.525 -207.983)" fill="#141774"/>
      </g>
    </g>
  </g>
</svg>
