4<svg xmlns="http://www.w3.org/2000/svg" xmlns:xlink="http://www.w3.org/1999/xlink" width="142" height="142" viewBox="0 0 142 142">
  <defs>
    <clipPath id="clip-path">
      <rect id="Rectangle_364" data-name="Rectangle 364" width="75.195" height="75.396" fill="#141774"/>
    </clipPath>
  </defs>
  <g id="Faster_RFP_s_Bidding" data-name="Faster RFP&apos;s &amp; Bidding" transform="translate(-1010 -2022)">
    <circle id="Ellipse_449" data-name="Ellipse 449" cx="71" cy="71" r="71" transform="translate(1010 2022)" fill="#f0f0ff"/>
    <g id="Group_5242" data-name="Group 5242" transform="translate(1043.402 2052.302)">
      <g id="Group_5241" data-name="Group 5241" transform="translate(0 0)" clip-path="url(#clip-path)">
        <path id="Path_9719" data-name="Path 9719" d="M57.056,43.776c1.091.179,1.354.859,1.293,1.827-.059.94-.022,1.887-.01,2.831.01.774-.171,1.574.565,2.208.207.178.177.686.178,1.042q.013,11,0,22.007c0,1.429-.3,1.7-1.747,1.7q-8.714,0-17.429,0c-1.4,0-1.68-.266-1.681-1.634q-.009-11.058.016-22.116a5.241,5.241,0,0,1,.426-1.393,3.486,3.486,0,0,0,.245-.9c.029-1.2.053-2.4,0-3.594-.045-1.012.1-1.839,1.25-1.97a8.68,8.68,0,0,0-1.6-6.653,11.507,11.507,0,0,1-2.023-7.844c.039-.728.355-1.206,1.113-1.181s1,.541,1.076,1.244c.168,1.5.327,3.012.638,4.488a5.011,5.011,0,0,0,.987,2.035,9.47,9.47,0,0,1,2.08,6.9,8.2,8.2,0,0,0,.052,1H54.74a37.852,37.852,0,0,1,.343-3.982,8.758,8.758,0,0,1,1.044-2.707c2.951-5.115,5.963-10.195,8.934-15.3a1.661,1.661,0,0,0-.475-2.456,1.692,1.692,0,0,0-2.37.824c-.945,1.589-1.88,3.184-2.779,4.8a1.323,1.323,0,0,1-1.963.66A3.428,3.428,0,0,0,53.1,26.657a3.6,3.6,0,0,0,.147,4.513c.487.616.766,1.213.067,1.793-.76.629-1.33.144-1.837-.454a5.867,5.867,0,0,1-.626-6.423,5.76,5.76,0,0,1,5.921-2.994c1.242.155,1.767-.3,1.78-1.614.019-2.034.005-4.067.005-6.1,0-2.615.005-5.23,0-7.844,0-1.258-.632-2.019-1.637-2.027s-1.651.742-1.654,2c-.008,3.3,0,6.61-.008,9.914a1.993,1.993,0,0,1-.144,1.052c-.219.312-.682.688-.985.646a1.772,1.772,0,0,1-.989-.809c-.155-.232-.063-.634-.064-.961q0-6.264,0-12.528c0-.29.017-.583-.009-.871a1.773,1.773,0,0,0-1.715-1.763,1.707,1.707,0,0,0-1.578,1.861c-.018,4.358-.009,8.715-.011,13.074,0,1.478-.362,2.153-1.166,2.039-1.235-.174-1.074-1.175-1.077-2.033-.01-3.268.033-6.538-.047-9.8a2.154,2.154,0,0,0-.873-1.564,1.75,1.75,0,0,0-1.659.16,2.794,2.794,0,0,0-.682,1.819c-.066,3.085-.03,6.173-.03,9.26,0,.29,0,.581,0,.871,0,.766-.324,1.307-1.132,1.286-.742-.02-1.058-.558-1.065-1.261-.012-1.38,0-2.76-.006-4.139,0-.872.009-1.744,0-2.615C42,9.96,41.386,9.227,40.417,9.2c-1-.027-1.678.74-1.688,1.972-.016,1.888,0,3.777,0,5.665,0,2.251-.006,4.5,0,6.755,0,.808-.162,1.51-1.146,1.485-.929-.023-1.039-.716-1.038-1.471.009-4.14,0-8.28.006-12.42,0-3.006,2.1-4.666,5.032-4.012a2.274,2.274,0,0,0,.307.029c.914-3.328,1.818-3.936,5.566-3.754C48.351,1.029,49.5.017,51.363,0c1.89-.017,3.031.983,4,3.547l.712-.14a3.771,3.771,0,0,1,4.646,3.717c.035,3.63.009,7.26.009,10.812a11.592,11.592,0,0,1,2.681-.944,3.728,3.728,0,0,1,3.743,5.533C64.24,27.74,61.2,32.893,58.111,38.008a9.711,9.711,0,0,0-1.054,5.768M40.505,73.163H56.8V52.34h-16.3ZM41.2,50.008H56.064V46.175H41.2Z" transform="translate(-12.136 0)" fill="#141774"/>
        <path id="Path_9720" data-name="Path 9720" d="M80.266,48.112C81.115,45.744,82,45.148,84.55,45.3c.6-1.646,1.686-2.761,3.611-2.555a3.214,3.214,0,0,1,2.811,2.575c.358-.027.711-.078,1.064-.075a3.223,3.223,0,0,1,3.191,3.3c.024,2.5.006,5.008.006,7.625.3-.111.512-.19.726-.272a3.249,3.249,0,0,1,3.61.729,3.068,3.068,0,0,1,.5,3.724c-2.2,3.878-4.391,7.761-6.728,11.556a6.515,6.515,0,0,0-.937,3.92c.006.138.016.36.095.4,1.218.6.772,1.725.917,2.686a49.651,49.651,0,0,1,.519,8.919c-.042,1.472-.3,1.757-1.8,1.757q-6.536,0-13.073,0c-1.3,0-1.67-.378-1.684-1.68-.008-.8-.049-1.6.007-2.4.192-2.745.417-5.486.638-8.228a1.112,1.112,0,0,1,.174-.5,3.692,3.692,0,0,0-.053-4.6A10.733,10.733,0,0,1,76.1,65.551c.005-4.54,0-9.079,0-13.619,0-2.759,1.447-4.073,4.161-3.82m-.015,32.883H91.063V78.578c-.973-.307-2.366.457-2.544-1.132-.122-1.09.875-1.121,1.707-1.234a8.081,8.081,0,0,1,.02-1.68,12.2,12.2,0,0,1,.955-3.277c2.171-3.889,4.469-7.707,6.73-11.546.369-.627.567-1.244-.182-1.684s-1.206.025-1.564.658q-1.017,1.8-2.059,3.581a1.213,1.213,0,0,1-1.731.581,2.374,2.374,0,0,0-3.109.7,2.432,2.432,0,0,0,.116,3.1c.478.64.655,1.252-.063,1.789-.684.512-1.228.142-1.676-.419a4.682,4.682,0,0,1,3.858-7.654c1.4.036,1.508-.055,1.51-1.406q.009-4.956,0-9.913c0-.218.078-.512-.032-.638-.3-.341-.654-.793-1.035-.845-.268-.037-.706.461-.9.814A2.457,2.457,0,0,0,91,49.448c-.005,2.36,0,4.72-.011,7.08,0,.732-.292,1.353-1.094,1.357s-1.087-.608-1.11-1.343c-.009-.29-.006-.581-.006-.871q0-4.63,0-9.259c0-.724-.063-1.5-1.02-1.469-.912.025-1.011.752-1.009,1.5.009,3.3-.01,6.608.013,9.913.006.829-.182,1.538-1.113,1.518-.915-.019-1.109-.738-1.1-1.558.022-2.469,0-4.938.011-7.407,0-.7-.039-1.377-.954-1.4-1-.026-1.018.7-1.015,1.435.007,2.4-.01,4.793.009,7.189.007.867-.1,1.732-1.148,1.739-1.025.007-1.075-.846-1.062-1.666.026-1.561.017-3.123,0-4.684-.007-.7-.282-1.215-1.082-1.206-.774.009-.92.576-.991,1.187a2.8,2.8,0,0,0-.006.326c0,4.72-.015,9.441.009,14.16a7.154,7.154,0,0,0,1.365,4.5,7.185,7.185,0,0,1,1.5,4.773c-.008.317.043.636.071,1.026.981,0,1.885.009,2.789,0,.772-.011,1.4.164,1.418,1.093s-.595,1.126-1.384,1.114c-1.26-.019-2.52-.005-3.825-.005Zm11.423,2.32H79.655v4.045H91.674Z" transform="translate(-25.293 -14.198)" fill="#141774"/>
        <path id="Path_9721" data-name="Path 9721" d="M19.086,76.508H8.3v9.668h10.69a3.647,3.647,0,0,1,.15-1.213c.177-.364.584-.856.891-.856.39,0,1.066.391,1.116.7a8.188,8.188,0,0,1,0,2.787,1.531,1.531,0,0,1-1.2.8c-4.21.059-8.422.033-12.633.038-.843,0-1.3-.4-1.3-1.243C6,83.3,5.8,79.4,6.106,75.541c.118-1.5.336-3.036.423-4.567a.807.807,0,0,1,.171-.5c1.313-1.288.8-2.659.076-3.926-2-3.529-4.092-7.007-6.13-10.515C-.236,54.517-.2,53.307.68,52.194c.85-1.07,2.068-1.325,3.755-.792a2.372,2.372,0,0,0,.356.033c0-2.022,0-4.033,0-6.045,0-2.753,1.052-3.816,3.787-3.828,1.723-3.44,5.054-2.773,6.136.007a3.265,3.265,0,0,1,3.883,2.56c2.952.136,3.836,1.063,3.836,3.96,0,4.139-.015,8.279.006,12.418a8.978,8.978,0,0,1-1.779,5.7,4.7,4.7,0,0,0-.817,3.3c.008.139.015.355.1.4,1.11.63.719,1.7.8,2.633.181,2.171.377,4.342.556,6.514.024.288.1.662-.041.853-.308.417-.694.963-1.133,1.055-.669.14-1.02-.433-1.031-1.1-.017-1.083,0-2.167,0-3.35M17.707,69.9a8.082,8.082,0,0,1,1.682-5.869,5.868,5.868,0,0,0,.822-2.988c.086-4.5.061-9,0-13.5a1.439,1.439,0,0,0-.828-1.1c-.711-.126-.817.541-.819,1.116-.008,1.416,0,2.832-.011,4.248,0,.318.021.759-.164.927-.308.28-.908.634-1.146.507a1.719,1.719,0,0,1-.84-1.193c-.085-2.1-.04-4.21-.041-6.316a2.159,2.159,0,0,0-.022-.861,7.381,7.381,0,0,0-.782-1.1c-.283.354-.8.7-.811,1.062-.078,2.176-.04,4.356-.044,6.534,0,1.455-.321,2.048-1.128,1.946-1.241-.157-1.088-1.158-1.1-2.018-.013-1.488,0-2.977,0-4.465,0-1.416.051-2.835-.038-4.246-.024-.386-.435-1.014-.739-1.06-.7-.105-.841.5-.813,1.106.01.217,0,.435,0,.653,0,2.759-.007,5.519,0,8.278,0,.851-.049,1.732-1.137,1.739-1.169.008-1.054-.951-1.053-1.757,0-2.142,0-4.284,0-6.426,0-.659-.079-1.34-.912-1.318-.764.02-.812.672-.81,1.291q.011,4.575,0,9.149c0,.857.144,1.352,1.238,1.192a4.2,4.2,0,0,1,4.187,2.351,4.424,4.424,0,0,1-.537,4.793c-.474.54-1.022.9-1.685.376-.636-.5-.55-1.12-.073-1.715a2.1,2.1,0,0,0,.158-2.707,2.045,2.045,0,0,0-2.607-.736,1.422,1.422,0,0,1-2.034-.806c-.5-.962-1.084-1.884-1.623-2.828-.3-.523-.628-1.109-1.329-.749-.779.4-.441,1-.111,1.565,2.039,3.466,4.12,6.907,6.073,10.421a12.726,12.726,0,0,1,.943,3.174A6.019,6.019,0,0,1,9.6,69.9Zm.778,4.337V72.26H8.8v2.008c3.049,0,6.016,0,8.983,0,.212,0,.423-.019.707-.032" transform="translate(0 -13.037)" fill="#141774"/>
      </g>
    </g>
  </g>
</svg>
