<svg id="Bidmate_logo_blue" data-name="Bidmate logo blue" xmlns="http://www.w3.org/2000/svg" width="231.271" height="55.335" viewBox="0 0 231.271 55.335">
  <g id="Group_6569" data-name="Group 6569" transform="translate(67.042 9.351)">
    <path id="Path_30066" data-name="Path 30066" d="M4.969-15.463a2.964,2.964,0,0,1,1.986.6,2.118,2.118,0,0,1,.7,1.7,2.243,2.243,0,0,1-.7,1.767,2.885,2.885,0,0,1-1.986.625H3.1v2.243H2.42v-6.937Zm-.03,4.079a2.311,2.311,0,0,0,1.526-.452A1.607,1.607,0,0,0,7-13.14a1.547,1.547,0,0,0-.534-1.27,2.362,2.362,0,0,0-1.531-.437H3.1v3.464Zm7.015-4.139a3.59,3.59,0,0,1,1.813.471,3.568,3.568,0,0,1,1.309,1.275,3.36,3.36,0,0,1,.484,1.767,3.412,3.412,0,0,1-.484,1.777,3.582,3.582,0,0,1-1.309,1.29,3.561,3.561,0,0,1-1.813.476,3.561,3.561,0,0,1-1.813-.476,3.582,3.582,0,0,1-1.309-1.29,3.412,3.412,0,0,1-.484-1.777,3.36,3.36,0,0,1,.484-1.767,3.568,3.568,0,0,1,1.309-1.275A3.59,3.59,0,0,1,11.954-15.522Zm.01.615a2.878,2.878,0,0,0-1.462.387,2.912,2.912,0,0,0-1.067,1.052,2.8,2.8,0,0,0-.4,1.459,2.856,2.856,0,0,0,.4,1.469A2.927,2.927,0,0,0,10.5-9.473a2.85,2.85,0,0,0,1.462.392,2.806,2.806,0,0,0,1.447-.392,2.939,2.939,0,0,0,1.062-1.067,2.856,2.856,0,0,0,.4-1.469,2.8,2.8,0,0,0-.4-1.459,2.924,2.924,0,0,0-1.062-1.052A2.834,2.834,0,0,0,11.964-14.907Zm13.269-.566h.721L23.612-8.525H22.9l-1.946-6.084L18.988-8.525h-.7l-2.332-6.947H16.7L18.662-9.25l1.956-6.223h.692L23.276-9.25Zm1.867.01h4.624v.615H27.782v2.481h3.527v.615H27.782v2.61h4.07v.615H27.1ZM38.076-8.525l-1.492-2.263q-.316.02-.484.02H34.2v2.243h-.682v-6.937H36.1a3,3,0,0,1,2,.6,2.111,2.111,0,0,1,.706,1.7,2.4,2.4,0,0,1-.415,1.439,2.165,2.165,0,0,1-1.186.8l1.66,2.392ZM36.1-11.383a2.291,2.291,0,0,0,1.521-.452,1.615,1.615,0,0,0,.534-1.305,1.547,1.547,0,0,0-.534-1.27,2.345,2.345,0,0,0-1.521-.437H34.2v3.464Zm4.564-4.079h4.624v.615H41.347v2.481h3.527v.615H41.347v2.61h4.07v.615H40.665Zm9.2,0a3.626,3.626,0,0,1,1.8.457,3.376,3.376,0,0,1,1.284,1.255,3.415,3.415,0,0,1,.469,1.762,3.388,3.388,0,0,1-.469,1.757,3.377,3.377,0,0,1-1.289,1.251,3.673,3.673,0,0,1-1.818.457H47.087v-6.937Zm.02,6.322a2.81,2.81,0,0,0,1.433-.377,2.8,2.8,0,0,0,1.032-1.027,2.807,2.807,0,0,0,.38-1.444,2.805,2.805,0,0,0-.385-1.449A2.817,2.817,0,0,0,51.3-14.47a2.856,2.856,0,0,0-1.447-.377H47.768V-9.14Zm10.65-6.332a2.569,2.569,0,0,1,1.625.462,1.531,1.531,0,0,1,.588,1.275,1.577,1.577,0,0,1-.341,1.032,1.614,1.614,0,0,1-.953.546,1.867,1.867,0,0,1,1.186.566,1.687,1.687,0,0,1,.425,1.181A1.637,1.637,0,0,1,62.4-9.021a3.006,3.006,0,0,1-1.838.5H57.638v-6.947Zm-.03,3.067a1.781,1.781,0,0,0,1.136-.323,1.106,1.106,0,0,0,.405-.918,1.07,1.07,0,0,0-.405-.893,1.761,1.761,0,0,0-1.136-.308H58.32v2.441Zm0,3.265a2.328,2.328,0,0,0,1.378-.352,1.147,1.147,0,0,0,.489-.988,1.121,1.121,0,0,0-.494-.973A2.357,2.357,0,0,0,60.5-11.8H58.32v2.66Zm9.238-6.322L67.084-11v2.471H66.4V-11l-2.7-4.466h.711l2.332,3.732,2.282-3.732Zm9.02,6.937-.82-1.846H74.108L73.3-8.525h-.731l3.112-6.937h.711L79.5-8.525Zm-4.387-2.461h3.3l-1.66-3.752Zm6.264-4.486h.85L84.2-10.262l2.677-5.211h.85v6.947H87.09l-.01-5.995-2.707,5.25H84l-2.717-5.25v5.995h-.642Zm14.257.01L92.238-11v2.471h-.682V-11l-2.7-4.466h.711L91.9-11.731l2.282-3.732Zm4.979,1.131a3.565,3.565,0,0,0-.929-.412A3.46,3.46,0,0,0,98-14.887a2.047,2.047,0,0,0-1.141.283.877.877,0,0,0-.43.769,1.01,1.01,0,0,0,.237.695,1.677,1.677,0,0,0,.583.422,9.179,9.179,0,0,0,.948.342,8.127,8.127,0,0,1,1.131.412,2,2,0,0,1,.731.591,1.618,1.618,0,0,1,.3,1.022,1.624,1.624,0,0,1-.311.983,2,2,0,0,1-.874.66,3.36,3.36,0,0,1-1.294.233,3.609,3.609,0,0,1-1.408-.288,3.792,3.792,0,0,1-1.181-.764l.316-.566a3.408,3.408,0,0,0,1.077.715,3.089,3.089,0,0,0,1.205.258,2.165,2.165,0,0,0,1.255-.323,1.006,1.006,0,0,0,.464-.868,1.062,1.062,0,0,0-.237-.715,1.572,1.572,0,0,0-.583-.427q-.346-.149-.968-.347a9.91,9.91,0,0,1-1.126-.412,1.9,1.9,0,0,1-.721-.576,1.582,1.582,0,0,1-.3-1,1.5,1.5,0,0,1,.3-.923,1.873,1.873,0,0,1,.83-.61,3.309,3.309,0,0,1,1.235-.213,3.957,3.957,0,0,1,1.131.169,3.927,3.927,0,0,1,1,.447Zm5.108-1.191a3.59,3.59,0,0,1,1.813.471,3.568,3.568,0,0,1,1.309,1.275,3.36,3.36,0,0,1,.484,1.767,3.412,3.412,0,0,1-.484,1.777,3.582,3.582,0,0,1-1.309,1.29,3.561,3.561,0,0,1-1.813.476,3.561,3.561,0,0,1-1.813-.476,3.582,3.582,0,0,1-1.309-1.29,3.412,3.412,0,0,1-.484-1.777,3.36,3.36,0,0,1,.484-1.767,3.568,3.568,0,0,1,1.309-1.275A3.59,3.59,0,0,1,104.983-15.522Zm.01.615a2.878,2.878,0,0,0-1.462.387,2.912,2.912,0,0,0-1.067,1.052,2.8,2.8,0,0,0-.4,1.459,2.856,2.856,0,0,0,.4,1.469,2.927,2.927,0,0,0,1.067,1.067,2.85,2.85,0,0,0,1.462.392,2.806,2.806,0,0,0,1.447-.392A2.939,2.939,0,0,0,107.5-10.54a2.855,2.855,0,0,0,.4-1.469,2.8,2.8,0,0,0-.4-1.459,2.924,2.924,0,0,0-1.062-1.052A2.834,2.834,0,0,0,104.992-14.907Zm5.1-.556h4.327v.615h-3.646v2.67h3.25v.615h-3.25v3.037h-.682Zm4.555-.01h5.246v.625h-2.282v6.322h-.682v-6.322h-2.282Zm6.442.01h4.624v.615h-3.942v2.481H125.3v.615h-3.527v2.61h4.071v.615h-4.752Zm11.441,1.409a3.033,3.033,0,0,0-.958-.635,2.881,2.881,0,0,0-1.126-.228,2.87,2.87,0,0,0-1.467.387,2.874,2.874,0,0,0-1.057,1.057,2.857,2.857,0,0,0-.39,1.464,2.831,2.831,0,0,0,.39,1.459,2.924,2.924,0,0,0,1.057,1.057,2.842,2.842,0,0,0,1.467.392,2.911,2.911,0,0,0,1.116-.223,3.171,3.171,0,0,0,.968-.62l.415.447a3.98,3.98,0,0,1-1.176.754,3.466,3.466,0,0,1-1.354.278,3.516,3.516,0,0,1-1.8-.476,3.555,3.555,0,0,1-1.3-1.29,3.439,3.439,0,0,1-.479-1.777,3.361,3.361,0,0,1,.484-1.767,3.568,3.568,0,0,1,1.309-1.275,3.571,3.571,0,0,1,1.8-.471,3.586,3.586,0,0,1,1.354.263,3.629,3.629,0,0,1,1.146.729Zm1.907-1.409h.682v3.176h4.317v-3.176h.682v6.937h-.682v-3.146h-4.317v3.146h-.682Zm7.726,6.114a.429.429,0,0,1,.316.129.433.433,0,0,1,.128.318.45.45,0,0,1-.128.323.421.421,0,0,1-.316.134.413.413,0,0,1-.311-.129.454.454,0,0,1-.124-.328.442.442,0,0,1,.124-.318A.413.413,0,0,1,142.16-9.349Zm7.064-4.7a3.033,3.033,0,0,0-.958-.635,2.881,2.881,0,0,0-1.126-.228,2.87,2.87,0,0,0-1.467.387,2.873,2.873,0,0,0-1.057,1.057,2.857,2.857,0,0,0-.39,1.464,2.83,2.83,0,0,0,.39,1.459,2.923,2.923,0,0,0,1.057,1.057,2.842,2.842,0,0,0,1.467.392,2.911,2.911,0,0,0,1.116-.223,3.171,3.171,0,0,0,.968-.62l.415.447a3.979,3.979,0,0,1-1.176.754,3.466,3.466,0,0,1-1.354.278,3.516,3.516,0,0,1-1.8-.476,3.555,3.555,0,0,1-1.3-1.29,3.439,3.439,0,0,1-.479-1.777,3.36,3.36,0,0,1,.484-1.767,3.568,3.568,0,0,1,1.309-1.275,3.571,3.571,0,0,1,1.8-.471,3.586,3.586,0,0,1,1.354.263,3.629,3.629,0,0,1,1.146.729Zm4.663-1.469a3.59,3.59,0,0,1,1.813.471,3.569,3.569,0,0,1,1.309,1.275,3.361,3.361,0,0,1,.484,1.767,3.412,3.412,0,0,1-.484,1.777,3.583,3.583,0,0,1-1.309,1.29,3.561,3.561,0,0,1-1.813.476,3.561,3.561,0,0,1-1.813-.476,3.582,3.582,0,0,1-1.309-1.29,3.412,3.412,0,0,1-.484-1.777,3.361,3.361,0,0,1,.484-1.767,3.568,3.568,0,0,1,1.309-1.275A3.59,3.59,0,0,1,153.888-15.522Zm.01.615a2.879,2.879,0,0,0-1.462.387,2.912,2.912,0,0,0-1.067,1.052,2.8,2.8,0,0,0-.4,1.459,2.855,2.855,0,0,0,.4,1.469,2.927,2.927,0,0,0,1.067,1.067,2.85,2.85,0,0,0,1.462.392,2.806,2.806,0,0,0,1.447-.392,2.939,2.939,0,0,0,1.062-1.067,2.856,2.856,0,0,0,.4-1.469,2.8,2.8,0,0,0-.4-1.459,2.924,2.924,0,0,0-1.062-1.052A2.833,2.833,0,0,0,153.9-14.907Zm5.1-.566h.85l2.707,5.211,2.677-5.211h.85v6.947h-.632l-.01-5.995-2.707,5.25h-.375l-2.717-5.25v5.995H159Z" transform="translate(-2.058 44.815)" fill="#0054a4"/>
    <path id="Path_30067" data-name="Path 30067" d="M13.316-25.2a8.855,8.855,0,0,1,5.475,1.518,4.974,4.974,0,0,1,2,4.195,5.072,5.072,0,0,1-1.1,3.313,5.37,5.37,0,0,1-3.022,1.812,5.906,5.906,0,0,1,3.721,1.91,5.683,5.683,0,0,1,1.349,3.868A5.412,5.412,0,0,1,19.539-4a9.888,9.888,0,0,1-6.06,1.648H3.6V-25.2Zm-.162,9.695a5.213,5.213,0,0,0,3.266-.9,3.055,3.055,0,0,0,1.154-2.562,2.975,2.975,0,0,0-1.154-2.513,5.147,5.147,0,0,0-3.266-.849H6.72v6.822Zm0,10.282a6.7,6.7,0,0,0,3.964-.963,3.208,3.208,0,0,0,1.43-2.791,3.107,3.107,0,0,0-1.43-2.709,6.942,6.942,0,0,0-3.964-.979H6.72v7.442ZM29.986-25.2h3.12V-2.35h-3.12Zm22.129,0a12.161,12.161,0,0,1,6,1.485,10.9,10.9,0,0,1,4.208,4.1,11.358,11.358,0,0,1,1.527,5.843A11.266,11.266,0,0,1,62.3-7.932a10.988,10.988,0,0,1-4.241,4.1A12.319,12.319,0,0,1,52.017-2.35H42.854V-25.2ZM52.18-5.19A8.493,8.493,0,0,0,56.486-6.3,8.127,8.127,0,0,0,59.54-9.368a8.647,8.647,0,0,0,1.121-4.374,8.613,8.613,0,0,0-1.137-4.407,8.3,8.3,0,0,0-3.1-3.085A8.636,8.636,0,0,0,52.05-22.36H45.973V-5.19ZM71.547-25.2h3.7L83.57-9.14,91.824-25.2h3.737V-2.35H92.636L92.6-20.6,84.512-4.766H82.6L74.439-20.6V-2.35H71.547Zm50.66,22.85L119.8-7.9H107.811L105.439-2.35h-3.282L112.263-25.2h3.249L125.586-2.35Zm-13.16-8.389H118.6l-4.809-11.1Zm18-14.461h17.775v2.873h-7.344V-2.35h-3.12V-22.327h-7.311Zm24.6,0H167.44v2.84H154.767v7.051h11.341v2.84H154.767V-5.19H167.83v2.84H151.647Z" transform="translate(-3.6 25.2)" fill="#0054a4"/>
  </g>
  <g id="Group_6568" data-name="Group 6568">
    <path id="Ellipse_503" data-name="Ellipse 503" d="M27.667,1.551A26.123,26.123,0,0,0,17.5,51.732,26.123,26.123,0,0,0,37.832,3.6,25.951,25.951,0,0,0,27.667,1.551m0-1.551A27.667,27.667,0,1,1,0,27.667,27.667,27.667,0,0,1,27.667,0Z" fill="#0054a4"/>
    <g id="Group_6566" data-name="Group 6566" transform="translate(9.05 18.116)">
      <path id="Path_30087" data-name="Path 30087" d="M.24-33.337-2.686-37.6H9.345q5.7,0,5.7,5.7c0,1.266-1.016,2.322-1.438,3.166.422.844,1.438,1.9,1.438,3.166q0,5.7-5.7,5.7H7.559L4.621-24.13H9.345c.422,0,.633-1.016.633-1.438s-.211-1.438-.633-1.438H3.9L.974-30.461h8.37c.422,0,.633-1.016.633-1.438s-.211-1.438-.633-1.438Z" transform="translate(2.686 38.3)" fill="#0054a4"/>
      <path id="Path_30088" data-name="Path 30088" d="M4.05-30.868V-22.9H0V-41.18l8.5,7.888,8.5-7.888v17.063l-4.05,2.427v-9.178L8.5-27.482Z" transform="translate(19.814 41.18)" fill="#0054a4"/>
    </g>
  </g>
</svg>
