<svg xmlns="http://www.w3.org/2000/svg" xmlns:xlink="http://www.w3.org/1999/xlink" width="180" height="180" viewBox="0 0 180 180">
  <defs>
    <clipPath id="clip-path">
      <rect id="Rectangle_291" data-name="Rectangle 291" width="76.589" height="74.648" fill="#141774"/>
    </clipPath>
  </defs>
  <g id="Tick_icon" data-name="Tick icon" transform="translate(-215.857 -4313.857)">
    <g id="Ellipse_10" data-name="Ellipse 10" transform="translate(215.857 4313.857)" fill="none" stroke="#141774" stroke-width="3">
      <circle cx="90" cy="90" r="90" stroke="none"/>
      <circle cx="90" cy="90" r="88.5" fill="none"/>
    </g>
    <g id="Group_5159" data-name="Group 5159" transform="translate(267.563 4366.533)">
      <g id="Group_5158" data-name="Group 5158" clip-path="url(#clip-path)">
        <path id="Path_9658" data-name="Path 9658" d="M7.991,34.119A7.527,7.527,0,0,1,13.4,36.206q6.7,6.072,13.379,12.169c1.624,1.481,2.454,1.457,3.889-.164L71.662,1.9c.28-.316.554-.637.844-.942C73.554-.137,74.74-.3,75.758.5a2.24,2.24,0,0,1,.351,3.154q-5.956,9.61-11.931,19.208Q49.452,46.582,34.729,70.3c-2.185,3.519-5.144,5.038-8.661,4.057A7.9,7.9,0,0,1,22.3,72.034C15.383,63.751,8.575,55.379,1.8,46.986A7.458,7.458,0,0,1,.9,38.559a7.617,7.617,0,0,1,7.09-4.44" transform="translate(0 0)" fill="#141774"/>
      </g>
    </g>
  </g>
</svg>
