<svg width="21" height="21" viewBox="0 0 21 21" fill="none" xmlns="http://www.w3.org/2000/svg">
<path d="M16.7313 3.68945H3.95902C3.62355 3.68945 3.35165 3.96212 3.35165 4.29682C3.35165 4.63152 3.62355 4.90418 3.95902 4.90418H16.7313C17.583 4.90418 18.2769 5.59733 18.2769 6.45132V14.2996C18.2769 15.152 17.583 15.8452 16.7313 15.8452H4.01952C3.16783 15.8452 2.47392 15.152 2.47392 14.2996V6.39081C2.47392 6.05458 2.20126 5.78268 1.86502 5.78268C1.53032 5.78268 1.25842 6.05458 1.25842 6.39081V14.2996C1.25842 15.823 2.4969 17.0607 4.01952 17.0607H16.7313C18.2539 17.0607 19.4924 15.823 19.4924 14.2996V6.45132C19.4924 4.92716 18.2539 3.68945 16.7313 3.68945ZM14.6902 12.3182C14.321 12.3182 14.0223 12.0187 14.0223 11.6518C14.0223 11.3148 13.7496 11.0429 13.4142 11.0429C13.0787 11.0429 12.8068 11.3148 12.8068 11.6518C12.8068 12.4752 13.3429 13.1706 14.082 13.4249V13.7688C14.082 14.1043 14.3547 14.3777 14.6902 14.3777C15.0264 14.3777 15.2975 14.1043 15.2975 13.7688V13.4249C16.0374 13.1706 16.5728 12.4752 16.5728 11.6518C16.5728 10.6117 15.7287 9.76694 14.6902 9.76694C14.321 9.76694 14.0223 9.46747 14.0223 9.09983C14.0223 8.73143 14.321 8.43196 14.6902 8.43196C15.0578 8.43196 15.3573 8.73143 15.3573 9.09983C15.3573 9.4353 15.6292 9.70796 15.9654 9.70796C16.3009 9.70796 16.5728 9.4353 16.5728 9.09983C16.5728 8.27495 16.0374 7.58104 15.2975 7.32599V6.98056C15.2975 6.6451 15.0264 6.37243 14.6902 6.37243C14.3547 6.37243 14.082 6.6451 14.082 6.98056V7.32599C13.3429 7.58104 12.8068 8.27495 12.8068 9.09983C12.8068 10.1384 13.6516 10.9824 14.6902 10.9824C15.0578 10.9824 15.3573 11.2819 15.3573 11.6518C15.3573 12.0187 15.0578 12.3182 14.6902 12.3182ZM4.29678 14.0223H10.375C10.7105 14.0223 10.9824 13.7489 10.9824 13.4142C10.9824 13.0795 10.7105 12.8068 10.375 12.8068H4.29678C3.96131 12.8068 3.68942 13.0795 3.68942 13.4142C3.68942 13.7489 3.96131 14.0223 4.29678 14.0223ZM4.29678 7.94408H10.375C10.7105 7.94408 10.9824 7.67141 10.9824 7.33671C10.9824 7.00048 10.7105 6.72858 10.375 6.72858H4.29678C3.96131 6.72858 3.68942 7.00048 3.68942 7.33671C3.68942 7.67141 3.96131 7.94408 4.29678 7.94408ZM4.29678 10.9824H10.375C10.7105 10.9824 10.9824 10.7105 10.9824 10.3743C10.9824 10.0388 10.7105 9.76694 10.375 9.76694H4.29678C3.96131 9.76694 3.68942 10.0388 3.68942 10.3743C3.68942 10.7105 3.96131 10.9824 4.29678 10.9824Z" fill="black"/>
<path d="M12 4H17C18.1046 4 19 4.89543 19 6V14C19 15.1046 18.1046 16 17 16H12V4Z" fill="#00A9E2"/>
<circle cx="15.5" cy="7.5" r="2.5" fill="#FDB714"/>
</svg>
