<svg id="OBJECT" xmlns="http://www.w3.org/2000/svg" viewBox="0 0 32 32"><defs><style>.cls-1{fill:#80b6ff;}.cls-2{fill:#faf7f5;}.cls-3{fill:#6d6daa;}</style></defs><title>bill</title><path class="cls-1" d="M26,16h0a4,4,0,0,1,4,4V30a0,0,0,0,1,0,0H24a2,2,0,0,1-2-2V20A4,4,0,0,1,26,16Z" transform="translate(52 46) rotate(180)"/><path class="cls-2" d="M22,26V2H20L17.33,5,14.67,2,12,5,9.33,2,6.67,5,4,2H2V26a4,4,0,0,0,4,4H26A4,4,0,0,1,22,26Z"/><rect class="cls-1" x="6" y="10" width="12" height="6"/><path class="cls-3" d="M28,15H23V2a1,1,0,0,0-1-1H20a1,1,0,0,0-.75.34L17.33,3.5,15.41,1.34a1,1,0,0,0-1.49,0L12,3.5,10.08,1.34a1,1,0,0,0-1.49,0L6.67,3.5,4.75,1.34A1,1,0,0,0,4,1H2A1,1,0,0,0,1,2V26a5,5,0,0,0,5,5H26a5,5,0,0,0,5-5V18A3,3,0,0,0,28,15ZM6,29a3,3,0,0,1-3-3V3h.55L5.92,5.66a1,1,0,0,0,1.49,0L9.33,3.5l1.92,2.16a1,1,0,0,0,1.5,0L14.67,3.5l1.92,2.16a1,1,0,0,0,1.49,0L20.45,3H21V26a5,5,0,0,0,1,3Zm23-3a3,3,0,0,1-6,0V17h5a1,1,0,0,1,1,1Z"/><path class="cls-3" d="M18,9H6a1,1,0,0,0-1,1v6a1,1,0,0,0,1,1H18a1,1,0,0,0,1-1V10A1,1,0,0,0,18,9Zm-1,6H7V11H17Z"/><path class="cls-3" d="M6,22h9a1,1,0,0,0,0-2H6a1,1,0,0,0,0,2Z"/><path class="cls-3" d="M18,24H6a1,1,0,0,0,0,2H18a1,1,0,0,0,0-2Z"/></svg>