<svg id="OBJECT" xmlns="http://www.w3.org/2000/svg" viewBox="0 0 512 512"><defs><style>.cls-1{fill:#ffa96b;}.cls-2{fill:#333;}.cls-3{fill:#ff7b79;}.cls-4{fill:#faf7f5;}</style></defs><title>box</title><rect class="cls-1" x="15" y="15" width="300" height="482"/><path class="cls-2" d="M315,512H15A15,15,0,0,1,0,497V15A15,15,0,0,1,15,0H315a15,15,0,0,1,15,15V497A15,15,0,0,1,315,512ZM30,482H300V30H30Z"/><rect class="cls-3" x="137" y="177" width="360" height="320"/><path class="cls-2" d="M497,512H137a15,15,0,0,1-15-15V177a15,15,0,0,1,15-15H497a15,15,0,0,1,15,15V497A15,15,0,0,1,497,512ZM152,482H482V192H152Z"/><polygon class="cls-3" points="220.63 125 165.63 105 110.63 125 110.63 15 220.63 15 220.63 125"/><path class="cls-2" d="M220.62,140a15.09,15.09,0,0,1-5.12-.9L165.63,121,115.75,139.1A15,15,0,0,1,95.63,125V15a15,15,0,0,1,15-15h110a15,15,0,0,1,15,15V125a15,15,0,0,1-15,15Zm-55-50a15,15,0,0,1,5.12.9l34.88,12.68V30h-80v73.58L160.5,90.9A15,15,0,0,1,165.63,90Z"/><polygon class="cls-4" points="377 317 317 297 257 317 257 177 377 177 377 317"/><path class="cls-2" d="M377,332a14.89,14.89,0,0,1-4.74-.77L317,312.81l-55.26,18.42A15,15,0,0,1,242,317V177a15,15,0,0,1,15-15H377a15,15,0,0,1,15,15V317a15,15,0,0,1-15,15Zm-60-50a15.08,15.08,0,0,1,4.74.77L362,296.19V192H272V296.19l40.26-13.42A15.08,15.08,0,0,1,317,282Z"/></svg>