<svg width="21" height="21" viewBox="0 0 21 21" fill="none" xmlns="http://www.w3.org/2000/svg">
<g clip-path="url(#clip0_746_5444)">
<path d="M2.77531 16.3872C2.67424 16.3872 2.57318 16.3399 2.50952 16.2513C-0.328101 12.3197 0.105024 6.97328 3.53918 3.53847C7.37824 -0.299281 13.6225 -0.299281 17.4615 3.53847C17.5895 3.66644 17.5895 3.87447 17.4615 4.00244C17.3336 4.13041 17.1255 4.13041 16.9976 4.00244C13.4144 0.421281 7.58562 0.421281 4.00315 4.00244C0.798024 7.20888 0.393774 12.1983 3.04109 15.8668C3.1474 16.0144 3.11393 16.2192 2.96759 16.3248C2.90918 16.3668 2.84159 16.3872 2.77531 16.3872Z" fill="#263238"/>
<path d="M10.5001 20.3382C7.97874 20.3382 5.45809 19.3788 3.53921 17.4599C3.41125 17.3319 3.41125 17.1239 3.53921 16.9959C3.66718 16.868 3.87521 16.868 4.00318 16.9959C7.58565 20.5771 13.4151 20.5771 16.9976 16.9959C20.1955 13.7961 20.6043 8.81185 17.9688 5.14472C17.8632 4.99707 17.8973 4.79232 18.0437 4.68666C18.1913 4.581 18.3961 4.61447 18.5017 4.76147C21.3256 8.69044 20.8878 14.031 17.4609 17.4599C15.542 19.3788 13.0214 20.3376 10.5001 20.3382Z" fill="#263238"/>
<path d="M3.77087 19.171C3.58975 19.171 3.44275 19.024 3.44275 18.8429V17.2285C3.44275 17.0474 3.58975 16.9004 3.77087 16.9004H5.38591C5.56703 16.9004 5.71403 17.0474 5.71403 17.2285C5.71403 17.4096 5.56703 17.5566 5.38591 17.5566H4.099V18.8429C4.099 19.024 3.952 19.171 3.77087 19.171Z" fill="#263238"/>
<path d="M17.2292 4.09777H15.6141C15.433 4.09777 15.286 3.95077 15.286 3.76965C15.286 3.58852 15.433 3.44152 15.6141 3.44152H16.901V2.15527C16.901 1.97415 17.048 1.82715 17.2292 1.82715C17.4103 1.82715 17.5573 1.97415 17.5573 2.15527V3.76965C17.5573 3.95077 17.4103 4.09777 17.2292 4.09777Z" fill="#263238"/>
<path d="M10.5 17.7188C6.51984 17.7188 3.28125 14.4802 3.28125 10.5C3.28125 6.51984 6.51984 3.28125 10.5 3.28125C14.4802 3.28125 17.7188 6.51984 17.7188 10.5C17.7188 14.4802 14.4802 17.7188 10.5 17.7188ZM10.5 3.9375C6.88144 3.9375 3.9375 6.88144 3.9375 10.5C3.9375 14.1186 6.88144 17.0625 10.5 17.0625C14.1186 17.0625 17.0625 14.1186 17.0625 10.5C17.0625 6.88144 14.1186 3.9375 10.5 3.9375Z" fill="#263238"/>
<path d="M10.5 17.7188C6.51984 17.7188 3.28125 14.4802 3.28125 10.5C3.28125 6.51984 6.51984 3.28125 10.5 3.28125C14.4802 3.28125 17.7188 6.51984 17.7188 10.5C17.7188 14.4802 14.4802 17.7188 10.5 17.7188ZM10.5 3.9375C6.88144 3.9375 3.9375 6.88144 3.9375 10.5C3.9375 14.1186 6.88144 17.0625 10.5 17.0625C14.1186 17.0625 17.0625 14.1186 17.0625 10.5C17.0625 6.88144 14.1186 3.9375 10.5 3.9375Z" fill="#263238"/>
<path d="M15.5177 15.5396C15.4869 15.5396 15.456 15.535 15.4252 15.5258C12.222 14.5847 8.7767 14.5847 5.57354 15.5258C5.40029 15.5763 5.2172 15.4785 5.16667 15.3033C5.11548 15.1294 5.21458 14.9476 5.38914 14.8964C8.71173 13.9199 12.2876 13.9199 15.6096 14.8964C15.7841 14.9476 15.8832 15.1294 15.832 15.3033C15.7914 15.447 15.6601 15.5396 15.5177 15.5396Z" fill="#263238"/>
<path d="M10.5 6.84003C9.30429 6.84003 8.10532 6.7206 6.93457 6.48566C6.75672 6.44957 6.64188 6.27697 6.67732 6.09913C6.71341 5.92128 6.88994 5.8071 7.06385 5.84188C9.82207 6.39707 12.7161 6.26975 15.4251 5.47372C15.5977 5.42188 15.7815 5.52097 15.832 5.69619C15.8832 5.8701 15.7841 6.05188 15.6095 6.10307C13.9492 6.59197 12.2298 6.84003 10.5 6.84003Z" fill="#263238"/>
<path d="M10.8308 17.7018C10.7265 17.7018 10.6234 17.652 10.5598 17.5588C10.458 17.4085 10.4961 17.205 10.6457 17.1027C12.8468 15.6005 14.1606 13.1324 14.1606 10.4995C14.1606 7.86661 12.8468 5.39911 10.6457 3.89629C10.4961 3.79392 10.458 3.58983 10.5598 3.4402C10.6621 3.29058 10.8662 3.25383 11.0159 3.35423C13.3961 4.97911 14.8169 7.65004 14.8169 10.4995C14.8169 13.3489 13.3961 16.0199 11.0159 17.6447C10.9588 17.6828 10.8951 17.7018 10.8308 17.7018Z" fill="#263238"/>
<path d="M10.1693 17.7024C10.105 17.7024 10.0413 17.684 9.98423 17.6453C7.60401 16.0204 6.18323 13.3495 6.18323 10.5001C6.18323 8.44404 6.92413 6.45166 8.26879 4.88913C8.38757 4.75132 8.59495 4.73754 8.73145 4.85435C8.8686 4.97248 8.88435 5.17985 8.76623 5.31701C7.52395 6.7601 6.83948 8.60088 6.83948 10.4994C6.83948 13.1323 8.15329 15.5998 10.3544 17.1026C10.504 17.205 10.542 17.4091 10.4403 17.5587C10.3773 17.6519 10.2736 17.7024 10.1693 17.7024Z" fill="#263238"/>
<path d="M10.5 17.3562C10.3189 17.3562 10.1719 17.2092 10.1719 17.0281V3.97266C10.1719 3.79153 10.3189 3.64453 10.5 3.64453C10.6811 3.64453 10.8281 3.79153 10.8281 3.97266V17.0287C10.8281 17.2099 10.6811 17.3562 10.5 17.3562Z" fill="#263238"/>
<path d="M17.0277 10.8281H4.95667C4.77554 10.8281 4.62854 10.6811 4.62854 10.5C4.62854 10.3189 4.77554 10.1719 4.95667 10.1719H17.0284C17.2095 10.1719 17.3565 10.3189 17.3565 10.5C17.3565 10.6811 17.2095 10.8281 17.0277 10.8281Z" fill="#263238"/>
</g>
<defs>
<clipPath id="clip0_746_5444">
<rect width="21" height="21" fill="white"/>
</clipPath>
</defs>
</svg>
