<svg id="OBJECT" xmlns="http://www.w3.org/2000/svg" viewBox="0 0 32 32"><defs><style>.cls-1{fill:#faf7f5;}.cls-2{fill:#a0e5a5;}.cls-3{fill:#798bc6;}.cls-4{fill:#6d6daa;}</style></defs><title>calendar</title><path class="cls-1" d="M4,6H28a2,2,0,0,1,2,2V30a0,0,0,0,1,0,0H2a0,0,0,0,1,0,0V8A2,2,0,0,1,4,6Z"/><path class="cls-2" d="M4,6H28a2,2,0,0,1,2,2v4a0,0,0,0,1,0,0H2a0,0,0,0,1,0,0V8A2,2,0,0,1,4,6Z"/><rect class="cls-3" x="6" y="2" width="5" height="4"/><rect class="cls-3" x="21" y="2" width="5" height="4"/><path class="cls-4" d="M28,5H27V2a1,1,0,0,0-1-1H21a1,1,0,0,0-1,1V5H12V2a1,1,0,0,0-1-1H6A1,1,0,0,0,5,2V5H4A3,3,0,0,0,1,8V30a1,1,0,0,0,1,1H30a1,1,0,0,0,1-1V8A3,3,0,0,0,28,5ZM22,3h3V5H22ZM7,3h3V5H7ZM4,7H28a1,1,0,0,1,1,1v3H3V8A1,1,0,0,1,4,7ZM3,29V13H29V29Z"/><path class="cls-4" d="M8,15H6a1,1,0,0,0,0,2H8a1,1,0,0,0,0-2Z"/><path class="cls-4" d="M17,15H15a1,1,0,0,0,0,2h2a1,1,0,0,0,0-2Z"/><path class="cls-4" d="M26,15H24a1,1,0,0,0,0,2h2a1,1,0,0,0,0-2Z"/><path class="cls-4" d="M8,20H6a1,1,0,0,0,0,2H8a1,1,0,0,0,0-2Z"/><path class="cls-4" d="M17,20H15a1,1,0,0,0,0,2h2a1,1,0,0,0,0-2Z"/><path class="cls-4" d="M26,20H24a1,1,0,0,0,0,2h2a1,1,0,0,0,0-2Z"/><path class="cls-4" d="M8,25H6a1,1,0,0,0,0,2H8a1,1,0,0,0,0-2Z"/><path class="cls-4" d="M17,25H15a1,1,0,0,0,0,2h2a1,1,0,0,0,0-2Z"/><path class="cls-4" d="M26,25H24a1,1,0,0,0,0,2h2a1,1,0,0,0,0-2Z"/></svg>