<svg width="23" height="23" viewBox="0 0 23 23" fill="none" xmlns="http://www.w3.org/2000/svg">
<path d="M5.7334 9.70298H15.4171C16.734 9.70298 17.8054 10.7744 17.8054 12.0913V12.7594H19.5152C20.5365 12.7594 21.3645 11.9314 21.3645 10.9101V7.7832H5.7334V9.70298Z" fill="black"/>
<path d="M19.5152 3.33301H7.58265C6.56135 3.33301 5.7334 4.16096 5.7334 5.18226V5.96745H21.3645V5.18226C21.3645 4.16096 20.5365 3.33301 19.5152 3.33301Z" fill="black"/>
<path d="M15.4171 10.2412H3.48451C2.46321 10.2412 1.63525 11.0692 1.63525 12.0905V17.8174C1.63525 18.8387 2.46321 19.6667 3.48451 19.6667H15.4171C16.4384 19.6667 17.2663 18.8387 17.2663 17.8174V12.0905C17.2663 11.0692 16.4384 10.2412 15.4171 10.2412ZM5.90894 14.8172C5.90894 15.0382 5.72975 15.2174 5.50873 15.2174H3.38195C3.16094 15.2174 2.98179 15.0382 2.98179 14.8172V13.5101C2.98179 13.289 3.16094 13.1099 3.38195 13.1099H5.50873C5.72975 13.1099 5.90894 13.289 5.90894 13.5101V14.8172ZM13.5196 18.5544C13.0346 18.5544 12.6414 18.1613 12.6414 17.6762C12.6414 17.1912 13.0346 16.7981 13.5196 16.7981C14.0046 16.7981 14.3977 17.1912 14.3977 17.6762C14.3977 18.1613 14.0046 18.5544 13.5196 18.5544ZM15.51 18.5544C15.025 18.5544 14.6319 18.1613 14.6319 17.6762C14.6319 17.1912 15.025 16.7981 15.51 16.7981C15.995 16.7981 16.3882 17.1912 16.3882 17.6762C16.3882 18.1613 15.995 18.5544 15.51 18.5544Z" fill="black"/>
<line x1="3.83325" y1="14.183" x2="5.54757" y2="14.183" stroke="#00A9E2" stroke-width="2.3"/>
<line x1="5.3667" y1="5.75046" x2="20.7" y2="5.75046" stroke="#FDB714" stroke-width="0.766667"/>
</svg>
