<svg width="22" height="22" viewBox="0 0 22 22" fill="none" xmlns="http://www.w3.org/2000/svg">
<rect x="2" y="16" width="17" height="3" fill="#FDB714"/>
<rect x="5" y="2" width="6" height="3" fill="#00A9E2"/>
<path d="M19.25 16.5L18.4894 10.7957C18.3692 9.89377 18.309 9.44277 18.0943 9.10325C17.905 8.80407 17.6332 8.56608 17.3116 8.41803C16.9467 8.25 16.4918 8.25 15.5818 8.25H6.41818C5.50829 8.25 5.05335 8.25 4.68839 8.41803C4.36683 8.56608 4.095 8.80407 3.90574 9.10325C3.69096 9.44277 3.63083 9.89377 3.51058 10.7957L2.75 16.5M19.25 16.5H2.75M19.25 16.5V17.7833C19.25 18.2968 19.25 18.5534 19.1501 18.7495C19.0622 18.922 18.922 19.0622 18.7495 19.1501C18.5534 19.25 18.2968 19.25 17.7833 19.25H4.21667C3.70329 19.25 3.44659 19.25 3.25051 19.1501C3.07803 19.0622 2.9378 18.922 2.84991 18.7495C2.75 18.5534 2.75 18.2968 2.75 17.7833V16.5M6.875 11V11.0092M9.625 11V11.0092M8.25 13.75V13.7592M11 13.75V13.7592M13.75 13.75V13.7592M12.375 11V11.0092M15.125 11V11.0092M8.25 8.25V5.5M5.31667 5.5H11.1833C11.44 5.5 11.5683 5.5 11.6664 5.45004C11.7527 5.40611 11.8228 5.33599 11.8667 5.24975C11.9167 5.1517 11.9167 5.02336 11.9167 4.76667V3.48333C11.9167 3.22664 11.9167 3.0983 11.8667 3.00025C11.8228 2.91401 11.7527 2.84389 11.6664 2.79996C11.5683 2.75 11.44 2.75 11.1833 2.75H5.31667C5.05997 2.75 4.93163 2.75 4.83358 2.79996C4.74734 2.84389 4.67723 2.91401 4.63329 3.00025C4.58333 3.0983 4.58333 3.22664 4.58333 3.48333V4.76667C4.58333 5.02336 4.58333 5.1517 4.63329 5.24975C4.67723 5.33599 4.74734 5.40611 4.83358 5.45004C4.93163 5.5 5.05997 5.5 5.31667 5.5Z" stroke="black" stroke-linecap="round" stroke-linejoin="round"/>
</svg>
