<svg id="OBJECT" xmlns="http://www.w3.org/2000/svg" viewBox="0 0 32 32"><defs><style>.cls-1{fill:#80b6ff;}.cls-2{fill:#ffcd69;}</style></defs><title>clipboard</title><rect class="cls-1" x="6" y="6" width="20" height="24" rx="1" ry="1"/><path class="cls-2" d="M19.22,10H12.78a1,1,0,0,1-1-.76L10.62,4.49A2,2,0,0,1,12.56,2h6.88a2,2,0,0,1,1.94,2.49L20.19,9.24A1,1,0,0,1,19.22,10Z"/><path d="M25,5H22.28l.07-.27A3,3,0,0,0,19.44,1H12.56A3,3,0,0,0,9.65,4.73L9.72,5H7A2,2,0,0,0,5,7V29a2,2,0,0,0,2,2H25a2,2,0,0,0,2-2V7A2,2,0,0,0,25,5ZM11.77,3.38A1,1,0,0,1,12.56,3h6.88a1,1,0,0,1,.79.38,1,1,0,0,1,.18.86L19.22,9H12.78L11.59,4.24A1,1,0,0,1,11.77,3.38ZM25,29H7V7h3.22l.62,2.48A2,2,0,0,0,12.78,11h6.44a2,2,0,0,0,1.94-1.52L21.78,7H25Z"/><path d="M21,14H11a1,1,0,0,0,0,2H21a1,1,0,0,0,0-2Z"/><path d="M21,19H11a1,1,0,0,0,0,2H21a1,1,0,0,0,0-2Z"/><path d="M21,24H11a1,1,0,0,0,0,2H21a1,1,0,0,0,0-2Z"/></svg>