<svg width="21" height="21" viewBox="0 0 21 21" fill="none" xmlns="http://www.w3.org/2000/svg">
<g clip-path="url(#clip0_746_5580)">
<rect x="7" y="6" width="3" height="4" fill="#00A9E2"/>
<circle cx="16.5" cy="12.5" r="2.5" fill="#FDB714"/>
<path d="M16.4062 13.7812C16.7687 13.7812 17.0625 13.4874 17.0625 13.125C17.0625 12.7626 16.7687 12.4688 16.4062 12.4688C16.0438 12.4688 15.75 12.7626 15.75 13.125C15.75 13.4874 16.0438 13.7812 16.4062 13.7812Z" fill="black"/>
<path d="M12.7405 19.6876H9.84375V16.7907L13.1471 13.4873C13.1325 13.3671 13.1251 13.2462 13.125 13.1251C13.1246 12.4606 13.326 11.8116 13.7025 11.264C14.079 10.7164 14.6128 10.2961 15.2335 10.0585C15.8541 9.82103 16.5322 9.77755 17.1781 9.93387C17.824 10.0902 18.4072 10.4389 18.8505 10.934C19.2939 11.429 19.5765 12.0469 19.6609 12.7061C19.7453 13.3652 19.6277 14.0345 19.3234 14.6253C19.0192 15.2161 18.5427 15.7006 17.9571 16.0147C17.3715 16.3287 16.7043 16.4576 16.0439 16.3842L12.7405 19.6876ZM11.1562 18.3751H12.197L15.6135 14.9585L15.9675 15.0397C16.3894 15.1402 16.8326 15.1003 17.2298 14.9259C17.6269 14.7516 17.9563 14.4524 18.1678 14.0738C18.3794 13.6952 18.4617 13.2579 18.402 12.8283C18.3424 12.3987 18.1442 12.0003 17.8375 11.6937C17.5308 11.387 17.1324 11.1888 16.7028 11.1292C16.2732 11.0697 15.8359 11.1519 15.4573 11.3635C15.0787 11.5752 14.7796 11.9046 14.6053 12.3017C14.431 12.6989 14.3911 13.142 14.4916 13.5639L14.5728 13.9178L11.1562 17.3345V18.3751Z" fill="black"/>
<path d="M5.25 5.25H3.9375V10.5H5.25V5.25Z" fill="black"/>
<path d="M2.625 5.25H1.3125V10.5H2.625V5.25Z" fill="black"/>
<path d="M13.125 5.25H11.8125V9.1875H13.125V5.25Z" fill="black"/>
<path d="M9.1875 10.5H7.875C7.5269 10.5 7.19306 10.3617 6.94692 10.1156C6.70078 9.86944 6.5625 9.5356 6.5625 9.1875V6.5625C6.5625 6.2144 6.70078 5.88056 6.94692 5.63442C7.19306 5.38828 7.5269 5.25 7.875 5.25H9.1875C9.5356 5.25 9.86944 5.38828 10.1156 5.63442C10.3617 5.88056 10.5 6.2144 10.5 6.5625V9.1875C10.5 9.5356 10.3617 9.86944 10.1156 10.1156C9.86944 10.3617 9.5356 10.5 9.1875 10.5ZM7.875 9.1875H9.1875V6.5625H7.875V9.1875Z" fill="black"/>
<path d="M2.625 11.8125H1.3125V17.0625H2.625V11.8125Z" fill="black"/>
<path d="M10.5 11.8125H9.1875V14.4375H10.5V11.8125Z" fill="black"/>
<path d="M6.5625 17.0625H5.25C4.9019 17.0625 4.56806 16.9242 4.32192 16.6781C4.07578 16.4319 3.9375 16.0981 3.9375 15.75V13.125C3.9375 12.7769 4.07578 12.4431 4.32192 12.1969C4.56806 11.9508 4.9019 11.8125 5.25 11.8125H6.5625C6.9106 11.8125 7.24444 11.9508 7.49058 12.1969C7.73672 12.4431 7.875 12.7769 7.875 13.125V15.75C7.875 16.0981 7.73672 16.4319 7.49058 16.6781C7.24444 16.9242 6.9106 17.0625 6.5625 17.0625ZM5.25 15.75H6.5625V13.125H5.25V15.75Z" fill="#00A9E2"/>
<path d="M2.625 1.3125H1.3125V3.9375H2.625V1.3125Z" fill="black"/>
<path d="M10.5 1.3125H9.1875V3.9375H10.5V1.3125Z" fill="black"/>
<path d="M13.125 1.3125H11.8125V3.9375H13.125V1.3125Z" fill="black"/>
<path d="M6.5625 3.9375H5.25C4.9019 3.9375 4.56806 3.79922 4.32192 3.55308C4.07578 3.30694 3.9375 2.9731 3.9375 2.625V1.3125H5.25V2.625H6.5625V1.3125H7.875V2.625C7.875 2.9731 7.73672 3.30694 7.49058 3.55308C7.24444 3.79922 6.9106 3.9375 6.5625 3.9375Z" fill="#00A9E2"/>
</g>
<defs>
<clipPath id="clip0_746_5580">
<rect width="21" height="21" fill="white"/>
</clipPath>
</defs>
</svg>
