<svg width="25" height="26" viewBox="0 0 25 26" fill="none" xmlns="http://www.w3.org/2000/svg">
<rect x="8" y="4" width="6" height="17" fill="#00A9E2"/>
<rect x="16" y="9" width="4.23529" height="12" fill="#FDB714"/>
<path d="M20.6273 14.8297C20.6273 13.6761 20.5308 8.35496 19.4139 8.35496H15.167M11.1224 16.7094H11.1325M17.1894 16.7094H17.1995M7.07782 16.7094H7.08793M11.1224 12.5322H11.1325M17.1894 12.5322H17.1995M7.07782 12.5322H7.08793M11.1224 8.35496H11.1325M7.07782 8.35496H7.08793M15.167 20.8866V6.26635C15.167 5.11284 14.2617 4.17773 13.1447 4.17773H5.05551C3.93862 4.17773 3.0332 5.11284 3.0332 6.26635V20.8866H15.167Z" stroke="black" stroke-width="1.46617" stroke-linecap="round" stroke-linejoin="round"/>
</svg>
