<svg width="22" height="22" viewBox="0 0 22 22" fill="none" xmlns="http://www.w3.org/2000/svg">
<g clip-path="url(#clip0_746_5491)">
<rect x="12" y="16" width="9" height="4" fill="#00A9E2"/>
<path d="M2.75985 1.44598C4.32326 1.20682 5.79468 2.12592 6.30855 3.56125H8.20081V5.18972H6.4433C6.21935 6.53773 5.16738 7.65419 3.7425 7.87252C1.96883 8.14391 0.310069 6.9254 0.0376463 5.15083C-0.233272 3.37622 0.985236 1.71737 2.75985 1.44598Z" fill="black"/>
<path d="M15.0126 14.5328C15.0126 14.2372 15.2523 13.9971 15.5484 13.9971H17.8681C18.1642 13.9971 18.4038 14.2372 18.4038 14.5328C18.4038 14.8279 18.1642 15.0685 17.8681 15.0685H15.5483C15.2523 15.0685 15.0126 14.828 15.0126 14.5328Z" fill="black"/>
<path d="M5.11332 10.2256L9.78514 14.6293L11.4165 15.0331V11.3112H22V20.5923H11.4165V18.0376L9.88908 17.7913C9.16076 17.6874 8.62598 17.5038 7.98402 17.146L5.99448 16.105V20.5923H0.303917V11.6377C0.303917 8.70676 3.60869 8.69868 5.11332 10.2256ZM12.7189 19.2897H20.6975V12.6137H12.7189V15.3553L14.2838 15.7425C14.9699 15.9313 15.3884 16.6241 15.2366 17.3192L15.2238 17.3728C15.0743 18.0565 14.4224 18.5087 13.7291 18.4101L12.7189 18.2473V19.2897Z" fill="black"/>
<circle cx="3" cy="5" r="2" fill="#FDB714"/>
</g>
<defs>
<clipPath id="clip0_746_5491">
<rect width="22" height="22" fill="white" transform="matrix(-1 0 0 1 22 0)"/>
</clipPath>
</defs>
</svg>
