<svg id="OBJECT" xmlns="http://www.w3.org/2000/svg" viewBox="0 0 32 32"><defs><style>.cls-1{fill:#faf7f5;}.cls-2{fill:#ffcd69;}.cls-3{fill:#6d6daa;}</style></defs><title>document</title><path class="cls-1" d="M26,4V22l-8,8H8a2,2,0,0,1-2-2V4A2,2,0,0,1,8,2H24A2,2,0,0,1,26,4Z"/><path class="cls-2" d="M20,22a2,2,0,0,0-2,2v6l8-8Z"/><path class="cls-3" d="M24,1H8A3,3,0,0,0,5,4V28a3,3,0,0,0,3,3H18a1,1,0,0,0,.71-.29l8-8A1,1,0,0,0,27,22V4A3,3,0,0,0,24,1ZM7,28V4A1,1,0,0,1,8,3H24a1,1,0,0,1,1,1V21H20a3,3,0,0,0-3,3v5H8A1,1,0,0,1,7,28Zm16.59-5L19,27.59V24a1,1,0,0,1,1-1Z"/><path class="cls-3" d="M10,8H22a1,1,0,0,0,0-2H10a1,1,0,0,0,0,2Z"/><path class="cls-3" d="M10,13H22a1,1,0,0,0,0-2H10a1,1,0,0,0,0,2Z"/><path class="cls-3" d="M17,18a1,1,0,0,0,0-2H10a1,1,0,0,0,0,2Z"/></svg>