<svg width="25" height="25" viewBox="0 0 25 25" fill="none" xmlns="http://www.w3.org/2000/svg">
<path d="M12.5 2.46191C18.0228 2.46191 22.5 6.93906 22.5 12.4619C22.5 17.9847 18.0228 22.4619 12.5 22.4619C6.97715 22.4619 2.5 17.9847 2.5 12.4619C2.5 6.93906 6.97715 2.46191 12.5 2.46191ZM14.5003 13.8616L12.9361 15.1129C12.7034 15.299 12.6842 15.6461 12.8949 15.8569L14.1335 17.0954C14.3738 17.3357 14.5489 17.6334 14.6423 17.9602L14.8173 18.5728C14.975 19.1245 15.3621 19.53 15.8341 19.7361C16.7962 19.2944 17.6556 18.6675 18.3666 17.9009L18.1327 16.024C18.0498 15.3604 17.6407 14.7822 17.0426 14.4832L15.5722 13.748C15.2233 13.5736 14.8049 13.6179 14.5003 13.8616ZM12.5002 4.46201C9.92181 4.46201 7.6283 5.68181 6.16528 7.57581L6.00019 7.79731V9.48227C6.00019 10.7383 6.78143 11.8541 7.94527 12.2908L8.12267 12.3511L9.41327 12.7458C10.7863 13.1658 12.1231 12.0485 11.9902 10.6501L11.9711 10.5045L11.7964 9.45623C11.7156 8.97155 11.9984 8.50634 12.4522 8.34795L12.5599 8.31697L13.1717 8.17713C14.1953 7.94316 14.9863 7.13025 15.1923 6.10064C15.2732 5.6961 15.2578 5.2925 15.1607 4.91505C14.3284 4.62163 13.4329 4.46201 12.5002 4.46201Z" fill="black" fill-opacity="0.75"/>
</svg>
