<svg width="29" height="29" viewBox="0 0 29 29" fill="none" xmlns="http://www.w3.org/2000/svg">
<path d="M23.7588 6.63281H5.24121C4.2402 6.63281 3.42871 7.4443 3.42871 8.44531V20.5546C3.42871 21.5556 4.2402 22.3671 5.24121 22.3671H23.7588C24.7598 22.3671 25.5713 21.5556 25.5713 20.5546V8.44531C25.5713 7.4443 24.7598 6.63281 23.7588 6.63281Z" stroke="black" stroke-width="0.604167" stroke-linecap="round" stroke-linejoin="round"/>
<path d="M8.96429 15.1346C10.1532 15.1346 11.1171 14.1708 11.1171 12.9819C11.1171 11.7929 10.1532 10.8291 8.96429 10.8291C7.77535 10.8291 6.81152 11.7929 6.81152 12.9819C6.81152 14.1708 7.77535 15.1346 8.96429 15.1346Z" stroke="black" stroke-width="0.604167" stroke-linecap="round" stroke-linejoin="round"/>
<path d="M6.23947 18.7862H12.1503C12.2567 18.7863 12.3609 18.7559 12.4506 18.6986C12.5402 18.6413 12.6115 18.5594 12.656 18.4628C12.7005 18.3661 12.7163 18.2587 12.7016 18.1534C12.6869 18.048 12.6422 17.9491 12.5729 17.8683C12.1669 17.3629 11.6526 16.955 11.0679 16.6748C10.4833 16.3945 9.84324 16.249 9.19491 16.249C8.54658 16.249 7.90651 16.3945 7.32188 16.6748C6.73725 16.955 6.22296 17.3629 5.81692 17.8683C5.74762 17.9491 5.70295 18.048 5.68822 18.1534C5.67348 18.2587 5.6893 18.3661 5.7338 18.4628C5.77829 18.5594 5.84959 18.6413 5.93923 18.6986C6.02887 18.7559 6.13307 18.7863 6.23947 18.7862Z" stroke="black" stroke-width="0.604167" stroke-linecap="round" stroke-linejoin="round"/>
<path d="M14.5674 18.1309H13.9454V14.5221C13.9454 14.3823 13.9454 14.2641 13.9454 14.1677C13.9502 14.0713 13.9551 13.9821 13.9599 13.9001C13.9647 13.8133 13.9695 13.7241 13.9743 13.6325C13.8972 13.7097 13.8273 13.7748 13.7646 13.8278C13.7019 13.8808 13.6224 13.9483 13.526 14.0303L12.9763 14.4787L12.6437 14.052L14.0394 12.9672H14.5674V18.1309ZM19.8993 18.1309H16.4858V17.6029L17.8382 16.2361C18.0985 15.9757 18.3179 15.7443 18.4963 15.5418C18.6747 15.3393 18.8097 15.1416 18.9013 14.9488C18.9929 14.7511 19.0387 14.5365 19.0387 14.3051C19.0387 14.0207 18.9543 13.8061 18.7856 13.6615C18.6168 13.512 18.3975 13.4373 18.1275 13.4373C17.8767 13.4373 17.655 13.4807 17.4621 13.5674C17.2741 13.6542 17.0812 13.7748 16.8835 13.929L16.5436 13.5024C16.6786 13.3866 16.8257 13.283 16.9848 13.1914C17.1487 13.0998 17.3247 13.0275 17.5127 12.9744C17.7056 12.9214 17.9105 12.8949 18.1275 12.8949C18.4505 12.8949 18.7277 12.9503 18.9591 13.0612C19.1906 13.1721 19.369 13.3312 19.4943 13.5385C19.6245 13.741 19.6896 13.9845 19.6896 14.269C19.6896 14.5389 19.6341 14.7921 19.5232 15.0283C19.4123 15.2646 19.2581 15.4984 19.0604 15.7298C18.8627 15.9564 18.6313 16.1999 18.3661 16.4603L17.2885 17.5234V17.5523H19.8993V18.1309ZM23.8427 14.1749C23.8427 14.4064 23.7993 14.6064 23.7125 14.7752C23.6257 14.9439 23.5004 15.0814 23.3364 15.1874C23.1773 15.2935 22.9893 15.3682 22.7723 15.4116V15.4405C23.187 15.4888 23.4955 15.6189 23.698 15.8311C23.9005 16.0432 24.0018 16.3204 24.0018 16.6628C24.0018 16.9617 23.9319 17.2293 23.7921 17.4655C23.6522 17.6969 23.4353 17.8777 23.1412 18.0079C22.8519 18.1381 22.4782 18.2032 22.0202 18.2032C21.7502 18.2032 21.4995 18.1815 21.2681 18.1381C21.0367 18.0995 20.8149 18.0272 20.6027 17.9211V17.3281C20.8197 17.4342 21.0535 17.5185 21.3042 17.5812C21.555 17.6391 21.796 17.668 22.0274 17.668C22.4903 17.668 22.823 17.5788 23.0255 17.4004C23.2328 17.2172 23.3364 16.9665 23.3364 16.6483C23.3364 16.4313 23.2786 16.2578 23.1629 16.1276C23.052 15.9926 22.8881 15.8937 22.6711 15.8311C22.4541 15.7684 22.1938 15.7371 21.89 15.7371H21.391V15.1947H21.8973C22.1817 15.1947 22.418 15.1537 22.606 15.0717C22.7989 14.9897 22.9435 14.8764 23.0399 14.7318C23.1412 14.5823 23.1918 14.4112 23.1918 14.2183C23.1918 13.9676 23.1074 13.7748 22.9387 13.6398C22.7699 13.4999 22.5409 13.43 22.2516 13.43C22.0684 13.43 21.9021 13.4493 21.7526 13.4879C21.6032 13.5216 21.4633 13.5723 21.3332 13.6398C21.2078 13.7024 21.08 13.7772 20.9499 13.864L20.6317 13.43C20.8149 13.2854 21.0415 13.16 21.3115 13.054C21.5863 12.9479 21.8973 12.8949 22.2444 12.8949C22.7844 12.8949 23.1846 13.0154 23.4449 13.2565C23.7101 13.4975 23.8427 13.8037 23.8427 14.1749Z" fill="black"/>
<circle cx="9" cy="13" r="2" fill="#00A9E2"/>
<rect x="12" y="8" width="13" height="2" fill="#FDB714"/>
</svg>
