<svg width="22" height="22" viewBox="0 0 22 22" fill="none" xmlns="http://www.w3.org/2000/svg">
<path d="M19.2494 0H2.4299C1.08849 0 0 1.0815 0 2.41429V19.1258C0 20.4585 1.08849 21.54 2.4299 21.54H19.2494C20.5908 21.54 21.6793 20.4585 21.6793 19.1257V2.41429C21.6793 1.0815 20.5908 0 19.2494 0ZM20.776 19.1257C20.776 19.9649 20.094 20.6425 19.2494 20.6425H2.4299C1.5853 20.6425 0.903332 19.9649 0.903332 19.1257V2.41429C0.903332 1.57511 1.58534 0.897529 2.4299 0.897529H19.2494C20.094 0.897529 20.776 1.57516 20.776 2.41429V19.1257Z" fill="#00A9E2"/>
<path d="M7.90405 6.23682H6.7749V15.1221H7.90405V6.23682Z" fill="#00A9E2"/>
<path d="M14.8552 5.8335H13.7306V9.51326H13.7035C13.4235 9.00169 12.8228 8.62023 11.9827 8.62023C10.5826 8.62023 9.36768 9.84082 9.36768 11.9904C9.36768 13.9694 10.4471 15.2303 11.8743 15.2303C12.8093 15.2303 13.5003 14.7188 13.8074 14.0905H13.8435L13.9113 15.1226H14.9094C14.8823 14.7008 14.8552 14.0411 14.8552 13.5161V5.8335H14.8552ZM13.7306 12.5692C13.7352 12.7308 13.7171 12.8878 13.6764 13.0449C13.4506 13.9289 12.8183 14.3508 12.177 14.3508C11.0524 14.3508 10.4878 13.2693 10.4878 11.9634C10.4878 10.6037 11.0885 9.51322 12.2041 9.51322C12.9809 9.51322 13.5455 10.1056 13.69 10.8191C13.7171 10.9761 13.7306 11.1332 13.7306 11.2948V12.5692Z" fill="#00A9E2"/>
</svg>
