<svg id="OBJECT" xmlns="http://www.w3.org/2000/svg" viewBox="0 0 32 32"><defs><style>.cls-1{fill:#a0e5a5;}.cls-2{fill:#faf7f5;}.cls-3{fill:#6d6daa;}</style></defs><title>money</title><rect class="cls-1" x="2" y="6" width="28" height="20" rx="2" ry="2"/><path class="cls-2" d="M8,6a6,6,0,0,1-6,6V8A2,2,0,0,1,4,6Z"/><path class="cls-2" d="M30,8v4a6,6,0,0,1-6-6h4A2,2,0,0,1,30,8Z"/><path class="cls-2" d="M8,26H4a2,2,0,0,1-2-2V20A6,6,0,0,1,8,26Z"/><path class="cls-2" d="M30,20v4a2,2,0,0,1-2,2H24A6,6,0,0,1,30,20Z"/><circle class="cls-2" cx="16" cy="16" r="5"/><path class="cls-3" d="M28,5H4A3,3,0,0,0,1,8V24a3,3,0,0,0,3,3H28a3,3,0,0,0,3-3V8A3,3,0,0,0,28,5Zm1,3v2.9A5,5,0,0,1,25.1,7H28A1,1,0,0,1,29,8ZM23.08,25H8.92A7,7,0,0,0,3,19.08V12.92A7,7,0,0,0,8.92,7H23.08A7,7,0,0,0,29,12.92v6.16A7,7,0,0,0,23.08,25ZM4,7H6.9A5,5,0,0,1,3,10.9V8A1,1,0,0,1,4,7ZM3,24V21.1A5,5,0,0,1,6.9,25H4A1,1,0,0,1,3,24Zm25,1H25.1A5,5,0,0,1,29,21.1V24A1,1,0,0,1,28,25Z"/><path class="cls-3" d="M16,10a6,6,0,1,0,6,6A6,6,0,0,0,16,10Zm0,10a4,4,0,1,1,4-4A4,4,0,0,1,16,20Z"/></svg>