<svg id="OBJECT" xmlns="http://www.w3.org/2000/svg" viewBox="0 0 32 32"><defs><style>.cls-1{fill:#ffcd69;}.cls-2{fill:#faf7f5;}.cls-3{fill:#6d6daa;}</style></defs><title>notes</title><rect class="cls-1" x="6" y="2" width="16" height="24" rx="2" ry="2"/><path class="cls-2" d="M26,8V24l-6,6H12a2,2,0,0,1-2-2V8a2,2,0,0,1,2-2H24A2,2,0,0,1,26,8Z"/><polygon class="cls-1" points="20 24 20 30 26 24 20 24"/><path class="cls-3" d="M24,5H23V4a3,3,0,0,0-3-3H8A3,3,0,0,0,5,4V24a3,3,0,0,0,3,3H9v1a3,3,0,0,0,3,3h8a1,1,0,0,0,.71-.29l6-6A1,1,0,0,0,27,24V8A3,3,0,0,0,24,5ZM8,25a1,1,0,0,1-1-1V4A1,1,0,0,1,8,3H20a1,1,0,0,1,1,1V5H12A3,3,0,0,0,9,8V25Zm3,3V8a1,1,0,0,1,1-1H24a1,1,0,0,1,1,1V23H20a1,1,0,0,0-1,1v5H12A1,1,0,0,1,11,28Zm12.59-3L21,27.59V25Z"/><path class="cls-3" d="M14,11h8a1,1,0,0,0,0-2H14a1,1,0,0,0,0,2Z"/><path class="cls-3" d="M14,15h8a1,1,0,0,0,0-2H14a1,1,0,0,0,0,2Z"/><path class="cls-3" d="M22,19a1,1,0,0,0,0-2H14a1,1,0,0,0,0,2Z"/></svg>