<svg id="OBJECT" xmlns="http://www.w3.org/2000/svg" viewBox="0 0 32 32"><defs><style>.cls-1{fill:#8aa8bd;}.cls-2{fill:#80b6ff;}</style></defs><title>office</title><rect class="cls-1" x="2" y="26" width="28" height="4"/><polygon class="cls-2" points="18 26 2 26 2 6 18 2 18 26"/><rect class="cls-2" x="18" y="8" width="12" height="18" transform="translate(48 34) rotate(180)"/><rect class="cls-1" x="7" y="20" width="6" height="6"/><path d="M30,7H19V2a1,1,0,0,0-1.24-1l-16,4A1,1,0,0,0,1,6V30a1,1,0,0,0,1,1H30a1,1,0,0,0,1-1V8A1,1,0,0,0,30,7ZM29,9V25H19V9ZM17,3.28V25H14V20a1,1,0,0,0-1-1H7a1,1,0,0,0-1,1v5H3V6.78ZM12,25H8V21h4Zm17,4H3V27H29Z"/><path d="M22,14h4a1,1,0,0,0,0-2H22a1,1,0,0,0,0,2Z"/><path d="M22,18h4a1,1,0,0,0,0-2H22a1,1,0,0,0,0,2Z"/><path d="M26,20H22a1,1,0,0,0,0,2h4a1,1,0,0,0,0-2Z"/><path d="M6.5,11h7a1,1,0,0,0,0-2h-7a1,1,0,0,0,0,2Z"/><path d="M6.5,17h7a1,1,0,0,0,0-2h-7a1,1,0,0,0,0,2Z"/></svg>