<svg width="26" height="26" viewBox="0 0 26 26" fill="none" xmlns="http://www.w3.org/2000/svg">
<path fill-rule="evenodd" clip-rule="evenodd" d="M12.7405 1.70996L22.2959 7.22678V13.8028H20.1724V9.55609L13.8022 13.2339V23.1642L12.7405 23.7772L3.18506 18.2604V7.22678L12.7405 1.70996ZM20.1724 14.8646L20.1724 18.0497H23.3576V20.1731L20.1724 20.1731L20.1724 23.3583H18.049L18.049 20.1731L14.8639 20.1731V18.0497H18.049L18.049 14.8646H20.1724ZM5.30845 9.55604L5.30848 17.0344L11.6787 20.7123V13.2339L5.30845 9.55604ZM12.7405 4.16188L6.47636 7.77846L12.7405 11.395L19.0046 7.77846L12.7405 4.16188Z" fill="black"/>
<path d="M6.00098 7.2959L13.001 3.50049L20.501 7.2959L13.001 11.5005L6.00098 7.2959Z" fill="#00A9E2"/>
<path d="M4.99889 17.5001L4.99849 8.50008L12.0004 13L12.0004 21.5001L4.99889 17.5001Z" fill="#FDB714"/>
</svg>
