<svg id="OBJECT" xmlns="http://www.w3.org/2000/svg" viewBox="0 0 32 32"><defs><style>.cls-1{fill:#ffcd69;}.cls-2{fill:#a0e5a5;}.cls-3{fill:#6d6daa;}</style></defs><title>satellite</title><polygon class="cls-1" points="20.67 22 11.33 22 14 6 18 6 20.67 22"/><path class="cls-2" d="M8,22H24a0,0,0,0,1,0,0v2a2,2,0,0,1-2,2H10a2,2,0,0,1-2-2V22A0,0,0,0,1,8,22Z"/><path class="cls-3" d="M22,3a3,3,0,0,1,3,3,1,1,0,0,0,2,0,5,5,0,0,0-5-5,1,1,0,0,0,0,2Z"/><path class="cls-3" d="M21,6a1,1,0,0,1,1,1,1,1,0,0,0,2,0,3,3,0,0,0-3-3,1,1,0,0,0,0,2Z"/><path class="cls-3" d="M6,7A1,1,0,0,0,7,6a3,3,0,0,1,3-3,1,1,0,0,0,0-2A5,5,0,0,0,5,6,1,1,0,0,0,6,7Z"/><path class="cls-3" d="M8,7a1,1,0,0,0,2,0,1,1,0,0,1,1-1,1,1,0,0,0,0-2A3,3,0,0,0,8,7Z"/><path class="cls-3" d="M26,29H22.85L22.5,27A3,3,0,0,0,25,24V22a1,1,0,0,0-1-1H21.52L19,5.83A1,1,0,0,0,18,5H17V2a1,1,0,0,0-2,0V5H14a1,1,0,0,0-1,.83L10.48,21H8a1,1,0,0,0-1,1v2A3,3,0,0,0,9.5,27L9.15,29H6a1,1,0,0,0,0,2h4a1,1,0,0,0,1-.83L11.52,27h9L21,30.17A1,1,0,0,0,22,31h4a1,1,0,0,0,0-2ZM18.15,13h-4.3l.33-2h3.64Zm.34,2,.33,2H13.18l.33-2ZM17.15,7l.34,2h-3l.34-2ZM12.84,19h6.32l.33,2h-7ZM9,24V23H23v1a1,1,0,0,1-1,1H10A1,1,0,0,1,9,24Z"/></svg>