<svg xmlns="http://www.w3.org/2000/svg" xmlns:xlink="http://www.w3.org/1999/xlink" width="142" height="142" viewBox="0 0 142 142">
  <defs>
    <clipPath id="clip-path">
      <rect id="Rectangle_365" data-name="Rectangle 365" width="66.953" height="69.785" fill="#141774"/>
    </clipPath>
  </defs>
  <g id="Online_External_Collaboration" data-name="Online External Collaboration" transform="translate(-150 -1608)">
    <circle id="Ellipse_449" data-name="Ellipse 449" cx="71" cy="71" r="71" transform="translate(150 1608)" fill="#f0f0ff"/>
    <g id="Group_5245" data-name="Group 5245" transform="translate(187.523 1644.107)">
      <g id="Group_5244" data-name="Group 5244" clip-path="url(#clip-path)">
        <path id="Path_9723" data-name="Path 9723" d="M94.889,201.607c1.653.223,1.856.426,1.827,1.943a19.428,19.428,0,0,1-.21,3.511,4.071,4.071,0,0,1-4.08,3.265q-19.062.024-38.124,0a4.338,4.338,0,0,1-4.284-4.356c-.025-.808-.006-1.618-.005-2.427,0-1.511.181-1.712,1.835-1.936v-1.148q0-10.262,0-20.525c0-2.672,1.067-3.746,3.724-3.746q17.8,0,35.6,0c2.652,0,3.719,1.077,3.719,3.752q0,10.262,0,20.525v1.143m-2.21.026V200.6q0-10.36,0-20.719c0-1.42-.084-1.505-1.478-1.505H55.618c-1.5,0-1.559.062-1.56,1.525q0,10.309,0,20.618v1.11Zm-40.457,2.276c0,.573,0,1.041,0,1.509,0,1.961.726,2.7,2.653,2.7q6.723,0,13.446,0,11.88,0,23.759,0c1.308,0,2.209-.6,2.372-1.715a17.172,17.172,0,0,0,.023-2.459H81.186c0,.572-.013,1.071,0,1.57a1.143,1.143,0,0,1-1.259,1.347q-6.572.016-13.143,0a1.113,1.113,0,0,1-1.236-1.264c.007-.556,0-1.112,0-1.688Zm21.146.767c1.617,0,3.235.017,4.851-.018.254-.006.5-.249.753-.382-.251-.135-.5-.384-.753-.387q-4.851-.039-9.7,0c-.252,0-.5.252-.753.387.251.133.5.376.754.382,1.616.035,3.234.018,4.851.018" transform="translate(-39.892 -140.554)" fill="#141774"/>
        <path id="Path_9724" data-name="Path 9724" d="M23.467,11.78A11.734,11.734,0,1,1,11.756,0,11.711,11.711,0,0,1,23.467,11.78m-15.342.687C6.469,9.1,6.649,6.857,8.666,5.257a4.943,4.943,0,0,1,6.162,0c2.008,1.608,2.186,3.906.524,7.211a9.125,9.125,0,0,1,4.327,4.473A9.42,9.42,0,0,0,18.1,4.617a9.551,9.551,0,0,0-12.553-.15A9.429,9.429,0,0,0,3.8,16.949a9.141,9.141,0,0,1,4.325-4.482m3.647,8.793a8.75,8.75,0,0,0,5.655-1.88,1.221,1.221,0,0,0,.344-1.051,6.132,6.132,0,0,0-5.94-4.426,6.284,6.284,0,0,0-6.139,4.336.9.9,0,0,0,.365,1.19,9.4,9.4,0,0,0,5.716,1.832m2.593-12.3A2.594,2.594,0,0,0,11.74,6.34,2.651,2.651,0,0,0,9.095,9.06a2.68,2.68,0,0,0,2.647,2.63,2.638,2.638,0,0,0,2.624-2.734" transform="translate(0 -0.001)" fill="#141774"/>
        <path id="Path_9725" data-name="Path 9725" d="M215.012,11.751a11.734,11.734,0,1,1,11.76,11.722,11.717,11.717,0,0,1-11.76-11.722m19.739,5.08c2.724-3.77,1.816-9.406-2.04-12.552a9.57,9.57,0,0,0-12.977.959c-3.328,3.493-3.129,9.046-.882,11.643a9.1,9.1,0,0,1,4.308-4.454c-1.767-2.883-1.631-5.279.329-7.028a4.928,4.928,0,0,1,6.229-.21c2.109,1.6,2.326,3.931.691,7.153a22.875,22.875,0,0,1,2.424,1.945,24.642,24.642,0,0,1,1.917,2.543m-8,4.43a9.325,9.325,0,0,0,5.569-1.763.979.979,0,0,0,.437-1.334A6.388,6.388,0,0,0,220.7,18.2a.927.927,0,0,0,.4,1.258,9.338,9.338,0,0,0,5.657,1.8M224.114,9.024a2.635,2.635,0,0,0,2.591,2.666,2.672,2.672,0,0,0,2.68-2.7,2.642,2.642,0,0,0-2.612-2.652,2.6,2.6,0,0,0-2.659,2.685" transform="translate(-171.527 0)" fill="#141774"/>
        <path id="Path_9726" data-name="Path 9726" d="M124.748,102.353c0-1.145-.034-2.291.014-3.434a1.281,1.281,0,0,0-.7-1.293c-2.454-1.528-4.878-3.1-7.317-4.657-.676-.43-1.281-.942-.712-1.779.557-.819,1.266-.471,1.938-.038,2.346,1.511,4.716,2.986,7.043,4.525a1.276,1.276,0,0,0,1.675.023c2.345-1.572,4.737-3.076,7.131-4.574a1.962,1.962,0,0,1,1.2-.345c.311.047.777.461.794.736a1.547,1.547,0,0,1-.495,1.183c-1.2.866-2.47,1.625-3.715,2.423-1.33.853-2.646,1.73-4,2.545a1.22,1.22,0,0,0-.645,1.222c.027,2.323.007,4.647.014,6.97,0,.778-.144,1.465-1.1,1.475s-1.13-.661-1.125-1.447c.008-1.178,0-2.357,0-3.536" transform="translate(-92.382 -72.352)" fill="#141774"/>
        <path id="Path_9727" data-name="Path 9727" d="M136.863,213.924a8.349,8.349,0,0,1,4.435,4.946,2.762,2.762,0,0,1-2.646,3.86c-3.569.072-7.142.079-10.711-.006a2.745,2.745,0,0,1-2.6-3.813,8.423,8.423,0,0,1,4.491-5.019,4.516,4.516,0,0,1-1.175-4.242,6.348,6.348,0,0,1,1.657-2.781,4.651,4.651,0,0,1,6.175.064c1.975,1.743,2.13,4.249.373,6.99m-3.611,6.625c1.65,0,3.3.008,4.951,0,1.094-.007,1.311-.352.894-1.371a6.246,6.246,0,0,0-11.557.052c-.384.983-.18,1.31.863,1.318,1.616.013,3.233,0,4.85,0m2.657-10.035a2.583,2.583,0,1,0-5.166.023,2.584,2.584,0,1,0,5.166-.023" transform="translate(-99.85 -164.121)" fill="#141774"/>
      </g>
    </g>
  </g>
</svg>
