<svg xmlns="http://www.w3.org/2000/svg" xmlns:xlink="http://www.w3.org/1999/xlink" width="142" height="142" viewBox="0 0 142 142">
  <defs>
    <clipPath id="clip-path">
      <rect id="Rectangle_363" data-name="Rectangle 363" width="88.611" height="64.746" fill="#141774"/>
    </clipPath>
  </defs>
  <g id="Document_Sharing_Review" data-name="Document Sharing &amp; Review" transform="translate(-1010 -1608)">
    <path id="Path_9722" data-name="Path 9722" d="M71,0A71,71,0,1,1,0,71,71,71,0,0,1,71,0Z" transform="translate(1010 1608)" fill="#f0f0ff"/>
    <g id="Group_5240" data-name="Group 5240" transform="translate(1036.693 1646.627)">
      <g id="Group_5239" data-name="Group 5239" clip-path="url(#clip-path)">
        <path id="Path_9716" data-name="Path 9716" d="M66.579,14.982c-2.211,0-4.3-.115-6.38.024A5.434,5.434,0,0,1,54.195,9c.131-2.077.025-4.169.025-6.329-.55-.025-.967-.061-1.383-.061q-13.674,0-27.349,0c-2.471,0-3.389.927-3.392,3.406,0,1.626-.007,3.253,0,4.879.008,1.512.27,1.783,1.822,1.791,3.082.015,6.167.1,9.244-.018a4.116,4.116,0,0,1,3.847,6.408A1.191,1.191,0,0,0,37,20.084a4.2,4.2,0,0,1-.65,5.089,1.494,1.494,0,0,0-.252,1.192,4.37,4.37,0,0,1-.834,4.083,1.825,1.825,0,0,0-.324,1.4A4.077,4.077,0,0,1,31,37.236c-2.906.052-5.813.011-8.908.011v1.141q0,10.272,0,20.544c0,2.22.983,3.212,3.2,3.213q19.068.006,38.135,0c2.186,0,3.14-.937,3.147-3.091q.016-4.879,0-9.758c0-.374-.045-.748-.081-1.313-1.674,0-3.286.01-4.9,0a17.341,17.341,0,0,1-2.558-.1,4.18,4.18,0,0,1-3.808-4.5,4.278,4.278,0,0,1,4.344-4.027c1.324-.056,2.653,0,3.98-.019a2.779,2.779,0,0,0,3.018-3.045c.022-3.595-.03-7.191.045-10.785a2.441,2.441,0,0,1,.823-1.7c.765-.573,1.733.224,1.752,1.426.036,2.4.059,4.795-.007,7.19-.026.95.175,1.486,1.188,1.715a8.423,8.423,0,0,1,4.733,3.518c1,1.3,2.02,2.644,3.935,2.407A2.407,2.407,0,0,0,80.4,39.4c1.46-1.548,3.294-1.5,5.131-1.225a3.376,3.376,0,0,1,2.931,2.689,5.947,5.947,0,0,1,.139,1.393q.014,7.512,0,15.023c0,2.675-1.447,4.074-4.113,4.145-1.747.047-3.326-.155-4.411-1.749a1.1,1.1,0,0,0-.784-.3,11.14,11.14,0,0,0-5.145.707c-1.545.7-3.208,1.139-4.8,1.749a3.028,3.028,0,0,0-1.183.828,5.321,5.321,0,0,1-4.215,2.083q-19.581,0-39.162-.005a5.168,5.168,0,0,1-5.276-5.28q-.031-10.721.012-21.443c0-.964-.2-1.411-1.238-1.647-1.316-.3-2.544-.972-3.84-1.387a16.774,16.774,0,0,0-3.2-.751,4.076,4.076,0,0,0-3.655,1.145c-1.531,1.481-3.694,1.189-5.556.436C.374,35.139-.014,33.594,0,31.878Q.062,24.56,0,17.241c-.012-1.778.472-3.284,2.239-3.93,1.964-.718,3.977-.775,5.683.69a2.883,2.883,0,0,0,4.23.028,13.967,13.967,0,0,0,1.6-1.832,8.538,8.538,0,0,1,4.858-3.351c.755-.176.9-.526.919-1.229a18.1,18.1,0,0,1,.317-4.055,4.877,4.877,0,0,1,4.8-3.547C34.581,0,44.511-.025,54.44.061a4.568,4.568,0,0,1,2.828,1.207q5.421,5.189,10.6,10.626a6.409,6.409,0,0,1,1.288,3.07,18.562,18.562,0,0,1,.054,3.329c.014.939-.162,1.824-1.29,1.832-1.1.007-1.361-.832-1.345-1.795.017-1.061,0-2.123,0-3.348M9.034,17.619c0,.746.016,1.342,0,1.938-.027.8-.4,1.294-1.253,1.3s-1.237-.524-1.293-1.288-.016-1.539-.025-2.309c-.016-1.485-.252-1.7-1.862-1.707-1.713-.008-2.017.235-2.019,1.713q-.012,7.317,0,14.634c0,1.543.256,1.758,1.958,1.758,1.742,0,1.915-.153,1.922-1.761.009-2.011-.013-4.022.017-6.033.012-.822.409-1.433,1.311-1.422s1.252.607,1.253,1.453c0,.428,0,.856,0,1.284,0,1.44,0,2.879,0,3.928,2.434.577,4.739.779,6.74,1.666,4.938,2.191,10.1,1.935,15.255,1.828A2.158,2.158,0,0,0,32.5,33.186c.178-.83-.567-1.352-1.442-1.442-.382-.039-.769-.029-1.154-.03-2.1-.005-4.193,0-6.29-.011-.851,0-1.545-.449-1.419-1.26.078-.5.795-.95,1.307-1.305.234-.163.666-.048,1.008-.048,2.525,0,5.049.021,7.573-.015,1.3-.019,2.092-1.1,1.426-2a2.477,2.477,0,0,0-1.72-.807c-2.607-.086-5.219-.061-7.829-.026-.987.013-1.821-.258-1.789-1.324.031-1.038.872-1.3,1.851-1.294,3.037.033,6.076,0,9.113.016,1.032,0,1.82-.285,1.795-1.476-.024-1.127-.8-1.362-1.77-1.358-3.081.016-6.162-.008-9.242.009-1,.006-1.786-.368-1.753-1.4.031-.98.836-1.232,1.768-1.222,3.081.032,6.161.018,9.242.008,1.23,0,2.083-.633,1.97-1.51-.145-1.123-.965-1.376-1.969-1.369-2.824.018-5.651.084-8.471-.031a7.348,7.348,0,0,1-3.627-.847c-.9-.6-1.327-1.92-2.025-3.022-1.665.411-2.868,1.776-3.969,3.274a6.189,6.189,0,0,1-3.746,2.715,22.317,22.317,0,0,1-2.309.21M69.281,59.18c3.453-1.126,6.518-3.091,10.209-2.339V42.786c-.842-.1-1.6-.145-2.349-.285-1.987-.374-3.049-1.927-4.172-3.378a6.41,6.41,0,0,0-3.675-2.591c-.06.242-.112.4-.139.564a5.316,5.316,0,0,1-5.386,4.815c-1.238.045-2.483-.032-3.718.044a2.631,2.631,0,0,0-1.638.51c-.366.387-.673,1.307-.457,1.659A2.629,2.629,0,0,0,59.7,45.292c2.084.157,4.186.062,6.28.107a4.632,4.632,0,0,1,4.154,2.563,3.628,3.628,0,0,0,2.9,2.044c.936.108,1.628.516,1.416,1.547-.2.987-1.039,1.224-1.909.994-1.082-.286-2.13-.7-3.256-1.086Zm12.883-9.489c0,2.518.034,5.037-.014,7.554-.024,1.272.593,1.614,1.74,1.59,1.77-.036,2.148-.245,2.153-1.581q.024-7.49,0-14.981c0-1.33-.369-1.591-2.016-1.584-1.563.007-1.851.234-1.859,1.574-.014,2.475,0,4.951,0,7.427M64.01,12.344,56.8,5.135c0,1.323-.035,2.9.01,4.477a2.545,2.545,0,0,0,2.2,2.712c1.774.081,3.554.021,5,.021" transform="translate(0 0)" fill="#141774"/>
        <path id="Path_9717" data-name="Path 9717" d="M112.408,205.006c-1.795,0-3.59-.014-5.384.006-.938.01-1.7-.335-1.7-1.312s.749-1.353,1.683-1.353c3.589,0,7.179-.01,10.768.01.891,0,1.644.312,1.611,1.388-.031,1-.755,1.25-1.6,1.257-1.795.013-3.59,0-5.384,0" transform="translate(-78.278 -150.38)" fill="#141774"/>
        <path id="Path_9718" data-name="Path 9718" d="M112.333,181.209h5.383c.9,0,1.658.248,1.687,1.307.03,1.095-.743,1.318-1.64,1.319-3.589,0-7.178-.007-10.767.006-.948,0-1.683-.363-1.647-1.347.035-.965.79-1.305,1.729-1.292,1.751.024,3.5.007,5.255.007" transform="translate(-78.293 -134.666)" fill="#141774"/>
      </g>
    </g>
  </g>
</svg>
