<svg width="126" height="60" viewBox="0 0 126 60" fill="none" xmlns="http://www.w3.org/2000/svg">
<rect width="126" height="60" rx="8" fill="#C431F0"/>
<path d="M34.8267 37H32.4972L37.7315 22.4545H40.267L45.5014 37H43.1719L39.0597 25.0966H38.946L34.8267 37ZM35.2173 31.304H42.7741V33.1506H35.2173V31.304ZM51.8509 37.2202C50.795 37.2202 49.8859 36.9811 49.1236 36.5028C48.366 36.0199 47.7836 35.3546 47.3764 34.5071C46.9692 33.6596 46.7656 32.6889 46.7656 31.5952C46.7656 30.4872 46.974 29.5095 47.3906 28.6619C47.8073 27.8097 48.3944 27.1444 49.152 26.6662C49.9096 26.188 50.8021 25.9489 51.8295 25.9489C52.6581 25.9489 53.3968 26.1027 54.0455 26.4105C54.6941 26.7135 55.2173 27.1397 55.6151 27.6889C56.0175 28.2382 56.2566 28.8797 56.3324 29.6136H54.2656C54.152 29.1023 53.8916 28.6619 53.4844 28.2926C53.0819 27.9233 52.5421 27.7386 51.8651 27.7386C51.2732 27.7386 50.7547 27.8949 50.3097 28.2074C49.8693 28.5152 49.526 28.9555 49.2798 29.5284C49.0336 30.0966 48.9105 30.7689 48.9105 31.5455C48.9105 32.3409 49.0313 33.0275 49.2727 33.6051C49.5142 34.1828 49.8551 34.6302 50.2955 34.9474C50.7405 35.2647 51.2637 35.4233 51.8651 35.4233C52.2675 35.4233 52.6321 35.3499 52.9588 35.2031C53.2902 35.0516 53.5672 34.8362 53.7898 34.5568C54.017 34.2775 54.1757 33.9413 54.2656 33.5483H56.3324C56.2566 34.2538 56.027 34.8835 55.6435 35.4375C55.2599 35.9915 54.7462 36.4271 54.1023 36.7443C53.4631 37.0616 52.7126 37.2202 51.8509 37.2202ZM63.6957 26.0909V27.7955H57.7369V26.0909H63.6957ZM59.3349 23.4773H61.4585V33.7969C61.4585 34.2088 61.52 34.5189 61.6431 34.7273C61.7662 34.9309 61.9248 35.0705 62.119 35.1463C62.3178 35.2173 62.5333 35.2528 62.7653 35.2528C62.9357 35.2528 63.0849 35.241 63.2127 35.2173C63.3406 35.1937 63.44 35.1747 63.511 35.1605L63.8945 36.9148C63.7714 36.9621 63.5962 37.0095 63.369 37.0568C63.1417 37.1089 62.8576 37.1373 62.5167 37.142C61.958 37.1515 61.4371 37.0521 60.9542 36.8438C60.4712 36.6354 60.0806 36.3134 59.7823 35.8778C59.484 35.4422 59.3349 34.8954 59.3349 34.2372V23.4773ZM66.0447 37V26.0909H68.1683V37H66.0447ZM67.1172 24.4077C66.7479 24.4077 66.4306 24.2846 66.1655 24.0384C65.9051 23.7874 65.7749 23.4891 65.7749 23.1435C65.7749 22.7931 65.9051 22.4948 66.1655 22.2486C66.4306 21.9976 66.7479 21.8722 67.1172 21.8722C67.4865 21.8722 67.8014 21.9976 68.0618 22.2486C68.3269 22.4948 68.4595 22.7931 68.4595 23.1435C68.4595 23.4891 68.3269 23.7874 68.0618 24.0384C67.8014 24.2846 67.4865 24.4077 67.1172 24.4077ZM75.6204 37.2202C74.5977 37.2202 73.7051 36.9858 72.9428 36.517C72.1805 36.0483 71.5887 35.3925 71.1673 34.5497C70.7459 33.7069 70.5352 32.7221 70.5352 31.5952C70.5352 30.4635 70.7459 29.474 71.1673 28.6264C71.5887 27.7789 72.1805 27.1207 72.9428 26.652C73.7051 26.1832 74.5977 25.9489 75.6204 25.9489C76.6431 25.9489 77.5356 26.1832 78.2979 26.652C79.0603 27.1207 79.6521 27.7789 80.0735 28.6264C80.4949 29.474 80.7056 30.4635 80.7056 31.5952C80.7056 32.7221 80.4949 33.7069 80.0735 34.5497C79.6521 35.3925 79.0603 36.0483 78.2979 36.517C77.5356 36.9858 76.6431 37.2202 75.6204 37.2202ZM75.6275 35.4375C76.2904 35.4375 76.8396 35.2623 77.2752 34.9119C77.7108 34.5616 78.0328 34.0952 78.2411 33.5128C78.4542 32.9304 78.5607 32.2888 78.5607 31.5881C78.5607 30.892 78.4542 30.2528 78.2411 29.6705C78.0328 29.0833 77.7108 28.6122 77.2752 28.2571C76.8396 27.902 76.2904 27.7244 75.6275 27.7244C74.9599 27.7244 74.4059 27.902 73.9656 28.2571C73.5299 28.6122 73.2056 29.0833 72.9925 29.6705C72.7842 30.2528 72.68 30.892 72.68 31.5881C72.68 32.2888 72.7842 32.9304 72.9925 33.5128C73.2056 34.0952 73.5299 34.5616 73.9656 34.9119C74.4059 35.2623 74.9599 35.4375 75.6275 35.4375ZM85.1996 30.5227V37H83.076V26.0909H85.1143V27.8665H85.2493C85.5002 27.2888 85.8932 26.8248 86.4283 26.4744C86.968 26.1241 87.6475 25.9489 88.4666 25.9489C89.21 25.9489 89.861 26.1051 90.4197 26.4176C90.9785 26.7254 91.4117 27.1847 91.7195 27.7955C92.0272 28.4062 92.1811 29.1615 92.1811 30.0611V37H90.0575V30.3168C90.0575 29.526 89.8516 28.9081 89.4396 28.4631C89.0277 28.0133 88.4619 27.7884 87.7422 27.7884C87.2498 27.7884 86.8118 27.8949 86.4283 28.108C86.0495 28.321 85.7488 28.6335 85.5263 29.0455C85.3085 29.4527 85.1996 29.9451 85.1996 30.5227Z" fill="white"/>
</svg>
