<svg xmlns="http://www.w3.org/2000/svg" width="43.909" height="43.909" viewBox="0 0 43.909 43.909">
  <g id="Group_56" data-name="Group 56" transform="translate(-2790 -284)">
    <rect id="Rectangle_50" data-name="Rectangle 50" width="41.909" height="41.909" rx="7" transform="translate(2791 285)" fill="none" stroke="#c431f0" stroke-width="2"/>
    <g id="Group_55" data-name="Group 55" transform="translate(2437.647 -73.304)">
      <path id="Path_22" data-name="Path 22" d="M362.364,377.43q0-4.111,0-8.222a2.929,2.929,0,0,1,1.972-2.943,3.388,3.388,0,0,1,1.081-.168c2.829-.013,5.658,0,8.486-.012a1.018,1.018,0,0,1,.8.351q2.612,2.766,5.241,5.516a1.144,1.144,0,0,1,.336.852c-.01,1.459,0,2.918-.01,4.377a.349.349,0,0,0,.323.406,7.532,7.532,0,1,1-8.126,11.474.57.57,0,0,0-.549-.3q-3.254.013-6.507,0a2.9,2.9,0,0,1-2.965-2.29,3.635,3.635,0,0,1-.08-.9Q362.359,381.5,362.364,377.43Zm16.784-4.36h-.441c-.824,0-1.649.005-2.473,0a2.451,2.451,0,0,1-2.647-2.662c0-.85,0-1.7,0-2.55v-.639a1.319,1.319,0,0,0-.189-.034c-2.663,0-5.327-.02-7.99.005a1.843,1.843,0,0,0-1.94,2.014q0,8.239,0,16.478a2.269,2.269,0,0,0,.064.6,1.842,1.842,0,0,0,2.01,1.385c1.928.006,3.856,0,5.783,0,.112,0,.224-.012.384-.02a7.857,7.857,0,0,1-.314-4.517h-.437c-1.294,0-2.587,0-3.881,0-.162,0-.372.016-.475-.073a.826.826,0,0,1-.311-.532c0-.159.2-.344.36-.461.094-.071.269-.043.407-.043,1.459,0,2.917,0,4.376-.006.124,0,.313-.03.361-.111.3-.5.574-1.028.876-1.583h-.4c-1.788,0-3.577,0-5.365,0-.412,0-.64-.2-.646-.538s.218-.54.625-.569c.1-.007.2,0,.3,0,2.055,0,4.109.008,6.164-.011a1.307,1.307,0,0,0,.713-.25,7.232,7.232,0,0,1,2.854-1.367c.726-.146,1.467-.214,2.227-.321ZM372.3,384.9a6.432,6.432,0,1,0,6.427-6.465A6.481,6.481,0,0,0,372.3,384.9Zm2.378-16.881c0,.967-.027,1.814.009,2.659a1.231,1.231,0,0,0,1.07,1.25c.85.057,1.707.014,2.636.014Z" transform="translate(0)" fill="#c431f0" stroke="#c431f0" stroke-width="0.5"/>
      <path id="Path_23" data-name="Path 23" d="M417.148,502.414c.861,0,1.723,0,2.584,0,.459,0,.729.2.739.538s-.275.573-.747.574c-1.71,0-3.42.01-5.13-.01a.98.98,0,0,1-.63-.25.562.562,0,0,1-.034-.547.807.807,0,0,1,.56-.292C415.374,502.4,416.261,502.415,417.148,502.414Z" transform="translate(-47.59 -125.948)" fill="#c431f0" stroke="#c431f0" stroke-width="0.5"/>
      <path id="Path_24" data-name="Path 24" d="M544.157,580.392c0,.555.01,1.059,0,1.563-.008.259-.071.534-.37.594a.648.648,0,0,1-.513-.088.956.956,0,0,1-.215-.574c-.03-.478-.01-.959-.01-1.5h-.888c-.216,0-.431.006-.646,0-.46-.016-.71-.225-.7-.574s.252-.528.695-.534c.493-.006.986,0,1.539,0,0-.447,0-.872,0-1.3a3.463,3.463,0,0,1,.041-.528.46.46,0,0,1,.477-.406c.27-.012.5.1.533.377.049.374.047.755.06,1.133.008.225,0,.45,0,.721.551,0,1.069-.032,1.58.016a.849.849,0,0,1,.556.35.563.563,0,0,1-.09.534.949.949,0,0,1-.581.2C545.156,580.411,544.686,580.392,544.157,580.392Z" transform="translate(-164.865 -194.907)" fill="#c431f0" stroke="#c431f0" stroke-width="0.5"/>
    </g>
  </g>
</svg>
