<svg width="60" height="60" viewBox="0 0 60 60" fill="none" xmlns="http://www.w3.org/2000/svg">
<rect width="60" height="60" rx="8" fill="#C431F0"/>
<path d="M30.4378 31.6043C30.4378 31.3122 30.6747 31.0753 30.9668 31.0753C30.9756 31.0753 30.9843 31.0753 30.9931 31.0753C34.7858 31.0753 38.5794 31.078 42.3721 31.0735C43.5191 31.0717 44.2359 30.0927 43.8857 29.0311C43.6772 28.3997 43.1098 28.0216 42.3513 28.0207C39.8471 28.0189 37.3421 28.0198 34.8379 28.0198C33.5689 28.0198 32.2998 28.0198 30.9884 28.0198C30.6843 28.0198 30.4378 27.7733 30.4378 27.4692V27.4692C30.4378 23.5038 30.4352 19.5375 30.4396 15.5721C30.4404 14.8994 30.1546 14.4153 29.575 14.1441C29.0267 13.8872 28.495 13.9788 28.0336 14.3794C27.6521 14.7099 27.5305 15.15 27.5314 15.661C27.5401 19.5815 27.5357 23.5029 27.5357 27.4234C27.5357 27.4443 27.5357 27.4652 27.5357 27.4863C27.5357 27.7809 27.2969 28.0198 27.0022 28.0198V28.0198C23.2095 28.0198 19.4159 28.0189 15.6231 28.0207C14.8637 28.0207 14.2963 28.3988 14.0878 29.0302C13.7481 30.0586 14.4319 31.0547 15.5128 31.0717C16.6562 31.0888 17.8006 31.0762 18.9441 31.0762C21.6368 31.0762 24.3295 31.0762 27.0222 31.0762V31.0762C27.3058 31.0762 27.5357 31.3061 27.5357 31.5897C27.5357 31.6093 27.5357 31.6288 27.5357 31.6483C27.5357 35.5994 27.5322 39.5495 27.5383 43.5005C27.5401 44.6331 28.4793 45.348 29.4751 44.9959C30.0772 44.7831 30.4352 44.2388 30.4361 43.5014C30.4396 40.7629 30.4378 38.0244 30.4378 35.2859C30.4378 34.059 30.4378 32.8312 30.4378 31.6043V31.6043Z" fill="white"/>
</svg>
