<svg xmlns="http://www.w3.org/2000/svg" width="104.297" height="42.81" viewBox="0 0 104.297 42.81">
  <g id="Group_6750" data-name="Group 6750" transform="translate(-246.302 -20.558)">
    <path id="Path_22954" data-name="Path 22954" d="M277.836,54.706H271.68l-2.233-6.788h-14.5l-2.53,6.788H246.3l12.647-34.148h6.323Zm-10.16-11.384-4.847-13.4c-.17-.422-.381-1.181-.8-2.193h-.084c-.251.968-.462,1.56-.633,2.065l-4.764,13.531Z" transform="translate(0 0)" fill="#fff"/>
    <path id="Path_22955" data-name="Path 22955" d="M295.811,54.8h-6.072V38.61c0-1.771-.084-4,.127-6.618h-.084c-.589,1.433-1.011,2.655-1.265,3.287L279.622,54.8h-3.963l-8.684-19.392c-.295-.716-.8-1.855-1.392-3.415H265.5c-.127,1.349-.127,3.458-.127,6.491L265.288,54.8h-5.607V20.651h6.534l9.992,23.188,1.56,3.287h.127c.716-1.855,1.222-2.866,1.6-3.752l10.033-22.723h6.451Z" transform="translate(22.791 0.158)" fill="#fff"/>
    <path id="Path_22956" data-name="Path 22956" d="M302.332,20.558l-11.044,21.92V54.706h-5.607V42.565L274.635,20.558H281l6.913,14.923c.087.168.3.8.676,1.938h.084a11.127,11.127,0,0,1,.8-1.938l6.916-14.923Z" transform="translate(48.266 0)" fill="#fff"/>
    <rect id="Rectangle_2190" data-name="Rectangle 2190" width="104.297" height="4.743" transform="translate(246.302 58.626)" fill="#fff"/>
  </g>
</svg>
