<svg xmlns="http://www.w3.org/2000/svg" xmlns:xlink="http://www.w3.org/1999/xlink" width="651.5" height="819.271" viewBox="0 0 651.5 819.271">
  <defs>
    <linearGradient id="linear-gradient" x1="0.5" x2="0.5" y2="1" gradientUnits="objectBoundingBox">
      <stop offset="0" stop-color="#e5dcfd"/>
      <stop offset="0.424" stop-color="#f0eafd" stop-opacity="0.122"/>
      <stop offset="1" stop-color="#f1ecfd" stop-opacity="0"/>
    </linearGradient>
  </defs>
  <g id="Benefits_vector" data-name="Benefits vector" transform="translate(-147.734 -3199)">
    <ellipse id="Ellipse_310" data-name="Ellipse 310" cx="325.75" cy="305.19" rx="325.75" ry="305.19" transform="translate(147.734 3199)" opacity="0.31" fill="url(#linear-gradient)"/>
    <g id="Personal_site-amico" data-name="Personal site-amico" transform="translate(204.045 3455.471)">
      <g id="freepik--Floor--inject-12" transform="translate(0 241.039)">
        <path id="Path_31071" data-name="Path 31071" d="M484.282,278.756c-103.6-62.828-271.028-62.828-373.957,0S7.934,443.483,111.55,506.286s271.04,62.828,373.969,0S587.909,341.584,484.282,278.756Z" transform="translate(-33.481 -231.635)" fill="#f5f5f5"/>
      </g>
      <g id="freepik--Shadows--inject-12" transform="translate(47.061 242.596)">
        <path id="Path_31072" data-name="Path 31072" d="M291.7,238.269c11.921,7.232,11.995,18.969.135,26.2s-31.132,7.233-43.066,0-11.995-18.969-.135-26.2S279.77,231.037,291.7,238.269Z" transform="translate(-34.082 -232.845)" fill="#e6e6e6"/>
        <path id="Path_31073" data-name="Path 31073" d="M73.752,419.391l11.113,6.319a6.939,6.939,0,0,0,7.057-.116l156.606-95.413a3.879,3.879,0,0,0-.086-6.6l-14.7-8.339-160.085,97.5a3.962,3.962,0,0,0,.1,6.653Z" transform="translate(-71.892 -209.203)" fill="#e6e6e6"/>
        <path id="Path_31074" data-name="Path 31074" d="M375.21,381.651c-23-13.937-60.158-13.937-83,0s-22.728,36.562.27,50.512,60.158,13.937,83,0S398.207,395.6,375.21,381.651Z" transform="translate(-26.114 -193.147)" fill="#e6e6e6"/>
        <path id="Path_31075" data-name="Path 31075" d="M435.407,329.886c-9.189-5.431-23.953-5.276-32.97.36s-8.883,14.62.306,20.063,23.953,5.276,32.97-.373S444.6,335.381,435.407,329.886Z" transform="translate(1.046 -206.141)" fill="#e6e6e6"/>
      </g>
      <g id="freepik--Table--inject-12" transform="translate(253.677 93.147)">
        <path id="Path_31076" data-name="Path 31076" d="M267.889,169.74H262.4c0,24.786.858,106.4.858,106.4h0a.976.976,0,0,0,.551.811,2.8,2.8,0,0,0,2.671,0,.977.977,0,0,0,.551-.811h0S267.889,194.526,267.889,169.74Z" transform="translate(-235.605 -101.503)" fill="#e6e6e6"/>
        <path id="Path_31077" data-name="Path 31077" d="M260.281,161.05h-5.489c-4.717,25.674-7.792,106.4-7.792,106.4h0a1.054,1.054,0,0,0,.564.824,2.885,2.885,0,0,0,2.671,0,1.017,1.017,0,0,0,.551-.824h0S255.981,186.338,260.281,161.05Z" transform="translate(-239.073 -103.996)" fill="#e6e6e6"/>
        <path id="Path_31078" data-name="Path 31078" d="M271.44,161.05h5.489c4.717,25.649,7.78,106.4,7.78,106.4h0a1.017,1.017,0,0,1-.551.824,2.885,2.885,0,0,1-2.671,0,1.016,1.016,0,0,1-.551-.824h0S275.728,186.338,271.44,161.05Z" transform="translate(-233.569 -103.996)" fill="#e6e6e6"/>
        <g id="Group_11589" data-name="Group 11589" transform="translate(7.927 57.054)" opacity="0.1">
          <path id="Path_31079" data-name="Path 31079" d="M267.889,169.74H262.4c0,24.786.858,106.4.858,106.4h0a.976.976,0,0,0,.551.811,2.8,2.8,0,0,0,2.671,0,.977.977,0,0,0,.551-.811h0S267.889,194.526,267.889,169.74Z" transform="translate(-243.532 -158.557)"/>
          <path id="Path_31080" data-name="Path 31080" d="M260.281,161.05h-5.489c-4.717,25.674-7.792,106.4-7.792,106.4h0a1.054,1.054,0,0,0,.564.824,2.885,2.885,0,0,0,2.671,0,1.017,1.017,0,0,0,.551-.824h0S255.981,186.338,260.281,161.05Z" transform="translate(-247 -161.05)"/>
          <path id="Path_31081" data-name="Path 31081" d="M271.44,161.05h5.489c4.717,25.649,7.78,106.4,7.78,106.4h0a1.017,1.017,0,0,1-.551.824,2.885,2.885,0,0,1-2.671,0,1.016,1.016,0,0,1-.551-.824h0S275.728,186.338,271.44,161.05Z" transform="translate(-241.496 -161.05)"/>
        </g>
        <path id="Path_31082" data-name="Path 31082" d="M299.6,163.707h-.576c-1.115-3.372-3.823-6.6-8.135-9.214-11.578-7.014-30.275-7.014-41.767,0-4.288,2.574-6.959,5.843-8.037,9.214h-.551v3.488h0c0,4.607,2.94,9.2,8.723,12.715,11.566,7.014,30.275,7.014,41.767,0,5.746-3.513,8.576-8.108,8.576-12.715h0Z" transform="translate(-240.53 -107.387)" fill="#e0e0e0"/>
        <path id="Path_31083" data-name="Path 31083" d="M290.884,151.784c11.566,7.014,11.627,18.39.135,25.4s-30.2,7.014-41.767,0-11.627-18.39-.135-25.4S279.306,144.757,290.884,151.784Z" transform="translate(-240.528 -108.166)" fill="#ebebeb"/>
        <path id="Path_31084" data-name="Path 31084" d="M281.8,142.54H252.81c0,10,4.448,18.48,5.82,21a2.269,2.269,0,0,0,.184.335l.061.116h0a6.036,6.036,0,0,0,2.071,1.93,13.443,13.443,0,0,0,12.767,0,5.467,5.467,0,0,0,2.328-2.5C277.473,160.789,281.8,152.411,281.8,142.54Z" transform="translate(-237.764 -109.307)" fill="#e0e0e0"/>
        <path id="Path_31085" data-name="Path 31085" d="M277.554,138.279c5.673,3.436,5.7,9.009,0,12.458s-14.813,3.449-20.5,0-5.709-9.009-.061-12.457S271.845,134.8,277.554,138.279Z" transform="translate(-237.772 -111.275)" fill="#ebebeb"/>
        <path id="Path_31086" data-name="Path 31086" d="M264.495,146.011a45.578,45.578,0,0,0-4.178-18.789,16.461,16.461,0,0,1-1.985-5.727c-.135-2.033.931-4.35,2.843-4.749a3.991,3.991,0,0,1,3.908,1.956,12.693,12.693,0,0,1,1.544,4.5c1.434,7.039,2.622,14.285,1.715,21.427a9.4,9.4,0,0,1-.466,2.419,2.18,2.18,0,0,1-1.654,1.377,1.542,1.542,0,0,1-1.311-.541A3.672,3.672,0,0,1,264.495,146.011Z" transform="translate(-236.523 -116.717)" fill="#ebebeb"/>
        <path id="Path_31087" data-name="Path 31087" d="M265.488,146.027h0a.23.23,0,0,1-.158-.089.253.253,0,0,1-.05-.181A57.028,57.028,0,0,0,261,119.079a.263.263,0,0,1,.123-.335.222.222,0,0,1,.179,0,.239.239,0,0,1,.128.131,57.319,57.319,0,0,1,4.349,26.935.247.247,0,0,1-.1.183.224.224,0,0,1-.2.036Z" transform="translate(-235.924 -116.141)" fill="#fff"/>
        <path id="Path_31088" data-name="Path 31088" d="M252.437,132.937c-1.225-.824-2.732-1.724-3.124-3.243a3.564,3.564,0,0,1,1.47-3.642,4.814,4.814,0,0,1,3.872-.541,10.315,10.315,0,0,1,3.565,1.879,24.373,24.373,0,0,1,4.9,4.929,27.1,27.1,0,0,1,3.933,7.438,30.041,30.041,0,0,1,1.409,5.354c.22,1.441.625,3.861-.8,4.775a1.985,1.985,0,0,1-2.083,0,3.812,3.812,0,0,1-1.421-1.724,17.843,17.843,0,0,1-.747-2.162A20.459,20.459,0,0,0,259,138.407,32.445,32.445,0,0,0,252.437,132.937Z" transform="translate(-238.567 -114.247)" fill="#f5f5f5"/>
        <path id="Path_31089" data-name="Path 31089" d="M266.622,147.74h0a.294.294,0,0,1-.343-.232,29.635,29.635,0,0,0-14.96-20.179.343.343,0,0,1-.135-.412.3.3,0,0,1,.392-.142,30.272,30.272,0,0,1,15.278,20.591A.322.322,0,0,1,266.622,147.74Z" transform="translate(-238.136 -113.838)" fill="#fff"/>
        <path id="Path_31090" data-name="Path 31090" d="M277.332,130.458c1.029-1.145,2.218-2.394,2.23-3.964a3.451,3.451,0,0,0-2.3-3.127,4.7,4.7,0,0,0-3.872.5,10.455,10.455,0,0,0-3,2.767,25.262,25.262,0,0,0-3.565,6.074,27.978,27.978,0,0,0-2.009,8.236,29.94,29.94,0,0,0-.073,5.547c.135,1.454.319,3.861,1.924,4.427a2.029,2.029,0,0,0,2.009-.592,3.939,3.939,0,0,0,.956-2.033,18.066,18.066,0,0,0,.2-2.291,21.355,21.355,0,0,1,2.45-8.52A33.615,33.615,0,0,1,277.332,130.458Z" transform="translate(-235.1 -114.869)" fill="#f5f5f5"/>
        <path id="Path_31091" data-name="Path 31091" d="M266.5,148.715h0a.3.3,0,0,0,.27-.322,30.523,30.523,0,0,1,9.618-23.5.321.321,0,0,0,0-.4.284.284,0,0,0-.381-.059,31.2,31.2,0,0,0-9.8,24,.3.3,0,0,0,.294.283Z" transform="translate(-234.753 -114.517)" fill="#fff"/>
      </g>
      <g id="freepik--Pictures--inject-12" transform="translate(367.266 12.885)">
        <path id="Path_31092" data-name="Path 31092" d="M394.746,95.77l41.081,24.9-.086,32.984L394.66,128.741Z" transform="translate(-319.408 -42.465)" fill="none"/>
        <path id="Path_31093" data-name="Path 31093" d="M395.444,96.284l-.086,32.971-3.8,2.329.1-37.6Z" transform="translate(-320.106 -42.979)" fill="#f0f0f0"/>
        <path id="Path_31094" data-name="Path 31094" d="M436.439,146.3l-.012,4.62L391.56,123.719l3.8-2.329Z" transform="translate(-320.106 -35.114)" fill="#f5f5f5"/>
        <path id="Path_31095" data-name="Path 31095" d="M387.79,136.195l54.068,32.791.1-48.672-54.032-32.8Zm4.619-2.754.1-37.578,3.786,2.3,41.081,24.9-.086,32.984v4.62Z" transform="translate(-320.955 -44.835)" fill="#e0e0e0"/>
        <path id="Path_31096" data-name="Path 31096" d="M387.9,88.029l3.8-2.329,54.068,32.791-3.8,2.316Z" transform="translate(-320.93 -45.355)" fill="#f5f5f5"/>
        <path id="Path_31097" data-name="Path 31097" d="M435.853,111.18l-.122,48.685-3.81,2.329.135-48.7Z" transform="translate(-311.017 -38.044)" fill="#f0f0f0"/>
        <path id="Path_31098" data-name="Path 31098" d="M340.2,64.42l41.081,24.915-.086,32.971L340.11,97.391Z" transform="translate(-331.693 -51.461)" fill="none"/>
        <path id="Path_31099" data-name="Path 31099" d="M340.9,64.934,340.81,97.9,337,100.234l.1-37.6Z" transform="translate(-332.393 -51.974)" fill="#f0f0f0"/>
        <path id="Path_31100" data-name="Path 31100" d="M381.891,114.955l-.012,4.62L337,92.369l3.81-2.329Z" transform="translate(-332.393 -44.109)" fill="#f5f5f5"/>
        <path id="Path_31101" data-name="Path 31101" d="M333.24,104.857l54.068,32.791.122-48.685-54.068-32.8Zm4.607-2.767.1-37.6,3.8,2.3,41.081,24.915-.086,32.971v4.633Z" transform="translate(-333.24 -53.831)" fill="#e0e0e0"/>
        <path id="Path_31102" data-name="Path 31102" d="M333.34,56.679l3.81-2.329,54.068,32.791-3.81,2.329Z" transform="translate(-333.217 -54.35)" fill="#f5f5f5"/>
        <path id="Path_31103" data-name="Path 31103" d="M381.3,79.83l-.135,48.7-3.8,2.316.123-48.685Z" transform="translate(-323.302 -47.039)" fill="#f0f0f0"/>
        <path id="Path_31104" data-name="Path 31104" d="M407.455,105.5l-11.211,9.253-.025,9.06,37.258,22.6.025-9.06-7.094-14.813-6.383,5.2,2.267,7.361-3.284-6.538Z" transform="translate(-319.056 -39.673)" fill="#e0e0e0"/>
        <path id="Path_31105" data-name="Path 31105" d="M415.965,109.1c-1.764-1.068-3.186-.206-3.186,1.9a7.4,7.4,0,0,0,3.161,5.765c1.752,1.055,3.186.206,3.186-1.9a7.429,7.429,0,0,0-3.161-5.765Z" transform="translate(-315.327 -38.771)" fill="#e0e0e0"/>
        <path id="Path_31106" data-name="Path 31106" d="M352.893,74.15l-11.2,9.266-.024,9.047,37.258,22.6.025-9.047-7.094-14.825-6.383,5.2,2.254,7.361-3.271-6.525Z" transform="translate(-331.341 -48.669)" fill="#e0e0e0"/>
        <path id="Path_31107" data-name="Path 31107" d="M361.405,77.791c-1.752-1.055-3.173-.206-3.186,1.9a7.415,7.415,0,0,0,3.173,5.765c1.752,1.068,3.173.206,3.186-1.9a7.441,7.441,0,0,0-3.173-5.765Z" transform="translate(-327.614 -47.754)" fill="#e0e0e0"/>
      </g>
      <g id="freepik--Plant--inject-12" transform="translate(418.075 235.189)">
        <path id="Path_31108" data-name="Path 31108" d="M440.653,304.23l-22.115.914-22.115-.425c-.8,15.688,2.279,31.646,6.383,39.406h0a10.312,10.312,0,0,0,4.423,4.633c6.567,3.861,17.153,3.771,23.548-.257a10.11,10.11,0,0,0,4.325-4.852C439.024,335.747,441.756,319.828,440.653,304.23Z" transform="translate(-369.848 -204.956)" fill="#fff"/>
        <path id="Path_31109" data-name="Path 31109" d="M434,297.731c8.711,5.148,8.846,13.68.294,19.021s-22.556,5.508-31.267.347-8.858-13.667-.294-19.021S425.314,292.57,434,297.731Z" transform="translate(-369.825 -207.903)" fill="#ebebeb"/>
        <path id="Path_31110" data-name="Path 31110" d="M429.7,299.206c6.8,4.015,6.9,10.669.233,14.838s-17.594,4.3-24.406.27-6.837-10.669-.221-14.838S422.9,295.177,429.7,299.206Z" transform="translate(-368.929 -207.241)" fill="#e0e0e0"/>
        <g id="Group_11590" data-name="Group 11590" transform="translate(31.451 89.023)" opacity="0.15">
          <path id="Path_31111" data-name="Path 31111" d="M429.7,299.206c6.8,4.015,6.9,10.669.233,14.838s-17.594,4.3-24.406.27-6.837-10.669-.221-14.838S422.9,295.177,429.7,299.206Z" transform="translate(-400.38 -296.265)"/>
        </g>
        <path id="Path_31112" data-name="Path 31112" d="M451.489,227.09c-49.658,17.7-49.756,52.764-38.275,77.525,2.879,5.019,11.48,7.632,18.635-23.461l-13.073,1.9,15.18-8.288,3.847-12.483-12.718,1.133,16.075-7.31a258.112,258.112,0,0,1,10.329-29.02Z" transform="translate(-367.44 -227.09)" fill="#a796ff"/>
        <path id="Path_31113" data-name="Path 31113" d="M451.489,227.09c-49.658,17.7-49.756,52.764-38.275,77.525,2.879,5.019,11.48,7.632,18.635-23.461l-13.073,1.9,15.18-8.288,3.847-12.483-12.718,1.133,16.075-7.31a258.112,258.112,0,0,1,10.329-29.02Z" transform="translate(-367.44 -227.09)" opacity="0.2"/>
        <path id="Path_31114" data-name="Path 31114" d="M451.489,227.09c-49.658,17.7-49.756,52.764-38.275,77.525,2.879,5.019,11.48,7.632,18.635-23.461l-13.073,1.9,15.18-8.288,3.847-12.483-12.718,1.133,16.075-7.31a258.112,258.112,0,0,1,10.329-29.02Z" transform="translate(-367.44 -227.09)" fill="#fff" opacity="0.2"/>
        <path id="Path_31115" data-name="Path 31115" d="M436.366,234c-26.072,21.234-28.18,45.274-20.522,70.267C412.99,282.247,409.927,259.957,436.366,234Z" transform="translate(-366.321 -225.107)" fill="#fff"/>
        <path id="Path_31116" data-name="Path 31116" d="M374.71,255.46c49.192,6.718,55.477,39.187,49.216,64.437-1.789,5.225-9.3,9.317-21.441-18.12l12.46-.785-15.536-4.736-5.758-10.823L405.634,284l-16.2-3.642a239.076,239.076,0,0,0-14.727-24.9Z" transform="translate(-374.71 -218.95)" fill="#a796ff"/>
        <path id="Path_31117" data-name="Path 31117" d="M374.71,255.46c49.192,6.718,55.477,39.187,49.216,64.437-1.789,5.225-9.3,9.317-21.441-18.12l12.46-.785-15.536-4.736-5.758-10.823L405.634,284l-16.2-3.642a239.076,239.076,0,0,0-14.727-24.9Z" transform="translate(-374.71 -218.95)" fill="#fff" opacity="0.2"/>
        <path id="Path_31118" data-name="Path 31118" d="M374.71,255.46c49.192,6.718,55.477,39.187,49.216,64.437-1.789,5.225-9.3,9.317-21.441-18.12l12.46-.785-15.536-4.736-5.758-10.823L405.634,284l-16.2-3.642a239.076,239.076,0,0,0-14.727-24.9Z" transform="translate(-374.71 -218.95)" opacity="0.1"/>
        <path id="Path_31119" data-name="Path 31119" d="M386.6,259.76c27.935,14.62,34.171,36.5,31.476,61.181C416.814,299.964,415.711,278.652,386.6,259.76Z" transform="translate(-372.032 -217.716)" fill="#fff"/>
        <path id="Path_31120" data-name="Path 31120" d="M464.774,264.08c-45.039,1.287-53.578,29.985-50.16,53.421,1.152,4.89,7.584,9.33,20.975-14.285L424.4,301.3l14.457-2.767,6.126-9.215-10.708-2.458,14.96-1.725A214.444,214.444,0,0,1,464.774,264.08Z" transform="translate(-365.875 -216.476)" fill="#a796ff"/>
        <path id="Path_31121" data-name="Path 31121" d="M450.511,266.86c-26.526,10.476-34.1,29.6-33.84,52.211C419.673,300.217,422.54,281.093,450.511,266.86Z" transform="translate(-365.261 -215.679)" fill="#fff"/>
        <path id="Path_31122" data-name="Path 31122" d="M464.774,264.08c-45.039,1.287-53.578,29.985-50.16,53.421,1.152,4.89,7.584,9.33,20.975-14.285L424.4,301.3l14.457-2.767,6.126-9.215-10.708-2.458,14.96-1.725A214.444,214.444,0,0,1,464.774,264.08Z" transform="translate(-365.875 -216.476)" fill="#fff" opacity="0.2"/>
      </g>
      <g id="freepik--Device--inject-12" transform="translate(48.639 0)">
        <path id="Path_31123" data-name="Path 31123" d="M245.821,55.611h0c-1.078-3.938-8.687-11.428-16.259-11.261a6.058,6.058,0,0,0-2.132.438L80.308,132.7a15.1,15.1,0,0,0-7.118,12.869V479.913c0,8.507,9.348,16.64,18.121,12.728h0a3.129,3.129,0,0,0,.564-.245l147.208-88.155a14.934,14.934,0,0,0,7.106-12.869V57.22a3.805,3.805,0,0,0-.368-1.609Z" transform="translate(-73.178 -44.335)" fill="#a796ff"/>
        <path id="Path_31124" data-name="Path 31124" d="M245.821,55.611h0c-1.078-3.938-8.687-11.428-16.259-11.261a6.058,6.058,0,0,0-2.132.438L80.308,132.7a15.1,15.1,0,0,0-7.118,12.869V479.913c0,8.507,9.348,16.64,18.121,12.728h0a3.129,3.129,0,0,0,.564-.245l147.208-88.155a14.934,14.934,0,0,0,7.106-12.869V57.22a3.805,3.805,0,0,0-.368-1.609Z" transform="translate(-73.178 -44.335)" opacity="0.3"/>
        <path id="Path_31125" data-name="Path 31125" d="M89.93,170.2a7.459,7.459,0,0,1,3.565-6.435L230.13,82.108a3.371,3.371,0,0,1,3.51.019,3.733,3.733,0,0,1,1.746,3.2V354.937a7.473,7.473,0,0,1-3.553,6.435L95.2,443.144a3.382,3.382,0,0,1-3.513-.02,3.745,3.745,0,0,1-1.755-3.2Z" transform="translate(-69.408 -33.639)" fill="#455a64"/>
        <path id="Path_31126" data-name="Path 31126" d="M73.18,124.435V458.779c0,8.507,9.348,16.64,18.121,12.728h0a3.353,3.353,0,0,1-3.164-.479,3.727,3.727,0,0,1-1.467-2.983V133.662a15.266,15.266,0,0,1,2.377-8.159L74.638,118a15.318,15.318,0,0,0-1.458,6.435Z" transform="translate(-73.18 -23.202)" opacity="0.3"/>
        <path id="Path_31127" data-name="Path 31127" d="M229.309,44.341a6.057,6.057,0,0,0-2.132.438L80.043,132.7a14.418,14.418,0,0,0-5.673,6.435L88.778,146.7a14.353,14.353,0,0,1,4.742-4.749L240.667,54.018a3.356,3.356,0,0,1,2.781-.323,3.56,3.56,0,0,1,2.12,1.919h0C244.49,51.625,236.869,44.173,229.309,44.341Z" transform="translate(-72.912 -44.338)" fill="#fff" opacity="0.1"/>
        <path id="Path_31128" data-name="Path 31128" d="M169.738,94.821c1.041-.631,1.9-.142,1.9,1.107a4.409,4.409,0,0,1-1.887,3.41l-28.866,17.515c-1.029.631-1.862.1-1.875-1.145a4.371,4.371,0,0,1,1.862-3.385Z" transform="translate(-58.355 -29.931)" fill="#263238"/>
        <path id="Path_31129" data-name="Path 31129" d="M134.827,111.909c1.029-.618,1.862-.129,1.875,1.12a4.4,4.4,0,0,1-1.862,3.41c-1.041.631-1.887.116-1.9-1.132A4.382,4.382,0,0,1,134.827,111.909Z" transform="translate(-59.722 -25.026)" fill="#263238"/>
        <path id="Path_31130" data-name="Path 31130" d="M150.245,92.9c2.071-1.287,3.737-.257,3.737,2.239a8.764,8.764,0,0,1-3.676,6.808c-2.058,1.287-3.774.219-3.786-2.265a8.8,8.8,0,0,1,3.725-6.782Z" transform="translate(-56.663 -30.562)" fill="#263238"/>
        <path id="Path_31131" data-name="Path 31131" d="M150.978,337.6c4.2-2.574,7.6-.515,7.609,4.556a17.857,17.857,0,0,1-7.56,13.873c-4.2,2.574-7.694.463-7.707-4.607a17.855,17.855,0,0,1,7.658-13.822Z" transform="translate(-57.384 39.489)" fill="#263238"/>
      </g>
      <g id="freepik--Screen--inject-12" transform="translate(90.896 61.308)">
        <path id="Path_31132" data-name="Path 31132" d="M259.608,97.154h0l-7.952-4.427h0a3.32,3.32,0,0,0-3.823-.27l-136.61,81.72a7.5,7.5,0,0,0-3.553,6.435V450.34a3.641,3.641,0,0,0,2.242,3.41h0l8.013,4.517h0l.135.064a3.334,3.334,0,0,0,3.357,0l136.635-81.784a7.474,7.474,0,0,0,3.553-6.435v-269.6a3.649,3.649,0,0,0-2-3.359Z" transform="translate(-107.67 -91.977)" fill="#a796ff"/>
        <path id="Path_31133" data-name="Path 31133" d="M261.617,109.934v-9.42a3.648,3.648,0,0,0-2.009-3.359h0l-7.952-4.427h0a3.32,3.32,0,0,0-3.823-.27l-136.61,81.72a7.5,7.5,0,0,0-3.553,6.435v12.367l8.5,5.148Z" transform="translate(-107.67 -91.977)" fill="#fff" opacity="0.3"/>
        <path id="Path_31134" data-name="Path 31134" d="M259.608,97.154h0l-7.952-4.427h0a3.32,3.32,0,0,0-3.823-.27l-136.61,81.72a7.5,7.5,0,0,0-3.553,6.435V450.34a3.641,3.641,0,0,0,2.242,3.41h0l8.013,4.517h0l.135.064a3.334,3.334,0,0,0,3.357,0l136.635-81.784a7.474,7.474,0,0,0,3.553-6.435v-269.6a3.649,3.649,0,0,0-2-3.359Z" transform="translate(-107.67 -91.977)" fill="#fff" opacity="0.5"/>
        <path id="Path_31135" data-name="Path 31135" d="M107.67,161.562V431.29a3.641,3.641,0,0,0,2.242,3.41h0l8.013,4.517a3.707,3.707,0,0,1-1.74-3.192v-269.7a7.858,7.858,0,0,1,.551-2.883l-8.356-5.071a7.749,7.749,0,0,0-.711,3.192Z" transform="translate(-107.67 -72.926)" fill="#a796ff" opacity="0.3"/>
        <path id="Path_31136" data-name="Path 31136" d="M251.552,92.757h0a3.32,3.32,0,0,0-3.823-.27L111.095,174.169a7.235,7.235,0,0,0-2.855,3.243l8.356,5.071a7.279,7.279,0,0,1,3-3.539L256.2,97.287a3.286,3.286,0,0,1,3.247-.09h0Z" transform="translate(-107.542 -91.968)" fill="#fff" opacity="0.4"/>
        <path id="Path_31137" data-name="Path 31137" d="M154.569,163.878c18.023-10.926,32.676-2.162,32.737,19.587s-14.506,48.247-32.529,59.2-32.676,2.162-32.737-19.587S136.546,174.8,154.569,163.878Z" transform="translate(-104.434 -72.695)" fill="#a796ff"/>
        <path id="Path_31138" data-name="Path 31138" d="M167.136,183.952a9.471,9.471,0,0,0,2.45-12.1,4.834,4.834,0,0,0,2.3-2.278,2.765,2.765,0,0,0-.495-2.956,2.449,2.449,0,0,0-2.8-.6,3.858,3.858,0,0,0-1.421-4.376,3.27,3.27,0,0,0-4.19.811,2.4,2.4,0,0,0-1.556-2.355,4.4,4.4,0,0,0-2.892.193c-.943.335-1.813.824-2.757,1.132a19.958,19.958,0,0,1-4.9.669,9.633,9.633,0,0,0-4.778,1.287,4.6,4.6,0,0,0-1.875,5.148,2.709,2.709,0,0,0-1.985-1.107,2.6,2.6,0,0,0-2.034.914c1.041.669,2.046,1.4,3.088,2.072a2.745,2.745,0,0,0-3.173,1.287,6.8,6.8,0,0,0-.564,3.513,48.79,48.79,0,0,0,2.3,13.474c.711,2.239,2.377,5.071,4.4,6.1Z" transform="translate(-100.497 -72.474)" fill="#37474f"/>
        <path id="Path_31139" data-name="Path 31139" d="M159.29,192l4.9,4.427,2.61,15.726a85.512,85.512,0,0,0,5.66-10.553C170.243,195.539,168.442,192,159.29,192Z" transform="translate(-96.045 -63.277)" fill="#ebebeb"/>
        <path id="Path_31140" data-name="Path 31140" d="M151.634,233.2c8.466-5.148,16.173-13.693,21.943-23.589-.466-8.519-1.666-17.682-9.042-17.682l-21.919.154-4.472.5L136,237.912C140.68,238.157,145.985,236.664,151.634,233.2Z" transform="translate(-101.29 -63.297)" fill="#a796ff"/>
        <g id="Group_11591" data-name="Group 11591" transform="translate(34.71 128.633)" opacity="0.4">
          <path id="Path_31141" data-name="Path 31141" d="M151.634,233.2c8.466-5.148,16.173-13.693,21.943-23.589-.466-8.519-1.666-17.682-9.042-17.682l-21.919.154-4.472.5L136,237.912C140.68,238.157,145.985,236.664,151.634,233.2Z" transform="translate(-136 -191.93)" fill="#fff"/>
        </g>
        <path id="Path_31142" data-name="Path 31142" d="M158.5,194.564c2.046,6.846.76,16.4,0,20.694-5.195-7.5-10.047-15.018-11.578-18.017l7.241-3.681Z" transform="translate(-98.831 -62.829)" fill="#ebebeb"/>
        <path id="Path_31143" data-name="Path 31143" d="M153.9,199.318l1.789-.438a64.8,64.8,0,0,1,2.169,7.335c-.221,3.024-.625,5.727-.931,7.516-1.029-1.467-2.034-2.947-3-4.376a52.706,52.706,0,0,0-.025-10.038Z" transform="translate(-97.259 -61.302)" fill="#455a64"/>
        <path id="Path_31144" data-name="Path 31144" d="M153.93,199.716v-.4l1.789-.438.1.27a2.306,2.306,0,0,1-1.017.566A2.02,2.02,0,0,1,153.93,199.716Z" transform="translate(-97.252 -61.302)" opacity="0.2"/>
        <path id="Path_31145" data-name="Path 31145" d="M153.97,195.612l-1.409-.952-3.271,1.879a7.3,7.3,0,0,0,3.872,1.609Z" transform="translate(-98.297 -62.513)" fill="#455a64"/>
        <path id="Path_31146" data-name="Path 31146" d="M154.88,195.344l.429-1,1.654,1.081a3.124,3.124,0,0,1-1.066,1.647Z" transform="translate(-97.038 -62.605)" fill="#455a64"/>
        <path id="Path_31147" data-name="Path 31147" d="M153.97,195.612l-1.409-.952-3.271,1.879a7.3,7.3,0,0,0,3.872,1.609Z" transform="translate(-98.297 -62.513)" opacity="0.2"/>
        <path id="Path_31148" data-name="Path 31148" d="M154.88,195.344l.429-1,1.654,1.081a3.124,3.124,0,0,1-1.066,1.647Z" transform="translate(-97.038 -62.605)" opacity="0.2"/>
        <path id="Path_31149" data-name="Path 31149" d="M152.45,198.024a8.848,8.848,0,0,1,.809-2.574l2.169-.36a8.627,8.627,0,0,1,1.017,1.724,8.875,8.875,0,0,1-.429,3.114,3.7,3.7,0,0,1-1.789.438A4.818,4.818,0,0,1,152.45,198.024Z" transform="translate(-97.585 -62.39)" fill="#455a64"/>
        <path id="Path_31150" data-name="Path 31150" d="M156.507,196.846c-3.431-.064-5.538,2.818-8.687,3.8l-6.42-7.271,2.45-3.861a6.776,6.776,0,0,1,1.9-1.93h0V189a2.455,2.455,0,0,0,1.139,2.021Z" transform="translate(-100.074 -64.545)" fill="#e0e0e0"/>
        <path id="Path_31151" data-name="Path 31151" d="M153.73,196.166c1.924-.618,4.778,1.892,4.778,1.892-1-5.817-4.019-8.108-4.766-8.108Z" transform="translate(-97.297 -63.865)" fill="#e0e0e0"/>
        <path id="Path_31152" data-name="Path 31152" d="M139.987,192.47l-2.965.5a8.968,8.968,0,0,0-7.167,7.233,115.266,115.266,0,0,0-1.936,26.5l13.6-6.525C142.916,208.994,145.709,199.793,139.987,192.47Z" transform="translate(-103.133 -63.142)" fill="#ebebeb"/>
        <path id="Path_31153" data-name="Path 31153" d="M141.58,219.052v-1.287a.788.788,0,0,1,.27-.592.842.842,0,0,0,.27-.631v-2.059a1.029,1.029,0,0,0-.289-.719.931.931,0,0,0-.692-.285c-6.126.09-12.105,3.153-13.735,6.769a5.65,5.65,0,0,0,0,3.488c-1.066,1.454-.551,2.2,0,3.256a18.5,18.5,0,0,0,1.764,1.531C133.175,221.871,141.58,219.052,141.58,219.052Z" transform="translate(-103.366 -57.113)" fill="#e0e0e0"/>
        <path id="Path_31154" data-name="Path 31154" d="M135.141,216.69a20.968,20.968,0,0,0-7.756,6.177,6.057,6.057,0,0,1-.245-1.184,13.589,13.589,0,0,1,8-4.993Z" transform="translate(-103.285 -56.192)" opacity="0.2"/>
        <path id="Path_31155" data-name="Path 31155" d="M141.483,216.09a.754.754,0,0,1-.221.386.788.788,0,0,0-.27.592v.1a20.078,20.078,0,0,0-11.333,6.023C132.527,218.883,138.727,216.669,141.483,216.09Z" transform="translate(-102.718 -56.364)" opacity="0.2"/>
        <path id="Path_31156" data-name="Path 31156" d="M153.251,226.734a58.2,58.2,0,0,0,13.967-12.264c-7.878,0-18.856.515-26.048,3.127v1.133s-8.38,2.793-12.35,9.523C134.762,232.822,143.51,232.68,153.251,226.734Z" transform="translate(-102.907 -56.829)" fill="#ffa8a7"/>
        <path id="Path_31157" data-name="Path 31157" d="M140.706,218.153l.135-1.4-.686.232v1.133a27.719,27.719,0,0,0-5.6,2.793,8.815,8.815,0,0,0-1.225,2.574c1.642-2.432,3.443-3.41,6.947-4.35,3.173.515,8.723,2.973,14.359,5.444.539-.373,1.078-.759,1.605-1.158C149.356,220.932,142.47,218.281,140.706,218.153Z" transform="translate(-101.891 -56.175)" opacity="0.2"/>
        <path id="Path_31158" data-name="Path 31158" d="M148.962,189.263h-.1a5.843,5.843,0,0,1-2.879-3.861c-.184-.836-.343-1.673-.466-2.509s-.649,0-.649,0,0,1.853.086,4.054c0,1.158,0,2.419.074,3.565a2.455,2.455,0,0,0,1.139,2.021l9.557,5.855v-7.142a16.788,16.788,0,0,1-6.763-1.982Z" transform="translate(-99.292 -65.996)" fill="#ffa8a7"/>
        <path id="Path_31159" data-name="Path 31159" d="M146.31,186.77Z" transform="translate(-98.968 -64.777)" fill="#ffa8a7"/>
        <path id="Path_31160" data-name="Path 31160" d="M147.325,188.224a7.078,7.078,0,0,1-1.225-2.574,5.939,5.939,0,0,0,2.45,2.664h.1a16.772,16.772,0,0,0,6.775,1.892v1.827a16.327,16.327,0,0,1-4.006-.888,8.978,8.978,0,0,1-4.092-2.921Z" transform="translate(-99.015 -65.099)" opacity="0.2"/>
        <path id="Path_31161" data-name="Path 31161" d="M168.116,170.176a50.158,50.158,0,0,1-1.152,18.622,15.053,15.053,0,0,1-1.4,3.861,6.048,6.048,0,0,1-2.879,2.677,8.647,8.647,0,0,1-4.754,0,23.266,23.266,0,0,1-8.38-2.7c-2.45-1.6-4.5-4.479-4.251-7.554a4.8,4.8,0,0,1-4.8.283,5.366,5.366,0,0,1-2.634-4.286,3.36,3.36,0,0,1,1.509-3.625,3.024,3.024,0,0,1,3.735.511,10.942,10.942,0,0,1,1.948,2.394,3.54,3.54,0,0,0,.968,1.094,1.176,1.176,0,0,0,1.348,0,1.908,1.908,0,0,0,.38-1.531l-.172-3.861a1.569,1.569,0,0,1,.821-1.441,3.811,3.811,0,0,0,1.666-2.02,8.26,8.26,0,0,0,.466-2.342.973.973,0,0,1,.424-.719.881.881,0,0,1,.8-.092,26.057,26.057,0,0,0,16.357.734Z" transform="translate(-100.889 -69.765)" fill="#ffa8a7"/>
        <path id="Path_31162" data-name="Path 31162" d="M156,177.35l3.333,5.894-3.982.785Z" transform="translate(-96.932 -67.48)" fill="#f28f8f"/>
        <path id="Path_31163" data-name="Path 31163" d="M152.251,184.12l3.014,1.544a1.694,1.694,0,0,1-3.014-1.544Z" transform="translate(-97.656 -65.538)" fill="#f28f8f"/>
        <path id="Path_31164" data-name="Path 31164" d="M152.251,184.12l3.014,1.544a1.694,1.694,0,0,1-3.014-1.544Z" transform="translate(-97.656 -65.538)" opacity="0.3"/>
        <path id="Path_31165" data-name="Path 31165" d="M154.024,186.326a1.628,1.628,0,0,1-1.054-.1,1.725,1.725,0,0,1-.809-1.673,1.841,1.841,0,0,1,1.225.438A2.006,2.006,0,0,1,154.024,186.326Z" transform="translate(-97.653 -65.414)" fill="#f28f8f"/>
        <path id="Path_31166" data-name="Path 31166" d="M151.181,177.769a1.213,1.213,0,0,0,.6,1.18,1.1,1.1,0,0,0,1.265-.134,1.235,1.235,0,0,0,.359-1.281,1.13,1.13,0,0,0-2.22.236Z" transform="translate(-97.872 -67.668)" fill="#263238"/>
        <path id="Path_31167" data-name="Path 31167" d="M159,178.24a1.183,1.183,0,0,0,1.017,1.313,1.155,1.155,0,0,0,1.25-1.068,1.183,1.183,0,0,0-1.017-1.313A1.155,1.155,0,0,0,159,178.24Z" transform="translate(-96.111 -67.533)" fill="#263238"/>
        <path id="Path_31168" data-name="Path 31168" d="M160.27,174.46l2.352,2.1a1.763,1.763,0,0,0-.319-1.918,1.848,1.848,0,0,0-2.034-.18Z" transform="translate(-95.824 -68.374)" fill="#263238"/>
        <path id="Path_31169" data-name="Path 31169" d="M152.845,173.6l-2.7,1.57a1.727,1.727,0,0,1,.674-1.827,1.861,1.861,0,0,1,2.022.257Z" transform="translate(-98.115 -68.684)" fill="#263238"/>
        <path id="Path_31170" data-name="Path 31170" d="M199.693,171.67l.012,3.32-14.163,8.584-.012-3.32Z" transform="translate(-90.135 -69.11)" fill="#fff"/>
        <path id="Path_31171" data-name="Path 31171" d="M207.144,184.02l.012,3.32-21.564,13.075-.012-3.32Z" transform="translate(-90.124 -65.566)" fill="#fff"/>
        <path id="Path_31172" data-name="Path 31172" d="M214.205,175.42l.012,3.32-28.645,17.374-.012-3.32Z" transform="translate(-90.129 -68.034)" fill="#fff"/>
        <path id="Path_31173" data-name="Path 31173" d="M225.376,154.29l.012,3.32-39.856,24.181-.012-3.333Z" transform="translate(-90.138 -74.097)" fill="#fff"/>
        <path id="Path_31174" data-name="Path 31174" d="M233.271,145.25l.012,3.333-47.771,28.956-.012-3.32Z" transform="translate(-90.142 -76.691)" fill="#fff"/>
        <path id="Path_31175" data-name="Path 31175" d="M223.327,140.13l.024,6.653-37.859,22.959-.012-6.653Z" transform="translate(-90.147 -78.16)" fill="#fff"/>
        <path id="Path_31176" data-name="Path 31176" d="M120.91,251.685V411.419l56.078-33.563V217.71Z" transform="translate(-104.688 -55.9)" fill="#a796ff"/>
        <path id="Path_31177" data-name="Path 31177" d="M239.937,182.89,169.61,225.513V385.7l70.327-42.1Z" transform="translate(-93.721 -65.891)" fill="#a796ff"/>
        <g id="Group_11592" data-name="Group 11592" transform="translate(16.222 116.999)" opacity="0.7">
          <path id="Path_31178" data-name="Path 31178" d="M120.91,251.685V411.419l56.078-33.563V217.71Z" transform="translate(-120.91 -172.899)" fill="#fff"/>
          <path id="Path_31179" data-name="Path 31179" d="M239.937,182.89,169.61,225.513V385.7l70.327-42.1Z" transform="translate(-109.943 -182.89)" fill="#fff"/>
        </g>
        <path id="Path_31180" data-name="Path 31180" d="M210.657,291.12v2.87l-33.264,20.166-.012-2.857Z" transform="translate(-91.971 -34.836)" fill="#a796ff"/>
        <path id="Path_31181" data-name="Path 31181" d="M228.89,278.39l.012,2.883-51.52,31.234-.012-2.87Z" transform="translate(-91.973 -38.488)" fill="#a796ff"/>
        <path id="Path_31182" data-name="Path 31182" d="M201.582,287.13V290l-24.21,14.684-.012-2.857Z" transform="translate(-91.975 -35.981)" fill="#a796ff"/>
        <path id="Path_31183" data-name="Path 31183" d="M228.87,270.15l.012,2.87-51.52,31.234-.012-2.87Z" transform="translate(-91.978 -40.853)" fill="#a796ff"/>
        <path id="Path_31184" data-name="Path 31184" d="M228.86,266.02l.012,2.87L177.34,300.137v-2.87Z" transform="translate(-91.98 -42.038)" fill="#a796ff"/>
        <path id="Path_31185" data-name="Path 31185" d="M189.746,274.42V277.3l-12.424,7.541-.012-2.883Z" transform="translate(-91.987 -39.628)" fill="#a796ff"/>
        <path id="Path_31186" data-name="Path 31186" d="M228.82,251.88v2.87L177.312,286l-.012-2.87Z" transform="translate(-91.989 -46.095)" fill="#a796ff"/>
        <path id="Path_31187" data-name="Path 31187" d="M228.81,247.76v2.87l-51.52,31.247v-2.87Z" transform="translate(-91.991 -47.277)" fill="#a796ff"/>
        <path id="Path_31188" data-name="Path 31188" d="M228.788,243.64l.012,2.87-51.52,31.234v-2.857Z" transform="translate(-91.993 -48.459)" fill="#a796ff"/>
        <path id="Path_31189" data-name="Path 31189" d="M210.514,242.27l.012,2.87L177.25,265.319v-2.87Z" transform="translate(-92 -48.852)" fill="#a796ff"/>
        <path id="Path_31190" data-name="Path 31190" d="M228.748,229.54l.012,2.883-51.52,31.247v-2.883Z" transform="translate(-92.002 -52.505)" fill="#a796ff"/>
        <path id="Path_31191" data-name="Path 31191" d="M228.74,225.42l.012,2.87-51.52,31.247-.012-2.87Z" transform="translate(-92.007 -53.687)" fill="#a796ff"/>
        <path id="Path_31192" data-name="Path 31192" d="M228.72,217.17l.012,2.883L177.212,251.3l-.012-2.883Z" transform="translate(-92.011 -56.054)" fill="#a796ff"/>
        <path id="Path_31193" data-name="Path 31193" d="M228.73,221.3l.012,2.87-51.52,31.247-.012-2.87Z" transform="translate(-92.009 -54.869)" fill="#a796ff"/>
        <path id="Path_31194" data-name="Path 31194" d="M221.012,202.75v2.87l-43.85,26.6-.012-2.87Z" transform="translate(-92.023 -60.192)" fill="#a796ff"/>
        <path id="Path_31195" data-name="Path 31195" d="M224.12,209.54l.012,2.883-46.95,28.467-.012-2.883Z" transform="translate(-92.018 -58.244)" fill="#a796ff"/>
        <path id="Path_31196" data-name="Path 31196" d="M208.06,212.98v2.87l-30.887,18.738-.012-2.87Z" transform="translate(-92.02 -57.257)" fill="#a796ff"/>
        <path id="Path_31197" data-name="Path 31197" d="M228.66,195.02v2.87l-51.52,31.247v-2.87Z" transform="translate(-92.025 -62.41)" fill="#a796ff"/>
        <path id="Path_31198" data-name="Path 31198" d="M228.95,299.17l.012,2.857-51.52,31.247-.012-2.87Z" transform="translate(-91.96 -32.526)" fill="#a796ff"/>
        <path id="Path_31199" data-name="Path 31199" d="M201.662,316.15v2.87L177.452,333.7l-.012-2.87Z" transform="translate(-91.957 -27.654)" fill="#a796ff"/>
        <path id="Path_31200" data-name="Path 31200" d="M215.977,301.15l.012,2.87L177.432,327.4l-.012-2.87Z" transform="translate(-91.962 -31.958)" fill="#a796ff"/>
        <path id="Path_31201" data-name="Path 31201" d="M228.93,290.92l.012,2.87-51.52,31.247-.012-2.883Z" transform="translate(-91.964 -34.893)" fill="#a796ff"/>
        <g id="Group_11593" data-name="Group 11593" transform="translate(85.36 223.982)" opacity="0.1">
          <path id="Path_31202" data-name="Path 31202" d="M210.657,291.12v2.87l-33.264,20.166-.012-2.857Z" transform="translate(-177.331 -258.818)" fill="#fff"/>
          <path id="Path_31203" data-name="Path 31203" d="M228.89,278.39l.012,2.883-51.52,31.234-.012-2.87Z" transform="translate(-177.333 -262.471)" fill="#fff"/>
          <path id="Path_31204" data-name="Path 31204" d="M201.582,287.13V290l-24.21,14.684-.012-2.857Z" transform="translate(-177.335 -259.963)" fill="#fff"/>
          <path id="Path_31205" data-name="Path 31205" d="M228.87,270.15l.012,2.87-51.52,31.234-.012-2.87Z" transform="translate(-177.338 -264.835)" fill="#fff"/>
          <path id="Path_31206" data-name="Path 31206" d="M228.86,266.02l.012,2.87L177.34,300.137v-2.87Z" transform="translate(-177.34 -266.02)" fill="#fff"/>
        </g>
        <g id="Group_11594" data-name="Group 11594" transform="translate(85.287 195.181)" opacity="0.4">
          <path id="Path_31207" data-name="Path 31207" d="M189.746,274.42V277.3l-12.424,7.541-.012-2.883Z" transform="translate(-177.273 -234.808)" fill="#fff"/>
          <path id="Path_31208" data-name="Path 31208" d="M228.82,251.88v2.87L177.312,286l-.012-2.87Z" transform="translate(-177.275 -241.276)" fill="#fff"/>
          <path id="Path_31209" data-name="Path 31209" d="M228.81,247.76v2.87l-51.52,31.247v-2.87Z" transform="translate(-177.278 -242.458)" fill="#fff"/>
          <path id="Path_31210" data-name="Path 31210" d="M228.788,243.64l.012,2.87-51.52,31.234v-2.857Z" transform="translate(-177.28 -243.64)" fill="#fff"/>
        </g>
        <g id="Group_11595" data-name="Group 11595" transform="translate(85.189 161.115)" opacity="0.1">
          <path id="Path_31211" data-name="Path 31211" d="M210.514,242.27l.012,2.87L177.25,265.319v-2.87Z" transform="translate(-177.189 -209.968)" fill="#fff"/>
          <path id="Path_31212" data-name="Path 31212" d="M228.748,229.54l.012,2.883-51.52,31.247v-2.883Z" transform="translate(-177.191 -213.621)" fill="#fff"/>
          <path id="Path_31213" data-name="Path 31213" d="M228.74,225.42l.012,2.87-51.52,31.247-.012-2.87Z" transform="translate(-177.195 -214.803)" fill="#fff"/>
          <path id="Path_31214" data-name="Path 31214" d="M228.72,217.17l.012,2.883L177.212,251.3l-.012-2.883Z" transform="translate(-177.2 -217.17)" fill="#fff"/>
          <path id="Path_31215" data-name="Path 31215" d="M228.73,221.3l.012,2.87-51.52,31.247-.012-2.87Z" transform="translate(-177.198 -215.985)" fill="#fff"/>
        </g>
        <g id="Group_11596" data-name="Group 11596" transform="translate(85.115 132.61)" opacity="0.4">
          <path id="Path_31216" data-name="Path 31216" d="M221.012,202.75v2.87l-43.85,26.6-.012-2.87Z" transform="translate(-177.138 -192.802)" fill="#fff"/>
          <path id="Path_31217" data-name="Path 31217" d="M224.12,209.54l.012,2.883-46.95,28.467-.012-2.883Z" transform="translate(-177.133 -190.854)" fill="#fff"/>
          <path id="Path_31218" data-name="Path 31218" d="M208.06,212.98v2.87l-30.887,18.738-.012-2.87Z" transform="translate(-177.135 -189.867)" fill="#fff"/>
          <path id="Path_31219" data-name="Path 31219" d="M228.66,195.02v2.87l-51.52,31.247v-2.87Z" transform="translate(-177.14 -195.02)" fill="#fff"/>
        </g>
        <g id="Group_11597" data-name="Group 11597" transform="translate(85.446 256.027)" opacity="0.4">
          <path id="Path_31220" data-name="Path 31220" d="M228.95,299.17l.012,2.857-51.52,31.247-.012-2.87Z" transform="translate(-177.405 -288.553)" fill="#fff"/>
          <path id="Path_31221" data-name="Path 31221" d="M201.662,316.15v2.87L177.452,333.7l-.012-2.87Z" transform="translate(-177.403 -283.681)" fill="#fff"/>
          <path id="Path_31222" data-name="Path 31222" d="M215.977,301.15l.012,2.87L177.432,327.4l-.012-2.87Z" transform="translate(-177.408 -287.985)" fill="#fff"/>
          <path id="Path_31223" data-name="Path 31223" d="M228.93,290.92l.012,2.87-51.52,31.247-.012-2.883Z" transform="translate(-177.41 -290.92)" fill="#fff"/>
        </g>
        <path id="Path_31224" data-name="Path 31224" d="M161.5,234.34l.012,5.534-34.918,21.131-.012-5.534Z" transform="translate(-103.411 -51.128)" fill="#a796ff"/>
        <path id="Path_31225" data-name="Path 31225" d="M156.652,244.82l.012,2.767L126.61,265.771V263Z" transform="translate(-103.405 -48.121)" fill="#fff"/>
        <path id="Path_31226" data-name="Path 31226" d="M164.779,323.06l.012,5.534L151.9,336.405l-.012-5.521Z" transform="translate(-97.711 -25.671)" fill="#a796ff"/>
        <path id="Path_31227" data-name="Path 31227" d="M145.468,288.64l.012,5.534L126.734,305.5l-.025-5.521Z" transform="translate(-103.382 -35.547)" fill="#a796ff"/>
        <path id="Path_31228" data-name="Path 31228" d="M165.944,277.05l.012,5.534L145.042,295.26l-.012-5.521Z" transform="translate(-99.256 -38.873)" fill="#a796ff"/>
        <path id="Path_31229" data-name="Path 31229" d="M159.785,268.68l.012,2.754L126.68,291.471v-2.754Z" transform="translate(-103.389 -41.275)" fill="#fff"/>
        <path id="Path_31230" data-name="Path 31230" d="M156.874,320.86v2.754L126.832,341.8l-.012-2.754Z" transform="translate(-103.357 -26.303)" fill="#fff"/>
        <path id="Path_31231" data-name="Path 31231" d="M161.728,314.6v2.767L126.81,338.5v-2.767Z" transform="translate(-103.36 -28.099)" fill="#fff"/>
        <path id="Path_31232" data-name="Path 31232" d="M170.148,306.65l.012,2.767L126.8,335.67V332.9Z" transform="translate(-103.362 -30.38)" fill="#fff"/>
        <path id="Path_31233" data-name="Path 31233" d="M161.7,302.44l.012,5.534-34.918,21.131-.012-5.521Z" transform="translate(-103.366 -31.588)" fill="#a796ff"/>
        <path id="Path_31234" data-name="Path 31234" d="M164.8,291.7l.012,2.767L126.75,317.5v-2.754Z" transform="translate(-103.373 -34.669)" fill="#fff"/>
        <path id="Path_31235" data-name="Path 31235" d="M157.725,291.07l.012,2.754-31,18.763v-2.767Z" transform="translate(-103.375 -34.85)" fill="#fff"/>
        <path id="Path_31236" data-name="Path 31236" d="M163.042,271.11l.012,2.78L126.69,295.9v-2.78Z" transform="translate(-103.387 -40.577)" fill="#fff"/>
        <path id="Path_31237" data-name="Path 31237" d="M167.163,261.23V264L126.67,288.513v-2.767Z" transform="translate(-103.391 -43.412)" fill="#fff"/>
        <path id="Path_31238" data-name="Path 31238" d="M161.558,255.67l.012,5.521-34.918,21.131-.012-5.521Z" transform="translate(-103.398 -45.008)" fill="#a796ff"/>
        <path id="Path_31239" data-name="Path 31239" d="M146.628,253.52v2.767L126.62,268.371v-2.754Z" transform="translate(-103.402 -45.624)" fill="#fff"/>
        <path id="Path_31240" data-name="Path 31240" d="M165.119,337.73l.012,2.767-38.239,23.152-.012-2.767Z" transform="translate(-103.344 -21.462)" fill="#fff"/>
        <path id="Path_31241" data-name="Path 31241" d="M159.179,336.55v2.78L126.87,358.878v-2.767Z" transform="translate(-103.346 -21.801)" fill="#fff"/>
        <path id="Path_31242" data-name="Path 31242" d="M152.582,331.47l.012,5.521-25.729,15.572-.025-5.521Z" transform="translate(-103.353 -23.258)" fill="#a796ff"/>
      </g>
      <g id="freepik--Character--inject-12" transform="translate(264.842 157.388)">
        <path id="Path_31243" data-name="Path 31243" d="M292.477,397.484a11.215,11.215,0,0,0,8.662,3.346,25.178,25.178,0,0,0,9.177-2.432c2.928-1.287,6.6-4.8,9.8-4.736a74.4,74.4,0,0,0,9.275-.669,53.141,53.141,0,0,0-1.323-13.191l-14.8-.412c-3.994,5.753-11.762,10.527-17.643,12.329a5.326,5.326,0,0,0-3.676,4.08.3.3,0,0,1,0,.1,6.809,6.809,0,0,0,.527,1.583Z" transform="translate(-240.115 -105.589)" fill="#37474f"/>
        <path id="Path_31244" data-name="Path 31244" d="M320.114,390.629c-3.173-.064-6.849,3.475-9.8,4.736a25.179,25.179,0,0,1-9.177,2.432,11.215,11.215,0,0,1-8.662-3.346,6.82,6.82,0,0,1-.514-1.583.3.3,0,0,0,0-.1,5.4,5.4,0,0,0,0,2.072,6.818,6.818,0,0,0,.514,1.583,11.215,11.215,0,0,0,8.662,3.346,25.151,25.151,0,0,0,9.177-2.419c2.928-1.287,6.6-4.813,9.8-4.749a65.839,65.839,0,0,0,9.128-.553c.073-.695.11-1.39.147-2.085a74.383,74.383,0,0,1-9.275.669Z" transform="translate(-240.136 -102.556)" fill="#263238"/>
        <path id="Path_31245" data-name="Path 31245" d="M356.178,402.177a25,25,0,0,1-.478,5.058,11.824,11.824,0,0,1-4.4,7.374,13.69,13.69,0,0,1-7,1.956,14.913,14.913,0,0,1-6.4-.695,7.279,7.279,0,0,1-3.749-3.217.229.229,0,0,0,0,.09,6.885,6.885,0,0,0,4.313,4.71,14.725,14.725,0,0,0,6.4.695,13.536,13.536,0,0,0,7-1.956,11.809,11.809,0,0,0,4.411-7.374,26.89,26.89,0,0,0,.478-5.058,8.751,8.751,0,0,1,2.573-6.19,14.646,14.646,0,0,0,1.127-1.21,3.1,3.1,0,0,0,.686-2.214,3.394,3.394,0,0,0-.086-.927c-.588.721-1.96,2.432-2.3,2.767a8.817,8.817,0,0,0-2.573,6.19Z" transform="translate(-230.61 -101.62)" fill="#263238"/>
        <path id="Path_31246" data-name="Path 31246" d="M344.051,386.48a19.347,19.347,0,0,1-1.225,10.3,39.418,39.418,0,0,1-5.17,8.931,26.948,26.948,0,0,0-2.708,4.144,7.7,7.7,0,0,0-.76,4.774,7.279,7.279,0,0,0,3.749,3.217,14.912,14.912,0,0,0,6.4.695,13.689,13.689,0,0,0,7-1.956,11.824,11.824,0,0,0,4.4-7.374,24.987,24.987,0,0,0,.478-5.058,8.816,8.816,0,0,1,2.585-6.19c.343-.335,1.715-2.046,2.3-2.767a19.5,19.5,0,0,0-2.377-7.155Z" transform="translate(-230.625 -103.554)" fill="#37474f"/>
        <path id="Path_31247" data-name="Path 31247" d="M309.462,273.5s-3.749,51.632-3.418,65.994,1.7,71.129,1.7,71.129c7.658,4.7,18.721,1.2,18.721,1.2.894-45.313,4.962-55.055,2.205-71.643,1.948-12.316,4.643-41,4.643-41,3.81,34.5,6.579,52.288,6.579,52.288l9.116,69.07c7.486,4.105,16.932,0,16.932,0,0-39.367.809-56.02-3.088-82.016-.208-40.011-2.144-64.347-2.144-64.347Z" transform="translate(-236.946 -135.972)" fill="#455a64"/>
        <path id="Path_31248" data-name="Path 31248" d="M316.22,283.86c2.61,6.731,10.806,6.731,10.806,6.731l1.458,7.644-.539,27.193c1.568-13.23,3.075-29.226,3.075-29.226L330,288.017A20.893,20.893,0,0,1,316.22,283.86Z" transform="translate(-234.649 -132.999)" opacity="0.2"/>
        <path id="Path_31249" data-name="Path 31249" d="M297.386,237.059l-5.869,5.534-16.246-18.3a14.313,14.313,0,0,1-3.222-6.306l-.919-4.054a11.343,11.343,0,0,0-1.152-3.024c-.8-1.441-1.642-2.883-2.365-4.3a2.349,2.349,0,0,0-.931-1.12,1.316,1.316,0,0,0-1.507.386,2.485,2.485,0,0,0-.527,1.634,7.6,7.6,0,0,0,.306,1.725c.221.875.441,1.75.674,2.574a3.773,3.773,0,0,1,.159,1.107,1.19,1.19,0,0,1-.478.965c-.7.45-10.708-9.33-12.387-13.8-.453-1.21-4.043-.5-1.875,4.376a3.478,3.478,0,0,0-1.139,2.767c-.074,1.287-.135,2.664-.208,3.989a15.578,15.578,0,0,0,.147,3.861,12.185,12.185,0,0,0,2.732,5.045,23.081,23.081,0,0,0,8.172,6.126,13.751,13.751,0,0,1,5.771,5.148L282.058,256a11.1,11.1,0,0,0,7.6,5.065,10.757,10.757,0,0,0,8.683-2.491l8.209-6.975Z" transform="translate(-249.643 -157.185)" fill="#ffa8a7"/>
        <path id="Path_31250" data-name="Path 31250" d="M317.025,210.878c-7.976-.476-10.071,3.861-15.107,8.828s-14.519,14.5-14.519,14.5a19.921,19.921,0,0,0,10.537,15.636l17.557-13.6Z" transform="translate(-241.14 -153.95)" fill="#455a64"/>
        <path id="Path_31251" data-name="Path 31251" d="M361.978,295.638s-29.724,11.415-53.909-2.818c0,0,1.47-18.171,1.9-28.763s-3.039-31.041-3.553-36.523.172-14.967,6.322-16.408c11.407-2.574,32.848,0,32.848,0l12.8,14.864C363.816,255.048,362.9,285.5,361.978,295.638Z" transform="translate(-236.888 -154.197)" fill="#a796ff"/>
        <path id="Path_31252" data-name="Path 31252" d="M361.978,295.638s-29.724,11.415-53.909-2.818c0,0,1.47-18.171,1.9-28.763s-3.039-31.041-3.553-36.523.172-14.967,6.322-16.408c11.407-2.574,32.848,0,32.848,0l12.8,14.864C363.816,255.048,362.9,285.5,361.978,295.638Z" transform="translate(-236.888 -154.197)" fill="#fff" opacity="0.3"/>
        <g id="Group_11598" data-name="Group 11598" transform="translate(18.816 101.044)">
          <path id="Path_31253" data-name="Path 31253" d="M295.924,278.79h0V278.6h0v-.129h0L284.1,254.712v-.064h0v-.386h0v-.142h0a1.072,1.072,0,0,0-.172-.167h-.416l-13.8-8.378h-.931a.251.251,0,0,0-.208.09l-1.679,1.969h0c-.135.116-.147.347,0,.734l11.823,23.757a7.958,7.958,0,0,0,2.634,2.69l13.8,8.365c.711.425,1.139.45,1.225.141v.129h0l1.678-1.969a.217.217,0,0,0,0-.09v-.077ZM265,245.15h0Zm15.83,9.6.38.348h0Zm.858.9.159.193h0Zm12.583,25.121a1.252,1.252,0,0,0-.135-.463,2.264,2.264,0,0,1,.147.425h0Z" transform="translate(-265 -245.15)" fill="#455a64"/>
        </g>
        <path id="Path_31254" data-name="Path 31254" d="M292.751,276.658h0v-.193h0v-.129h0L280.928,252.58l-1.838,1.827,11.835,23.77a2.265,2.265,0,0,1,.147.425h0a.32.32,0,0,1-.061.257h0l1.679-1.969a.218.218,0,0,0,0-.09v-.077Z" transform="translate(-243.011 -141.975)" fill="#fff" opacity="0.15"/>
        <path id="Path_31255" data-name="Path 31255" d="M283.592,254.443h0v-.386h0v-.142h0a1.073,1.073,0,0,0-.172-.167H283l-13.8-8.378h-.931a.251.251,0,0,0-.208.09l-1.678,1.969c.074-.09.208-.1.4-.064h0a2.764,2.764,0,0,1,.76.347l13.8,8.365a8.764,8.764,0,0,1,.784.553h0c.257.219.515.45.76.695h0a8.6,8.6,0,0,1,.637.746h0a5.449,5.449,0,0,1,.441.695l1.679-1.969Z" transform="translate(-245.871 -144.043)" fill="#fff" opacity="0.2"/>
        <path id="Path_31256" data-name="Path 31256" d="M282.476,275.977c-4.668-3.076-8.148-9.073-7.449-14.813,0,0,8.723,4.8,12.632,2.239l-2.009-4.028a23.163,23.163,0,0,1,15.156,5.6,107.6,107.6,0,0,0,24.222-7.374,47.988,47.988,0,0,1,7-2.574,12.1,12.1,0,0,1,7.351.206,7.6,7.6,0,0,1,4.742,5.572,8.467,8.467,0,0,1-2.708,7.233,19.105,19.105,0,0,1-6.763,3.861C324.6,275.6,287.131,279.053,282.476,275.977Z" transform="translate(-243.946 -141.409)" fill="#ffa8a7"/>
        <path id="Path_31257" data-name="Path 31257" d="M305.17,199.831a13.113,13.113,0,0,1-3.357-16.73,6.724,6.724,0,0,1-3.186-3.14,3.833,3.833,0,0,1,.683-4.1,3.4,3.4,0,0,1,3.887-.826,5.285,5.285,0,0,1,1.96-6.049,4.5,4.5,0,0,1,5.8,1.133,3.292,3.292,0,0,1,2.144-3.256,6.1,6.1,0,0,1,4.019.257c1.225.463,2.45,1.145,3.81,1.57a28.274,28.274,0,0,0,6.837.927,13.263,13.263,0,0,1,6.6,1.84c1.936,1.287,3.676,4.388,2.6,7.04a3.761,3.761,0,0,1,2.744-1.531,3.6,3.6,0,0,1,2.818,1.287c-1.434.939-2.83,1.943-4.264,2.883a3.8,3.8,0,0,1,4.386,1.84,9.573,9.573,0,0,1,.772,4.865,67.681,67.681,0,0,1-3.186,18.635c-.98,3.114-2.45,6.435-5.207,7.837Z" transform="translate(-238.682 -166.635)" fill="#37474f"/>
        <path id="Path_31258" data-name="Path 31258" d="M316.413,206.536l.625,7.426a3,3,0,0,1-.392,1.647,4.372,4.372,0,0,0,.613,4.852,5.094,5.094,0,0,0,3.161,1.12,14.851,14.851,0,0,0,11.688-4.736,3.535,3.535,0,0,0,.931-2.574l-.466-18.841Z" transform="translate(-234.659 -158.373)" fill="#ffa8a7"/>
        <path id="Path_31259" data-name="Path 31259" d="M331.1,196.21l-14.7,10.1.551,6.589c3.431-.849,6.886-1.879,9.593-4.2A14.207,14.207,0,0,0,331.1,196.21Z" transform="translate(-234.609 -158.149)" opacity="0.3"/>
        <path id="Path_31260" data-name="Path 31260" d="M303.35,180.821a69.635,69.635,0,0,0,1.581,25.739,20.761,20.761,0,0,0,1.948,5.289,8.319,8.319,0,0,0,3.982,3.719,12.024,12.024,0,0,0,6.579,0c4.006-.734,8.111-1.519,11.59-3.732s6.224-6.2,5.893-10.463a6.647,6.647,0,0,0,6.641.386,7.39,7.39,0,0,0,3.676-5.907c.159-2.394-1.152-5.045-3.382-5.508a4.74,4.74,0,0,0-3.872,1.184,15.044,15.044,0,0,0-2.708,3.307,4.907,4.907,0,0,1-1.348,1.519,1.554,1.554,0,0,1-1.85,0,2.669,2.669,0,0,1-.527-2.123l.233-5.392a2.166,2.166,0,0,0-1.139-2.008,5.232,5.232,0,0,1-2.3-2.78,11.616,11.616,0,0,1-.649-3.243,1.3,1.3,0,0,0-.576-1.051,1.174,1.174,0,0,0-1.152-.082,36.129,36.129,0,0,1-22.617,1.145Z" transform="translate(-237.67 -162.926)" fill="#ffa8a7"/>
        <path id="Path_31261" data-name="Path 31261" d="M313.307,190.7l-4.607,8.159,5.5,1.094Z" transform="translate(-236.343 -159.73)" fill="#f28f8f"/>
        <path id="Path_31262" data-name="Path 31262" d="M318.288,200.07l-4.178,2.136a2.347,2.347,0,0,0,4.178-2.136Z" transform="translate(-235.124 -157.041)" fill="#f28f8f"/>
        <path id="Path_31263" data-name="Path 31263" d="M318.288,200.07l-4.178,2.136a2.347,2.347,0,0,0,4.178-2.136Z" transform="translate(-235.124 -157.041)" opacity="0.3"/>
        <path id="Path_31264" data-name="Path 31264" d="M315.51,203.128a2.341,2.341,0,0,0,1.458-.142,2.392,2.392,0,0,0,1.115-2.316,2.532,2.532,0,0,0-1.654.6,2.84,2.84,0,0,0-.919,1.853Z" transform="translate(-234.809 -156.869)" fill="#f28f8f"/>
        <path id="Path_31265" data-name="Path 31265" d="M319.58,191.333a1.718,1.718,0,0,1-.343,1.221,1.561,1.561,0,0,1-1.066.607,1.667,1.667,0,0,1-.325-3.314,1.6,1.6,0,0,1,1.734,1.486Z" transform="translate(-234.603 -159.977)" fill="#263238"/>
        <path id="Path_31266" data-name="Path 31266" d="M308.729,191.952a1.683,1.683,0,0,1-.821,1.633,1.52,1.52,0,0,1-1.75-.174,1.711,1.711,0,0,1-.514-1.766A1.6,1.6,0,0,1,307,190.472a1.517,1.517,0,0,1,1.158.361A1.673,1.673,0,0,1,308.729,191.952Z" transform="translate(-237.046 -159.798)" fill="#263238"/>
        <path id="Path_31267" data-name="Path 31267" d="M307.026,186.71l-3.247,2.9a2.458,2.458,0,0,1,.429-2.664A2.576,2.576,0,0,1,307.026,186.71Z" transform="translate(-237.499 -160.965)" fill="#263238"/>
        <path id="Path_31268" data-name="Path 31268" d="M317.37,185.523l3.676,2.162a2.44,2.44,0,0,0-.931-2.574A2.546,2.546,0,0,0,317.37,185.523Z" transform="translate(-234.39 -161.399)" fill="#263238"/>
        <path id="Path_31269" data-name="Path 31269" d="M327.158,241.84l-7.118,19.3,7.854,12.869c11.443-5.457,9.091-3.861,17.006-23.988Z" transform="translate(-233.789 -145.056)" fill="#ffa8a7"/>
        <path id="Path_31270" data-name="Path 31270" d="M341.374,210.87c-8.576,10.656-11.8,28.969-16.234,40.744,4.962,9.858,18.782,8.905,18.782,8.905C356.567,232.915,361.921,211.99,341.374,210.87Z" transform="translate(-232.64 -153.943)" fill="#455a64"/>
      </g>
    </g>
  </g>
</svg>
