<svg xmlns="http://www.w3.org/2000/svg" width="43.908" height="43.909" viewBox="0 0 43.908 43.909">
  <g id="Group_7151" data-name="Group 7151" transform="translate(-20317 6268)">
    <path id="Rectangle_2288" data-name="Rectangle 2288" d="M7-1H34.909a8.009,8.009,0,0,1,8,8V34.909a8.009,8.009,0,0,1-8,8H7a8.009,8.009,0,0,1-8-8V7A8.009,8.009,0,0,1,7-1ZM34.909,40.909a6.007,6.007,0,0,0,6-6V7a6.007,6.007,0,0,0-6-6H7A6.007,6.007,0,0,0,1,7V34.909a6.007,6.007,0,0,0,6,6Z" transform="translate(20318 -6267)" fill="#59c4bc"/>
    <path id="Path_24041" data-name="Path 24041" d="M17.215,11.887c0-.283,0-.52,0-.759a2.245,2.245,0,0,1,2.228-2.316q3.138-.062,6.276,0a2.247,2.247,0,0,1,2.234,2.312c0,.239,0,.475,0,.763h.483c1.154,0,2.308-.026,3.461.017a2.271,2.271,0,0,1,2.15,2.821,2.16,2.16,0,0,1-1.272,1.561.422.422,0,0,0-.276.425q-.383,4.755-.783,9.509c-.171,2.085-.332,4.169-.509,6.252a4.787,4.787,0,0,1-.2,1.119,2.272,2.272,0,0,1-2.264,1.533q-6.162.008-12.325,0a2.278,2.278,0,0,1-2.4-2.155c-.175-1.74-.3-3.485-.444-5.226q-.341-4.053-.681-8.105c-.08-.973-.16-1.945-.226-2.918a.42.42,0,0,0-.272-.427,2.278,2.278,0,0,1-1.286-2.577,2.255,2.255,0,0,1,2.157-1.807c1.152-.034,2.307-.013,3.461-.015C16.877,11.887,17.026,11.887,17.215,11.887ZM14.224,16.52a.812.812,0,0,0-.015.151q.322,3.843.645,7.688.347,4.2.682,8.409a.8.8,0,0,0,.861.819q6.181.008,12.36,0a.814.814,0,0,0,.876-.845c.144-1.717.293-3.433.434-5.15q.383-4.64.761-9.28c.049-.589.09-1.18.134-1.792Zm8.38-3.082H13.629c-.681,0-1.054.274-1.044.768s.378.753,1.065.753H31.52a2.829,2.829,0,0,0,.418-.013.778.778,0,0,0,.647-.778.769.769,0,0,0-.7-.723c-.127-.011-.254-.006-.38-.006Q27.051,13.437,22.6,13.438Zm-3.837-1.579h7.658v-.406c0-.891-.231-1.122-1.122-1.122-1.723,0-3.446.033-5.167-.011C18.734,10.281,18.671,10.777,18.766,11.859Z" transform="translate(20316.186 -6268)" fill="#59c4bc"/>
    <path id="Path_24042" data-name="Path 24042" d="M21.8,25q0-3,0-6.01c0-.554.263-.889.7-.925a.744.744,0,0,1,.832.613,2.291,2.291,0,0,1,.03.453q0,5.915,0,11.829a2.163,2.163,0,0,1-.032.453.762.762,0,0,1-1.492.009,2.154,2.154,0,0,1-.034-.453Q21.8,27.988,21.8,25Z" transform="translate(20316.186 -6268)" fill="#59c4bc"/>
    <path id="Path_24043" data-name="Path 24043" d="M17.215,19.757c0-.291,0-.582,0-.873a.737.737,0,0,1,.708-.817.752.752,0,0,1,.817.761c.058.77.1,1.542.147,2.312q.3,4.833.595,9.668c.009.14.019.278.017.418a.749.749,0,0,1-.733.8.735.735,0,0,1-.785-.746q-.154-2.254-.293-4.51-.221-3.507-.434-7.013Z" transform="translate(20316.186 -6268)" fill="#59c4bc"/>
    <path id="Path_24044" data-name="Path 24044" d="M27.906,19.778c-.112,1.9-.22,3.793-.339,5.687s-.248,3.815-.375,5.722c-.037.567-.33.862-.813.837-.466-.024-.738-.367-.707-.936.1-1.719.205-3.438.311-5.157.144-2.325.282-4.65.446-6.975a1.075,1.075,0,0,1,.319-.716.893.893,0,0,1,.761-.086.926.926,0,0,1,.421.6,4.9,4.9,0,0,1,.019,1.022A.323.323,0,0,1,27.906,19.778Z" transform="translate(20316.186 -6268)" fill="#59c4bc"/>
  </g>
</svg>
