<svg width="60" height="60" viewBox="0 0 60 60" fill="none" xmlns="http://www.w3.org/2000/svg">
<rect width="60" height="60" rx="8" fill="#C431F0"/>
<path d="M29.4837 44.9945C26.4091 44.9945 23.3344 44.9965 20.2598 44.9945C16.5813 44.9914 14.0315 42.4345 14.0274 38.7489C14.0264 37.3712 14.0223 35.9924 14.0284 34.6146C14.0325 33.6097 14.613 32.939 15.4639 32.936C16.321 32.9319 16.8984 33.5823 16.9055 34.5984C16.9167 36.04 16.9005 37.4816 16.9106 38.9242C16.9238 40.8521 18.1729 42.1002 20.0987 42.1022C26.3544 42.1072 32.61 42.1072 38.8657 42.1022C40.7946 42.1012 42.0396 40.8561 42.0548 38.9252C42.066 37.4411 42.0356 35.9559 42.065 34.4728C42.0883 33.2905 43.1216 32.6128 44.1124 33.0879C44.6199 33.3311 44.9208 33.7718 44.9178 34.2975C44.9076 36.2021 45.1102 38.1178 44.8154 40.0112C44.3596 42.942 41.9525 44.9742 38.9609 44.9924C35.8032 45.0087 32.6435 44.9935 29.4837 44.9945Z" fill="white"/>
<path d="M28.0453 31.7183C28.0453 28.6376 28.0453 25.7139 28.0453 22.7902C28.0453 20.4166 28.0463 18.043 28.0442 15.6693C28.0432 14.9774 28.2783 14.4283 28.9438 14.1275C29.4929 13.8803 29.9832 14.0191 30.4209 14.3807C30.8727 14.7556 30.9234 15.2824 30.9234 15.8264C30.9213 20.8491 30.9224 25.8709 30.9224 30.8937C30.9224 31.1206 30.9224 31.3485 30.9224 31.5967C31.2334 31.5582 31.3428 31.3303 31.4968 31.1773C33.1035 29.5777 34.7051 27.975 36.2987 26.3622C36.7536 25.9023 37.2905 25.7878 37.872 25.9742C38.3957 26.1424 38.6926 26.5598 38.7807 27.1038C38.88 27.7137 38.5669 28.1493 38.1617 28.5545C35.9279 30.7853 33.7012 33.0221 31.4714 35.2569C31.1868 35.5416 30.9061 35.8303 30.6164 36.1099C29.8627 36.8393 29.0857 36.8393 28.336 36.0907C26.087 33.8447 23.8451 31.5927 21.6001 29.3437C21.2861 29.0286 20.9629 28.7217 20.659 28.3975C20.0269 27.7238 20.0036 26.8819 20.5891 26.2984C21.1605 25.7291 22.0449 25.7524 22.6841 26.3866C24.3081 27.9983 25.9188 29.6223 27.5357 31.2412C27.6654 31.3729 27.8031 31.4924 28.0453 31.7183Z" fill="white"/>
</svg>
