<svg width="44" height="44" viewBox="0 0 44 44" fill="none" xmlns="http://www.w3.org/2000/svg">
<rect x="1.09082" y="1" width="41.9091" height="41.9091" rx="7" stroke="#C431F0" stroke-width="2"/>
<path d="M8.87321 24.1865C8.87321 21.58 8.87175 18.9721 8.87321 16.3656C8.87467 14.4883 10.1501 13.1894 12.0201 13.1836C15.0205 13.1763 18.0223 13.1836 21.0227 13.1792C21.3727 13.1792 21.6788 13.2421 21.8896 13.5497C22.2352 14.0563 21.9248 14.7446 21.3127 14.8163C21.175 14.8324 21.033 14.8251 20.8939 14.8251C17.9564 14.8251 15.019 14.8236 12.0816 14.8266C11.3245 14.8266 10.8281 15.1311 10.6099 15.7432C10.5484 15.9175 10.5308 16.1152 10.5308 16.3026C10.5264 21.5551 10.5264 26.8077 10.5294 32.0602C10.5294 32.9857 11.0756 33.5216 12.0039 33.5216C17.2301 33.5231 22.4563 33.5231 27.6825 33.5216C28.6212 33.5216 29.1586 32.9754 29.1586 32.0192C29.1615 29.0174 29.1571 26.017 29.1644 23.0151C29.1644 22.8174 29.1922 22.6051 29.2713 22.4279C29.4148 22.1057 29.7018 21.9652 30.0489 21.9915C30.3974 22.0179 30.6507 22.2097 30.7532 22.5436C30.8089 22.7207 30.8147 22.9199 30.8147 23.1088C30.8176 26.0462 30.8191 28.9837 30.8162 31.9226C30.8147 33.9229 29.5481 35.1881 27.5507 35.1881C22.4007 35.1881 17.2506 35.1881 12.1021 35.1881C10.1486 35.1881 8.87467 33.917 8.87321 31.9709C8.87321 29.3747 8.87321 26.7813 8.87321 24.1865Z" fill="#C431F0"/>
<path d="M32.2438 8.7818C33.4562 8.84623 34.4154 9.41732 34.9264 10.5829C35.4418 11.7573 35.2793 12.898 34.3934 13.8381C33.2175 15.0872 31.9846 16.2806 30.7736 17.496C28.2271 20.0527 25.6836 22.6124 23.1239 25.1559C22.913 25.3653 22.6055 25.5279 22.3156 25.5938C21.1412 25.8632 19.958 26.0946 18.7763 26.3259C18.0295 26.4724 17.5712 25.9965 17.7191 25.2482C17.9563 24.0401 18.1759 22.8291 18.4395 21.6269C18.4952 21.3721 18.6577 21.1085 18.8437 20.9211C21.929 17.8079 25.0275 14.705 28.1217 11.6006C28.7586 10.9622 29.3956 10.3223 30.0341 9.68382C30.6286 9.0893 31.3534 8.8023 32.2438 8.7818ZM19.5451 24.4794C20.2406 24.3432 20.8908 24.2437 21.5249 24.0796C21.8016 24.0079 22.0916 23.8541 22.2936 23.655C24.2002 21.7689 26.0862 19.8609 27.984 17.9661C28.99 16.9615 30.0092 15.9673 31.0181 14.973C30.3372 14.2979 29.6988 13.6653 29.0544 13.0269C29.0383 13.0371 29.0047 13.0532 28.9783 13.0796C26.0438 16.0229 23.1078 18.9677 20.1791 21.9168C20.081 22.0164 20.0181 22.1716 19.9873 22.3122C19.8365 23.0034 19.7018 23.6989 19.5451 24.4794ZM32.2086 13.721C32.5337 13.3944 32.869 13.0825 33.1765 12.7443C33.6905 12.1805 33.6612 11.3297 33.1282 10.8187C32.604 10.3149 31.7825 10.312 31.2304 10.8216C30.8951 11.132 30.5715 11.4557 30.242 11.7734C30.9083 12.4338 31.5497 13.0679 32.2086 13.721Z" fill="#C431F0"/>
</svg>
