<svg width="123" height="60" viewBox="0 0 123 60" fill="none" xmlns="http://www.w3.org/2000/svg">
<rect x="0.5" y="0.5" width="122" height="59" rx="7.5" stroke="#C431F0"/>
<path d="M52.7614 37V22.4545H61.483V24.017H54.5227V28.9318H60.8295V30.4943H54.5227V37H52.7614ZM64.2724 37V26.0909H65.9485V37H64.2724ZM65.1246 24.2727C64.7979 24.2727 64.5162 24.1615 64.2795 23.9389C64.0475 23.7164 63.9315 23.4489 63.9315 23.1364C63.9315 22.8239 64.0475 22.5563 64.2795 22.3338C64.5162 22.1113 64.7979 22 65.1246 22C65.4513 22 65.7307 22.1113 65.9627 22.3338C66.1995 22.5563 66.3178 22.8239 66.3178 23.1364C66.3178 23.4489 66.1995 23.7164 65.9627 23.9389C65.7307 24.1615 65.4513 24.2727 65.1246 24.2727ZM70.6946 22.4545V37H69.0185V22.4545H70.6946ZM78.5089 26.0909V27.5114H72.8555V26.0909H78.5089ZM74.5032 23.4773H76.1793V33.875C76.1793 34.3485 76.248 34.7036 76.3853 34.9403C76.5273 35.1723 76.7073 35.3286 76.9251 35.4091C77.1476 35.4848 77.382 35.5227 77.6282 35.5227C77.8129 35.5227 77.9644 35.5133 78.0827 35.4943C78.2011 35.4706 78.2958 35.4517 78.3668 35.4375L78.7077 36.9432C78.5941 36.9858 78.4355 37.0284 78.2319 37.071C78.0283 37.1184 77.7702 37.142 77.4577 37.142C76.9843 37.142 76.5202 37.0402 76.0657 36.8366C75.6159 36.633 75.2418 36.3229 74.9435 35.9062C74.65 35.4896 74.5032 34.964 74.5032 34.3295V23.4773ZM85.4869 37.2273C84.4357 37.2273 83.529 36.9953 82.7667 36.5312C82.0091 36.0625 81.4244 35.4091 81.0124 34.571C80.6052 33.7282 80.4016 32.7481 80.4016 31.6307C80.4016 30.5133 80.6052 29.5284 81.0124 28.6761C81.4244 27.8191 81.9973 27.1515 82.7312 26.6733C83.4698 26.1903 84.3316 25.9489 85.3164 25.9489C85.8846 25.9489 86.4457 26.0436 86.9996 26.233C87.5536 26.4223 88.0579 26.7301 88.5124 27.1562C88.967 27.5777 89.3292 28.1364 89.5991 28.8324C89.869 29.5284 90.0039 30.3854 90.0039 31.4034V32.1136H81.5948V30.6648H88.2994C88.2994 30.0492 88.1763 29.5 87.93 29.017C87.6886 28.5341 87.3429 28.1529 86.8931 27.8736C86.448 27.5942 85.9225 27.4545 85.3164 27.4545C84.6488 27.4545 84.0711 27.6203 83.5835 27.9517C83.1005 28.2784 82.7288 28.7045 82.4684 29.2301C82.208 29.7557 82.0778 30.3191 82.0778 30.9205V31.8864C82.0778 32.7102 82.2198 33.4086 82.5039 33.9815C82.7927 34.5497 83.1928 34.983 83.7042 35.2812C84.2156 35.5748 84.8098 35.7216 85.4869 35.7216C85.9272 35.7216 86.3249 35.66 86.68 35.5369C87.0399 35.4091 87.35 35.2197 87.6104 34.9688C87.8709 34.7131 88.0721 34.3958 88.2141 34.017L89.8335 34.4716C89.663 35.0208 89.3765 35.5038 88.9741 35.9205C88.5716 36.3324 88.0745 36.6544 87.4826 36.8864C86.8907 37.1136 86.2255 37.2273 85.4869 37.2273ZM92.5536 37V26.0909H94.1729V27.7386H94.2866C94.4854 27.1989 94.8453 26.7609 95.3661 26.4247C95.887 26.0885 96.4741 25.9205 97.1275 25.9205C97.2506 25.9205 97.4045 25.9228 97.5891 25.9276C97.7738 25.9323 97.9135 25.9394 98.0082 25.9489V27.6534C97.9513 27.6392 97.8211 27.6179 97.6175 27.5895C97.4187 27.5563 97.208 27.5398 96.9854 27.5398C96.4551 27.5398 95.9817 27.651 95.565 27.8736C95.1531 28.0914 94.8263 28.3944 94.5849 28.7827C94.3481 29.1662 94.2298 29.6042 94.2298 30.0966V37H92.5536Z" fill="#C431F0"/>
<path d="M33.5316 21.0006C36.3583 21.0006 39.1855 21 42.0122 21.0011C42.6476 21.0017 43.0765 21.4114 42.9886 21.9858C42.9558 22.2022 42.8139 22.4296 42.6598 22.596C40.9068 24.4962 39.1416 26.3854 37.3797 28.2773C36.8785 28.8161 36.3789 29.3565 35.8737 29.8919C35.6011 30.1808 35.4721 30.512 35.4737 30.9096C35.481 32.5841 35.4709 34.2585 35.481 35.9325C35.4832 36.2916 35.3836 36.5937 35.1477 36.8617C34.2965 37.8277 33.4487 38.7965 32.5981 39.7631C32.4106 39.9761 32.1797 40.0629 31.9027 39.9509C31.6123 39.8339 31.5299 39.5994 31.5305 39.3094C31.5333 36.5553 31.5244 33.8016 31.5388 31.0474C31.5416 30.5361 31.3758 30.1396 31.0276 29.7678C28.7878 27.3789 26.5586 24.9789 24.3277 22.5811C23.8893 22.1099 23.8843 21.5295 24.3516 21.1983C24.5308 21.0714 24.7967 21.0099 25.0231 21.0088C27.8593 20.9967 30.6954 21.0006 33.5316 21.0006Z" fill="#C431F0"/>
</svg>
