<svg xmlns="http://www.w3.org/2000/svg" width="288.028" height="384.595" viewBox="0 0 288.028 384.595">
  <g id="Group_1936" data-name="Group 1936" transform="translate(-2005 5696.595)">
    <g id="Group_1935" data-name="Group 1935">
      <path id="Path_30062" data-name="Path 30062" d="M456.2,408.613c0-9.779-.186-19.432.031-29.077,1.085-48.313,22.611-84.444,66.85-104.218,42.035-18.789,82.307-12.359,117.747,17.079,26.938,22.375,39.322,52.211,39.478,87.149.043,9.647.007,19.3.007,29.726,6.863,0,13.453-.007,20.042,0,9.444.012,11.907,2.426,11.908,11.741q.009,96.487,0,192.974c-.006,22.25-13.141,35.3-35.523,35.3q-108.486.02-216.972,0c-22.374,0-35.507-13.054-35.513-35.309q-.025-96.486,0-192.974c0-9.308,2.466-11.709,11.918-11.735q9.246-.024,18.492-.1A7.315,7.315,0,0,0,456.2,408.613Zm175.263.542c.244-.435.685-.853.678-1.263-.248-13.624.758-27.426-1.083-40.836-4.276-31.152-31.678-53.86-63.015-53.744-31.174.115-58.258,22.757-62.606,53.668-1.748,12.427-.9,25.221-1.19,37.848a43.35,43.35,0,0,0,.327,4.327ZM568.244,585.222h13.491c.333,0,.666.006,1-.006,6.884-.244,10.047-3.811,9.3-10.6-1.445-13.07-2.874-26.141-4.459-39.194a7.187,7.187,0,0,1,2.454-6.953,31.652,31.652,0,0,0,.912-45.6,31.989,31.989,0,0,0-45.359-.013,31.654,31.654,0,0,0,.889,45.6,7.218,7.218,0,0,1,2.471,6.951c-1.6,13.051-3.017,26.124-4.464,39.193-.753,6.8,2.4,10.436,9.28,10.6C558.581,585.309,563.414,585.217,568.244,585.222Z" transform="translate(1580.763 -5961.297)" fill="#637aae"/>
    </g>
    <g id="Group_1934" data-name="Group 1934">
      <rect id="Rectangle_574" data-name="Rectangle 574" width="249" height="12" rx="6" transform="translate(2025 -5339)" fill="#59c4bc"/>
      <rect id="Rectangle_575" data-name="Rectangle 575" width="71" height="12" rx="6" transform="translate(2119 -5540)" fill="#59c4bc"/>
    </g>
  </g>
</svg>
