<svg xmlns="http://www.w3.org/2000/svg" width="44" height="44" viewBox="0 0 44 44">
  <g id="Group_6609" data-name="Group 6609" transform="translate(1777 638)">
    <g id="Group_6608" data-name="Group 6608" transform="translate(-2022.285 -848.745)">
      <path id="Path_22928" data-name="Path 22928" d="M272.111,239.738c0-.695-.014-1.39.009-2.083a.956.956,0,0,1,.2-.546,7.288,7.288,0,1,0-12.343-7.266,7.2,7.2,0,0,0,1.34,7.264.949.949,0,0,1,.2.545c.016,1.415,0,2.83.015,4.244a.511.511,0,0,1-.262.5c-.446.279-.877.583-1.32.867a.777.777,0,0,1-1.082-.1q-1.438-1.426-2.859-2.868a.778.778,0,0,1-.094-1.084c.3-.465.618-.917.9-1.388a.532.532,0,0,0,.04-.408c-.2-.54-.424-1.074-.665-1.6a.574.574,0,0,0-.332-.286c-.51-.128-1.028-.22-1.544-.322a.794.794,0,0,1-.749-.9q0-1.987,0-3.975a.8.8,0,0,1,.759-.895c.491-.1.979-.214,1.473-.291a.476.476,0,0,0,.426-.362c.189-.517.431-1.015.622-1.532a.581.581,0,0,0-.042-.442c-.27-.452-.577-.882-.864-1.324a.8.8,0,0,1,.107-1.172q1.384-1.4,2.778-2.785a.786.786,0,0,1,1.169-.119c.452.294.89.61,1.35.891a.527.527,0,0,0,.406.028c.552-.207,1.1-.435,1.635-.673a.434.434,0,0,0,.225-.254c.122-.525.223-1.055.323-1.585a.835.835,0,0,1,.951-.8q1.929,0,3.858,0c.6,0,.851.229.962.827.1.517.2,1.034.316,1.547a.433.433,0,0,0,.221.256c.539.238,1.083.468,1.636.672a.574.574,0,0,0,.439-.04c.45-.273.877-.582,1.317-.87a.787.787,0,0,1,1.169.111q1.394,1.387,2.778,2.784a.808.808,0,0,1,.112,1.173c-.293.453-.605.895-.884,1.357a.534.534,0,0,0-.028.41c.2.527.414,1.05.654,1.56a.634.634,0,0,0,.362.312c.5.128,1,.211,1.507.314a.806.806,0,0,1,.762.932q0,1.968,0,3.936a.8.8,0,0,1-.745.905c-.528.107-1.059.2-1.583.328a.48.48,0,0,0-.286.239c-.247.549-.481,1.1-.695,1.668a.493.493,0,0,0,.057.376c.283.459.592.9.885,1.355a.807.807,0,0,1-.123,1.172q-1.383,1.4-2.777,2.787a.8.8,0,0,1-1.144.115c-.441-.288-.886-.571-1.307-.886a.627.627,0,0,1-.227-.424C272.1,241.2,272.111,240.471,272.111,239.738Z" transform="translate(0 0)" fill="none" stroke="#c431f0" stroke-width="1.5"/>
      <path id="Path_22929" data-name="Path 22929" d="M364.672,338.068h1.763l.265-1.821c.043-.293.081-.587.128-.879.089-.554.471-.728.95-.435a4.23,4.23,0,0,1-.162,7.264.5.5,0,0,0-.3.51c.011,2.13.007,6.261.006,8.391,0,.653-.217.869-.866.87-.626,0-1.252,0-1.878,0-.56,0-.8-.24-.8-.8,0-2.152-.005-6.3.005-8.457a.5.5,0,0,0-.3-.511,4.23,4.23,0,0,1-.22-7.23c.54-.348.917-.18,1.014.465.115.759.217,1.52.326,2.28C364.621,337.829,364.648,337.944,364.672,338.068Z" transform="translate(-98.733 -105.537)" fill="none" stroke="#c431f0" stroke-width="1.5"/>
    </g>
    <g id="Rectangle_2198" data-name="Rectangle 2198" transform="translate(-1777 -638)" fill="none" stroke="#c431f0" stroke-width="1">
      <rect width="44" height="44" rx="8" stroke="none"/>
      <rect x="0.5" y="0.5" width="43" height="43" rx="7.5" fill="none"/>
    </g>
  </g>
</svg>
