<svg xmlns="http://www.w3.org/2000/svg" width="22.905" height="24" viewBox="0 0 22.905 24">
  <path id="package" d="M247.411,502.925a4.96,4.96,0,0,1-.852.617c-3.328,1.474-6.66,2.941-10.009,4.368a1.71,1.71,0,0,1-1.211.007c-3.369-1.437-6.713-2.93-10.076-4.38a1.058,1.058,0,0,1-.757-1.127q.035-6.446,0-12.892a.869.869,0,0,1,.6-.926c3.429-1.482,6.845-2.994,10.279-4.464a1.507,1.507,0,0,1,1.07-.012c3.456,1.48,6.9,2.994,10.336,4.512a3.346,3.346,0,0,1,.616.461Zm-12.085,3.631v-.816c0-3.529-.016-7.058.016-10.587a.971.971,0,0,0-.714-1.053c-2.643-1.128-5.27-2.292-7.9-3.443-.279-.122-.563-.233-.884-.366a1.876,1.876,0,0,0-.075.332c0,3.769-.014,7.538.019,11.307a1,1,0,0,0,.542.686c2.336,1.053,4.689,2.067,7.037,3.091C233.972,505.974,234.581,506.234,235.326,506.556Zm1.275-.046c.328-.13.592-.226.85-.338,2.678-1.17,5.35-2.356,8.039-3.5a.93.93,0,0,0,.651-1.021c-.023-3.555-.011-7.109-.014-10.664,0-.205-.026-.411-.048-.729-1.242.54-2.391,1.064-3.56,1.537a.825.825,0,0,0-.6.918c.031,1.08.041,2.163-.02,3.241-.014.238-.356.457-.547.684a3.187,3.187,0,0,1-.641-.64c-.1-.184-.028-.469-.028-.709,0-.852,0-1.7,0-2.671-1.244.54-2.35,1.048-3.479,1.5a.919.919,0,0,0-.659,1.016c.026,3.554.013,7.109.015,10.664C236.564,506,236.585,506.213,236.6,506.509Zm-4.444-19.62c.239.139.314.193.4.23q4.2,1.859,8.4,3.712c.127.056.3.144.4.1,1.214-.511,2.42-1.045,3.657-1.585-.107-.128-.13-.181-.168-.2q-4.3-1.9-8.6-3.781a.773.773,0,0,0-.548-.021C234.554,485.826,233.426,486.332,232.156,486.889Zm7.576,4.769c-2.417-1.067-4.7-1.942-6.858-3.07a4.15,4.15,0,0,0-4.644.005,11,11,0,0,1-1.531.694c3.119,1.362,6.034,2.637,8.953,3.9a.679.679,0,0,0,.473.041C237.267,492.749,238.4,492.244,239.732,491.659Z" transform="translate(-224.506 -484.023)" fill="#c431f0"/>
</svg>
