<svg width="44" height="44" viewBox="0 0 44 44" fill="none" xmlns="http://www.w3.org/2000/svg">
<rect x="1" y="1" width="41.9091" height="41.9091" rx="7" stroke="#C431F0" stroke-width="2"/>
<path d="M22.0421 31C28.099 30.6289 32.4764 27.9187 35.1582 22.5785C35.3565 22.184 35.3473 21.812 35.1532 21.4185C33.0285 17.1092 29.6533 14.3471 24.9353 13.3793C18.4728 12.0536 11.9919 15.386 9.15767 21.385C8.96248 21.7977 8.93808 22.1759 9.14344 22.5917C11.2681 26.9041 14.6565 29.6154 19.3623 30.633C20.2833 30.8312 21.2339 30.8922 22.0421 31ZM23.1075 28.7177C17.754 28.7096 13.7303 26.3409 11.5579 22.4982C11.3606 22.1485 11.3444 21.8791 11.5487 21.5304C13.5463 18.1278 16.4853 16.0519 20.3687 15.4115C25.3053 14.5972 30.4819 17.2342 32.8109 21.6442C32.9553 21.9177 32.9471 22.1261 32.7946 22.3874C30.4117 26.4558 26.8536 28.5398 23.1075 28.7177Z" fill="#C431F0"/>
<path d="M26.6696 21.9909C26.6625 19.5063 24.6059 17.4517 22.1346 17.4629C19.6561 17.4741 17.6209 19.5307 17.627 22.0173C17.6331 24.5009 19.6927 26.5574 22.161 26.5442C24.6425 26.532 26.6767 24.4775 26.6696 21.9909ZM24.4585 21.9868C24.4646 23.2626 23.4155 24.3331 22.1539 24.3362C20.9136 24.3392 19.8543 23.2911 19.8391 22.0468C19.8238 20.7679 20.8557 19.6923 22.1193 19.672C23.3748 19.6517 24.4514 20.716 24.4585 21.9868Z" fill="#C431F0"/>
</svg>
