<svg xmlns="http://www.w3.org/2000/svg" width="24.123" height="24.2" viewBox="0 0 24.123 24.2">
  <g id="tender_details" data-name="tender details" transform="translate(-20.22 -483.923)">
    <path id="Path_298" data-name="Path 298" d="M32.291,484.023A12,12,0,1,1,20.32,495.986,12.012,12.012,0,0,1,32.291,484.023Zm10.683,12.015a10.706,10.706,0,1,0-10.726,10.705A10.77,10.77,0,0,0,42.975,496.038Z" transform="translate(0 0)" fill="#c431f0" stroke="#c431f0" stroke-miterlimit="10" stroke-width="0.2"/>
    <path id="Path_299" data-name="Path 299" d="M60.919,529.784V524.76c-.2,0-.368.011-.539,0-.431-.034-.686-.281-.683-.646s.255-.609.694-.626c.35-.014.7-.01,1.05,0,.551.013.763.223.766.782.006,1.649,0,3.3,0,4.946v.573c.228,0,.413-.013.6,0a.664.664,0,0,1,.661.675.636.636,0,0,1-.684.6q-1.2.02-2.407,0a.62.62,0,0,1-.68-.637.65.65,0,0,1,.652-.633C60.522,529.771,60.7,529.784,60.919,529.784Z" transform="translate(-29.306 -29.363)" fill="#c431f0" stroke="#c431f0" stroke-miterlimit="10" stroke-width="0.2"/>
    <path id="Path_300" data-name="Path 300" d="M62.158,509.954a1.247,1.247,0,0,1,1.263-1.238,1.267,1.267,0,0,1,1.253,1.258,1.3,1.3,0,0,1-1.3,1.274A1.275,1.275,0,0,1,62.158,509.954Z" transform="translate(-31.138 -18.378)" fill="#c431f0" stroke="#c431f0" stroke-miterlimit="10" stroke-width="0.2"/>
  </g>
</svg>
