<svg xmlns="http://www.w3.org/2000/svg" width="24" height="24" viewBox="0 0 24 24">
  <g id="tender_type" data-name="tender type" transform="translate(-320.537 -489.935)">
    <path id="Path_301" data-name="Path 301" d="M366.049,511.516a17.128,17.128,0,0,0-.712-3.29c-.213-.629-.491-1.224-.734-1.838a.944.944,0,0,1-.075-.334q-.006-5.243,0-10.486v-.3H362.71l2.5-5.336,2.5,5.33H365.9V506.81a11.138,11.138,0,0,1,6.935-6l-.184-2.216,4.558,2.5-4.036,3.622c-.064-.743-.126-1.458-.19-2.2-.185.065-.358.12-.528.186a9.886,9.886,0,0,0-2.821,1.636,9.152,9.152,0,0,0-2.052,2.44,12.476,12.476,0,0,0-1.506,4.592C366.069,511.424,366.058,511.47,366.049,511.516Z" transform="translate(-32.672)" fill="#c431f0"/>
    <path id="Path_302" data-name="Path 302" d="M324.763,525.021l-.19,2.19-4.036-3.62,4.56-2.5c-.038.45-.074.87-.109,1.29-.023.27-.042.541-.068.811-.009.1.018.137.091.159a10.991,10.991,0,0,1,2.251.974A10.679,10.679,0,0,1,330,526.53a11.782,11.782,0,0,1,2.339,4.111,14.912,14.912,0,0,1,.724,3.323c.074.748.107,1.5.157,2.254,0,.064,0,.129,0,.209h-1.391c0-.291.011-.579,0-.865a15.224,15.224,0,0,0-.866-4.587,9.655,9.655,0,0,0-2.478-3.808,9.274,9.274,0,0,0-2.574-1.7c-.331-.146-.669-.269-1-.4C324.865,525.048,324.821,525.038,324.763,525.021Z" transform="translate(0 -22.492)" fill="#c431f0"/>
  </g>
</svg>
