<svg xmlns="http://www.w3.org/2000/svg" width="18.318" height="24.498" viewBox="0 0 18.318 24.498">
  <g id="tender_manager" data-name="tender manager" transform="translate(-128.049 -486.597)">
    <path id="Path_304" data-name="Path 304" d="M142.1,537.5a1.28,1.28,0,0,1-1.058,1.4c.6.968-.019,1.543-.647,2.126a1.164,1.164,0,0,1-1.583.119c-.257,1.029-1.025,1.1-1.888,1.068a1.321,1.321,0,0,1-1.32-1.064c-.768.508-1.3.164-1.851-.372a1.34,1.34,0,0,1-.371-1.866,1.266,1.266,0,0,1-1.06-1.414c-1.151,0-2.247-.02-3.342.009-.536.015-.722-.172-.676-.709.087-1.028.1-2.062.2-3.089a4.308,4.308,0,0,1,2.372-3.61,33.183,33.183,0,0,1,3.34-1.4.9.9,0,0,1,.662.118,4.412,4.412,0,0,0,4.667.006,1.158,1.158,0,0,1,.793-.1c.668.18,1.32.424,1.971.663a5.307,5.307,0,0,1,3.732,5.212c.027.763.032,1.527.078,2.29.03.489-.189.62-.64.611C144.376,537.49,143.276,537.5,142.1,537.5Zm-8.822-1.948a1.12,1.12,0,0,1,.214-1.4c.588-.623,1.16-1.242,2.131-.662.178-.63.5-1.012,1.147-1.018.855-.008,1.781-.176,2.027,1.017a1.337,1.337,0,0,1,1.763.29c.562.564,1.008,1.1.572,1.8.335.38.612.7.9,1.013.082.089.191.215.29.216,1.021.016,2.043.01,3.01.01,0-.872.027-1.635-.005-2.4a4.614,4.614,0,0,0-3.344-4.416,7.956,7.956,0,0,0-1.335-.452,2.038,2.038,0,0,0-1.123.09,4.523,4.523,0,0,1-3.972.213,2.974,2.974,0,0,0-2.9.128,14.023,14.023,0,0,0-2.093,1.2,3.235,3.235,0,0,0-.962,1.184,10.341,10.341,0,0,0-.58,4.453c1.037,0,2,.01,2.961-.011a.7.7,0,0,0,.407-.242C132.668,536.277,132.924,535.964,133.279,535.556Zm1.382-1.867a6.209,6.209,0,0,0-.756,1.137c-.068.172.185.478.305.718s.26.48.392.72a2.418,2.418,0,0,1-.722.183c-.645-.042-.9.211-.867.859.035.806.061.863.89.871a2.714,2.714,0,0,1,.337,0c.41.056.485.287.28.612a1.63,1.63,0,0,1-.372.388c-.58.461-.209.775.133,1.142.368.395.676.541,1.1.064a2.929,2.929,0,0,1,.757-.449,2.861,2.861,0,0,1,.187.8c-.037.651.281.8.86.8.6,0,.944-.144.9-.833a2.47,2.47,0,0,1,.213-.774,2.645,2.645,0,0,1,.7.427c.437.509.748.349,1.156-.052.429-.422.586-.749.049-1.2a2.32,2.32,0,0,1-.391-.709,2.533,2.533,0,0,1,.787-.2c.659.051.795-.267.8-.845,0-.6-.137-.946-.827-.9a2.509,2.509,0,0,1-.771-.208c.141-.238.289-.471.422-.714.12-.22.358-.485.309-.668a.935.935,0,0,0-1.648-.414,1.907,1.907,0,0,1-.247.228c-.323.213-.51.084-.557-.264a4.43,4.43,0,0,0-.024-.669c-.062-.2-.2-.484-.366-.537-.922-.294-1.309.011-1.359.962a2.135,2.135,0,0,1-.212.584,3.828,3.828,0,0,1-.562-.28C135.33,534.3,135.128,534.1,134.661,533.689Z" transform="translate(0 -31.378)" fill="#c431f0" stroke="#c431f0" stroke-miterlimit="10" stroke-width="0.5"/>
    <path id="Path_305" data-name="Path 305" d="M149.79,496.295a4.724,4.724,0,1,1,4.719-4.692A4.685,4.685,0,0,1,149.79,496.295Zm-.03-.69a4.007,4.007,0,0,0,4.057-3.99,4.024,4.024,0,1,0-8.049-.065A4.008,4.008,0,0,0,149.76,495.605Z" transform="translate(-12.585 0)" fill="#c431f0" stroke="#c431f0" stroke-miterlimit="10" stroke-width="0.5"/>
    <path id="Path_306" data-name="Path 306" d="M158.139,549.993a1.94,1.94,0,1,1-1.977,1.887A1.981,1.981,0,0,1,158.139,549.993Zm1.217,1.907a1.251,1.251,0,1,0-1.223,1.274A1.307,1.307,0,0,0,159.356,551.9Z" transform="translate(-20.898 -46.112)" fill="#c431f0" stroke="#c431f0" stroke-miterlimit="10" stroke-width="0.5"/>
  </g>
</svg>
