<svg width="60" height="60" viewBox="0 0 60 60" fill="none" xmlns="http://www.w3.org/2000/svg">
<path d="M29.1351 45.0551C25.9866 45.0551 22.838 45.0572 19.6895 45.0551C15.9227 45.052 13.3115 42.4336 13.3074 38.6595C13.3063 37.2486 13.3022 35.8367 13.3084 34.4258C13.3126 33.3967 13.907 32.71 14.7784 32.7068C15.6561 32.7027 16.2474 33.3687 16.2546 34.4092C16.2661 35.8855 16.2495 37.3617 16.2598 38.839C16.2733 40.8132 17.5524 42.0912 19.5246 42.0933C25.9306 42.0985 32.3366 42.0985 38.7425 42.0933C40.7178 42.0923 41.9927 40.8173 42.0083 38.84C42.0197 37.3202 41.9886 35.7994 42.0187 34.2806C42.0425 33.0699 43.1007 32.3759 44.1153 32.8625C44.635 33.1114 44.9431 33.5627 44.94 34.1011C44.9296 36.0514 45.1371 38.0132 44.8352 39.9521C44.3684 42.9533 41.9035 45.0344 38.8401 45.053C35.6065 45.0696 32.3708 45.0541 29.1351 45.0551Z" fill="#C431F0"/>
<path d="M31.1413 21.638C31.1413 24.7927 31.1413 27.7867 31.1413 30.7807C31.1413 33.2113 31.1402 35.642 31.1423 38.0726C31.1434 38.7812 30.9027 39.3434 30.2211 39.6515C29.6588 39.9047 29.1567 39.7625 28.7086 39.3922C28.2459 39.0083 28.194 38.4689 28.194 37.9118C28.1961 32.7683 28.195 27.6259 28.195 22.4824C28.195 22.2501 28.195 22.0166 28.195 21.7625C27.8766 21.8019 27.7645 22.0353 27.6068 22.192C25.9615 23.83 24.3214 25.4712 22.6895 27.1228C22.2237 27.5937 21.6739 27.711 21.0784 27.5201C20.5421 27.3479 20.2381 26.9205 20.1479 26.3634C20.0462 25.7389 20.3668 25.2928 20.7817 24.8778C23.0692 22.5934 25.3494 20.3028 27.6328 18.0143C27.9243 17.7228 28.2116 17.4271 28.5083 17.1408C29.2802 16.3939 30.0759 16.3939 30.8435 17.1605C33.1466 19.4605 35.4424 21.7666 37.7413 24.0697C38.0629 24.3923 38.3938 24.7066 38.705 25.0386C39.3524 25.7285 39.3762 26.5906 38.7766 27.1881C38.1915 27.7711 37.2858 27.7473 36.6312 27.0979C34.9683 25.4473 33.3188 23.7844 31.6631 22.1266C31.5303 21.9917 31.3892 21.8693 31.1413 21.638Z" fill="#C431F0"/>
<rect x="0.5" y="0.5" width="59" height="59" rx="7.5" stroke="#C431F0"/>
</svg>
