<svg width="30" height="30" viewBox="0 0 30 30" fill="none" xmlns="http://www.w3.org/2000/svg">
<path d="M12.1712 3.88461L18.8679 7.75108C19.397 8.05597 20.072 7.8748 20.3758 7.34676C20.6818 6.81871 20.5006 6.14263 19.9726 5.83883L13.2759 1.97237C12.7467 1.66747 12.0717 1.84865 11.7668 2.37559C11.4619 2.90253 11.6431 3.57861 12.1712 3.88461ZM18.3166 8.70775L11.6199 4.84129L7.75345 11.538L14.4502 15.4045L18.3166 8.70775ZM6.09529 14.408L12.792 18.2745C13.32 18.5794 13.9961 18.3982 14.2999 17.8702C14.6037 17.3421 14.4236 16.666 13.8967 16.3622L7.19999 12.4958C6.67084 12.1909 5.99586 12.3721 5.69096 12.899C5.38496 13.427 5.56724 14.1031 6.09529 14.408ZM29.1714 17.5255L16.9357 11.0994L15.831 13.0128L27.5144 20.3955C28.3065 20.8529 29.3206 20.5822 29.7779 19.789C30.2353 18.9959 29.9635 17.9828 29.1714 17.5255ZM17.0429 23.1031C17.0429 22.4922 16.548 21.9984 15.9382 21.9984H5.99586C5.38496 21.9984 4.89116 22.4922 4.89116 23.1031C4.89116 23.7129 4.89116 24.2078 4.89116 24.2078L3.75 24.1846L3.78646 25.3125H18.1476L18.1995 24.2542L17.1125 24.2078C17.1125 24.2078 17.0429 23.7129 17.0429 23.1031Z" fill="#71717A"/>
</svg>
