<svg width="22" height="22" viewBox="0 0 22 22" fill="none" xmlns="http://www.w3.org/2000/svg">
<path d="M10.9998 13.2917V15.125M6.4165 9.19307C6.84864 9.16667 7.38138 9.16667 8.0665 9.16667H13.9332C14.6183 9.16667 15.1511 9.16667 15.5832 9.19307M6.4165 9.19307C5.87721 9.22598 5.4946 9.30004 5.16803 9.46642C4.65058 9.73005 4.22989 10.1507 3.96624 10.6682C3.6665 11.2565 3.6665 12.0265 3.6665 13.5667V14.85C3.6665 16.3902 3.6665 17.1602 3.96624 17.7485C4.22989 18.266 4.65058 18.6866 5.16803 18.9503C5.75628 19.25 6.52636 19.25 8.0665 19.25H13.9332C15.4734 19.25 16.2434 19.25 16.8317 18.9503C17.3491 18.6866 17.7698 18.266 18.0334 17.7485C18.3332 17.1602 18.3332 16.3902 18.3332 14.85V13.5667C18.3332 12.0265 18.3332 11.2565 18.0334 10.6682C17.7698 10.1507 17.3491 9.73005 16.8317 9.46642C16.5051 9.30004 16.1224 9.22598 15.5832 9.19307M6.4165 9.19307V7.33333C6.4165 4.80203 8.46854 2.75 10.9998 2.75C13.5311 2.75 15.5832 4.80203 15.5832 7.33333V9.19307" stroke="black" stroke-opacity="0.55" stroke-width="1.7" stroke-linecap="round" stroke-linejoin="round"/>
<path d="M14.6669 7.3332C14.6669 6.89984 14.5768 6.47072 14.4017 6.07035C14.2267 5.66997 13.9701 5.30618 13.6466 4.99975C13.3232 4.69332 12.9392 4.45024 12.5165 4.2844C12.0939 4.11856 11.641 4.0332 11.1835 4.0332C10.7261 4.0332 10.2731 4.11856 9.85051 4.2844C9.4279 4.45024 9.0439 4.69332 8.72044 4.99975C8.39698 5.30618 8.1404 5.66997 7.96535 6.07035C7.79029 6.47072 7.7002 6.89984 7.7002 7.3332L8.39298 7.3332C8.39298 6.98603 8.46516 6.64226 8.6054 6.32151C8.74564 6.00077 8.95119 5.70933 9.21032 5.46384C9.46944 5.21836 9.77707 5.02362 10.1156 4.89077C10.4542 4.75791 10.8171 4.68953 11.1835 4.68953C11.55 4.68953 11.9129 4.75791 12.2514 4.89077C12.59 5.02362 12.8976 5.21836 13.1567 5.46384C13.4159 5.70933 13.6214 6.00077 13.7617 6.32151C13.9019 6.64226 13.9741 6.98603 13.9741 7.3332H14.6669Z" fill="#FDB714"/>
<path d="M14.9803 17.1039C15.6817 17.1039 16.2504 16.5353 16.2504 15.8338V13.2002H16.8668V16.4502C16.8668 17.1517 16.2981 17.7203 15.5966 17.7203H12.1001V17.1039H14.9803Z" fill="#00A9E2"/>
</svg>
