<svg width="555" height="87" viewBox="0 0 555 87" fill="none" xmlns="http://www.w3.org/2000/svg">
<g clip-path="url(#clip0_2060_764)">
<path d="M100.22 18.51L105.01 16.52L100.22 14.53C95.82 12.7 92.31 9.2 90.48 4.79L88.49 0L86.5 4.79C84.67 9.19 81.17 12.7 76.76 14.53L71.97 16.52L76.76 18.51C81.16 20.34 84.67 23.84 86.5 28.25L88.49 33.04L90.48 28.25C92.31 23.85 95.81 20.34 100.22 18.51Z" fill="#00205C"/>
<path d="M73.24 30.2905C72.82 30.4405 72.4 30.5905 71.97 30.7405C66.63 32.5805 60.94 34.2205 55.24 33.9405C50.87 33.7205 47.29 31.8405 43.78 29.3705C40.71 27.2105 37.64 25.3105 33.74 25.4605C29.01 25.6405 24.41 27.7505 20.07 29.4505C18.41 30.1005 16.74 30.7505 15.04 31.3605V44.7505C15.46 44.6005 15.87 44.4505 16.28 44.3005C21.05 42.5305 25.75 40.2705 30.76 39.2405C34.76 38.4205 38.29 39.1205 41.7 41.3405C44.98 43.4705 47.96 45.9205 51.85 46.8605C57.12 48.1305 62.83 46.9305 67.92 45.4405C69.71 44.9105 71.48 44.3105 73.23 43.6805V30.3005L73.24 30.2905Z" fill="#00A7E1"/>
<path d="M92.44 64.6304C90.59 64.3604 88.68 64.3904 86.71 64.7904C81.65 65.8304 76.84 67.9804 71.97 69.6604C66.63 71.5004 60.94 73.1404 55.24 72.8604C50.87 72.6404 47.29 70.7604 43.78 68.2904C40.71 66.1304 37.64 64.2304 33.74 64.3804C31.53 64.4604 29.36 64.9804 27.22 65.6604V79.0904C28.39 78.7304 29.57 78.4104 30.77 78.1604C34.77 77.3404 38.3 78.0404 41.71 80.2604C44.99 82.3904 47.97 84.8404 51.86 85.7804C57.13 87.0504 62.84 85.8504 67.93 84.3604C73.21 82.8104 78.26 80.5904 83.53 79.0104C85.85 78.3204 88.28 77.7104 90.72 77.7704C91.3 77.7804 91.87 77.8404 92.44 77.9304V64.6304Z" fill="#00A7E1"/>
<path d="M105.01 51.3504C103.44 50.1304 101.76 49.0204 100.04 48.0604C95.85 45.7204 91.47 44.5204 86.71 45.5004C81.64 46.5404 76.84 48.6904 71.97 50.3704C66.63 52.2104 60.94 53.8504 55.24 53.5704C50.87 53.3504 47.29 51.4704 43.78 49.0004C40.71 46.8404 37.64 44.9404 33.74 45.0904C29.01 45.2704 24.41 47.3804 20.07 49.0804C15.03 51.0504 9.84 53.1304 4.38 53.5304C2.91 53.6404 1.44 53.5504 0 53.3104V66.7703C0.27 66.8103 0.54 66.8604 0.81 66.8904C6.08 67.4604 11.41 65.7404 16.29 63.9404C21.06 62.1704 25.76 59.9104 30.77 58.8804C34.77 58.0604 38.3 58.7604 41.71 60.9804C44.99 63.1104 47.97 65.5604 51.86 66.5004C57.13 67.7704 62.84 66.5704 67.93 65.0804C73.21 63.5304 78.26 61.3104 83.53 59.7304C85.85 59.0404 88.28 58.4304 90.72 58.4904C93.41 58.5604 96.02 59.4604 98.42 60.6204C100.73 61.7404 102.97 63.1404 105.01 64.7404V51.3704V51.3504Z" fill="#00A7E1"/>
<path d="M128.28 75.8002H133.16V66.6602H142.42V62.8702H133.16V57.7402H143.85V53.6602H128.28V75.8002Z" fill="#415364"/>
<path d="M150.47 59.7598H146.06V75.7998H150.47V59.7598Z" fill="#415364"/>
<path d="M150.47 53.6602H146.06V57.2702H150.47V53.6602Z" fill="#415364"/>
<path d="M166.37 67.4998C165.89 67.1498 165.35 66.8798 164.74 66.6698C164.13 66.4598 163.5 66.2898 162.85 66.1498C162.24 66.0098 161.64 65.8798 161.04 65.7498C160.44 65.6298 159.9 65.4798 159.44 65.3298C158.97 65.1698 158.59 64.9698 158.3 64.7198C158.01 64.4698 157.86 64.1498 157.86 63.7598C157.86 63.4298 157.94 63.1698 158.11 62.9798C158.28 62.7898 158.48 62.6298 158.72 62.5198C158.96 62.4098 159.22 62.3398 159.52 62.3198C159.81 62.2898 160.08 62.2798 160.32 62.2798C161.11 62.2798 161.8 62.4298 162.38 62.7298C162.96 63.0298 163.28 63.5998 163.33 64.4498H167.51C167.43 63.4598 167.18 62.6398 166.76 61.9898C166.34 61.3398 165.8 60.8198 165.16 60.4198C164.51 60.0198 163.78 59.7398 162.97 59.5798C162.16 59.4198 161.31 59.3398 160.43 59.3398C159.55 59.3398 158.72 59.4198 157.9 59.5698C157.08 59.7198 156.34 59.9898 155.67 60.3798C155 60.7698 154.47 61.2898 154.07 61.9698C153.67 62.6398 153.47 63.4798 153.47 64.4898C153.47 65.1998 153.61 65.7898 153.9 66.2698C154.19 66.7498 154.57 67.1598 155.05 67.4798C155.53 67.8098 156.07 68.0698 156.68 68.2598C157.29 68.4598 157.91 68.6198 158.55 68.7598C159.34 68.9198 160.05 69.0798 160.67 69.2398C161.29 69.3998 161.81 69.5698 162.23 69.7498C162.65 69.9298 162.98 70.1498 163.21 70.3798C163.44 70.6198 163.55 70.9098 163.55 71.2398C163.55 71.6298 163.46 71.9598 163.27 72.2198C163.09 72.4798 162.86 72.6898 162.58 72.8398C162.3 72.9898 161.99 73.0998 161.64 73.1698C161.29 73.2398 160.97 73.2798 160.66 73.2798C160.23 73.2798 159.81 73.2298 159.41 73.1298C159.01 73.0298 158.65 72.8798 158.34 72.6598C158.03 72.4398 157.77 72.1598 157.58 71.8198C157.39 71.4798 157.29 71.0698 157.29 70.5898H153.11C153.15 71.6398 153.4 72.5298 153.84 73.2598C154.28 73.9898 154.85 74.5698 155.54 75.0198C156.23 75.4698 157.02 75.7798 157.92 75.9598C158.81 76.1398 159.73 76.2398 160.66 76.2398C161.59 76.2398 162.45 76.1498 163.33 75.9598C164.21 75.7798 164.99 75.4598 165.67 75.0198C166.35 74.5798 166.91 73.9998 167.33 73.2898C167.75 72.5698 167.96 71.6898 167.96 70.6398C167.96 69.8998 167.82 69.2798 167.53 68.7798C167.24 68.2798 166.86 67.8498 166.38 67.4998" fill="#415364"/>
<path d="M184.31 61.1502C183.88 60.5802 183.28 60.1402 182.53 59.8202C181.78 59.5002 180.81 59.3402 179.63 59.3402C178.81 59.3402 177.96 59.5602 177.09 59.9902C176.22 60.4202 175.51 61.1002 174.94 62.0102H174.86V53.6602H170.45V75.8002H174.86V67.3902C174.86 65.7602 175.13 64.5902 175.67 63.8802C176.21 63.1602 177.07 62.8102 178.27 62.8102C179.3 62.8102 180.03 63.1402 180.45 63.7902C180.87 64.4402 181.08 65.4302 181.08 66.7502V75.8102H185.49V65.9502C185.49 64.9502 185.4 64.0502 185.23 63.2302C185.06 62.4202 184.75 61.7302 184.32 61.1602" fill="#415364"/>
<path d="M192.53 66.0498C192.55 65.7498 192.62 65.3998 192.73 64.9998C192.84 64.5998 193.03 64.2298 193.32 63.8898C193.6 63.5398 193.98 63.2498 194.44 63.0098C194.91 62.7698 195.49 62.6498 196.18 62.6498C197.26 62.6498 198.07 62.9398 198.6 63.5098C199.13 64.0798 199.49 64.9298 199.7 66.0498H192.54H192.53ZM202.37 62.2498C201.72 61.3598 200.89 60.6498 199.87 60.1298C198.86 59.5998 197.67 59.3398 196.32 59.3398C195.09 59.3398 193.98 59.5598 192.98 59.9898C191.98 60.4198 191.11 61.0198 190.39 61.7698C189.67 62.5198 189.11 63.4198 188.71 64.4498C188.31 65.4898 188.12 66.5998 188.12 67.7898C188.12 68.9798 188.31 70.1598 188.7 71.1998C189.08 72.2398 189.63 73.1298 190.33 73.8798C191.03 74.6298 191.89 75.2098 192.9 75.6198C193.91 76.0298 195.06 76.2398 196.33 76.2398C198.14 76.2398 199.69 75.8198 200.97 74.9698C202.26 74.1198 203.2 72.7498 203.81 70.8398H199.94C199.8 71.3298 199.41 71.7998 198.77 72.2498C198.13 72.6998 197.37 72.9198 196.48 72.9198C195.23 72.9198 194.28 72.5898 193.62 71.9398C192.96 71.2898 192.6 70.2598 192.55 68.8498H204.12C204.21 67.5998 204.1 66.4098 203.81 65.2798C203.52 64.1498 203.05 63.1298 202.39 62.2498" fill="#415364"/>
<path d="M214.34 59.5801C213.81 59.7401 213.32 59.9801 212.87 60.2801C212.41 60.5801 212.01 60.9501 211.66 61.3701C211.31 61.7901 211.03 62.2501 210.84 62.7501H210.76V59.7601H206.58V75.8001H210.99V68.5801C210.99 67.8801 211.06 67.2101 211.2 66.5701C211.34 65.9401 211.58 65.3901 211.92 64.9301C212.26 64.4701 212.71 64.1001 213.28 63.8301C213.84 63.5601 214.53 63.4201 215.33 63.4201C215.59 63.4201 215.87 63.4401 216.16 63.4701C216.45 63.5001 216.7 63.5401 216.91 63.5801V59.4801C216.59 59.3801 216.27 59.3301 215.93 59.3301C215.4 59.3301 214.87 59.4101 214.34 59.5701" fill="#415364"/>
<path d="M223.15 59.7598H218.74V75.7998H223.15V59.7598Z" fill="#415364"/>
<path d="M223.15 53.6602H218.74V57.2702H223.15V53.6602Z" fill="#415364"/>
<path d="M230.42 66.0498C230.44 65.7498 230.51 65.3998 230.61 64.9998C230.72 64.5998 230.91 64.2298 231.2 63.8898C231.48 63.5398 231.86 63.2498 232.32 63.0098C232.79 62.7698 233.37 62.6498 234.06 62.6498C235.14 62.6498 235.95 62.9398 236.48 63.5098C237.01 64.0798 237.37 64.9298 237.58 66.0498H230.42ZM240.27 62.2498C239.62 61.3598 238.79 60.6498 237.77 60.1298C236.76 59.5998 235.57 59.3398 234.22 59.3398C232.99 59.3398 231.88 59.5598 230.88 59.9898C229.88 60.4198 229.01 61.0198 228.29 61.7698C227.57 62.5198 227.01 63.4198 226.61 64.4498C226.21 65.4898 226.02 66.5998 226.02 67.7898C226.02 68.9798 226.21 70.1598 226.6 71.1998C226.98 72.2398 227.53 73.1298 228.23 73.8798C228.93 74.6298 229.79 75.2098 230.8 75.6198C231.81 76.0298 232.96 76.2398 234.23 76.2398C236.04 76.2398 237.59 75.8198 238.87 74.9698C240.16 74.1198 241.1 72.7498 241.71 70.8398H237.84C237.7 71.3298 237.31 71.7998 236.67 72.2498C236.03 72.6998 235.27 72.9198 234.38 72.9198C233.13 72.9198 232.18 72.5898 231.52 71.9398C230.86 71.2898 230.5 70.2598 230.45 68.8498H242.02C242.11 67.5998 242 66.4098 241.71 65.2798C241.42 64.1498 240.95 63.1298 240.29 62.2498" fill="#415364"/>
<path d="M257.01 67.4998C256.53 67.1498 255.99 66.8798 255.38 66.6698C254.77 66.4598 254.14 66.2898 253.49 66.1498C252.88 66.0098 252.28 65.8798 251.68 65.7498C251.08 65.6298 250.54 65.4798 250.08 65.3298C249.61 65.1698 249.23 64.9698 248.94 64.7198C248.65 64.4698 248.5 64.1498 248.5 63.7598C248.5 63.4298 248.58 63.1698 248.75 62.9798C248.92 62.7898 249.12 62.6298 249.36 62.5198C249.6 62.4098 249.86 62.3398 250.16 62.3198C250.45 62.2898 250.72 62.2798 250.96 62.2798C251.75 62.2798 252.44 62.4298 253.02 62.7298C253.6 63.0298 253.92 63.5998 253.97 64.4498H258.15C258.07 63.4598 257.82 62.6398 257.4 61.9898C256.98 61.3398 256.44 60.8198 255.8 60.4198C255.15 60.0198 254.42 59.7398 253.61 59.5798C252.8 59.4198 251.95 59.3398 251.07 59.3398C250.19 59.3398 249.36 59.4198 248.54 59.5698C247.72 59.7198 246.98 59.9898 246.31 60.3798C245.64 60.7698 245.11 61.2898 244.71 61.9698C244.31 62.6398 244.11 63.4798 244.11 64.4898C244.11 65.1998 244.25 65.7898 244.54 66.2698C244.83 66.7498 245.21 67.1598 245.69 67.4798C246.17 67.8098 246.71 68.0698 247.32 68.2598C247.93 68.4598 248.55 68.6198 249.19 68.7598C249.98 68.9198 250.69 69.0798 251.31 69.2398C251.93 69.3998 252.45 69.5698 252.87 69.7498C253.29 69.9298 253.62 70.1498 253.85 70.3798C254.08 70.6198 254.19 70.9098 254.19 71.2398C254.19 71.6298 254.1 71.9598 253.91 72.2198C253.73 72.4798 253.5 72.6898 253.22 72.8398C252.94 72.9898 252.63 73.0998 252.28 73.1698C251.93 73.2398 251.61 73.2798 251.3 73.2798C250.87 73.2798 250.45 73.2298 250.05 73.1298C249.65 73.0298 249.29 72.8798 248.98 72.6598C248.67 72.4398 248.41 72.1598 248.22 71.8198C248.03 71.4798 247.93 71.0698 247.93 70.5898H243.75C243.79 71.6398 244.04 72.5298 244.48 73.2598C244.92 73.9898 245.49 74.5698 246.18 75.0198C246.87 75.4698 247.66 75.7798 248.56 75.9598C249.45 76.1398 250.37 76.2398 251.3 76.2398C252.23 76.2398 253.09 76.1498 253.97 75.9598C254.85 75.7798 255.63 75.4598 256.31 75.0198C256.99 74.5798 257.55 73.9998 257.97 73.2898C258.39 72.5698 258.61 71.6898 258.61 70.6398C258.61 69.8998 258.47 69.2798 258.18 68.7798C257.89 68.2798 257.51 67.8498 257.03 67.4998" fill="#415364"/>
<path d="M281.95 68.1702C281.63 69.0202 281.22 69.7102 280.71 70.2402C280.2 70.7702 279.61 71.1502 278.94 71.3802C278.28 71.6102 277.59 71.7202 276.89 71.7202H272.56V57.7402H276.03C277.23 57.7402 278.24 57.9102 279.06 58.2602C279.87 58.6102 280.53 59.1002 281.03 59.7402C281.53 60.3802 281.89 61.1502 282.1 62.0502C282.32 62.9502 282.43 63.9502 282.43 65.0602C282.43 66.2902 282.27 67.3202 281.96 68.1702M284.42 56.3802C283.52 55.4702 282.45 54.7902 281.22 54.3402C279.99 53.8802 278.66 53.6602 277.22 53.6602H267.67V75.8002H277.22C278.92 75.8002 280.4 75.5202 281.65 74.9502C282.9 74.3802 283.94 73.6002 284.77 72.6102C285.6 71.6202 286.22 70.4402 286.64 69.0702C287.06 67.7002 287.27 66.2202 287.27 64.6102C287.27 62.7702 287.02 61.1602 286.51 59.7902C286.01 58.4202 285.3 57.2902 284.4 56.3802" fill="#415364"/>
<path d="M293.88 66.0498C293.9 65.7498 293.97 65.3998 294.08 64.9998C294.19 64.5998 294.38 64.2298 294.67 63.8898C294.95 63.5398 295.33 63.2498 295.79 63.0098C296.26 62.7698 296.84 62.6498 297.53 62.6498C298.61 62.6498 299.42 62.9398 299.95 63.5098C300.48 64.0798 300.84 64.9298 301.05 66.0498H293.89H293.88ZM303.72 62.2498C303.07 61.3598 302.24 60.6498 301.22 60.1298C300.21 59.5998 299.02 59.3398 297.66 59.3398C296.43 59.3398 295.32 59.5598 294.32 59.9898C293.32 60.4198 292.45 61.0198 291.73 61.7698C291.01 62.5198 290.45 63.4198 290.05 64.4498C289.65 65.4898 289.46 66.5998 289.46 67.7898C289.46 68.9798 289.65 70.1598 290.04 71.1998C290.42 72.2398 290.97 73.1298 291.67 73.8798C292.37 74.6298 293.23 75.2098 294.24 75.6198C295.25 76.0298 296.4 76.2398 297.66 76.2398C299.47 76.2398 301.02 75.8198 302.31 74.9698C303.6 74.1198 304.54 72.7498 305.15 70.8398H301.28C301.14 71.3298 300.75 71.7998 300.11 72.2498C299.47 72.6998 298.71 72.9198 297.82 72.9198C296.57 72.9198 295.62 72.5898 294.96 71.9398C294.3 71.2898 293.94 70.2598 293.89 68.8498H305.46C305.55 67.5998 305.44 66.4098 305.15 65.2798C304.86 64.1498 304.39 63.1298 303.73 62.2498" fill="#415364"/>
<path d="M314.98 70.7098H314.93L311.55 59.7598H306.93L312.41 75.7998H317.32L322.74 59.7598H318.38L314.98 70.7098Z" fill="#415364"/>
<path d="M328.11 66.0498C328.13 65.7498 328.2 65.3998 328.3 64.9998C328.41 64.5998 328.6 64.2298 328.89 63.8898C329.17 63.5398 329.55 63.2498 330.01 63.0098C330.48 62.7698 331.06 62.6498 331.75 62.6498C332.83 62.6498 333.64 62.9398 334.17 63.5098C334.7 64.0798 335.06 64.9298 335.27 66.0498H328.11ZM337.95 62.2498C337.3 61.3598 336.47 60.6498 335.45 60.1298C334.44 59.5998 333.25 59.3398 331.9 59.3398C330.67 59.3398 329.56 59.5598 328.56 59.9898C327.56 60.4198 326.69 61.0198 325.97 61.7698C325.25 62.5198 324.69 63.4198 324.29 64.4498C323.89 65.4898 323.7 66.5998 323.7 67.7898C323.7 68.9798 323.89 70.1598 324.28 71.1998C324.66 72.2398 325.21 73.1298 325.91 73.8798C326.61 74.6298 327.47 75.2098 328.48 75.6198C329.49 76.0298 330.64 76.2398 331.91 76.2398C333.72 76.2398 335.27 75.8198 336.55 74.9698C337.84 74.1198 338.78 72.7498 339.39 70.8398H335.52C335.38 71.3298 334.99 71.7998 334.35 72.2498C333.71 72.6998 332.95 72.9198 332.06 72.9198C330.81 72.9198 329.86 72.5898 329.2 71.9398C328.54 71.2898 328.18 70.2598 328.13 68.8498H339.7C339.79 67.5998 339.68 66.4098 339.39 65.2798C339.1 64.1498 338.63 63.1298 337.97 62.2498" fill="#415364"/>
<path d="M346.68 53.6602H342.27V75.8002H346.68V53.6602Z" fill="#415364"/>
<path d="M361.81 69.6698C361.68 70.2798 361.47 70.8298 361.18 71.3098C360.88 71.7898 360.48 72.1798 359.98 72.4698C359.48 72.7598 358.85 72.9098 358.1 72.9098C357.35 72.9098 356.73 72.7598 356.24 72.4698C355.75 72.1798 355.35 71.7898 355.04 71.3098C354.74 70.8298 354.52 70.2798 354.41 69.6698C354.29 69.0598 354.23 68.4298 354.23 67.7898C354.23 67.1498 354.29 66.5198 354.41 65.8898C354.53 65.2698 354.74 64.7198 355.04 64.2498C355.34 63.7798 355.74 63.3898 356.24 63.0898C356.73 62.7898 357.35 62.6398 358.1 62.6398C358.85 62.6398 359.48 62.7898 359.98 63.0898C360.48 63.3898 360.89 63.7698 361.18 64.2498C361.48 64.7198 361.69 65.2698 361.81 65.8898C361.93 66.5098 362 67.1498 362 67.7898C362 68.4298 361.94 69.0598 361.81 69.6698ZM364.15 61.6498C363.42 60.9098 362.55 60.3398 361.53 59.9398C360.51 59.5398 359.37 59.3398 358.1 59.3398C356.83 59.3398 355.71 59.5398 354.69 59.9398C353.68 60.3398 352.81 60.9098 352.09 61.6498C351.37 62.3898 350.81 63.2798 350.41 64.3198C350.01 65.3598 349.82 66.5198 349.82 67.7998C349.82 69.0798 350.02 70.2498 350.41 71.2798C350.81 72.3098 351.36 73.1898 352.09 73.9298C352.81 74.6698 353.68 75.2398 354.69 75.6398C355.7 76.0398 356.84 76.2398 358.1 76.2398C359.36 76.2398 360.51 76.0398 361.53 75.6398C362.55 75.2398 363.42 74.6698 364.15 73.9298C364.88 73.1898 365.44 72.3098 365.83 71.2798C366.22 70.2498 366.42 69.0898 366.42 67.7998C366.42 66.5098 366.22 65.3598 365.83 64.3198C365.44 63.2798 364.88 62.3898 364.15 61.6498Z" fill="#415364"/>
<path d="M380.8 69.7301C380.67 70.3401 380.46 70.8701 380.16 71.3401C379.86 71.8101 379.46 72.1901 378.98 72.4801C378.5 72.7701 377.9 72.9201 377.18 72.9201C376.46 72.9201 375.85 72.7701 375.37 72.4801C374.89 72.1901 374.49 71.8101 374.19 71.3401C373.89 70.8701 373.67 70.3401 373.54 69.7301C373.41 69.1201 373.34 68.4901 373.34 67.8301C373.34 67.1701 373.4 66.5501 373.52 65.9201C373.64 65.2901 373.85 64.7301 374.15 64.2601C374.45 63.7901 374.85 63.4001 375.33 63.1001C375.81 62.8001 376.41 62.6501 377.13 62.6501C377.85 62.6501 378.43 62.8001 378.92 63.1001C379.41 63.4001 379.81 63.7901 380.12 64.2701C380.43 64.7501 380.65 65.3101 380.79 65.9301C380.93 66.5501 380.99 67.1901 380.99 67.8301C380.99 68.4701 380.93 69.1301 380.8 69.7301ZM383.63 61.9401C383.03 61.1601 382.27 60.5301 381.36 60.0501C380.45 59.5701 379.36 59.3301 378.11 59.3301C377.12 59.3301 376.21 59.5301 375.39 59.9201C374.56 60.3101 373.88 60.9401 373.35 61.8101H373.27V59.7601H369.09V81.4501H373.5V73.8201H373.57C374.1 74.6101 374.79 75.2101 375.64 75.6301C376.49 76.0401 377.4 76.2501 378.37 76.2501C379.55 76.2501 380.58 76.0201 381.46 75.5501C382.34 75.0801 383.07 74.4701 383.67 73.7001C384.26 72.9401 384.7 72.0501 384.99 71.0601C385.28 70.0601 385.42 69.0301 385.42 67.9701C385.42 66.8301 385.28 65.7401 384.99 64.6901C384.7 63.6401 384.26 62.7301 383.66 61.9501" fill="#415364"/>
<path d="M410.75 60.6298C410.23 60.1698 409.61 59.8398 408.89 59.6398C408.17 59.4398 407.39 59.3398 406.54 59.3398C405.42 59.3398 404.45 59.6098 403.64 60.1498C402.82 60.6898 402.17 61.3098 401.7 62.0098C401.27 61.0298 400.63 60.3398 399.79 59.9398C398.95 59.5398 398.02 59.3398 397.02 59.3398C396.02 59.3398 395.05 59.5698 394.23 60.0198C393.41 60.4798 392.71 61.1198 392.14 61.9398H392.06V59.7598H387.91V75.7998H392.32V66.4898C392.32 65.7098 392.43 65.0698 392.66 64.5898C392.89 64.0998 393.16 63.7298 393.47 63.4698C393.78 63.2098 394.11 63.0298 394.45 62.9398C394.79 62.8498 395.06 62.7998 395.28 62.7998C396 62.7998 396.54 62.9198 396.9 63.1598C397.26 63.3998 397.52 63.7198 397.66 64.1098C397.8 64.4998 397.89 64.9398 397.92 65.4098C397.95 65.8798 397.96 66.3498 397.96 66.7998V75.7998H402.35V66.8698C402.35 66.3698 402.39 65.8798 402.46 65.3998C402.54 64.9198 402.68 64.4798 402.9 64.0998C403.12 63.7098 403.42 63.3998 403.8 63.1598C404.18 62.9198 404.68 62.7998 405.31 62.7998C405.94 62.7998 406.4 62.8998 406.77 63.1098C407.13 63.3198 407.41 63.5998 407.6 63.9498C407.79 64.2998 407.9 64.7198 407.94 65.1898C407.98 65.6698 408 66.1698 408 66.6998V75.7998H412.41V65.0598C412.41 64.0298 412.27 63.1498 411.98 62.4198C411.69 61.6898 411.29 61.0898 410.77 60.6298" fill="#415364"/>
<path d="M419.55 66.0498C419.57 65.7498 419.64 65.3998 419.75 64.9998C419.86 64.5998 420.05 64.2298 420.34 63.8898C420.62 63.5398 421 63.2498 421.46 63.0098C421.93 62.7698 422.51 62.6498 423.2 62.6498C424.28 62.6498 425.09 62.9398 425.62 63.5098C426.15 64.0798 426.51 64.9298 426.72 66.0498H419.56H419.55ZM429.39 62.2498C428.74 61.3598 427.91 60.6498 426.89 60.1298C425.88 59.5998 424.69 59.3398 423.34 59.3398C422.11 59.3398 421 59.5598 420 59.9898C419 60.4198 418.13 61.0198 417.41 61.7698C416.69 62.5198 416.13 63.4198 415.73 64.4498C415.33 65.4898 415.14 66.5998 415.14 67.7898C415.14 68.9798 415.33 70.1598 415.72 71.1998C416.1 72.2398 416.65 73.1298 417.35 73.8798C418.05 74.6298 418.91 75.2098 419.92 75.6198C420.93 76.0298 422.08 76.2398 423.35 76.2398C425.16 76.2398 426.71 75.8198 427.99 74.9698C429.28 74.1198 430.22 72.7498 430.83 70.8398H426.96C426.82 71.3298 426.43 71.7998 425.79 72.2498C425.15 72.6998 424.39 72.9198 423.5 72.9198C422.25 72.9198 421.3 72.5898 420.64 71.9398C419.98 71.2898 419.62 70.2598 419.57 68.8498H431.14C431.23 67.5998 431.12 66.4098 430.83 65.2798C430.54 64.1498 430.07 63.1298 429.41 62.2498" fill="#415364"/>
<path d="M447.45 61.1498C447.02 60.5798 446.42 60.1398 445.67 59.8198C444.92 59.4998 443.95 59.3398 442.77 59.3398C441.84 59.3398 440.93 59.5598 440.04 59.9898C439.16 60.4198 438.43 61.0998 437.87 62.0098H437.77V59.7698H433.59V75.8098H438V67.3998C438 65.7698 438.27 64.5998 438.81 63.8898C439.35 63.1698 440.21 62.8198 441.41 62.8198C442.44 62.8198 443.17 63.1498 443.59 63.7998C444.01 64.4498 444.23 65.4398 444.23 66.7598V75.8198H448.64V65.9598C448.64 64.9598 448.55 64.0598 448.38 63.2398C448.21 62.4298 447.9 61.7398 447.47 61.1698" fill="#415364"/>
<path d="M457.39 54.96H452.98V59.76H450.31V62.72H452.98V72.17C452.98 72.97 453.11 73.62 453.38 74.12C453.65 74.62 454.01 75.01 454.49 75.28C454.96 75.56 455.5 75.74 456.1 75.83C456.7 75.92 457.35 75.97 458.04 75.97C458.47 75.97 458.92 75.96 459.37 75.94C459.82 75.92 460.24 75.88 460.61 75.83V72.4C460.2 72.48 459.74 72.51 459.24 72.51C458.49 72.51 458 72.39 457.75 72.14C457.5 71.89 457.38 71.39 457.38 70.64V62.72H460.6V59.76H457.38V54.96H457.39Z" fill="#415364"/>
<path d="M484.83 67.5301C484.61 68.4101 484.27 69.2001 483.79 69.9101C483.31 70.6201 482.69 71.1801 481.93 71.5901C481.17 72.0101 480.24 72.2201 479.14 72.2201C478.04 72.2201 477.11 72.0101 476.35 71.5901C475.59 71.1701 474.97 70.6101 474.49 69.9101C474.02 69.2101 473.67 68.4101 473.46 67.5301C473.24 66.6501 473.13 65.7501 473.13 64.8101C473.13 63.8701 473.24 62.9101 473.46 62.0001C473.68 61.0901 474.02 60.2801 474.49 59.5601C474.96 58.8401 475.58 58.2701 476.35 57.8501C477.11 57.4301 478.04 57.2201 479.14 57.2201C480.24 57.2201 481.17 57.4301 481.93 57.8501C482.69 58.2701 483.32 58.8401 483.79 59.5601C484.27 60.2801 484.61 61.0901 484.83 62.0001C485.05 62.9101 485.16 63.8501 485.16 64.8101C485.16 65.7701 485.05 66.6501 484.83 67.5301ZM487.13 56.5101C486.2 55.4501 485.07 54.6201 483.73 54.0201C482.39 53.4201 480.86 53.1201 479.13 53.1201C477.4 53.1201 475.89 53.4201 474.54 54.0201C473.19 54.6201 472.06 55.4501 471.12 56.5101C470.19 57.5701 469.47 58.8101 468.98 60.2301C468.49 61.6501 468.24 63.1801 468.24 64.8201C468.24 66.4601 468.49 67.9101 468.98 69.3201C469.47 70.7201 470.19 71.9401 471.12 72.9801C472.05 74.0201 473.19 74.8301 474.54 75.4401C475.88 76.0401 477.41 76.3401 479.13 76.3401C480.85 76.3401 482.39 76.0401 483.73 75.4401C485.07 74.8401 486.2 74.0201 487.13 72.9801C488.06 71.9401 488.77 70.7201 489.28 69.3201C489.78 67.9201 490.04 66.4201 490.04 64.8201C490.04 63.2201 489.79 61.6501 489.28 60.2301C488.78 58.8101 488.06 57.5701 487.13 56.5101Z" fill="#415364"/>
<path d="M515.77 60.6298C515.25 60.1698 514.63 59.8398 513.91 59.6398C513.19 59.4398 512.4 59.3398 511.56 59.3398C510.44 59.3398 509.48 59.6098 508.66 60.1498C507.84 60.6898 507.19 61.3098 506.72 62.0098C506.29 61.0298 505.65 60.3398 504.81 59.9398C503.97 59.5398 503.04 59.3398 502.04 59.3398C501.04 59.3398 500.07 59.5698 499.25 60.0198C498.43 60.4798 497.73 61.1198 497.16 61.9398H497.08V59.7598H492.93V75.7998H497.34V66.4898C497.34 65.7098 497.45 65.0698 497.68 64.5898C497.91 64.0998 498.18 63.7298 498.49 63.4698C498.8 63.2098 499.13 63.0298 499.47 62.9398C499.81 62.8498 500.08 62.7998 500.3 62.7998C501.02 62.7998 501.56 62.9198 501.92 63.1598C502.28 63.3998 502.54 63.7198 502.68 64.1098C502.83 64.5098 502.91 64.9398 502.94 65.4098C502.97 65.8798 502.98 66.3498 502.98 66.7998V75.7998H507.37V66.8698C507.37 66.3698 507.41 65.8798 507.48 65.3998C507.56 64.9198 507.7 64.4798 507.92 64.0998C508.14 63.7098 508.44 63.3998 508.81 63.1598C509.19 62.9198 509.69 62.7998 510.32 62.7998C510.95 62.7998 511.41 62.8998 511.78 63.1098C512.14 63.3198 512.42 63.5998 512.61 63.9498C512.8 64.2998 512.91 64.7198 512.95 65.1898C512.99 65.6698 513.01 66.1698 513.01 66.6998V75.7998H517.42V65.0598C517.42 64.0298 517.28 63.1498 516.99 62.4198C516.7 61.6898 516.3 61.0898 515.78 60.6298" fill="#415364"/>
<path d="M530.93 69.5901C530.93 69.8501 530.9 70.1901 530.85 70.6001C530.8 71.0101 530.66 71.4201 530.43 71.8201C530.2 72.2201 529.85 72.5701 529.38 72.8501C528.91 73.1401 528.24 73.2801 527.37 73.2801C527.01 73.2801 526.67 73.2501 526.35 73.1901C526.02 73.1301 525.73 73.0201 525.48 72.8601C525.23 72.7001 525.03 72.5001 524.89 72.2401C524.75 71.9901 524.68 71.6501 524.68 71.2401C524.68 70.8301 524.75 70.5001 524.89 70.2201C525.03 69.9401 525.22 69.7201 525.47 69.5501C525.71 69.3801 525.99 69.2401 526.29 69.1301C526.59 69.0201 526.92 68.9401 527.28 68.8901C527.62 68.8201 527.96 68.7701 528.32 68.7401C528.68 68.7001 529.02 68.6501 529.34 68.5801C529.66 68.5101 529.96 68.4401 530.24 68.3401C530.52 68.2501 530.76 68.1201 530.94 67.9601V69.5901H530.93ZM535.33 72.2201V63.8901C535.33 62.9401 535.11 62.1601 534.68 61.5601C534.25 60.9601 533.69 60.5001 533.01 60.1701C532.33 59.8401 531.58 59.6201 530.75 59.5001C529.92 59.3901 529.1 59.3301 528.29 59.3301C527.39 59.3301 526.5 59.4201 525.63 59.5901C524.76 59.7601 523.97 60.0601 523.27 60.4701C522.57 60.8801 521.99 61.4301 521.54 62.1101C521.08 62.7901 520.83 63.6601 520.78 64.7001H525.19C525.27 63.8301 525.56 63.2101 526.06 62.8401C526.56 62.4701 527.24 62.2801 528.09 62.2801C528.49 62.2801 528.86 62.3001 529.2 62.3501C529.54 62.4001 529.84 62.5001 530.1 62.6601C530.35 62.8201 530.56 63.0301 530.72 63.3101C530.88 63.5901 530.96 63.9601 530.96 64.4401C530.96 64.9201 530.81 65.2401 530.52 65.4801C530.23 65.7201 529.84 65.9001 529.36 66.0301C528.88 66.1501 528.32 66.2501 527.7 66.3101C527.08 66.3701 526.42 66.4501 525.74 66.5601C525.07 66.6601 524.41 66.8001 523.76 66.9701C523.11 67.1501 522.52 67.4101 522 67.7601C521.48 68.1101 521.06 68.5801 520.76 69.1701C520.45 69.7601 520.3 70.5101 520.3 71.4201C520.3 72.2401 520.44 72.9601 520.71 73.5601C520.99 74.1601 521.37 74.6601 521.87 75.0601C522.37 75.4601 522.95 75.7501 523.61 75.9501C524.27 76.1501 524.98 76.2401 525.74 76.2401C526.74 76.2401 527.71 76.0901 528.66 75.7801C529.61 75.4801 530.44 74.9701 531.14 74.2501C531.16 74.5101 531.2 74.7701 531.25 75.0301C531.3 75.2901 531.37 75.5501 531.45 75.7901H535.92C535.71 75.4501 535.57 74.9601 535.48 74.2901C535.39 73.6301 535.35 72.9301 535.35 72.2101" fill="#415364"/>
<path d="M552.48 61.1498C552.05 60.5798 551.45 60.1398 550.7 59.8198C549.95 59.4998 548.98 59.3398 547.8 59.3398C546.87 59.3398 545.96 59.5598 545.07 59.9898C544.19 60.4198 543.46 61.0998 542.9 62.0098H542.8V59.7698H538.62V75.8098H543.03V67.3998C543.03 65.7698 543.3 64.5998 543.84 63.8898C544.38 63.1698 545.24 62.8198 546.44 62.8198C547.47 62.8198 548.2 63.1498 548.62 63.7998C549.04 64.4498 549.26 65.4398 549.26 66.7598V75.8198H553.67V65.9598C553.67 64.9598 553.58 64.0598 553.41 63.2398C553.24 62.4298 552.93 61.7398 552.5 61.1698" fill="#415364"/>
<path d="M136.68 40.8201C137.99 40.8201 139.17 40.6801 140.23 40.4001C141.29 40.1201 142.19 39.6501 142.92 38.9901C143.65 38.3301 144.21 37.4601 144.6 36.3801C144.99 35.3001 145.18 33.9501 145.18 32.3301L145.21 24.5801H141.24V32.8801C141.24 34.4001 140.88 35.4901 140.15 36.1301C139.42 36.7801 138.3 37.1001 136.79 37.1001C135.19 37.1001 134.04 36.7201 133.32 35.9601C132.61 35.2001 132.25 34.1001 132.25 32.6701V27.9801H128.27V32.8201C128.27 35.4501 128.98 37.4401 130.39 38.7901C131.8 40.1401 133.9 40.8101 136.67 40.8101" fill="#415364"/>
<path d="M136.86 25.0699C137.46 25.0699 137.98 24.8499 138.41 24.4199C138.84 23.9899 139.06 23.4799 139.06 22.8799C139.06 22.2799 138.84 21.7699 138.41 21.3299C137.98 20.8899 137.46 20.6699 136.86 20.6699C136.26 20.6699 135.75 20.8899 135.32 21.3299C134.89 21.7699 134.67 22.2799 134.67 22.8799C134.67 23.4799 134.89 23.9899 135.32 24.4199C135.75 24.8499 136.26 25.0699 136.86 25.0699Z" fill="#415364"/>
<path d="M226.81 13.9202C226.64 13.9602 226.46 13.9802 226.27 13.9802C226.05 13.9802 225.8 13.9202 225.52 13.8102C225.23 13.7002 225.09 13.4602 225.09 13.1102C225.09 12.8502 225.18 12.6002 225.36 12.3602C225.54 12.1202 225.8 12.0002 226.14 12.0002C226.44 12.0002 226.7 12.1402 226.9 12.4102C227.11 12.6902 227.21 13.0802 227.21 13.5802V13.8102C227.11 13.8502 226.98 13.8902 226.81 13.9302M224.65 17.5702C225.21 17.5702 225.74 17.5002 226.22 17.3702C226.71 17.2402 227.12 17.0102 227.45 16.7002C227.78 16.3902 228.05 15.9802 228.24 15.4802C228.43 14.9802 228.53 14.3402 228.53 13.5802C228.53 12.5502 228.29 11.8102 227.83 11.3502C227.36 10.8902 226.8 10.6602 226.14 10.6602C225.48 10.6602 224.89 10.8902 224.44 11.3602C223.99 11.8302 223.76 12.4302 223.76 13.1502C223.76 13.8102 223.97 14.3302 224.38 14.7102C224.8 15.0902 225.33 15.2802 225.97 15.2802C226.36 15.2802 226.7 15.2302 226.99 15.1202C226.85 15.4202 226.6 15.6802 226.23 15.9002C225.86 16.1202 225.33 16.2202 224.64 16.2202C224.52 16.2202 224.31 16.2102 224.02 16.1902C223.72 16.1702 223.44 16.1302 223.17 16.0802V17.4102C223.38 17.4602 223.61 17.5102 223.88 17.5302C224.15 17.5602 224.4 17.5702 224.64 17.5702" fill="#415364"/>
<path d="M192.76 32.5C192.4 32.94 191.9 33.16 191.24 33.16C190.71 33.16 190.18 33.05 189.65 32.84C189.12 32.62 188.6 32.36 188.08 32.05C188.46 30.75 188.9 29.8 189.42 29.18C189.93 28.57 190.51 28.24 191.14 28.19C191.52 28.19 191.84 28.26 192.12 28.41C192.4 28.56 192.62 28.75 192.8 29C192.98 29.25 193.11 29.52 193.18 29.83C193.26 30.13 193.29 30.44 193.29 30.75C193.29 31.47 193.11 32.06 192.76 32.5ZM239.45 32.93H234.58C233.34 32.93 232.47 32.68 231.97 32.19C231.47 31.7 231.22 31.04 231.22 30.22C231.22 29.49 231.48 28.86 232 28.34C232.52 27.82 233.38 27.56 234.59 27.56C234.86 27.56 235.33 27.61 236.01 27.71C236.69 27.81 237.35 27.92 237.98 28.03V24.37C237.63 24.23 237.13 24.09 236.46 23.94C235.79 23.79 235.12 23.72 234.45 23.72C233.63 23.72 232.81 23.85 232 24.11C231.19 24.37 230.45 24.76 229.79 25.29C229.13 25.82 228.6 26.49 228.19 27.29C227.78 28.09 227.57 29.04 227.57 30.11C227.57 30.5 227.62 30.97 227.72 31.52C227.82 32.07 227.98 32.53 228.18 32.91H200.01C199.5 32.91 198.97 32.82 198.42 32.63C197.87 32.44 197.46 32.09 197.19 31.59C197.19 31.47 197.19 31.35 197.19 31.23C197.19 31.11 197.19 30.98 197.19 30.82C197.19 29.89 197.05 29.04 196.76 28.25C196.47 27.47 196.08 26.8 195.58 26.25C195.08 25.7 194.48 25.27 193.78 24.95C193.08 24.64 192.33 24.48 191.53 24.48C190.97 24.48 190.39 24.56 189.81 24.72C189.22 24.88 188.64 25.18 188.05 25.62C187.47 26.06 186.92 26.67 186.41 27.46C185.9 28.24 185.42 29.26 184.99 30.51C184.7 31.3 184.41 31.89 184.12 32.3C183.83 32.71 183.41 32.91 182.86 32.91H155.6H155.03C154.54 32.91 154.17 32.82 153.92 32.63C153.67 32.44 153.54 31.99 153.54 31.26V14.46H149.53V31.83C149.53 32.71 149.65 33.46 149.89 34.06C150.13 34.66 150.46 35.14 150.88 35.49C151.3 35.85 151.81 36.1 152.39 36.26C152.97 36.42 153.62 36.49 154.31 36.49H155.61H183.15C183.81 36.49 184.42 36.43 184.98 36.3C185.54 36.18 186.09 35.82 186.62 35.22C187.55 35.81 188.43 36.23 189.26 36.48C190.09 36.73 190.92 36.85 191.75 36.85C192.85 36.85 193.76 36.64 194.47 36.23C195.18 35.82 195.75 35.25 196.19 34.53C196.64 35.19 197.2 35.68 197.86 35.99C198.44 36.27 199.08 36.42 199.77 36.45C199.85 36.45 199.93 36.46 200.01 36.46H239.46V32.9L239.45 32.93Z" fill="#415364"/>
<path d="M248.85 35.38C249.34 35.77 250 36.05 250.82 36.23C251.65 36.41 252.67 36.5 253.89 36.5H272.35V14.46H268.32V32.93H255.03C254.33 32.93 253.75 32.91 253.3 32.87C252.85 32.83 252.49 32.74 252.22 32.6C251.96 32.46 251.77 32.27 251.66 32.03C251.55 31.79 251.5 31.47 251.5 31.06V26.51H247.47V31.59C247.47 32.47 247.58 33.23 247.79 33.85C248.01 34.47 248.36 34.98 248.85 35.36" fill="#415364"/>
<path d="M263.36 25.39H261.73C261.23 25.39 260.9 25.29 260.72 25.08C260.54 24.87 260.45 24.64 260.45 24.37C260.45 24.1 260.54 23.87 260.72 23.69C260.9 23.51 261.18 23.42 261.57 23.42C261.8 23.42 262.18 23.48 262.72 23.6V21.56C262.51 21.48 262.28 21.41 262.01 21.35C261.74 21.29 261.44 21.25 261.1 21.25C260.76 21.25 260.41 21.31 260.08 21.44C259.75 21.56 259.44 21.75 259.17 21.98C258.9 22.22 258.69 22.52 258.53 22.88C258.37 23.24 258.3 23.66 258.3 24.13C258.3 24.29 258.32 24.5 258.36 24.77C258.4 25.03 258.47 25.24 258.57 25.39H257.31V27.54H263.36V25.39Z" fill="#415364"/>
<path d="M325.07 32.5C324.71 32.94 324.21 33.16 323.55 33.16C323.02 33.16 322.49 33.05 321.96 32.84C321.43 32.62 320.91 32.36 320.39 32.05C320.77 30.75 321.21 29.8 321.73 29.18C322.24 28.57 322.82 28.24 323.45 28.19C323.83 28.19 324.15 28.26 324.43 28.41C324.7 28.56 324.93 28.75 325.11 29C325.29 29.25 325.41 29.52 325.49 29.83C325.57 30.13 325.6 30.44 325.6 30.75C325.6 31.47 325.42 32.06 325.07 32.5ZM383.13 32.93H381.22C380 32.93 379.39 32.22 379.39 30.81V25.57H375.38V31.46C375.38 32.09 375.17 32.49 374.75 32.67C374.33 32.85 373.82 32.94 373.21 32.94C372.45 32.94 371.9 32.75 371.54 32.37C371.18 31.99 371.01 31.47 371.01 30.82V25.58H367.06V31.47C367.06 31.83 367.02 32.1 366.93 32.3C366.84 32.49 366.71 32.64 366.52 32.75C366.33 32.85 366.09 32.91 365.8 32.93C365.51 32.95 365.14 32.95 364.68 32.95H332.33C331.82 32.95 331.29 32.86 330.74 32.67C330.19 32.48 329.78 32.13 329.51 31.63C329.51 31.51 329.51 31.39 329.51 31.27C329.51 31.15 329.51 31.02 329.51 30.86C329.51 29.93 329.37 29.08 329.08 28.29C328.79 27.51 328.4 26.84 327.9 26.29C327.4 25.74 326.8 25.31 326.09 24.99C325.39 24.68 324.64 24.52 323.84 24.52C323.28 24.52 322.7 24.6 322.12 24.76C321.53 24.92 320.95 25.22 320.36 25.66C319.78 26.1 319.23 26.71 318.72 27.5C318.21 28.28 317.74 29.3 317.3 30.55C317.01 31.34 316.72 31.93 316.43 32.34C316.14 32.75 315.72 32.95 315.17 32.95H282.73H282.16C281.67 32.95 281.3 32.86 281.05 32.67C280.8 32.48 280.67 32.03 280.67 31.3V14.46H276.66V31.83C276.66 32.71 276.78 33.46 277.02 34.06C277.26 34.66 277.59 35.14 278.01 35.49C278.43 35.85 278.94 36.1 279.52 36.26C280.11 36.42 280.75 36.49 281.44 36.49H282.74H315.46C316.12 36.49 316.73 36.43 317.29 36.3C317.85 36.18 318.4 35.82 318.92 35.22C319.85 35.81 320.73 36.23 321.56 36.48C322.39 36.73 323.22 36.85 324.05 36.85C325.15 36.85 326.06 36.64 326.77 36.23C327.48 35.82 328.05 35.25 328.49 34.53C328.94 35.19 329.5 35.68 330.16 35.99C330.74 36.27 331.38 36.42 332.07 36.45C332.15 36.45 332.23 36.46 332.31 36.46H364.61C365.98 36.46 367.11 36.37 367.99 36.19C368.88 36.01 369.6 35.57 370.16 34.85C370.46 35.24 370.97 35.6 371.68 35.94C372.39 36.28 373.27 36.45 374.32 36.45C374.65 36.45 375 36.44 375.36 36.42C375.72 36.4 376.08 36.34 376.45 36.23C376.82 36.13 377.18 35.97 377.54 35.75C377.89 35.53 378.22 35.23 378.52 34.84C378.91 35.4 379.38 35.81 379.95 36.06C380.51 36.31 381.33 36.44 382.41 36.44H387.15V24.15H383.14V32.88L383.13 32.93Z" fill="#415364"/>
<path d="M395.27 14.46H391.29V36.49H395.27V14.46Z" fill="#415364"/>
<path d="M396.06 10.4298H394.44C393.94 10.4298 393.61 10.3398 393.44 10.1498C393.27 9.9598 393.18 9.7198 393.18 9.4298C393.18 9.1598 393.27 8.9298 393.44 8.7498C393.61 8.5698 393.9 8.4698 394.3 8.4698C394.52 8.4698 394.89 8.5298 395.42 8.6698V6.6298C395.23 6.5398 394.99 6.4698 394.72 6.3998C394.45 6.3398 394.15 6.2998 393.83 6.2998C393.47 6.2998 393.13 6.3598 392.79 6.4898C392.45 6.6198 392.15 6.7998 391.88 7.0298C391.62 7.2598 391.41 7.5598 391.25 7.9198C391.09 8.2798 391.01 8.6998 391.01 9.1698C391.01 9.3298 391.03 9.5398 391.07 9.8098C391.11 10.0698 391.18 10.2798 391.28 10.4198H390.05V12.6098H396.06V10.4198V10.4298Z" fill="#415364"/>
<path d="M412.72 19.5296C413.32 19.5296 413.84 19.3096 414.27 18.8796C414.7 18.4496 414.92 17.9296 414.92 17.3296C414.92 16.7296 414.7 16.2196 414.27 15.7896C413.84 15.3596 413.32 15.1396 412.72 15.1396C412.12 15.1396 411.63 15.3596 411.19 15.7896C410.75 16.2196 410.53 16.7296 410.53 17.3296C410.53 17.9296 410.75 18.4496 411.19 18.8796C411.63 19.3096 412.14 19.5296 412.72 19.5296Z" fill="#415364"/>
<path d="M407.7 19.5296C408.29 19.5296 408.81 19.3096 409.24 18.8796C409.67 18.4496 409.89 17.9296 409.89 17.3296C409.89 16.7296 409.67 16.2196 409.24 15.7896C408.81 15.3596 408.3 15.1396 407.7 15.1396C407.1 15.1396 406.59 15.3596 406.16 15.7896C405.73 16.2196 405.51 16.7296 405.51 17.3296C405.51 17.9296 405.73 18.4496 406.16 18.8796C406.59 19.3096 407.1 19.5296 407.7 19.5296Z" fill="#415364"/>
<path d="M447.14 43.2095C447.57 42.7795 447.79 42.2695 447.79 41.6695C447.79 41.0695 447.57 40.5595 447.14 40.1295C446.71 39.6995 446.19 39.4795 445.59 39.4795C444.99 39.4795 444.48 39.6995 444.05 40.1295C443.62 40.5595 443.4 41.0695 443.4 41.6695C443.4 42.2695 443.62 42.7795 444.05 43.2095C444.48 43.6395 444.99 43.8595 445.59 43.8595C446.19 43.8595 446.71 43.6395 447.14 43.2095Z" fill="#415364"/>
<path d="M440.57 43.8595C441.16 43.8595 441.68 43.6395 442.11 43.2095C442.54 42.7795 442.76 42.2695 442.76 41.6695C442.76 41.0695 442.54 40.5595 442.11 40.1295C441.68 39.6995 441.17 39.4795 440.57 39.4795C439.97 39.4795 439.45 39.6995 439.02 40.1295C438.59 40.5595 438.37 41.0695 438.37 41.6695C438.37 42.2695 438.59 42.7795 439.02 43.2095C439.45 43.6395 439.97 43.8595 440.57 43.8595Z" fill="#415364"/>
<path d="M524.82 21.0697C525.41 21.0697 525.93 20.8497 526.36 20.4197C526.79 19.9897 527.01 19.4797 527.01 18.8797C527.01 18.2797 526.79 17.7597 526.36 17.3297C525.93 16.8997 525.42 16.6797 524.82 16.6797C524.22 16.6797 523.7 16.8997 523.27 17.3297C522.84 17.7597 522.62 18.2797 522.62 18.8797C522.62 19.4797 522.84 19.9897 523.27 20.4197C523.7 20.8497 524.22 21.0697 524.82 21.0697Z" fill="#415364"/>
<path d="M480.75 32.4997C480.39 32.9397 479.89 33.1597 479.23 33.1597C478.7 33.1597 478.17 33.0497 477.64 32.8397C477.11 32.6197 476.59 32.3597 476.07 32.0497C476.45 30.7497 476.89 29.7997 477.41 29.1797C477.92 28.5597 478.5 28.2397 479.13 28.1897C479.51 28.1897 479.83 28.2597 480.11 28.4097C480.39 28.5597 480.61 28.7497 480.79 28.9997C480.97 29.2497 481.1 29.5197 481.17 29.8297C481.24 30.1397 481.28 30.4397 481.28 30.7497C481.28 31.4697 481.1 32.0597 480.75 32.4997ZM411.18 30.5397C410.89 30.6497 410.61 30.7097 410.33 30.7297C410.05 30.7497 409.78 30.7497 409.51 30.7497C409.08 30.7497 408.72 30.6797 408.45 30.5297C408.18 30.3797 407.95 30.1997 407.79 29.9897C407.62 29.7697 407.51 29.5297 407.45 29.2497C407.39 28.9697 407.36 28.7197 407.36 28.4797C407.36 27.8097 407.55 27.2797 407.93 26.8797C408.31 26.4797 408.89 26.2797 409.65 26.2797H411.17V30.5397H411.18ZM522.86 36.4497C523.28 36.4197 523.69 36.3497 524.08 36.2497C524.47 36.1497 524.84 35.9897 525.19 35.7697C525.54 35.5497 525.83 35.2697 526.08 34.9297C526.46 35.5897 526.92 36.0197 527.47 36.2097C528.02 36.3997 528.6 36.4997 529.2 36.4997H552.35V24.2097H548.29V32.9397H529.2C528.21 32.9397 527.57 32.7797 527.28 32.4497C526.99 32.1297 526.85 31.5797 526.85 30.8097V24.1997H522.84V31.1497C522.84 31.9097 522.7 32.3897 522.42 32.6097C522.14 32.8297 521.65 32.9297 520.96 32.9297H488C487.49 32.9297 486.96 32.8397 486.41 32.6497C485.86 32.4597 485.45 32.1097 485.18 31.6097C485.18 31.4897 485.18 31.3697 485.18 31.2497C485.18 31.1297 485.18 30.9997 485.18 30.8397C485.18 29.9097 485.04 29.0597 484.75 28.2697C484.46 27.4897 484.07 26.8197 483.57 26.2697C483.07 25.7197 482.47 25.2897 481.77 24.9697C481.07 24.6597 480.32 24.4997 479.52 24.4997C478.96 24.4997 478.38 24.5797 477.8 24.7397C477.21 24.8997 476.63 25.1997 476.04 25.6397C475.46 26.0797 474.91 26.6897 474.4 27.4797C473.89 28.2597 473.42 29.2797 472.98 30.5297C472.69 31.3197 472.4 31.9097 472.11 32.3197C471.82 32.7297 471.4 32.9297 470.85 32.9297H448.77C447.79 32.9297 447.09 32.7697 446.69 32.4397C446.29 32.1197 446.08 31.5697 446.08 30.7997V24.1897H442.08V31.1397C442.08 31.8997 441.94 32.3797 441.65 32.5997C441.36 32.8197 440.87 32.9197 440.18 32.9197H416.24C415.79 32.9197 415.5 32.8397 415.37 32.6697C415.25 32.4997 415.18 32.1797 415.18 31.7097V22.4697H409.93C409.19 22.4697 408.43 22.5797 407.66 22.7897C406.89 23.0097 406.2 23.3597 405.56 23.8597C404.93 24.3597 404.41 24.9997 404.01 25.7797C403.61 26.5597 403.41 27.5197 403.41 28.6497C403.41 29.7797 403.62 30.7297 404.04 31.4697C404.46 32.1997 404.98 32.7797 405.59 33.1897C406.2 33.5997 406.84 33.8797 407.52 34.0397C408.2 34.1997 408.79 34.2697 409.3 34.2697C409.67 34.2697 410.04 34.2397 410.41 34.1897C410.78 34.1397 411.15 34.0697 411.5 33.9797C411.66 34.4997 411.89 34.9197 412.19 35.2397C412.49 35.5597 412.83 35.8197 413.22 35.9997C413.61 36.1797 414.03 36.3097 414.5 36.3797C414.96 36.4497 415.44 36.4797 415.94 36.4797H440.81C441.22 36.4797 441.64 36.4597 442.06 36.4297C442.49 36.3997 442.89 36.3297 443.27 36.2297C443.65 36.1297 444.02 35.9697 444.37 35.7497C444.72 35.5297 445.03 35.2497 445.28 34.9097C445.45 35.2297 445.68 35.4997 445.96 35.6997C446.24 35.9097 446.53 36.0697 446.84 36.1897C447.15 36.3097 447.47 36.3897 447.8 36.4297C448.13 36.4697 448.44 36.4897 448.73 36.4897H471.09C471.75 36.4897 472.36 36.4297 472.92 36.2997C473.48 36.1797 474.03 35.8197 474.55 35.2197C475.48 35.8097 476.36 36.2297 477.19 36.4797C478.02 36.7297 478.85 36.8497 479.68 36.8497C480.78 36.8497 481.69 36.6397 482.4 36.2297C483.11 35.8197 483.68 35.2497 484.12 34.5297C484.57 35.1897 485.13 35.6797 485.79 35.9897C486.37 36.2697 487.01 36.4197 487.7 36.4497C487.78 36.4497 487.86 36.4597 487.94 36.4597H521.56C521.97 36.4597 522.39 36.4397 522.81 36.4097" fill="#415364"/>
<path d="M547.14 21.0697C547.73 21.0697 548.25 20.8497 548.69 20.4197C549.13 19.9897 549.35 19.4797 549.35 18.8797C549.35 18.2797 549.13 17.7597 548.69 17.3297C548.25 16.8997 547.74 16.6797 547.14 16.6797C546.54 16.6797 546.03 16.8997 545.6 17.3297C545.17 17.7597 544.95 18.2797 544.95 18.8797C544.95 19.4797 545.17 19.9897 545.6 20.4197C546.03 20.8497 546.54 21.0697 547.14 21.0697Z" fill="#415364"/>
<path d="M553.71 17.3297C553.28 16.8997 552.77 16.6797 552.17 16.6797C551.57 16.6797 551.06 16.8997 550.63 17.3297C550.2 17.7597 549.98 18.2797 549.98 18.8797C549.98 19.4797 550.2 19.9897 550.63 20.4197C551.06 20.8497 551.57 21.0697 552.17 21.0697C552.77 21.0697 553.28 20.8497 553.71 20.4197C554.14 19.9897 554.36 19.4797 554.36 18.8797C554.36 18.2797 554.14 17.7597 553.71 17.3297Z" fill="#415364"/>
</g>
<defs>
<clipPath id="clip0_2060_764">
<rect width="554.36" height="86.31" fill="white"/>
</clipPath>
</defs>
</svg>
