<svg xmlns="http://www.w3.org/2000/svg" width="1111" height="533.063" viewBox="0 0 1111 533.063">
  <g id="Group_2190" data-name="Group 2190" transform="translate(4403.54 8763.984)">
    <g id="Group_2189" data-name="Group 2189" transform="translate(-4262.505 -8763.984)">
      <g id="Group_2152" data-name="Group 2152" transform="translate(0 0)">
        <rect id="Rectangle_749" data-name="Rectangle 749" width="827.856" height="0.379" transform="translate(0 476.941)" fill="#ebebeb"/>
        <rect id="Rectangle_750" data-name="Rectangle 750" width="50.186" height="0.379" transform="translate(79.484 491.371)" fill="#ebebeb"/>
        <rect id="Rectangle_751" data-name="Rectangle 751" width="52.273" height="0.379" transform="translate(242.144 487.259)" fill="#ebebeb"/>
        <rect id="Rectangle_752" data-name="Rectangle 752" width="83.968" height="0.379" transform="translate(127.303 498.686)" fill="#ebebeb"/>
        <rect id="Rectangle_753" data-name="Rectangle 753" width="65.445" height="0.379" transform="translate(684.884 500.075)" fill="#ebebeb"/>
        <rect id="Rectangle_754" data-name="Rectangle 754" width="34.702" height="0.379" transform="translate(615.825 490.605)" fill="#ebebeb"/>
        <rect id="Rectangle_755" data-name="Rectangle 755" width="141.935" height="0.379" transform="translate(330.25 496.687)" fill="#ebebeb"/>
        <path id="Path_30092" data-name="Path 30092" d="M339.434,483.515H46.856a8.659,8.659,0,0,1-8.649-8.649V63.6a8.658,8.658,0,0,1,8.649-8.647H339.434a8.658,8.658,0,0,1,8.647,8.647V474.866A8.659,8.659,0,0,1,339.434,483.515ZM46.856,55.332a8.278,8.278,0,0,0-8.27,8.268V474.866a8.278,8.278,0,0,0,8.27,8.27H339.434a8.278,8.278,0,0,0,8.268-8.27V63.6a8.278,8.278,0,0,0-8.268-8.268Z" transform="translate(19.683 -54.953)" fill="#ebebeb"/>
        <path id="Path_30093" data-name="Path 30093" d="M555.729,483.515H263.152a8.658,8.658,0,0,1-8.647-8.649V63.6a8.657,8.657,0,0,1,8.647-8.647H555.729a8.658,8.658,0,0,1,8.65,8.647V474.866A8.66,8.66,0,0,1,555.729,483.515ZM263.152,55.332a8.278,8.278,0,0,0-8.268,8.268V474.866a8.278,8.278,0,0,0,8.268,8.27H555.729a8.28,8.28,0,0,0,8.271-8.27V63.6a8.279,8.279,0,0,0-8.271-8.268Z" transform="translate(201.384 -54.953)" fill="#ebebeb"/>
      </g>
      <g id="Group_2161" data-name="Group 2161" transform="translate(-53.695 75.753)">
        <g id="Group_2154" data-name="Group 2154" transform="translate(244.083 287.983)">
          <rect id="Rectangle_756" data-name="Rectangle 756" width="82.031" height="4.697" transform="translate(0 108.508)" fill="#e0e0e0"/>
          <path id="Path_30094" data-name="Path 30094" d="M178.509,313.605,155.841,416.193h60.08L193.252,313.605C191.508,305.711,180.253,305.711,178.509,313.605Z" transform="translate(-144.865 -307.685)" fill="#e0e0e0"/>
          <g id="Group_2153" data-name="Group 2153" transform="translate(19.479 26.287)">
            <path id="Path_30095" data-name="Path 30095" d="M193.535,325.034H169.781l-5.742,26h35.239Z" transform="translate(-160.122 -325.034)" fill="#f5f5f5"/>
            <path id="Path_30096" data-name="Path 30096" d="M201.614,345.211H164.365l-2.912,13.16h43.072Z" transform="translate(-161.453 -314.639)" fill="#f5f5f5"/>
          </g>
        </g>
        <g id="Group_2156" data-name="Group 2156" transform="translate(75.017 200.581)">
          <path id="Path_30097" data-name="Path 30097" d="M72.517,450.606H84.709L120.582,250H108.39Z" transform="translate(-72.517 -250)" fill="#e0e0e0"/>
          <path id="Path_30098" data-name="Path 30098" d="M283.155,450.606h12.193L331.221,250H319.028Z" transform="translate(35.999 -250)" fill="#e0e0e0"/>
          <g id="Group_2155" data-name="Group 2155" transform="translate(0 9.765)">
            <rect id="Rectangle_757" data-name="Rectangle 757" width="403.092" height="72.904" fill="#ebebeb"/>
            <path id="Path_30099" data-name="Path 30099" d="M115.568,325.039H73.781l23.178-66.472h41.787Z" transform="translate(-71.865 -255.352)" fill="#fafafa"/>
            <path id="Path_30100" data-name="Path 30100" d="M170.726,325.039H128.939l23.178-66.472H193.9Z" transform="translate(-43.449 -255.352)" fill="#fafafa"/>
            <path id="Path_30101" data-name="Path 30101" d="M225.884,325.039H184.1l23.178-66.472h41.787Z" transform="translate(-15.033 -255.352)" fill="#fafafa"/>
            <path id="Path_30102" data-name="Path 30102" d="M281.042,325.039H239.255l23.178-66.472H304.22Z" transform="translate(13.382 -255.352)" fill="#fafafa"/>
            <path id="Path_30103" data-name="Path 30103" d="M336.2,325.039H294.413l23.178-66.472h41.787Z" transform="translate(41.798 -255.352)" fill="#fafafa"/>
          </g>
          <path id="Path_30104" data-name="Path 30104" d="M144.258,450.606H132.065L96.192,250h12.193Z" transform="translate(-60.32 -250)" fill="#e0e0e0"/>
          <path id="Path_30105" data-name="Path 30105" d="M354.9,450.606H342.7L306.831,250h12.193Z" transform="translate(48.196 -250)" fill="#e0e0e0"/>
        </g>
        <g id="Group_2158" data-name="Group 2158" transform="translate(749.731 255.361)">
          <rect id="Rectangle_758" data-name="Rectangle 758" width="107.577" height="6.159" transform="translate(0 139.667)" fill="#e0e0e0"/>
          <path id="Path_30106" data-name="Path 30106" d="M414.52,294.487,385.5,425.821h78.789l-29.02-131.334C432.814,283.377,416.975,283.377,414.52,294.487Z" transform="translate(-371.106 -286.154)" fill="#e0e0e0"/>
          <g id="Group_2157" data-name="Group 2157" transform="translate(25.546 31.842)">
            <path id="Path_30107" data-name="Path 30107" d="M434.932,307.17H403.78l-7.53,34.091h46.213Z" transform="translate(-391.114 -307.17)" fill="#f5f5f5"/>
            <path id="Path_30108" data-name="Path 30108" d="M445.527,333.63H396.678l-3.818,17.258h56.486Z" transform="translate(-392.86 -293.538)" fill="#f5f5f5"/>
          </g>
        </g>
        <g id="Group_2160" data-name="Group 2160" transform="translate(0 0)">
          <path id="Path_30109" data-name="Path 30109" d="M915.777,312.452v44.4c0,2.976-3.923,5.092-7.772,4.194L38.391,157.94c-2.482-.58-4.165-2.276-4.165-4.194v-44.4c0-2.974,3.923-5.091,7.772-4.192l869.614,203.1C914.091,308.838,915.777,310.535,915.777,312.452Z" transform="translate(-34.226 -104.949)" fill="#ebebeb"/>
          <g id="Group_2159" data-name="Group 2159" transform="translate(15.151 6.58)">
            <path id="Path_30110" data-name="Path 30110" d="M436.368,280.423,471.65,291.6l-19.57-53.058L416.8,227.366Z" transform="translate(379.598 -48.463)" fill="#fafafa"/>
            <path id="Path_30111" data-name="Path 30111" d="M389.8,265.664l35.282,11.181-19.57-53.057-35.282-11.181Z" transform="translate(355.605 -56.067)" fill="#fafafa"/>
            <path id="Path_30112" data-name="Path 30112" d="M343.225,250.9l35.282,11.181-19.57-53.057-35.282-11.181Z" transform="translate(273.642 -63.671)" fill="#fafafa"/>
            <path id="Path_30113" data-name="Path 30113" d="M296.653,236.145l35.282,11.182-19.57-53.058-35.282-11.181Z" transform="translate(220.664 -71.274)" fill="#fafafa"/>
            <path id="Path_30114" data-name="Path 30114" d="M250.082,221.386l35.282,11.181-19.57-53.057-35.282-11.181Z" transform="translate(167.686 -78.878)" fill="#fafafa"/>
            <path id="Path_30115" data-name="Path 30115" d="M203.51,206.627l35.282,11.181-19.57-53.058L183.94,153.57Z" transform="translate(114.708 -86.481)" fill="#fafafa"/>
            <path id="Path_30116" data-name="Path 30116" d="M156.939,191.868l35.282,11.181-19.57-53.058L137.369,138.81Z" transform="translate(61.73 -94.085)" fill="#fafafa"/>
            <path id="Path_30117" data-name="Path 30117" d="M110.367,177.109l35.282,11.181-19.57-53.057L90.8,124.051Z" transform="translate(-20.233 -101.688)" fill="#fafafa"/>
            <path id="Path_30118" data-name="Path 30118" d="M63.8,162.349l35.282,11.181-19.57-53.058L44.226,109.292Z" transform="translate(-44.226 -109.292)" fill="#fafafa"/>
          </g>
        </g>
      </g>
      <g id="Group_2166" data-name="Group 2166" transform="translate(389.916 4.973)">
        <path id="Path_30119" data-name="Path 30119" d="M332.41,568.1H314.939V60.767c0-2.738,17.471-2.738,17.471,0Z" transform="translate(-176.123 -57.988)" fill="#263238"/>
        <path id="Path_30120" data-name="Path 30120" d="M332.411,197.616l-17.473,3.521V176.97h17.473Z" transform="translate(-176.123 -3.902)"/>
        <g id="Group_2162" data-name="Group 2162">
          <rect id="Rectangle_759" data-name="Rectangle 759" width="282.192" height="174.413" rx="12" transform="matrix(0.997, 0.074, -0.074, 0.997, 13.911, 0.978)" fill="#fff"/>
          <path id="Path_30121" data-name="Path 30121" d="M488.947,255.05q-.766,0-1.536-.056L242.26,236.76a20.509,20.509,0,0,1-18.882-21.915l10.24-137.669a20.506,20.506,0,0,1,21.915-18.882l245.15,18.235a20.506,20.506,0,0,1,18.882,21.914l-10.238,137.67a20.516,20.516,0,0,1-20.381,18.937ZM254.006,62.784a15.97,15.97,0,0,0-15.855,14.731l-10.24,137.667A15.926,15.926,0,0,0,242.6,232.227L487.749,250.46a15.959,15.959,0,0,0,17.044-14.685l10.24-137.669a15.925,15.925,0,0,0-14.685-17.044L255.2,62.829Q254.6,62.784,254.006,62.784Z" transform="translate(-223.321 -58.235)" fill="#637aae"/>
        </g>
        <g id="Group_2164" data-name="Group 2164" transform="translate(66.359 24.958)">
          <g id="Group_2163" data-name="Group 2163">
            <path id="Path_30122" data-name="Path 30122" d="M297.917,125.221l-30.8-2.291,1.033-13.9,33.522-34.319,14.735,1.1-2.78,37.4,7.638.568-.976,13.117-7.638-.568-.846,11.373-14.735-1.1Zm.976-13.115,1.424-19.15-17.7,17.94Z" transform="translate(-267.118 -74.707)" fill="#59c4bc"/>
            <path id="Path_30123" data-name="Path 30123" d="M306.708,106.68Q308,89.33,314.761,82.863t19.547-5.517a28.564,28.564,0,0,1,9.973,2.265,18.684,18.684,0,0,1,6.141,4.421,21.069,21.069,0,0,1,3.544,5.4,26.688,26.688,0,0,1,1.838,6.418,58.556,58.556,0,0,1,.647,14.323q-1.232,16.562-7.406,23.823t-19.873,6.244q-7.68-.573-12.229-3.371a20.154,20.154,0,0,1-7.227-7.759,27.1,27.1,0,0,1-2.741-9.45A62.967,62.967,0,0,1,306.708,106.68Zm16.767,1.288q-.864,11.623.874,16.032t5.639,4.7a6.263,6.263,0,0,0,4.6-1.474,11.243,11.243,0,0,0,3.2-5.5,59.955,59.955,0,0,0,1.8-12.1q.9-12.121-.842-16.443t-5.855-4.63q-4.193-.311-6.376,3.8T323.475,107.968Z" transform="translate(-246.83 -73.41)" fill="#59c4bc"/>
            <path id="Path_30124" data-name="Path 30124" d="M361.929,98.141l-15.768-4.055a20.123,20.123,0,0,1,8.529-11.135q5.968-3.648,16.346-2.874,11.912.886,16.9,5.723a13.992,13.992,0,0,1,4.482,11.561,12.5,12.5,0,0,1-2.689,6.979,18.373,18.373,0,0,1-6.934,5.12,19.245,19.245,0,0,1,5.244,2.433,13.184,13.184,0,0,1,4.347,5.271,14.912,14.912,0,0,1,1.138,7.408,20.33,20.33,0,0,1-3.538,9.982,18.675,18.675,0,0,1-8.57,6.92q-5.425,2.245-13.935,1.612-8.3-.616-12.952-2.924a19.588,19.588,0,0,1-7.462-6.294,26.282,26.282,0,0,1-4.049-9.8l17.059-.985q.616,5.177,2.565,7.306a7.491,7.491,0,0,0,5.188,2.368,7.358,7.358,0,0,0,5.852-2.07,9.527,9.527,0,0,0,2.756-6.473,9.246,9.246,0,0,0-1.693-6.718A7.735,7.735,0,0,0,369,114.735a21.459,21.459,0,0,0-5.555.588l1.77-12.014a16.164,16.164,0,0,0,2.185.371,7.732,7.732,0,0,0,5.7-1.706,6.719,6.719,0,0,0,2.594-4.856,6.018,6.018,0,0,0-1.33-4.564,6.185,6.185,0,0,0-4.442-2A6.722,6.722,0,0,0,364.931,92Q362.929,93.664,361.929,98.141Z" transform="translate(-228.018 -72.01)" fill="#59c4bc"/>
            <path id="Path_30125" data-name="Path 30125" d="M272.788,123.813l23.516,1.749-.452,6.064-14.72-1.1-.336,4.514,13.656,1.015-.432,5.793-13.655-1.017-.417,5.6L295.1,147.56l-.477,6.43-23.943-1.78Z" transform="translate(-265.285 -49.409)" fill="#59c4bc"/>
            <path id="Path_30126" data-name="Path 30126" d="M289.674,153.623l2.111-28.4,14.626,1.086a21.284,21.284,0,0,1,6.165,1.162,6.63,6.63,0,0,1,3.274,2.842,8.033,8.033,0,0,1-3.314,11.273,10.537,10.537,0,0,1-3.165.9,5.946,5.946,0,0,1,3.5,2.817,11.028,11.028,0,0,1,1.1,1.855l3.638,8.544-9.915-.736-4.046-9.027a6.648,6.648,0,0,0-1.426-2.308,3.687,3.687,0,0,0-2.1-.82l-.774-.058-.856,11.526Zm10.07-16.237,3.7.276a13.252,13.252,0,0,0,2.355-.215,2.33,2.33,0,0,0,1.488-.783,2.883,2.883,0,0,0-.039-3.783,5.288,5.288,0,0,0-3.22-.979l-3.853-.288Z" transform="translate(-255.498 -48.681)" fill="#59c4bc"/>
            <path id="Path_30127" data-name="Path 30127" d="M310.04,155.137l2.112-28.4,14.623,1.088a21.306,21.306,0,0,1,6.167,1.162,6.636,6.636,0,0,1,3.274,2.842,8.037,8.037,0,0,1-3.314,11.273,10.537,10.537,0,0,1-3.165.9,8.8,8.8,0,0,1,2.206,1.217,8.989,8.989,0,0,1,1.292,1.6,11.093,11.093,0,0,1,1.1,1.856l3.639,8.544-9.917-.738-4.044-9.027a6.657,6.657,0,0,0-1.426-2.306,3.685,3.685,0,0,0-2.1-.82l-.774-.058-.858,11.526ZM320.108,138.9l3.7.274a13.033,13.033,0,0,0,2.353-.214,2.33,2.33,0,0,0,1.489-.783,2.883,2.883,0,0,0-.039-3.783,5.29,5.29,0,0,0-3.22-.98l-3.853-.286Z" transform="translate(-245.006 -47.901)" fill="#59c4bc"/>
            <path id="Path_30128" data-name="Path 30128" d="M329.87,142.2q.518-6.955,4.679-10.538t11.077-3.073q7.089.525,10.641,4.618t3.042,10.949a17.523,17.523,0,0,1-2.282,8.041,11.99,11.99,0,0,1-5.211,4.6,16.016,16.016,0,0,1-8.026,1.185,18.2,18.2,0,0,1-7.838-2.121,12,12,0,0,1-4.744-5.223A16.122,16.122,0,0,1,329.87,142.2Zm8.771.691q-.318,4.3,1.139,6.3a6.067,6.067,0,0,0,8.723.688q1.686-1.723,2.041-6.49.3-4.011-1.182-5.98a5.547,5.547,0,0,0-4.25-2.177,5.345,5.345,0,0,0-4.4,1.564Q338.964,138.549,338.642,142.887Z" transform="translate(-234.824 -46.984)" fill="#59c4bc"/>
            <path id="Path_30129" data-name="Path 30129" d="M351.768,158.241l2.111-28.4L368.5,130.93a21.286,21.286,0,0,1,6.165,1.162,6.63,6.63,0,0,1,3.274,2.842,8.04,8.04,0,0,1-3.314,11.274,10.54,10.54,0,0,1-3.165.894,8.849,8.849,0,0,1,2.206,1.217,9.005,9.005,0,0,1,1.292,1.6,11.238,11.238,0,0,1,1.1,1.855l3.638,8.544-9.915-.736-4.046-9.027a6.649,6.649,0,0,0-1.426-2.308,3.687,3.687,0,0,0-2.1-.82l-.774-.058L360.58,158.9ZM361.838,142l3.7.276a13.254,13.254,0,0,0,2.355-.215,2.324,2.324,0,0,0,1.488-.782,2.885,2.885,0,0,0-.039-3.785,5.286,5.286,0,0,0-3.218-.979l-3.855-.288Z" transform="translate(-223.509 -46.302)" fill="#59c4bc"/>
          </g>
        </g>
        <g id="Group_2165" data-name="Group 2165" transform="translate(44.591 135.1)">
          <path id="Path_30130" data-name="Path 30130" d="M252.751,172.154l1.927-25.912,17.479,1.3-.227,3.056-14.052-1.044-.6,8.024,12.161.9-.227,3.061-12.161-.9-.876,11.771Z" transform="translate(-252.751 -146.242)" fill="#263238"/>
          <path id="Path_30131" data-name="Path 30131" d="M267.173,160.416q.48-6.452,4.215-9.844a11.816,11.816,0,0,1,9.215-2.983,12.424,12.424,0,0,1,6.341,2.2,11.219,11.219,0,0,1,4.036,5.108,15.582,15.582,0,0,1,.994,7.067,15.3,15.3,0,0,1-2.115,6.933A10.865,10.865,0,0,1,285,173.266a12.909,12.909,0,0,1-6.411,1.133,12.32,12.32,0,0,1-6.409-2.255,11.411,11.411,0,0,1-4.006-5.15A14.658,14.658,0,0,1,267.173,160.416Zm3.53.315a10.416,10.416,0,0,0,1.97,7.567,8.812,8.812,0,0,0,12.693.918q2.7-2.536,3.076-7.538a13.357,13.357,0,0,0-.658-5.6,8.257,8.257,0,0,0-2.858-3.892,8.517,8.517,0,0,0-4.524-1.644,8.8,8.8,0,0,0-6.453,2.036Q271.139,154.884,270.7,160.731Z" transform="translate(-245.343 -145.571)" fill="#263238"/>
          <path id="Path_30132" data-name="Path 30132" d="M285.844,174.615l1.927-25.912,11.488.856a15.36,15.36,0,0,1,5.215,1.088,5.8,5.8,0,0,1,2.7,2.68,7.385,7.385,0,0,1,.788,3.986,6.537,6.537,0,0,1-2.132,4.517,9.068,9.068,0,0,1-5.692,1.994,8.957,8.957,0,0,1,1.971,1.442,17.953,17.953,0,0,1,2.591,3.659l3.982,7.388-4.314-.321-3.027-5.646q-1.33-2.445-2.209-3.755a7.809,7.809,0,0,0-1.612-1.862,5.166,5.166,0,0,0-1.514-.806,10.44,10.44,0,0,0-1.9-.267l-3.977-.3-.856,11.508Zm4.5-14.221,7.371.548a11.188,11.188,0,0,0,3.712-.211,3.946,3.946,0,0,0,2.132-1.408,4.22,4.22,0,0,0,.861-2.273,3.875,3.875,0,0,0-1.108-3.121,6.261,6.261,0,0,0-4.129-1.5l-8.2-.611Z" transform="translate(-235.702 -144.974)" fill="#263238"/>
          <path id="Path_30133" data-name="Path 30133" d="M302.968,175.888l1.927-25.911,9.721.723a12.086,12.086,0,0,1,4.706,1.141,6.165,6.165,0,0,1,2.63,2.63,6.4,6.4,0,0,1,.761,3.5,5.882,5.882,0,0,1-1.133,3.059,6.455,6.455,0,0,1-2.9,2.168,6.785,6.785,0,0,1,3.439,2.618,6.324,6.324,0,0,1,.973,4.018,7.585,7.585,0,0,1-1.021,3.327,6.566,6.566,0,0,1-2.079,2.271,7.978,7.978,0,0,1-2.932,1.071,17.367,17.367,0,0,1-4.214.123Zm3.658-2.8,6.45.479a14.626,14.626,0,0,0,2.342.048,5.668,5.668,0,0,0,2.032-.559,3.747,3.747,0,0,0,1.415-1.344,4.5,4.5,0,0,0,.676-2.146,4.319,4.319,0,0,0-.555-2.573,3.953,3.953,0,0,0-1.949-1.658,12.9,12.9,0,0,0-3.759-.712l-5.991-.445Zm.889-11.967,5.6.415a12.42,12.42,0,0,0,3.291-.058,3.638,3.638,0,0,0,2.068-1.141,3.746,3.746,0,0,0,.83-2.215,4.2,4.2,0,0,0-.448-2.318,3.145,3.145,0,0,0-1.668-1.473,14.78,14.78,0,0,0-3.915-.658l-5.177-.385Z" transform="translate(-226.881 -144.318)" fill="#263238"/>
          <path id="Path_30134" data-name="Path 30134" d="M319.382,177.109l1.927-25.912,3.429.256-1.927,25.913Z" transform="translate(-218.425 -143.689)" fill="#263238"/>
          <path id="Path_30135" data-name="Path 30135" d="M325.634,177.574l1.927-25.912,8.926.665a21.655,21.655,0,0,1,4.585.714,8.833,8.833,0,0,1,3.662,2.138,10.564,10.564,0,0,1,2.736,4.658,17.39,17.39,0,0,1,.559,6.233,18.163,18.163,0,0,1-1.079,5.182,12.728,12.728,0,0,1-2.047,3.641,9.418,9.418,0,0,1-2.535,2.176,9.688,9.688,0,0,1-3.189,1.071,17.882,17.882,0,0,1-4.2.13Zm3.656-2.8,5.532.411a13.418,13.418,0,0,0,4.058-.18,5.767,5.767,0,0,0,2.423-1.168,8.207,8.207,0,0,0,2.144-3.138,16.045,16.045,0,0,0,1.053-4.943,12.109,12.109,0,0,0-.87-6.349,6.745,6.745,0,0,0-3.026-3.165,13.46,13.46,0,0,0-4.4-.862l-5.442-.4Z" transform="translate(-215.204 -143.45)" fill="#263238"/>
          <path id="Path_30136" data-name="Path 30136" d="M342.887,178.858l1.927-25.913,8.926.665a21.775,21.775,0,0,1,4.585.714,8.829,8.829,0,0,1,3.662,2.139,10.579,10.579,0,0,1,2.736,4.656,17.4,17.4,0,0,1,.558,6.233,18.1,18.1,0,0,1-1.077,5.182,12.726,12.726,0,0,1-2.048,3.641,9.391,9.391,0,0,1-2.533,2.176,9.7,9.7,0,0,1-3.189,1.071,17.8,17.8,0,0,1-4.2.13Zm3.656-2.8,5.532.412a13.406,13.406,0,0,0,4.056-.18,5.748,5.748,0,0,0,2.424-1.17,8.206,8.206,0,0,0,2.144-3.138,16.046,16.046,0,0,0,1.052-4.943,12.085,12.085,0,0,0-.87-6.347,6.735,6.735,0,0,0-3.026-3.167,13.49,13.49,0,0,0-4.4-.862l-5.444-.4Z" transform="translate(-206.315 -142.789)" fill="#263238"/>
          <path id="Path_30137" data-name="Path 30137" d="M360.186,180.145l1.927-25.913,18.735,1.394-.229,3.058-15.306-1.139-.589,7.936,14.335,1.067-.226,3.041L364.5,168.522l-.656,8.82,15.908,1.185-.227,3.056Z" transform="translate(-197.403 -142.126)" fill="#263238"/>
          <path id="Path_30138" data-name="Path 30138" d="M376.051,181.324l1.927-25.912,3.517.262,12.1,21.356,1.515-20.344,3.286.244-1.927,25.913-3.517-.261-12.1-21.376-1.515,20.362Z" transform="translate(-189.23 -141.518)" fill="#263238"/>
        </g>
      </g>
      <g id="Group_2176" data-name="Group 2176" transform="translate(150.097 70.951)">
        <path id="Path_30139" data-name="Path 30139" d="M177.619,168.262l.5,2.971.576,3.161c.415,2.111.818,4.232,1.3,6.329.92,4.2,1.994,8.352,3.2,12.371.608,2.011,1.262,3.989,1.985,5.9.694,1.926,1.436,3.812,2.261,5.594A46.01,46.01,0,0,0,193,214.033l-4.15-2.721a6.059,6.059,0,0,0,3.468.8,15.246,15.246,0,0,0,5.656-1.676,40.021,40.021,0,0,0,6.511-4.024c1.088-.808,2.188-1.655,3.252-2.555.544-.441,1.076-.9,1.6-1.358.517-.43,1.1-.964,1.5-1.288l.815-.652a5.636,5.636,0,0,1,8.627,6.78c-.445.956-.762,1.67-1.165,2.467-.4.768-.806,1.527-1.233,2.277-.871,1.483-1.8,2.95-2.824,4.37a45.061,45.061,0,0,1-7.365,8.052,34.156,34.156,0,0,1-4.9,3.453,26.943,26.943,0,0,1-13.2,3.8,25.93,25.93,0,0,1-7.515-1.082,8.182,8.182,0,0,1-3.564-2.121l-.585-.6a59.619,59.619,0,0,1-9.838-13.577,95.318,95.318,0,0,1-6.258-14.191,131.339,131.339,0,0,1-4.2-14.391c-.55-2.417-1.076-4.832-1.494-7.276-.211-1.221-.421-2.445-.6-3.683-.179-1.28-.329-2.4-.494-3.9a11.36,11.36,0,0,1,22.49-3.158Z" transform="translate(-52.588 -76.722)" fill="#484848"/>
        <path id="Path_30140" data-name="Path 30140" d="M193.7,186.083c-3.2,1.011-6.946,4.714-5.767,9.05s14.141,7.617,14.562-.211C198.753,187.472,193.7,186.083,193.7,186.083Z" transform="translate(-35.725 -63.645)" fill="#fff"/>
        <path id="Path_30141" data-name="Path 30141" d="M190.708,190.889l1.379-2.106,14.152-3.826s2.064,9.017-8.164,12.45a2.838,2.838,0,0,1-2.2-.206l-4.074-2.124A2.919,2.919,0,0,1,190.708,190.889Z" transform="translate(-34.429 -64.143)" fill="#b55b52"/>
        <path id="Path_30142" data-name="Path 30142" d="M124.326,155.71c18.1-3.276,42.611-3.9,60.383-.865a17.625,17.625,0,0,1,14.611,18.879c-1.02,11.685-2.311,22-2.983,30.1.806,20.538-.945,54.875-.945,62.052l-75.283,1.065c-3.353-9.383-2.255-51.631-8.133-94.162A15.208,15.208,0,0,1,124.326,155.71Z" transform="translate(-74.819 -79.556)" fill="#484848"/>
        <path id="Path_30143" data-name="Path 30143" d="M146.106,258.484l-1.5-.189c4.276-33.716.039-90.2,0-90.766l1.511-.115C146.153,167.981,150.4,224.618,146.106,258.484Z" transform="translate(-57.937 -72.919)" opacity="0.2"/>
        <path id="Path_30144" data-name="Path 30144" d="M150.578,156.638c-2.968-.806-.294-3.865-.294-3.865s13.465,0,22.77,1.826c1.424,1.1-.109,2.5-.109,2.5S159.39,159.031,150.578,156.638Z" transform="translate(-55.578 -75.51)" fill="#59c4bc"/>
        <path id="Path_30145" data-name="Path 30145" d="M147.807,152.486s4.465,8.968-1.512,17.123c4.736.035,9.1,3.032,9.1,3.032s2.136-7.689-3.883-19.381C150.851,152.155,147.807,152.486,147.807,152.486Z" transform="translate(-57.063 -78.91)" opacity="0.2"/>
        <path id="Path_30146" data-name="Path 30146" d="M160,155.339c1.162,5.471-9,15.808-9,15.808s-17.978-9.424-19.114-14.834Z" transform="translate(-64.486 -77.568)" fill="#59c4bc"/>
        <path id="Path_30147" data-name="Path 30147" d="M122.547,172.367c1.974,3.809-.427,19.77-7.559,27.62-.474-6.932-1.056-14.185-1.821-21.576Z" transform="translate(-74.13 -69.988)" opacity="0.2"/>
        <path id="Path_30148" data-name="Path 30148" d="M133.819,136.815l20.375,9.771c-2.165,5.77-3.192,11.768,2.844,14.632a6.806,6.806,0,0,1,2.944,9.486,11.844,11.844,0,0,1-9.27,5.9c-7.071.706-14.041-3.833-18.1-8.1-1.674-1.762-.033-3.818.183-6.268C133.565,153.564,134.918,144.489,133.819,136.815Z" transform="translate(-64.494 -83.731)" fill="#b55b52"/>
        <path id="Path_30149" data-name="Path 30149" d="M140.11,138.1l10.987,7.817a27.163,27.163,0,0,0-1.432,4.955c-4.511,1.477-11.677-2.459-11.8-6.386C137.81,142.527,139.651,139.041,140.11,138.1Z" transform="translate(-61.404 -83.069)" opacity="0.2"/>
        <path id="Path_30150" data-name="Path 30150" d="M150.291,115.122c3.883,3.167,8.333,17.323,2.623,23.04C144.482,128.375,143.532,113.655,150.291,115.122Z" transform="translate(-57.304 -94.959)" fill="#263238"/>
        <path id="Path_30151" data-name="Path 30151" d="M129.483,132.394c1.539,12.079,1.826,19.232,8.365,25,9.838,8.682,24.462,2.011,26.567-10.317,1.9-11.1-.939-28.985-13.141-32.931A16.781,16.781,0,0,0,129.483,132.394Z" transform="translate(-65.797 -95.844)" fill="#b55b52"/>
        <path id="Path_30152" data-name="Path 30152" d="M132.692,144.042c5.721.427,7.715-13.42,4.144-21.252,2.488,1.03,9.565.02,11.541-3.232,11.414,3.252,15.687,3.315,17.152-1.4s-16.514-8.862-26.906-6.63-7.333,9.755-7.333,9.755S113.692,126.954,132.692,144.042Z" transform="translate(-68.617 -97.08)" fill="#263238"/>
        <path id="Path_30153" data-name="Path 30153" d="M127.308,136.144a11.42,11.42,0,0,0,6.718,5c3.527.845,4.749-2.7,3.314-6.261-1.291-3.2-4.682-7.5-8-6.75C126.064,128.876,125.317,133.008,127.308,136.144Z" transform="translate(-67.409 -88.247)" fill="#b55b52"/>
        <path id="Path_30154" data-name="Path 30154" d="M140.1,127.877c.065.988.641,1.75,1.288,1.7s1.117-.888,1.053-1.876-.641-1.75-1.288-1.7S140.036,126.889,140.1,127.877Z" transform="translate(-60.257 -89.303)" fill="#263238"/>
        <path id="Path_30155" data-name="Path 30155" d="M148.946,127.16c.065.988.641,1.75,1.288,1.7s1.118-.889,1.053-1.877-.641-1.749-1.286-1.7S148.882,126.172,148.946,127.16Z" transform="translate(-55.7 -89.673)" fill="#263238"/>
        <path id="Path_30156" data-name="Path 30156" d="M147.515,127.188s2.621,5.533,5.276,8.1c-1.642,1.762-4.665,1.238-4.665,1.238Z" transform="translate(-56.434 -88.69)" fill="#a02724"/>
        <path id="Path_30157" data-name="Path 30157" d="M145.391,122.482a.578.578,0,0,1-.292.958,5.836,5.836,0,0,1-5.208-1.148.574.574,0,0,1-.021-.818.588.588,0,0,1,.824-.024h0a4.656,4.656,0,0,0,4.132.865A.587.587,0,0,1,145.391,122.482Z" transform="translate(-60.456 -91.728)" fill="#263238"/>
        <path id="Path_30158" data-name="Path 30158" d="M145.178,124.613a.576.576,0,0,1-.006-1,5.826,5.826,0,0,1,5.311-.465.574.574,0,0,1,.267.774.588.588,0,0,1-.779.27h0a4.661,4.661,0,0,0-4.2.414A.586.586,0,0,1,145.178,124.613Z" transform="translate(-57.789 -90.993)" fill="#263238"/>
        <path id="Path_30159" data-name="Path 30159" d="M154.392,121.155a.576.576,0,0,1-.539-.106,4.566,4.566,0,0,0-4.065-1.011.577.577,0,0,1-.723-.383.587.587,0,0,1,.382-.729,5.72,5.72,0,0,1,5.149,1.221.586.586,0,0,1-.2,1.008Z" transform="translate(-55.649 -93.038)" fill="#263238"/>
        <g id="Group_2167" data-name="Group 2167" transform="translate(65.397 157.846)">
          <path id="Path_30160" data-name="Path 30160" d="M227.305,222.863h0a2.532,2.532,0,0,0-3.423-1.021l-18.537,10.017-8.759-16.209a2.525,2.525,0,0,0-4.444,2.4L200.9,234.26l-63.875,34.52a2.532,2.532,0,0,0-1.021,3.423h0a2.535,2.535,0,0,0,3.423,1.021l86.854-46.94A2.531,2.531,0,0,0,227.305,222.863Z" transform="translate(-127.916 -214.326)" fill="#263238"/>
          <path id="Path_30161" data-name="Path 30161" d="M228.6,301.284C198.324,278.554,105,269.4,137.246,227.909l48.493-.453s68.248,35.01,71.9,71.619c3.8,38.063,10.552,98.021,10.552,98.021l-18.782,6.67S221.982,330.248,228.6,301.284Z" transform="translate(-130.564 -207.561)" fill="#59c4bc"/>
          <path id="Path_30162" data-name="Path 30162" d="M137.133,241.5q-1.684,3.664-3.112,7.671c7.544,8.565,22.432,15.158,38.541,21.281C167.647,261.661,156.638,251.973,137.133,241.5Z" transform="translate(-128.783 -200.325)" opacity="0.2"/>
          <path id="Path_30163" data-name="Path 30163" d="M209.132,349.985l19.42-5a5.636,5.636,0,0,1,3.712.179c6.785,3.061,11.127,2.155,17.831,1.735,8.038-.5,6.229,8.126.588,9.6-9.329,2.432-8.641,1.9-16.6,3.971-1.8.468-5.521,1.423-5.521,1.423l-3.158-1.926-1.55,3.074-10.223,2.494a1.964,1.964,0,0,1-2.439-1.586Z" transform="translate(-90.088 -147.133)" fill="#263238"/>
          <path id="Path_30164" data-name="Path 30164" d="M211.345,357.311c.286-.135,22.144-6.253,22.144-6.253L230.1,334.252l-24.3,6.582Z" transform="translate(-91.801 -152.543)" fill="#263238"/>
        </g>
        <g id="Group_2168" data-name="Group 2168" transform="translate(33.274 171.497)">
          <path id="Path_30165" data-name="Path 30165" d="M124.588,352.164c.92-55.208-10.677-111.4-3.752-123.735l56.243-.794s-16.811,92.044-21.252,128.82c-4.614,38.238-27.279,137.669-27.279,137.669l-18.135.28S112.558,391.795,124.588,352.164Z" transform="translate(-108.822 -227.635)" fill="#59c4bc"/>
          <path id="Path_30166" data-name="Path 30166" d="M110.276,405.72l16.694-.258a5.762,5.762,0,0,1,3.592,1.053c6,4.582,6.7,4.729,13.346,5.911,7.968,1.417,4.388,9.37-1.438,9.462-9.635.152-8.85-.2-17.065-.074-1.856.029-8.924.074-8.924.074l-1.3-2.62-1.462,2.62h-2.352a2.019,2.019,0,0,1-2-2.126Z" transform="translate(-109.363 -136.024)" fill="#263238"/>
          <path id="Path_30167" data-name="Path 30167" d="M109.968,413.047c.283-.064,20.982.956,20.982.956l1.377-18.915-22.493.636Z" transform="translate(-109.12 -141.368)" fill="#263238"/>
        </g>
        <path id="Path_30168" data-name="Path 30168" d="M147.066,151.763s5.206,10.049-.771,18.2a32.759,32.759,0,0,1,9.924,2.059s4.22-10.224-5.093-19.373C150.469,151.546,147.066,151.763,147.066,151.763Z" transform="translate(-57.063 -79.224)" fill="#fff"/>
        <g id="Group_2169" data-name="Group 2169" transform="translate(42.505 177.924)">
          <path id="Path_30169" data-name="Path 30169" d="M116.177,235.94c26.891,1.611,57.73,2.1,77.015,0a.688.688,0,0,0,.53-.421c1.206-2.476,1.8-6.735,1.662-10.288-.021-.545-.353-.955-.732-.941-25.452.988-50.745.936-77.334-.008a.765.765,0,0,0-.689.647,32.521,32.521,0,0,0-1.141,10.049C115.512,235.5,115.815,235.919,116.177,235.94Z" transform="translate(-115.456 -224.281)" fill="#263238"/>
          <path id="Path_30170" data-name="Path 30170" d="M116.177,235.94c26.891,1.611,57.73,2.1,77.015,0a.688.688,0,0,0,.53-.421c1.206-2.476,1.8-6.735,1.662-10.288-.021-.545-.353-.955-.732-.941-25.452.988-50.745.936-77.334-.008a.765.765,0,0,0-.689.647,32.521,32.521,0,0,0-1.141,10.049C115.512,235.5,115.815,235.919,116.177,235.94Z" transform="translate(-115.456 -224.281)" opacity="0.2"/>
        </g>
        <path id="Path_30171" data-name="Path 30171" d="M148.608,240.851a49.112,49.112,0,0,1-5.7-.353l-1.289-.167-.032-1.3c-.008-.329-.194-8.156.236-14.447l.088-1.27,1.264-.133a73.364,73.364,0,0,1,11.5-.2l1.35.1.056,1.353a93.35,93.35,0,0,1-.518,14.484l-.139.9-.853.3A19.3,19.3,0,0,1,148.608,240.851Zm-4.011-3.22a31.627,31.627,0,0,0,8.111-.145,90.84,90.84,0,0,0,.392-11.556,73.591,73.591,0,0,0-8.327.147C144.538,230.438,144.567,235.331,144.6,237.631Z" transform="translate(-59.51 -47.091)" fill="#fff"/>
        <path id="Path_30172" data-name="Path 30172" d="M128.446,224.308s-.438,8.5-1.053,13.908c-1.2,1.236-3.436.291-3.436.291s.445-7.858.977-14.024A7.32,7.32,0,0,1,128.446,224.308Z" transform="translate(-68.571 -46.433)" fill="#59c4bc"/>
        <path id="Path_30173" data-name="Path 30173" d="M165.087,224.308s-.438,8.5-1.055,13.908c-1.2,1.236-3.436.291-3.436.291s.445-7.858.977-14.024A7.327,7.327,0,0,1,165.087,224.308Z" transform="translate(-49.695 -46.433)" fill="#59c4bc"/>
        <g id="Group_2170" data-name="Group 2170" transform="translate(97.817 101.179)">
          <path id="Path_30174" data-name="Path 30174" d="M151.961,174.745c.815,10.956,7.8,13.421,8.78,13.4s7.577-2.768,6.761-13.723c-2.785.077-5.427-1.13-8-2.958A10.609,10.609,0,0,1,151.961,174.745Z" transform="translate(-151.961 -171.466)" fill="#59c4bc"/>
        </g>
        <g id="Group_2171" data-name="Group 2171" transform="translate(49.319 0)">
          <path id="Path_30175" data-name="Path 30175" d="M163.707,114.426c7.788,1.3,10.726,4.933-6.814,7.059A138.9,138.9,0,0,1,126.35,122S149.734,114.361,163.707,114.426Z" transform="translate(-116.657 -95.265)" fill="#263238"/>
          <path id="Path_30176" data-name="Path 30176" d="M128.229,129.427s15.255-5.162,39.3-7.971c.4-4.847-3.389-8.386-3.389-8.386s8.879-1.589,4.468-4.168c-3.024-1.77-10.27-1.967-18.279-7.121-3.283,3-12.291,7.871-18.44,8.5-1.524,2.6-5.5,9.126-11.935,11.647.092,2.842,6.5,3.579,6.5,3.579A4.841,4.841,0,0,0,128.229,129.427Z" transform="translate(-119.953 -101.78)" fill="#59c4bc"/>
          <path id="Path_30177" data-name="Path 30177" d="M124.245,121.664c13.044-8.471,25.555-12.144,37.69-12.433,0,0,3.785,3.539,3.389,8.386-24.044,2.809-39.3,7.971-39.3,7.971A4.841,4.841,0,0,1,124.245,121.664Z" transform="translate(-117.75 -97.941)" fill="#263238" opacity="0.8"/>
        </g>
        <g id="Group_2172" data-name="Group 2172" transform="translate(78.95 6.383)">
          <path id="Path_30178" data-name="Path 30178" d="M139.509,108.587c1.5,7.452,6.771,8.809,7.48,8.75s5.261-2.245,3.756-9.7a10.575,10.575,0,0,1-6.047-1.647A7.479,7.479,0,0,1,139.509,108.587Z" transform="translate(-139.509 -105.993)" fill="#fff"/>
        </g>
        <path id="Path_30179" data-name="Path 30179" d="M150.248,123.084c1.73.242,4.564,13.244-4.464,13.94-7.588.586-9.952-6.371-9.952-8.8C135.832,124.59,147.8,122.741,150.248,123.084Z" transform="translate(-62.453 -90.826)" fill="#263238"/>
        <path id="Path_30180" data-name="Path 30180" d="M147.958,123.241c-1.074.655,1.336,14.5,7.643,13.044,5.3-1.224,4.411-8.755,3.547-11.183C157.854,121.46,149.478,122.313,147.958,123.241Z" transform="translate(-56.333 -91.139)" fill="#263238"/>
        <g id="Group_2173" data-name="Group 2173" transform="translate(75.918 31.291)" opacity="0.2">
          <path id="Path_30181" data-name="Path 30181" d="M144.737,123.16l4.714,8.585a6.709,6.709,0,0,1-2.6,4.1l-6.5-11.89A38.024,38.024,0,0,1,144.737,123.16Z" transform="translate(-136.046 -122.057)" fill="#fff"/>
          <path id="Path_30182" data-name="Path 30182" d="M139.894,124.039l6.673,12.182a7.429,7.429,0,0,1-1.638.289,8.556,8.556,0,0,1-1.086.032l-6.335-11.555A18.457,18.457,0,0,1,139.894,124.039Z" transform="translate(-137.508 -121.604)" fill="#fff"/>
          <path id="Path_30183" data-name="Path 30183" d="M154,122.694l4.177,7.621a8.2,8.2,0,0,1-1.041,3.7L150.8,122.434A15.8,15.8,0,0,1,154,122.694Z" transform="translate(-130.661 -122.432)" fill="#fff"/>
          <path id="Path_30184" data-name="Path 30184" d="M157.359,135.031a4.22,4.22,0,0,1-1.347.9l-7.223-13.19c.489-.108,1.056-.185,1.683-.261Z" transform="translate(-131.696 -122.405)" fill="#fff"/>
        </g>
        <g id="Group_2175" data-name="Group 2175" transform="translate(0 106.326)">
          <g id="Group_2174" data-name="Group 2174">
            <path id="Path_30185" data-name="Path 30185" d="M271.715,179c.779-.326-.52-3.424-1.3-3.1L164.453,220.346a1.012,1.012,0,0,0-1.236-.392l-4.432,1.859a1.013,1.013,0,0,0-.588,1.158l-13.928,5.841a22.787,22.787,0,0,0-8.162,5.814l-6.238,6.97a6.291,6.291,0,0,1-6.426,5.844l-.927-.023L90.487,266.8a6.4,6.4,0,0,0-2.88,7.07,43.1,43.1,0,0,0,5.574,13.1,6.374,6.374,0,0,0,9.73,1.038l32.429-31.16a7.969,7.969,0,0,0,2.409-4.968l.391-4,7-7.818a7.967,7.967,0,0,0,14.22-7.115c-.039-.094-.1-.173-.144-.265l2.6-1.088a1.013,1.013,0,0,0,1.259.424l4.43-1.858a1.015,1.015,0,0,0,.579-1.2l61.8-25.922a1.412,1.412,0,0,0,.755-1.848h0l33.323-13.977c.518-.217-.277-2.109-.794-1.892l-2.462,1.033-.129-2.691Zm-117.282,62.86a6.3,6.3,0,0,1-8.112-3.112l.93-1.039.47-.2a7.793,7.793,0,0,0,7.3,3.114l-.2-1.67a6.254,6.254,0,0,1-5.5-2.112l8.353-3.5c.044.091.1.17.144.265A6.312,6.312,0,0,1,154.433,241.857Zm103.235-54.222L229.84,199.307l-.979-2.333,28.678-12.029Z" transform="translate(-87.403 -175.876)" fill="#407bff"/>
            <path id="Path_30186" data-name="Path 30186" d="M271.715,179c.779-.326-.52-3.424-1.3-3.1L164.453,220.346a1.012,1.012,0,0,0-1.236-.392l-4.432,1.859a1.013,1.013,0,0,0-.588,1.158l-13.928,5.841a22.787,22.787,0,0,0-8.162,5.814l-6.238,6.97a6.291,6.291,0,0,1-6.426,5.844l-.927-.023L90.487,266.8a6.4,6.4,0,0,0-2.88,7.07,43.1,43.1,0,0,0,5.574,13.1,6.374,6.374,0,0,0,9.73,1.038l32.429-31.16a7.969,7.969,0,0,0,2.409-4.968l.391-4,7-7.818a7.967,7.967,0,0,0,14.22-7.115c-.039-.094-.1-.173-.144-.265l2.6-1.088a1.013,1.013,0,0,0,1.259.424l4.43-1.858a1.015,1.015,0,0,0,.579-1.2l61.8-25.922a1.412,1.412,0,0,0,.755-1.848h0l33.323-13.977c.518-.217-.277-2.109-.794-1.892l-2.462,1.033-.129-2.691Zm-117.282,62.86a6.3,6.3,0,0,1-8.112-3.112l.93-1.039.47-.2a7.793,7.793,0,0,0,7.3,3.114l-.2-1.67a6.254,6.254,0,0,1-5.5-2.112l8.353-3.5c.044.091.1.17.144.265A6.312,6.312,0,0,1,154.433,241.857Zm103.235-54.222L229.84,199.307l-.979-2.333,28.678-12.029Z" transform="translate(-87.403 -175.876)" fill="#637aae"/>
          </g>
          <path id="Path_30187" data-name="Path 30187" d="M192.48,189.684,163.123,202a2.071,2.071,0,0,0-1.149,2.612l1.2,3.335a2.072,2.072,0,0,0,2.752,1.209l29.356-12.314a2.075,2.075,0,0,0,1.148-2.614l-1.2-3.335A2.073,2.073,0,0,0,192.48,189.684Z" transform="translate(-49.049 -168.846)" fill="#59c4bc"/>
        </g>
        <path id="Path_30188" data-name="Path 30188" d="M196.183,182.233l1.011-.274a7.1,7.1,0,0,1,7.2,2.18l.9,1.033a2.307,2.307,0,0,1-.859,3.65l-9.987,4.117a2.307,2.307,0,0,1-3.03-1.3h0A7.1,7.1,0,0,1,196.183,182.233Z" transform="translate(-34.061 -65.6)" fill="#b55b52"/>
        <path id="Path_30189" data-name="Path 30189" d="M140.916,174.781l-.759.9-.879,1.074-1.791,2.23c-1.185,1.527-2.379,3.07-3.547,4.642-2.335,3.147-4.593,6.391-6.767,9.69-2.224,3.27-4.223,6.688-6.283,10.074-1.974,3.433-3.877,6.914-5.679,10.447l-1.338,2.661-.326.648a2.123,2.123,0,0,1-.112.218,2.019,2.019,0,0,0-.247.524,12.584,12.584,0,0,0-.7,3.527,42.84,42.84,0,0,0,.87,10.244c1.355,7.385,3.906,15.3,6.453,22.828l.1.285a5.683,5.683,0,0,1-9.85,5.335,92.616,92.616,0,0,1-7.506-11.187,88.688,88.688,0,0,1-5.947-12.356,52.882,52.882,0,0,1-3.549-14.576,30.606,30.606,0,0,1,.479-9.014,19.628,19.628,0,0,1,.664-2.5l.427-1.267.308-.8L96.15,205.3a161.88,161.88,0,0,1,11.887-24.011c2.321-3.827,4.753-7.594,7.423-11.226,1.332-1.818,2.7-3.626,4.136-5.394.735-.883,1.441-1.776,2.221-2.65l1.177-1.327,1.344-1.455a11.353,11.353,0,0,1,17.047,14.99Z" transform="translate(-84.555 -78.292)" fill="#484848"/>
        <path id="Path_30190" data-name="Path 30190" d="M141.615,157.559c3.039-1.076-.82-4.324-.82-4.324s-16.065.492-25.622,3.023c-1.426,1.371.22,2.992.22,2.992S132.594,160.752,141.615,157.559Z" transform="translate(-73.395 -75.272)" fill="#59c4bc"/>
        <path id="Path_30191" data-name="Path 30191" d="M133.219,153.064s2.37,8.961,13.2,16.281c-4.736.035-11.426,4.727-11.426,4.727s-6.3-7.923-4.074-20.335C131.575,152.631,133.219,153.064,133.219,153.064Z" transform="translate(-65.231 -78.672)" opacity="0.2"/>
        <path id="Path_30192" data-name="Path 30192" d="M133.541,151.965s2.815,9.708,12.883,17.9c-4.736.035-11.8,2.359-11.8,2.359s-5.926-5.555-3.7-17.967A9.554,9.554,0,0,1,133.541,151.965Z" transform="translate(-65.239 -79.125)" fill="#fff"/>
        <path id="Path_30193" data-name="Path 30193" d="M112.328,220.408l9.423,8.1-12.5,8.124s-7.641-8.374-3.847-13.153Z" transform="translate(-78.673 -48.161)" fill="#b55b52"/>
        <path id="Path_30194" data-name="Path 30194" d="M105.058,228.212a8.822,8.822,0,0,1-2.558-3.332c3-3.108,9.059-5.665,11.806-6.359,1.673,1.579,1.736,4.846,1.736,4.846S108.056,224.739,105.058,228.212Z" transform="translate(-79.625 -48.91)" fill="#fff"/>
        <path id="Path_30195" data-name="Path 30195" d="M121.152,238.624l-4.861,2.109a4.307,4.307,0,0,1-5.335-1.62l-3.371-5.232,12.5-8.124,3.268,7.118A4.307,4.307,0,0,1,121.152,238.624Z" transform="translate(-77.005 -45.728)" fill="#b55b52"/>
        <path id="Path_30196" data-name="Path 30196" d="M141.574,136.637l.008,0a10.9,10.9,0,0,1,10-1.023.382.382,0,0,1-.326.691,10.344,10.344,0,0,0-9.276.982.382.382,0,0,1-.408-.645Z" transform="translate(-59.585 -84.743)" fill="#263238"/>
        <path id="Path_30197" data-name="Path 30197" d="M125.178,174.341l20.431-.78-.072-1.651-20.431.78Z" transform="translate(-67.979 -69.953)" fill="#fff"/>
      </g>
      <g id="Group_2188" data-name="Group 2188" transform="translate(368.002 301.006)">
        <g id="Group_2178" data-name="Group 2178">
          <g id="Group_2177" data-name="Group 2177" transform="translate(3.548)">
            <path id="Path_30198" data-name="Path 30198" d="M255.376,495.339H215.7l28.84-229.056h39.678Z" transform="translate(-215.699 -266.283)" fill="#407bff"/>
            <path id="Path_30199" data-name="Path 30199" d="M255.376,495.339H215.7l28.84-229.056h39.678Z" transform="translate(-215.699 -266.283)" fill="#138078"/>
          </g>
          <path id="Path_30200" data-name="Path 30200" d="M213.357,495.339H216.9l28.84-229.056H242.2Z" transform="translate(-213.357 -266.283)" fill="#263238"/>
        </g>
        <g id="Group_2180" data-name="Group 2180" transform="translate(147.954)">
          <g id="Group_2179" data-name="Group 2179" transform="translate(3.548)">
            <path id="Path_30201" data-name="Path 30201" d="M353.025,495.339H313.347l28.84-229.056h39.678Z" transform="translate(-313.347 -266.283)" fill="#407bff"/>
            <path id="Path_30202" data-name="Path 30202" d="M353.025,495.339H313.347l28.84-229.056h39.678Z" transform="translate(-313.347 -266.283)" fill="#138078"/>
          </g>
          <path id="Path_30203" data-name="Path 30203" d="M311.005,495.339h3.548l28.84-229.056h-3.548Z" transform="translate(-311.005 -266.283)" fill="#263238"/>
        </g>
        <g id="Group_2187" data-name="Group 2187" transform="translate(17.263)">
          <g id="Group_2182" data-name="Group 2182" transform="translate(54.051 151.941)">
            <path id="Path_30204" data-name="Path 30204" d="M268.256,416.42H412.137l-6.277-49.857H261.978Z" transform="translate(-259.622 -366.563)" fill="#637aae"/>
            <path id="Path_30205" data-name="Path 30205" d="M269.057,416.42H266.7l-6.277-49.857h2.356Z" transform="translate(-260.423 -366.563)" fill="#263238"/>
            <g id="Group_2181" data-name="Group 2181" transform="translate(4.556 2.178)">
              <path id="Path_30206" data-name="Path 30206" d="M364.551,368l5.729,45.5h-8.5L338.952,368Z" transform="translate(-224.523 -368)" fill="#fff"/>
              <path id="Path_30207" data-name="Path 30207" d="M340,368l22.828,45.5H331.608L308.78,368Z" transform="translate(-240.067 -368)" fill="#fff"/>
              <path id="Path_30208" data-name="Path 30208" d="M309.827,368l22.828,45.5H301.436L278.608,368Z" transform="translate(-255.611 -368)" fill="#fff"/>
              <path id="Path_30209" data-name="Path 30209" d="M271.941,368l22.828,45.5H269.159L263.43,368Z" transform="translate(-263.43 -368)" fill="#fff"/>
            </g>
          </g>
          <g id="Group_2183" data-name="Group 2183" transform="translate(160.403)">
            <path id="Path_30210" data-name="Path 30210" d="M361.8,495.339h39.678l-28.84-229.056H332.956Z" transform="translate(-329.409 -266.283)" fill="#59c4bc"/>
            <path id="Path_30211" data-name="Path 30211" d="M344.806,360.4l41.743,16.4-11.976-95.121H334.895Z" transform="translate(-328.41 -258.352)" opacity="0.2"/>
            <path id="Path_30212" data-name="Path 30212" d="M363,495.339h-3.548l-28.84-229.056h3.548Z" transform="translate(-330.615 -266.283)" fill="#263238"/>
          </g>
          <g id="Group_2184" data-name="Group 2184" transform="translate(12.449)">
            <path id="Path_30213" data-name="Path 30213" d="M264.148,495.339h39.678l-28.84-229.056H235.308Z" transform="translate(-231.76 -266.283)" fill="#59c4bc"/>
            <path id="Path_30214" data-name="Path 30214" d="M247.158,360.4,288.9,376.8l-11.976-95.121H237.246Z" transform="translate(-230.762 -258.352)" opacity="0.2"/>
            <path id="Path_30215" data-name="Path 30215" d="M265.354,495.339h-3.548l-28.84-229.056h3.548Z" transform="translate(-232.966 -266.283)" fill="#263238"/>
          </g>
          <g id="Group_2186" data-name="Group 2186" transform="translate(0 16.4)">
            <path id="Path_30216" data-name="Path 30216" d="M236.544,352.183H453.2l-9.453-75.076H227.092Z" transform="translate(-223.544 -277.107)" fill="#637aae"/>
            <path id="Path_30217" data-name="Path 30217" d="M237.751,352.183H234.2l-9.453-75.076H228.3Z" transform="translate(-224.75 -277.107)" fill="#263238"/>
            <g id="Group_2185" data-name="Group 2185" transform="translate(6.86 3.28)">
              <path id="Path_30218" data-name="Path 30218" d="M381.549,279.272l8.627,68.52h-12.8L343,279.272Z" transform="translate(-170.691 -279.272)" fill="#fff"/>
              <path id="Path_30219" data-name="Path 30219" d="M344.577,279.272l34.375,68.52h-47.01l-34.375-68.52Z" transform="translate(-194.097 -279.272)" fill="#fff"/>
              <path id="Path_30220" data-name="Path 30220" d="M299.144,279.272l34.375,68.52h-47.01l-34.375-68.52Z" transform="translate(-217.503 -279.272)" fill="#fff"/>
              <path id="Path_30221" data-name="Path 30221" d="M242.094,279.272l34.375,68.52H237.905l-8.627-68.52Z" transform="translate(-229.278 -279.272)" fill="#fff"/>
            </g>
          </g>
        </g>
      </g>
    </g>
    <line id="Line_107" data-name="Line 107" x2="1111" transform="translate(-4403.541 -8234.422)" fill="none" stroke="#d3d3d3" stroke-width="7"/>
  </g>
</svg>
