<svg width="19" height="19" viewBox="0 0 19 19" fill="none" xmlns="http://www.w3.org/2000/svg">
<g clip-path="url(#clip0_746_5611)">
<path d="M13.0436 10.3721L9.24992 13.874L5.45626 10.3721C3.34302 11.7237 1.927 14.1626 1.927 16.9573H16.5728C16.5728 14.1626 15.1568 11.7237 13.0436 10.3721Z" fill="black"/>
<path d="M9.24988 10.791C10.6181 10.791 11.8433 10.1936 12.6901 9.24935C13.4243 8.43072 13.8749 7.35233 13.8749 6.16602C13.8749 3.61186 11.804 1.54102 9.24988 1.54102C6.69572 1.54102 4.62488 3.61186 4.62488 6.16602C4.62488 7.35233 5.07543 8.43072 5.80965 9.24935C6.65641 10.1936 7.88165 10.791 9.24988 10.791Z" fill="black"/>
<circle cx="9" cy="6" r="3" fill="#00A9E2"/>
<path d="M6 13L7.73205 16H4.26795L6 13Z" fill="#FDB714"/>
</g>
<defs>
<clipPath id="clip0_746_5611">
<rect width="18.5" height="18.5" fill="white"/>
</clipPath>
</defs>
</svg>
