<svg width="23" height="26" viewBox="0 0 23 26" fill="none" xmlns="http://www.w3.org/2000/svg">
<circle cx="14.5" cy="18.5" r="1.5" fill="#FDB714"/>
<circle cx="14.5" cy="18.5" r="1.5" fill="#FDB714"/>
<circle cx="10.5" cy="13.5" r="1.5" fill="#FDB714"/>
<circle cx="10.5" cy="13.5" r="1.5" fill="#FDB714"/>
<path d="M20.5357 5.87561C20.5357 3.88571 19.0619 2.2666 17.2499 2.2666H6.16075C4.26123 2.2666 2.6692 3.84821 2.46436 5.87561V17.6046H5.75017V23.9201H18.893V9.00009C19.8743 8.37495 20.5357 7.20854 20.5357 5.87561ZM7.39296 7.67999C7.39296 7.19768 7.73953 6.80247 8.17348 6.77878C8.1133 7.10573 7.98711 7.41369 7.80422 7.67999H7.39296ZM4.10737 15.7999V6.32658C4.10737 5.08295 5.02872 4.07098 6.16098 4.07098C6.84514 4.07098 7.45203 4.44029 7.82533 5.00697C6.65062 5.21247 5.75017 6.33275 5.75017 7.67974V15.7999H4.10737ZM17.2502 22.1155H7.39296V9.48461H17.2502V22.1155ZM17.2502 7.67999H9.64781C9.78527 7.25146 9.85715 6.79531 9.85715 6.32658C9.85715 5.49248 9.62692 4.7166 9.23273 4.07098H17.2499C18.156 4.07098 18.8927 4.88016 18.8927 5.87536C18.8927 6.87056 18.1562 7.67999 17.2502 7.67999Z" fill="#0F1F3C"/>
<path d="M9.35251 19.2793L14.2813 11.5465L15.2905 12.3225L10.3617 20.0554L9.35251 19.2793ZM10.268 14.9749C11.219 14.9749 11.993 14.1248 11.993 13.0802C11.993 12.0357 11.219 11.1855 10.268 11.1855C9.31697 11.1855 8.54297 12.0357 8.54297 13.0802C8.54297 14.1248 9.31697 14.9749 10.268 14.9749ZM10.268 12.2681C10.6754 12.2681 11.0072 12.6325 11.0072 13.08C11.0072 13.5275 10.6754 13.8919 10.268 13.8919C9.86053 13.8919 9.52878 13.5275 9.52878 13.08C9.52878 12.6325 9.86053 12.2681 10.268 12.2681ZM12.65 18.5074C12.65 19.552 13.424 20.4021 14.375 20.4021C15.3259 20.4021 16.1 19.552 16.1 18.5074C16.1 17.4629 15.3259 16.6127 14.375 16.6127C13.424 16.6127 12.65 17.4629 12.65 18.5074ZM15.1144 18.5074C15.1144 18.9549 14.7826 19.3193 14.3752 19.3193C13.9677 19.3193 13.636 18.9549 13.636 18.5074C13.636 18.0599 13.9677 17.6955 14.3752 17.6955C14.7826 17.6955 15.1144 18.0599 15.1144 18.5074Z" fill="#0F1F3C"/>
<rect x="10" y="5" width="8" height="2" fill="#00A9E2"/>
</svg>
