<svg width="21" height="21" viewBox="0 0 21 21" fill="none" xmlns="http://www.w3.org/2000/svg">
<path d="M17.5 14.1575V13.125C17.5 12.4288 17.2234 11.7611 16.7312 11.2688C16.2389 10.7766 15.5712 10.5 14.875 10.5H11.375V8.75H14C14.6962 8.75 15.3639 8.47344 15.8562 7.98116C16.3484 7.48887 16.625 6.82119 16.625 6.125V4.375C16.625 3.67881 16.3484 3.01113 15.8562 2.51884C15.3639 2.02656 14.6962 1.75 14 1.75H7.00001C6.30381 1.75 5.63613 2.02656 5.14385 2.51884C4.65157 3.01113 4.37501 3.67881 4.37501 4.375V6.125C4.37501 6.82119 4.65157 7.48887 5.14385 7.98116C5.63613 8.47344 6.30381 8.75 7.00001 8.75H9.62501V10.5H6.12501C5.42881 10.5 4.76113 10.7766 4.26885 11.2688C3.77657 11.7611 3.50001 12.4288 3.50001 13.125V14.1575C2.91619 14.3639 2.42415 14.7701 2.11083 15.3042C1.79751 15.8383 1.6831 16.466 1.78781 17.0763C1.89252 17.6866 2.20962 18.2402 2.68305 18.6393C3.15649 19.0385 3.75578 19.2574 4.37501 19.2574C4.99423 19.2574 5.59352 19.0385 6.06696 18.6393C6.54039 18.2402 6.85749 17.6866 6.9622 17.0763C7.06691 16.466 6.9525 15.8383 6.63918 15.3042C6.32587 14.7701 5.83382 14.3639 5.25001 14.1575V13.125C5.25001 12.8929 5.34219 12.6704 5.50629 12.5063C5.67038 12.3422 5.89294 12.25 6.12501 12.25H9.62501V14.1575C9.04119 14.3639 8.54915 14.7701 8.23583 15.3042C7.92251 15.8383 7.8081 16.466 7.91281 17.0763C8.01752 17.6866 8.33462 18.2402 8.80805 18.6393C9.28149 19.0385 9.88078 19.2574 10.5 19.2574C11.1192 19.2574 11.7185 19.0385 12.192 18.6393C12.6654 18.2402 12.9825 17.6866 13.0872 17.0763C13.1919 16.466 13.0775 15.8383 12.7642 15.3042C12.4509 14.7701 11.9588 14.3639 11.375 14.1575V12.25H14.875C15.1071 12.25 15.3296 12.3422 15.4937 12.5063C15.6578 12.6704 15.75 12.8929 15.75 13.125V14.1575C15.1662 14.3639 14.6741 14.7701 14.3608 15.3042C14.0475 15.8383 13.9331 16.466 14.0378 17.0763C14.1425 17.6866 14.4596 18.2402 14.9331 18.6393C15.4065 19.0385 16.0058 19.2574 16.625 19.2574C17.2442 19.2574 17.8435 19.0385 18.317 18.6393C18.7904 18.2402 19.1075 17.6866 19.2122 17.0763C19.3169 16.466 19.2025 15.8383 18.8892 15.3042C18.5759 14.7701 18.0838 14.3639 17.5 14.1575ZM6.12501 6.125V4.375C6.12501 4.14294 6.21719 3.92038 6.38129 3.75628C6.54538 3.59219 6.76794 3.5 7.00001 3.5H14C14.2321 3.5 14.4546 3.59219 14.6187 3.75628C14.7828 3.92038 14.875 4.14294 14.875 4.375V6.125C14.875 6.35706 14.7828 6.57962 14.6187 6.74372C14.4546 6.90781 14.2321 7 14 7H7.00001C6.76794 7 6.54538 6.90781 6.38129 6.74372C6.21719 6.57962 6.12501 6.35706 6.12501 6.125ZM4.37501 17.5C4.20195 17.5 4.03277 17.4487 3.88888 17.3525C3.74499 17.2564 3.63284 17.1197 3.56661 16.9598C3.50038 16.8 3.48306 16.624 3.51682 16.4543C3.55058 16.2846 3.63392 16.1287 3.75629 16.0063C3.87866 15.8839 4.03457 15.8006 4.2043 15.7668C4.37403 15.733 4.54997 15.7504 4.70985 15.8166C4.86974 15.8828 5.0064 15.995 5.10254 16.1389C5.19869 16.2828 5.25001 16.4519 5.25001 16.625C5.25001 16.8571 5.15782 17.0796 4.99372 17.2437C4.82963 17.4078 4.60707 17.5 4.37501 17.5ZM10.5 17.5C10.3269 17.5 10.1578 17.4487 10.0139 17.3525C9.86999 17.2564 9.75784 17.1197 9.69161 16.9598C9.62538 16.8 9.60806 16.624 9.64182 16.4543C9.67558 16.2846 9.75892 16.1287 9.88129 16.0063C10.0037 15.8839 10.1596 15.8006 10.3293 15.7668C10.499 15.733 10.675 15.7504 10.8349 15.8166C10.9947 15.8828 11.1314 15.995 11.2275 16.1389C11.3237 16.2828 11.375 16.4519 11.375 16.625C11.375 16.8571 11.2828 17.0796 11.1187 17.2437C10.9546 17.4078 10.7321 17.5 10.5 17.5ZM16.625 17.5C16.4519 17.5 16.2828 17.4487 16.1389 17.3525C15.995 17.2564 15.8828 17.1197 15.8166 16.9598C15.7504 16.8 15.7331 16.624 15.7668 16.4543C15.8006 16.2846 15.8839 16.1287 16.0063 16.0063C16.1287 15.8839 16.2846 15.8006 16.4543 15.7668C16.624 15.733 16.8 15.7504 16.9599 15.8166C17.1197 15.8828 17.2564 15.995 17.3525 16.1389C17.4487 16.2828 17.5 16.4519 17.5 16.625C17.5 16.8571 17.4078 17.0796 17.2437 17.2437C17.0796 17.4078 16.8571 17.5 16.625 17.5Z" fill="black"/>
<rect x="7" y="4" width="8" height="3" fill="#00A9E2"/>
<circle cx="16.5" cy="16.5" r="1.5" fill="#FDB714"/>
<circle cx="16.5" cy="16.5" r="1.5" fill="#FDB714"/>
<circle cx="16.5" cy="16.5" r="1.5" fill="#FDB714"/>
<circle cx="10.5" cy="16.5" r="1.5" fill="#FDB714"/>
<circle cx="10.5" cy="16.5" r="1.5" fill="#FDB714"/>
<circle cx="10.5" cy="16.5" r="1.5" fill="#FDB714"/>
<circle cx="4.5" cy="16.5" r="1.5" fill="#FDB714"/>
<circle cx="4.5" cy="16.5" r="1.5" fill="#FDB714"/>
<circle cx="4.5" cy="16.5" r="1.5" fill="#FDB714"/>
</svg>
