<svg width="17" height="18" viewBox="0 0 17 18" fill="none" xmlns="http://www.w3.org/2000/svg">
<g clip-path="url(#clip0_744_4241)">
<mask id="path-1-outside-1_744_4241" maskUnits="userSpaceOnUse" x="0.926514" y="0.140625" width="16" height="18" fill="black">
<rect fill="white" x="0.926514" y="0.140625" width="16" height="18"/>
<path d="M3.28651 1.14062V2.50063H1.92651V16.7806H5.66651V13.7206H7.02651V16.7806H10.7665V2.50063H9.40651V1.14062H3.28651ZM3.96651 3.86063H4.64651V4.54063H3.96651V3.86063ZM5.32651 3.86063H6.00651V4.54063H5.32651V3.86063ZM6.68651 3.86063H7.36651V4.54063H6.68651V3.86063ZM8.04651 3.86063H8.72651V4.54063H8.04651V3.86063ZM11.4465 5.22062V6.58063H12.1265V7.26062H11.4465V7.94063H12.1265V8.62063H11.4465V9.30062H12.1265V9.98063H11.4465V10.6606H12.1265V11.3406H11.4465V12.0206H12.1265V12.7006H11.4465V13.3806H12.1265V14.0606H11.4465V14.7406H12.1265V15.4206H11.4465V16.7806H16.2065V5.22062H11.4465ZM3.96651 5.56063H4.64651V6.92063H3.96651V5.56063ZM5.32651 5.56063H6.00651V6.92063H5.32651V5.56063ZM6.68651 5.56063H7.36651V6.92063H6.68651V5.56063ZM8.04651 5.56063H8.72651V6.92063H8.04651V5.56063ZM12.8065 6.58063H13.4865V7.26062H12.8065V6.58063ZM14.1665 6.58063H14.8465V7.26062H14.1665V6.58063ZM3.96651 7.60063H4.64651V8.96063H3.96651V7.60063ZM5.32651 7.60063H6.00651V8.96063H5.32651V7.60063ZM6.68651 7.60063H7.36651V8.96063H6.68651V7.60063ZM8.04651 7.60063H8.72651V8.96063H8.04651V7.60063ZM12.8065 7.94063H13.4865V8.62063H12.8065V7.94063ZM14.1665 7.94063H14.8465V8.62063H14.1665V7.94063ZM12.8065 9.30062H13.4865V9.98063H12.8065V9.30062ZM14.1665 9.30062H14.8465V9.98063H14.1665V9.30062ZM3.96651 9.64062H4.64651V11.0006H3.96651V9.64062ZM5.32651 9.64062H6.00651V11.0006H5.32651V9.64062ZM6.68651 9.64062H7.36651V11.0006H6.68651V9.64062ZM8.04651 9.64062H8.72651V11.0006H8.04651V9.64062ZM12.8065 10.6606H13.4865V11.3406H12.8065V10.6606ZM14.1665 10.6606H14.8465V11.3406H14.1665V10.6606ZM3.96651 11.6806H4.64651V13.0406H3.96651V11.6806ZM5.32651 11.6806H6.00651V13.0406H5.32651V11.6806ZM6.68651 11.6806H7.36651V13.0406H6.68651V11.6806ZM8.04651 11.6806H8.72651V13.0406H8.04651V11.6806ZM12.8065 12.0206H13.4865V12.7006H12.8065V12.0206ZM14.1665 12.0206H14.8465V12.7006H14.1665V12.0206ZM12.8065 13.3806H13.4865V14.0606H12.8065V13.3806ZM14.1665 13.3806H14.8465V14.0606H14.1665V13.3806ZM3.96651 13.7206H4.64651V15.4206H3.96651V13.7206ZM8.04651 13.7206H8.72651V15.4206H8.04651V13.7206ZM12.8065 14.7406H13.4865V15.4206H12.8065V14.7406ZM14.1665 14.7406H14.8465V15.4206H14.1665V14.7406Z"/>
</mask>
<path d="M3.28651 1.14062V2.50063H1.92651V16.7806H5.66651V13.7206H7.02651V16.7806H10.7665V2.50063H9.40651V1.14062H3.28651ZM3.96651 3.86063H4.64651V4.54063H3.96651V3.86063ZM5.32651 3.86063H6.00651V4.54063H5.32651V3.86063ZM6.68651 3.86063H7.36651V4.54063H6.68651V3.86063ZM8.04651 3.86063H8.72651V4.54063H8.04651V3.86063ZM11.4465 5.22062V6.58063H12.1265V7.26062H11.4465V7.94063H12.1265V8.62063H11.4465V9.30062H12.1265V9.98063H11.4465V10.6606H12.1265V11.3406H11.4465V12.0206H12.1265V12.7006H11.4465V13.3806H12.1265V14.0606H11.4465V14.7406H12.1265V15.4206H11.4465V16.7806H16.2065V5.22062H11.4465ZM3.96651 5.56063H4.64651V6.92063H3.96651V5.56063ZM5.32651 5.56063H6.00651V6.92063H5.32651V5.56063ZM6.68651 5.56063H7.36651V6.92063H6.68651V5.56063ZM8.04651 5.56063H8.72651V6.92063H8.04651V5.56063ZM12.8065 6.58063H13.4865V7.26062H12.8065V6.58063ZM14.1665 6.58063H14.8465V7.26062H14.1665V6.58063ZM3.96651 7.60063H4.64651V8.96063H3.96651V7.60063ZM5.32651 7.60063H6.00651V8.96063H5.32651V7.60063ZM6.68651 7.60063H7.36651V8.96063H6.68651V7.60063ZM8.04651 7.60063H8.72651V8.96063H8.04651V7.60063ZM12.8065 7.94063H13.4865V8.62063H12.8065V7.94063ZM14.1665 7.94063H14.8465V8.62063H14.1665V7.94063ZM12.8065 9.30062H13.4865V9.98063H12.8065V9.30062ZM14.1665 9.30062H14.8465V9.98063H14.1665V9.30062ZM3.96651 9.64062H4.64651V11.0006H3.96651V9.64062ZM5.32651 9.64062H6.00651V11.0006H5.32651V9.64062ZM6.68651 9.64062H7.36651V11.0006H6.68651V9.64062ZM8.04651 9.64062H8.72651V11.0006H8.04651V9.64062ZM12.8065 10.6606H13.4865V11.3406H12.8065V10.6606ZM14.1665 10.6606H14.8465V11.3406H14.1665V10.6606ZM3.96651 11.6806H4.64651V13.0406H3.96651V11.6806ZM5.32651 11.6806H6.00651V13.0406H5.32651V11.6806ZM6.68651 11.6806H7.36651V13.0406H6.68651V11.6806ZM8.04651 11.6806H8.72651V13.0406H8.04651V11.6806ZM12.8065 12.0206H13.4865V12.7006H12.8065V12.0206ZM14.1665 12.0206H14.8465V12.7006H14.1665V12.0206ZM12.8065 13.3806H13.4865V14.0606H12.8065V13.3806ZM14.1665 13.3806H14.8465V14.0606H14.1665V13.3806ZM3.96651 13.7206H4.64651V15.4206H3.96651V13.7206ZM8.04651 13.7206H8.72651V15.4206H8.04651V13.7206ZM12.8065 14.7406H13.4865V15.4206H12.8065V14.7406ZM14.1665 14.7406H14.8465V15.4206H14.1665V14.7406Z" stroke="black" stroke-width="1.13333" mask="url(#path-1-outside-1_744_4241)"/>
<rect x="2.83325" y="1.02734" width="5.66667" height="1.7" fill="#00A9E2"/>
<rect x="11.3333" y="15.2793" width="5.1" height="1.53" fill="#FDB714"/>
</g>
<defs>
<clipPath id="clip0_744_4241">
<rect width="17" height="17" fill="white" transform="translate(0 0.461914)"/>
</clipPath>
</defs>
</svg>
