<svg width="26" height="26" viewBox="0 0 26 26" fill="none" xmlns="http://www.w3.org/2000/svg">
<path d="M12.7395 3.1875C10.9803 3.1875 9.55435 4.61354 9.55435 6.37263C9.55435 7.75946 10.4407 8.93928 11.6778 9.37652V11.6812H8.49264C6.73354 11.6812 5.3075 13.1072 5.3075 14.8663V16.1093C4.07041 16.5465 3.18408 17.7264 3.18408 19.1132C3.18408 20.8723 4.61012 22.2983 6.36922 22.2983C8.12831 22.2983 9.55435 20.8723 9.55435 19.1132C9.55435 17.7264 8.66802 16.5465 7.43093 16.1093V14.8663C7.43093 14.2799 7.90628 13.8046 8.49264 13.8046H16.9863C17.5727 13.8046 18.048 14.2799 18.048 14.8663V16.1093C16.8109 16.5465 15.9246 17.7264 15.9246 19.1132C15.9246 20.8723 17.3506 22.2983 19.1098 22.2983C20.8689 22.2983 22.2949 20.8723 22.2949 19.1132C22.2949 17.7264 21.4086 16.5465 20.1715 16.1093V14.8663C20.1715 13.1072 18.7455 11.6812 16.9863 11.6812H13.8012V9.37652C15.0383 8.93928 15.9246 7.75946 15.9246 6.37263C15.9246 4.61354 14.4986 3.1875 12.7395 3.1875Z" fill="black"/>
</svg>
