<svg width="23" height="23" viewBox="0 0 23 23" fill="none" xmlns="http://www.w3.org/2000/svg">
<path d="M17.4584 10.6027V7.23668C17.4584 7.11568 17.4098 6.99835 17.3246 6.91218L13.7679 3.35551C13.6817 3.27026 13.5653 3.22168 13.4434 3.22168H10.1251C9.87208 3.22168 9.66675 3.42701 9.66675 3.68001C9.66675 3.93301 9.87208 4.13835 10.1251 4.13835H13.0153C12.997 4.20343 12.9851 4.27126 12.9851 4.34093V6.31085C12.9851 7.07443 13.6057 7.69501 14.3692 7.69501H16.3392C16.4088 7.69501 16.4767 7.6831 16.5417 7.66476V10.4358C16.539 10.4358 16.5362 10.4358 16.5326 10.4358C15.021 10.4358 13.7917 11.6614 13.7917 13.1675C13.7917 13.3618 13.8137 13.5516 13.8522 13.7349C13.8651 13.7963 13.8907 13.8523 13.9072 13.9128C13.9412 14.0319 13.9742 14.1502 14.0227 14.262C14.0521 14.328 14.0915 14.3876 14.1254 14.4518C14.1777 14.5489 14.2281 14.647 14.2913 14.7368C14.3344 14.7983 14.3867 14.8523 14.4352 14.911C14.5031 14.9926 14.5691 15.0742 14.6461 15.1466C14.6598 15.1603 14.6699 15.1768 14.6846 15.1897C14.5709 15.2401 14.4646 15.3024 14.3619 15.3693C14.3335 15.3877 14.3087 15.4088 14.2812 15.428C14.1997 15.4876 14.1217 15.5508 14.0484 15.6196C14.0191 15.6471 13.9907 15.6746 13.9622 15.7039C13.8843 15.7855 13.8119 15.8726 13.7468 15.9652C13.7358 15.9808 13.723 15.9945 13.712 16.011C13.6396 16.1201 13.5782 16.2356 13.5241 16.3566C13.5085 16.3905 13.4975 16.4263 13.4837 16.4611C13.4471 16.5546 13.4177 16.6518 13.3939 16.7508C13.3847 16.7893 13.3747 16.8278 13.3673 16.8672C13.3426 17.0019 13.3252 17.1394 13.3252 17.2815V18.7858H7.82516C7.07166 18.7858 6.45933 18.1688 6.45933 17.4108V5.51335C6.45933 4.75526 7.07166 4.13835 7.82516 4.13835H8.55025C8.80325 4.13835 9.00858 3.93301 9.00858 3.68001C9.00858 3.42701 8.80325 3.22168 8.55025 3.22168H7.82425C6.56566 3.22168 5.54175 4.25018 5.54175 5.51335V17.4117C5.54175 18.6758 6.56566 19.7033 7.82425 19.7033H13.7826H19.2826C19.5356 19.7033 19.7409 19.498 19.7409 19.245V17.2833C19.7409 16.3483 19.1744 15.5463 18.3677 15.1897C18.9205 14.6818 19.2642 13.9558 19.2642 13.1684C19.2642 11.9942 18.5392 10.9923 17.4584 10.6027ZM14.3692 6.77835C14.1117 6.77835 13.9017 6.56843 13.9017 6.31085V4.78643L15.8937 6.77835H14.3692ZM16.5326 11.3525C16.6646 11.3525 16.7902 11.3681 16.9084 11.3901C17.7554 11.5716 18.3476 12.3022 18.3476 13.1684C18.3476 14.0273 17.7407 14.779 16.9148 14.9541C16.7947 14.9761 16.6673 14.9917 16.5326 14.9917C15.5261 14.9917 14.7084 14.1731 14.7084 13.1684C14.7084 12.1674 15.527 11.3525 16.5326 11.3525ZM18.8242 17.2833V18.7876H14.2409V17.2833C14.2409 16.5253 14.8578 15.9083 15.6159 15.9083H16.5326H17.4401C18.2037 15.9083 18.8242 16.5243 18.8242 17.2833Z" fill="black" fill-opacity="0.75"/>
<rect x="7" y="5" width="5" height="13" fill="#00A9E2"/>
<circle cx="17" cy="13" r="2" fill="#FDB714"/>
</svg>
