<svg width="18" height="18" viewBox="0 0 18 18" fill="none" xmlns="http://www.w3.org/2000/svg">
<path d="M9 7.99102C10.3144 7.99102 11.38 6.93888 11.38 5.64102C11.38 4.34315 10.3144 3.29102 9 3.29102C7.68556 3.29102 6.62 4.34315 6.62 5.64102C6.62 6.93888 7.68556 7.99102 9 7.99102Z" fill="black"/>
<path d="M5.39005 5.87547C5.47005 5.87547 5.55005 5.87547 5.63005 5.87547C5.63005 5.80047 5.63005 5.73547 5.63005 5.66047C5.6315 5.03527 5.80789 4.42295 6.13924 3.89278C6.4706 3.36261 6.94371 2.93574 7.50505 2.66047C7.33886 2.27775 7.07213 1.94718 6.73316 1.70388C6.3942 1.46059 5.99567 1.31364 5.5799 1.27865C5.16412 1.24366 4.74664 1.32193 4.37178 1.50515C3.99692 1.68838 3.67868 1.96971 3.45087 2.31927C3.22306 2.66883 3.09419 3.07357 3.07793 3.49049C3.06167 3.90742 3.15864 4.32096 3.35853 4.6872C3.55843 5.05344 3.85379 5.3587 4.21324 5.57056C4.57269 5.78242 4.98281 5.89297 5.40005 5.89047L5.39005 5.87547Z" fill="black"/>
<path d="M12.38 5.64028C12.38 5.71528 12.38 5.78028 12.38 5.85528C12.46 5.85528 12.54 5.85528 12.62 5.85528C13.0317 5.85114 13.4346 5.73611 13.7864 5.52227C14.1382 5.30844 14.4259 5.00372 14.6191 4.64018C14.8124 4.27664 14.904 3.86774 14.8844 3.4565C14.8649 3.04527 14.7348 2.64692 14.5079 2.30338C14.281 1.95984 13.9657 1.68382 13.5952 1.50437C13.2246 1.32493 12.8126 1.24869 12.4024 1.28368C11.9922 1.31867 11.599 1.4636 11.2642 1.70322C10.9294 1.94284 10.6654 2.26827 10.5 2.64528C11.0615 2.91947 11.5351 3.34526 11.8674 3.87451C12.1996 4.40377 12.3772 5.0154 12.38 5.64028Z" fill="black"/>
<path d="M11.145 8.22559C12.1392 8.42237 13.1004 8.75905 14 9.22559C14.1268 9.29522 14.2416 9.38468 14.34 9.49059H17V7.78059C17.0005 7.71501 16.9831 7.65053 16.9496 7.59414C16.9161 7.53774 16.8678 7.49156 16.81 7.46059C15.5141 6.78275 14.0725 6.43094 12.61 6.43559H12.28C12.1067 7.13995 11.7082 7.76847 11.145 8.22559Z" fill="black"/>
<path d="M3.26501 10.461C3.2641 10.2092 3.3321 9.9619 3.46166 9.74597C3.59122 9.53004 3.77739 9.35368 4.00001 9.23598C4.89965 8.76944 5.86088 8.43276 6.85501 8.23598C6.29454 7.78275 5.89627 7.15989 5.72001 6.46098H5.39001C3.92752 6.45633 2.48593 6.80814 1.19001 7.48598C1.13219 7.51695 1.08394 7.56313 1.05045 7.61953C1.01697 7.67592 0.999525 7.7404 1.00001 7.80598V11.001H3.26501V10.461Z" fill="black"/>
<path d="M13.71 13.3457H10.73V14.0457H13.71V13.3457Z" fill="black"/>
<path d="M16.405 10.6301H12.97V10.1301C12.97 9.99748 12.9173 9.8703 12.8236 9.77653C12.7298 9.68276 12.6026 9.63008 12.47 9.63008C12.3374 9.63008 12.2102 9.68276 12.1165 9.77653C12.0227 9.8703 11.97 9.99748 11.97 10.1301V10.6301H11V9.21508C10.3422 9.07694 9.67219 9.00492 9.00002 9.00008C7.42191 8.99351 5.86633 9.37468 4.47002 10.1101C4.40783 10.1423 4.35577 10.1912 4.31959 10.2512C4.28341 10.3112 4.26453 10.38 4.26502 10.4501V13.2551H7.82002V16.3001C7.82002 16.4327 7.8727 16.5599 7.96647 16.6536C8.06024 16.7474 8.18742 16.8001 8.32002 16.8001H16.405C16.5376 16.8001 16.6648 16.7474 16.7586 16.6536C16.8523 16.5599 16.905 16.4327 16.905 16.3001V11.1301C16.905 10.9975 16.8523 10.8703 16.7586 10.7765C16.6648 10.6828 16.5376 10.6301 16.405 10.6301ZM15.905 15.8101H8.82002V11.6301H11.97V12.0851C11.97 12.2177 12.0227 12.3449 12.1165 12.4386C12.2102 12.5324 12.3374 12.5851 12.47 12.5851C12.6026 12.5851 12.7298 12.5324 12.8236 12.4386C12.9173 12.3449 12.97 12.2177 12.97 12.0851V11.6301H15.905V15.8101Z" fill="black"/>
</svg>
