<svg width="59" height="56" viewBox="0 0 59 56" fill="none" xmlns="http://www.w3.org/2000/svg">
<rect width="59" height="56" rx="10" fill="#F3F5F8"/>
<g clip-path="url(#clip0_744_4355)">
<path fill-rule="evenodd" clip-rule="evenodd" d="M38.0938 16H20.125C18.3992 16 17 17.3992 17 19.125V30.0625H41.2188V19.125C41.2188 17.3992 39.8195 16 38.0938 16ZM17 33.1875C17 34.9133 18.3992 36.3125 20.125 36.3125H38.0938C39.8195 36.3125 41.2188 34.9133 41.2188 33.1875V31.625H17V33.1875ZM34.1875 39.4375H32.625V37.875H26.375V39.4375H24.8125C24.3805 39.4375 24.0312 39.7875 24.0312 40.2188C24.0312 40.6508 24.3805 41 24.8125 41H34.1875C34.6195 41 34.9688 40.6508 34.9688 40.2188C34.9688 39.7875 34.6195 39.4375 34.1875 39.4375Z" fill="black"/>
</g>
<defs>
<clipPath id="clip0_744_4355">
<rect width="25" height="25" fill="white" transform="translate(17 16)"/>
</clipPath>
</defs>
</svg>
