<svg width="21" height="22" viewBox="0 0 21 22" fill="none" xmlns="http://www.w3.org/2000/svg">
<g clip-path="url(#clip0_746_4606)">
<rect x="8" y="14" width="6" height="7" fill="#FDB714"/>
<path d="M0.5 9.70263L1.7915 10.9736H4.354V19.9526C4.354 20.308 4.477 20.6086 4.723 20.8546C4.969 21.1006 5.26967 21.2236 5.625 21.2236H8.1875V16.0986C8.1875 15.7433 8.3105 15.4426 8.5565 15.1966C8.8025 14.9506 9.11 14.8276 9.479 14.8276H12.0415C12.3832 14.8276 12.6838 14.9506 12.9435 15.1966C13.2032 15.4426 13.3262 15.7433 13.3125 16.0986V21.2236H15.875C16.2303 21.2236 16.531 21.1006 16.777 20.8546C17.023 20.6086 17.1528 20.308 17.1665 19.9526V10.9736H19.729L21 9.70263L10.75 0.723633L0.5 9.70263ZM8.1875 9.70263C8.1875 8.99197 8.44033 8.3838 8.946 7.87813C9.45167 7.37247 10.053 7.12647 10.75 7.14013C11.447 7.1538 12.0483 7.3998 12.554 7.87813C13.0597 8.35647 13.3125 8.96463 13.3125 9.70263C13.3125 10.4406 13.0597 11.042 12.554 11.5066C12.0483 11.9713 11.447 12.2241 10.75 12.2651C10.053 12.3061 9.45167 12.0533 8.946 11.5066C8.44033 10.96 8.1875 10.3586 8.1875 9.70263Z" fill="black"/>
<circle cx="11" cy="10" r="3" fill="#00A9E2"/>
</g>
<defs>
<clipPath id="clip0_746_4606">
<rect width="20.5" height="20.5" fill="white" transform="translate(0.5 0.723633)"/>
</clipPath>
</defs>
</svg>
