<svg width="23" height="23" viewBox="0 0 23 23" fill="none" xmlns="http://www.w3.org/2000/svg">
<rect x="3" y="5" width="7" height="2" fill="#00A9E2"/>
<rect x="13" y="5" width="7" height="2" fill="#00A9E2"/>
<rect x="3" y="16" width="7" height="2" fill="#FDB714"/>
<rect x="13" y="16" width="7" height="2" fill="#FDB714"/>
<path d="M8.20312 3.75C9.62698 3.75 10.7812 4.90427 10.7812 6.32812V16.1719C10.7812 17.5957 9.62698 18.75 8.20312 18.75H4.45312C3.02927 18.75 1.875 17.5957 1.875 16.1719V6.32812C1.875 4.90427 3.02927 3.75 4.45312 3.75H8.20312ZM8.20312 5.15625H4.45312C3.80592 5.15625 3.28125 5.68092 3.28125 6.32812V16.1719C3.28125 16.8191 3.80592 17.3438 4.45312 17.3438H8.20312C8.85033 17.3438 9.375 16.8191 9.375 16.1719V6.32812C9.375 5.68092 8.85033 5.15625 8.20312 5.15625ZM18.0469 3.75C19.4707 3.75 20.625 4.90427 20.625 6.32812V16.1719C20.625 17.5957 19.4707 18.75 18.0469 18.75H14.2969C12.873 18.75 11.7188 17.5957 11.7188 16.1719V6.32812C11.7188 4.90427 12.873 3.75 14.2969 3.75H18.0469ZM18.0469 5.15625H14.2969C13.6497 5.15625 13.125 5.68092 13.125 6.32812V16.1719C13.125 16.8191 13.6497 17.3438 14.2969 17.3438H18.0469C18.6941 17.3438 19.2188 16.8191 19.2188 16.1719V6.32812C19.2188 5.68092 18.6941 5.15625 18.0469 5.15625ZM5.625 8.4375V14.0625C5.625 14.4508 5.9398 14.7656 6.32812 14.7656C6.71645 14.7656 7.03125 14.4508 7.03125 14.0625V8.4375C7.03125 8.04917 6.71645 7.73438 6.32812 7.73438C5.9398 7.73438 5.625 8.04917 5.625 8.4375ZM16.4062 9.14062V10.5469H15.2344C14.846 10.5469 14.5312 10.8617 14.5312 11.25V14.0625C14.5312 14.4508 14.846 14.7656 15.2344 14.7656H17.1094C17.4977 14.7656 17.8125 14.4508 17.8125 14.0625C17.8125 13.6742 17.4977 13.3594 17.1094 13.3594H15.9375V11.9531H17.1094C17.4977 11.9531 17.8125 11.6383 17.8125 11.25V8.4375C17.8125 8.04917 17.4977 7.73438 17.1094 7.73438H15.2344C14.846 7.73438 14.5312 8.04917 14.5312 8.4375C14.5312 8.82583 14.846 9.14062 15.2344 9.14062H16.4062Z" fill="#212121"/>
</svg>
