<svg width="19" height="19" viewBox="0 0 19 19" fill="none" xmlns="http://www.w3.org/2000/svg">
<path d="M6.84295 6.49815L8.96742 2.18491C9.18505 1.74305 9.81505 1.74305 10.0327 2.18491L12.1572 6.49815L16.9158 7.18579C17.4032 7.25621 17.5979 7.85507 17.2452 8.1987L13.8035 11.5523L14.616 16.291C14.6992 16.7762 14.1896 17.1461 13.7541 16.9167L9.50005 14.676L5.24608 16.9167C4.81028 17.1463 4.30059 16.7759 4.38424 16.2906L5.20075 11.5523L1.75512 8.19893C1.40214 7.85541 1.59683 7.25623 2.08432 7.18579L6.84295 6.49815Z" fill="#212121"/>
<path d="M0.921881 14.423C0.717029 14.167 0.758545 13.7933 1.01461 13.5885L2.99378 12.0051C3.24983 11.8003 3.62348 11.8418 3.82833 12.0979C4.03318 12.3539 3.99166 12.7276 3.7356 12.9325L1.75643 14.5158C1.50037 14.7206 1.12673 14.6791 0.921881 14.423Z" fill="#212121"/>
<path d="M17.9856 13.5884C18.2417 13.7933 18.2832 14.167 18.0783 14.423C17.8735 14.6791 17.4999 14.7206 17.2438 14.5158L15.2646 12.9325C15.0086 12.7276 14.967 12.3539 15.1719 12.0979C15.3768 11.8418 15.7504 11.8003 16.0065 12.0051L17.9856 13.5884Z" fill="#212121"/>
<path d="M0.921881 2.99435C0.717029 3.2504 0.758545 3.62404 1.01461 3.8289L2.99378 5.41223C3.24983 5.61708 3.62348 5.57557 3.82833 5.3195C4.03318 5.06345 3.99166 4.6898 3.7356 4.48495L1.75643 2.90162C1.50037 2.69677 1.12673 2.73828 0.921881 2.99435Z" fill="#212121"/>
<path d="M17.9856 3.8289C18.2417 3.62404 18.2832 3.2504 18.0783 2.99435C17.8735 2.73828 17.4999 2.69677 17.2438 2.90162L15.2646 4.48495C15.0086 4.6898 14.967 5.06345 15.1719 5.3195C15.3768 5.57557 15.7504 5.61708 16.0065 5.41223L17.9856 3.8289Z" fill="#212121"/>
</svg>
