<svg width="59" height="60" viewBox="0 0 59 60" fill="none" xmlns="http://www.w3.org/2000/svg">
<path d="M56.0398 12.87L58.7182 11.484L56.0398 10.098C53.5774 8.826 51.619 6.39 50.5966 3.33L49.483 0L48.3694 3.33C47.347 6.39 45.3886 8.826 42.9262 10.098L40.2478 11.484L42.9262 12.87C45.3886 14.142 47.347 16.578 48.3694 19.638L49.483 22.968L50.5966 19.638C51.619 16.578 53.5774 14.142 56.0398 12.87Z" fill="#293247"/>
<path d="M40.9534 21.0543C40.7182 21.1623 40.483 21.2643 40.243 21.3663C37.2574 22.6443 34.075 23.7843 30.883 23.5863C28.4398 23.4363 26.4334 22.1223 24.475 20.4123C22.7566 18.9123 21.0382 17.5923 18.859 17.6943C16.2142 17.8203 13.6414 19.2843 11.2174 20.4663C10.291 20.9163 9.35502 21.3723 8.40942 21.7983V31.1043C8.64462 31.0023 8.87502 30.8943 9.10542 30.7923C11.7742 29.5623 14.4046 27.9903 17.203 27.2763C19.4398 26.7063 21.4126 27.1923 23.3182 28.7343C25.1518 30.2163 26.8174 31.9203 28.9966 32.5743C31.9438 33.4563 35.1358 32.6223 37.9822 31.5843C38.9854 31.2183 39.9694 30.7983 40.9534 30.3603V21.0543Z" fill="#00A9E2"/>
<path d="M51.6912 44.9283C50.6544 44.7423 49.5888 44.7603 48.4848 45.0423C45.6528 45.7623 42.9696 47.2623 40.2432 48.4263C37.2576 49.7043 34.0752 50.8443 30.8832 50.6463C28.44 50.4963 26.4336 49.1823 24.4752 47.4723C22.7568 45.9723 21.0384 44.6523 18.8592 44.7543C17.6256 44.8143 16.4064 45.1683 15.2112 45.6483V54.9783C15.864 54.7263 16.5264 54.5043 17.1936 54.3303C19.4304 53.7603 21.4032 54.2463 23.3088 55.7883C25.1424 57.2703 26.808 58.9743 28.9872 59.6283C31.9344 60.5103 35.1264 59.6763 37.9728 58.6383C40.9248 57.5643 43.7472 56.0163 46.6944 54.9183C47.9952 54.4323 49.3536 54.0183 50.7168 54.0603C51.0384 54.0723 51.36 54.1143 51.6816 54.1683V44.9283H51.6912Z" fill="#00A9E2"/>
<path d="M58.7232 35.6942C57.8448 34.8422 56.904 34.0742 55.944 33.4022C53.6016 31.7702 51.1536 30.9422 48.4896 31.6202C45.6576 32.3402 42.9744 33.8402 40.248 35.0042C37.2624 36.2822 34.08 37.4222 30.888 37.2242C28.4448 37.0742 26.4384 35.7602 24.48 34.0502C22.7616 32.5502 21.0432 31.2302 18.864 31.3322C16.2192 31.4582 13.6464 32.9222 11.2224 34.1042C8.4048 35.4782 5.5008 36.9242 2.4528 37.2002C1.632 37.2722 0.8112 37.2122 0 37.0442V46.3982C0.1488 46.4282 0.3024 46.4582 0.4512 46.4762C3.3984 46.8722 6.3744 45.6782 9.1056 44.4242C11.7744 43.1942 14.4048 41.6222 17.2032 40.9082C19.44 40.3382 21.4128 40.8242 23.3184 42.3662C25.152 43.8482 26.8176 45.5522 28.9968 46.2062C31.944 47.0882 35.136 46.2542 37.9824 45.2162C40.9344 44.1422 43.7568 42.5942 46.704 41.4962C48.0048 41.0162 49.3632 40.5962 50.7264 40.6382C52.2288 40.6862 53.6928 41.3102 55.032 42.1202C56.3232 42.9002 57.576 43.8722 58.7184 44.9882V35.6942H58.7232Z" fill="#00A9E2"/>
</svg>
