<svg xmlns="http://www.w3.org/2000/svg" xmlns:xlink="http://www.w3.org/1999/xlink" width="637" height="486" viewBox="0 0 637 486">
  <defs>
    <linearGradient id="linear-gradient" y1="0.5" x2="1" y2="0.5" gradientUnits="objectBoundingBox">
      <stop offset="0" stop-color="#1d4b9e"/>
      <stop offset="1" stop-color="#36dcf2"/>
    </linearGradient>
    <linearGradient id="linear-gradient-2" y1="0.5" x2="1" y2="0.5" gradientUnits="objectBoundingBox">
      <stop offset="0" stop-color="#0f3f84"/>
      <stop offset="0.665" stop-color="#36dcf2"/>
      <stop offset="1" stop-color="#0f3f84"/>
    </linearGradient>
    <linearGradient id="linear-gradient-4" x1="0.079" y1="-0.023" x2="0.937" y2="1.018" gradientUnits="objectBoundingBox">
      <stop offset="0" stop-color="#1d4b9e"/>
      <stop offset="0.238" stop-color="#36dcf2"/>
      <stop offset="0.476" stop-color="#1d4b9e"/>
      <stop offset="0.624" stop-color="#36dcf2"/>
      <stop offset="1" stop-color="#1d4b9e"/>
    </linearGradient>
    <linearGradient id="linear-gradient-5" x1="0.5" y1="1" x2="0.5" y2="0" xlink:href="#linear-gradient"/>
    <linearGradient id="linear-gradient-6" y1="0.5" x2="1" y2="0.5" gradientUnits="objectBoundingBox">
      <stop offset="0" stop-color="#1d4b9e"/>
      <stop offset="1" stop-color="#033660"/>
    </linearGradient>
    <linearGradient id="linear-gradient-7" y1="0.5" x2="1" y2="0.5" gradientUnits="objectBoundingBox">
      <stop offset="0" stop-color="#25f26e"/>
      <stop offset="1" stop-color="#36dcf2"/>
    </linearGradient>
    <linearGradient id="linear-gradient-8" y1="0.5" x2="1" y2="0.5" gradientUnits="objectBoundingBox">
      <stop offset="0" stop-color="#5fff94"/>
      <stop offset="1" stop-color="#69ffff"/>
    </linearGradient>
    <linearGradient id="linear-gradient-9" x1="0.486" y1="0.543" x2="0.514" y2="0.457" gradientUnits="objectBoundingBox">
      <stop offset="0" stop-color="#fff"/>
      <stop offset="0.005" stop-color="#fff" stop-opacity="0.988"/>
      <stop offset="0.085" stop-color="#fff" stop-opacity="0.784"/>
      <stop offset="0.17" stop-color="#fff" stop-opacity="0.596"/>
      <stop offset="0.259" stop-color="#fff" stop-opacity="0.435"/>
      <stop offset="0.352" stop-color="#fff" stop-opacity="0.302"/>
      <stop offset="0.45" stop-color="#fff" stop-opacity="0.192"/>
      <stop offset="0.555" stop-color="#fff" stop-opacity="0.106"/>
      <stop offset="0.671" stop-color="#fff" stop-opacity="0.047"/>
      <stop offset="0.805" stop-color="#fff" stop-opacity="0.012"/>
      <stop offset="1" stop-color="#fff" stop-opacity="0"/>
    </linearGradient>
    <linearGradient id="linear-gradient-10" x1="0.5" y1="1" x2="0.5" gradientUnits="objectBoundingBox">
      <stop offset="0" stop-color="#2adb65"/>
      <stop offset="1" stop-color="#11becc"/>
    </linearGradient>
    <linearGradient id="linear-gradient-11" x1="0" y1="0.5" x2="1" y2="0.5" xlink:href="#linear-gradient-9"/>
    <linearGradient id="linear-gradient-12" y1="0.5" x2="1" y2="0.5" gradientUnits="objectBoundingBox">
      <stop offset="0" stop-color="#f96e8d"/>
      <stop offset="1" stop-color="#ffeb33"/>
    </linearGradient>
    <radialGradient id="radial-gradient" cx="0.5" cy="0.5" r="0.771" gradientTransform="translate(0.176 0.178) scale(0.648 0.648)" gradientUnits="objectBoundingBox">
      <stop offset="0" stop-color="#25f26e"/>
      <stop offset="0.023" stop-color="#26f078" stop-opacity="0.922"/>
      <stop offset="0.086" stop-color="#29ec91" stop-opacity="0.729"/>
      <stop offset="0.154" stop-color="#2ce8a8" stop-opacity="0.557"/>
      <stop offset="0.226" stop-color="#2fe4bc" stop-opacity="0.404"/>
      <stop offset="0.304" stop-color="#31e2cd" stop-opacity="0.278"/>
      <stop offset="0.389" stop-color="#32dfda" stop-opacity="0.176"/>
      <stop offset="0.484" stop-color="#34dee5" stop-opacity="0.098"/>
      <stop offset="0.594" stop-color="#35dcec" stop-opacity="0.043"/>
      <stop offset="0.733" stop-color="#35dcf0" stop-opacity="0.008"/>
      <stop offset="1" stop-color="#36dcf2" stop-opacity="0"/>
    </radialGradient>
    <linearGradient id="linear-gradient-13" y1="0.5" x2="1" y2="0.5" gradientUnits="objectBoundingBox">
      <stop offset="0" stop-color="#23bee2"/>
      <stop offset="1" stop-color="#0771a5"/>
    </linearGradient>
    <linearGradient id="linear-gradient-14" x1="-100.825" y1="0.5" x2="-99.825" y2="0.5" gradientUnits="objectBoundingBox">
      <stop offset="0" stop-color="#083a63"/>
      <stop offset="1" stop-color="#062638"/>
    </linearGradient>
    <linearGradient id="linear-gradient-15" x1="-99.051" y1="0.5" x2="-98.051" y2="0.5" xlink:href="#linear-gradient-14"/>
    <linearGradient id="linear-gradient-16" x1="-63.977" y1="0.5" x2="-62.977" y2="0.5" gradientUnits="objectBoundingBox">
      <stop offset="0" stop-color="#ffba1f"/>
      <stop offset="0.004" stop-color="#fab720"/>
      <stop offset="0.044" stop-color="#cca02c"/>
      <stop offset="0.089" stop-color="#a28a37"/>
      <stop offset="0.138" stop-color="#7d7740"/>
      <stop offset="0.191" stop-color="#5c6749"/>
      <stop offset="0.25" stop-color="#415950"/>
      <stop offset="0.317" stop-color="#2b4e56"/>
      <stop offset="0.395" stop-color="#1a455a"/>
      <stop offset="0.491" stop-color="#0e3f5d"/>
      <stop offset="0.626" stop-color="#073b5f"/>
      <stop offset="1" stop-color="#063b60"/>
    </linearGradient>
    <linearGradient id="linear-gradient-17" x1="-54.706" y1="0.5" x2="-53.706" y2="0.5" gradientUnits="objectBoundingBox">
      <stop offset="0" stop-color="#ecff7d"/>
      <stop offset="0.378" stop-color="#36dcf2"/>
      <stop offset="1" stop-color="#34a8e2"/>
    </linearGradient>
    <linearGradient id="linear-gradient-18" x1="-73.743" y1="0.5" x2="-72.743" y2="0.5" gradientUnits="objectBoundingBox">
      <stop offset="0" stop-color="#40ffa8"/>
      <stop offset="0.055" stop-color="#3fd88d"/>
      <stop offset="0.126" stop-color="#3eaf70"/>
      <stop offset="0.203" stop-color="#3e8a57"/>
      <stop offset="0.286" stop-color="#3d6b41"/>
      <stop offset="0.376" stop-color="#3d5230"/>
      <stop offset="0.475" stop-color="#3d3e22"/>
      <stop offset="0.59" stop-color="#3d3119"/>
      <stop offset="0.734" stop-color="#3d2913"/>
      <stop offset="1" stop-color="#3d2712"/>
    </linearGradient>
    <linearGradient id="linear-gradient-19" x1="-106.932" y1="0.5" x2="-105.932" y2="0.5" xlink:href="#linear-gradient-13"/>
  </defs>
  <g id="Group_1830" data-name="Group 1830" transform="translate(-1162 -235.418)">
    <circle id="Ellipse_288" data-name="Ellipse 288" cx="243" cy="243" r="243" transform="translate(1162 235.418)" fill="#ceeceb" opacity="0.83"/>
    <circle id="Ellipse_289" data-name="Ellipse 289" cx="198" cy="198" r="198" transform="translate(1403 313.418)" fill="#bee9e7" opacity="0.83"/>
    <g id="Group_1821" data-name="Group 1821" transform="translate(1289.946 273.323) rotate(3)">
      <g id="Group_1809" data-name="Group 1809" transform="translate(0 157.471)">
        <path id="Path_29960" data-name="Path 29960" d="M3.089,88.512,195.241,199.445a20.768,20.768,0,0,0,20.769,0l133.675-77.165L137.881,0,3.089,77.812A6.178,6.178,0,0,0,3.089,88.512Z" transform="translate(0 31.909)" opacity="0.5" fill="url(#linear-gradient)" style="mix-blend-mode: multiply;isolation: isolate"/>
        <path id="Path_29961" data-name="Path 29961" d="M331.676,111.881,137.881,0,7.906,75.029l.357-1.811L0,72.036v6.332l.009,0a6.118,6.118,0,0,0,3.08,5.49L195.241,194.789a20.77,20.77,0,0,0,20.769,0l133.674-77.166v-6.47Z" transform="translate(0 11.126)" fill="url(#linear-gradient-2)"/>
        <path id="Path_29962" data-name="Path 29962" d="M3.089,88.512,195.241,199.445a20.768,20.768,0,0,0,20.769,0l133.675-77.165L137.881,0,3.089,77.812A6.178,6.178,0,0,0,3.089,88.512Z" transform="translate(0)" fill="url(#linear-gradient)"/>
      </g>
      <g id="Group_1810" data-name="Group 1810" transform="translate(131.967 0)">
        <path id="Path_29963" data-name="Path 29963" d="M205.188,112.367,12.042.853a6.271,6.271,0,0,0-6.586.168l-.01-.006L0,4.152,1.7,6.27l.838.13V157.473L201.832,272.527l-.436.831,7.032,9.805,5.918-3.411.094-151.35A18.5,18.5,0,0,0,205.188,112.367Z" transform="translate(3.375)" fill="url(#linear-gradient-4)"/>
        <path id="Path_29964" data-name="Path 29964" d="M0,157.478V6.342A6.332,6.332,0,0,1,9.5.858L202.646,112.371a18.5,18.5,0,0,1,9.251,16.035l-.094,151.35Z" transform="translate(0 3.408)" fill="url(#linear-gradient-5)"/>
      </g>
      <path id="Path_29965" data-name="Path 29965" d="M0,145.9,197.2,259.784V114L0,0Z" transform="translate(139.727 11.569)" fill="url(#linear-gradient-6)"/>
      <g id="Group_1814" data-name="Group 1814" transform="translate(69.596 178.232)">
        <g id="Group_1813" data-name="Group 1813">
          <path id="Path_29966" data-name="Path 29966" d="M0,3.764l11.68,6.8L18.255,6.8,6.575,0Z" transform="translate(224.217 92.248)" fill="#163e6d"/>
          <path id="Path_29967" data-name="Path 29967" d="M0,7.141l13.878,8.076L26.353,8.076,12.474,0Z" transform="translate(205.617 96.98)" fill="#163e6d"/>
          <path id="Path_29968" data-name="Path 29968" d="M0,7.141l13.878,8.076L26.352,8.076,12.474,0Z" transform="translate(188.258 86.878)" fill="#163e6d"/>
          <path id="Path_29969" data-name="Path 29969" d="M0,7.141l13.878,8.076L26.353,8.076,12.474,0Z" transform="translate(170.898 76.776)" fill="#163e6d"/>
          <path id="Path_29970" data-name="Path 29970" d="M0,7.141l13.878,8.076L26.352,8.076,12.474,0Z" transform="translate(153.538 66.673)" fill="#163e6d"/>
          <path id="Path_29971" data-name="Path 29971" d="M0,7.141l13.878,8.076L26.353,8.076,12.474,0Z" transform="translate(136.178 56.571)" fill="#163e6d"/>
          <path id="Path_29972" data-name="Path 29972" d="M0,7.141l13.878,8.076L26.352,8.076,12.474,0Z" transform="translate(118.818 46.469)" fill="#163e6d"/>
          <path id="Path_29973" data-name="Path 29973" d="M0,7.141l13.878,8.076L26.353,8.076,12.474,0Z" transform="translate(101.458 36.367)" fill="#163e6d"/>
          <path id="Path_29974" data-name="Path 29974" d="M0,7.141l13.878,8.076L26.352,8.076,12.474,0Z" transform="translate(84.098 26.264)" fill="#163e6d"/>
          <path id="Path_29975" data-name="Path 29975" d="M0,7.141l13.878,8.076L26.353,8.076,12.474,0Z" transform="translate(145.283 99.737)" fill="#163e6d"/>
          <path id="Path_29976" data-name="Path 29976" d="M0,7.141l13.878,8.076L26.353,8.076,12.474,0Z" transform="translate(127.923 89.634)" fill="#163e6d"/>
          <path id="Path_29977" data-name="Path 29977" d="M0,7.141l13.878,8.076L26.353,8.076,12.474,0Z" transform="translate(110.563 79.532)" fill="#163e6d"/>
          <path id="Path_29978" data-name="Path 29978" d="M0,7.141l13.878,8.076L26.353,8.076,12.474,0Z" transform="translate(93.203 69.43)" fill="#163e6d"/>
          <path id="Path_29979" data-name="Path 29979" d="M0,7.141l13.878,8.076L26.352,8.076,12.474,0Z" transform="translate(75.843 59.328)" fill="#163e6d"/>
          <path id="Path_29980" data-name="Path 29980" d="M0,7.141l20.827,12.12L33.3,12.12,12.474,0Z" transform="translate(51.535 45.182)" fill="#163e6d"/>
          <path id="Path_29981" data-name="Path 29981" d="M0,7.141,13.695,15.11,26.169,7.969,12.474,0Z" transform="translate(66.83 16.215)" fill="#163e6d"/>
          <path id="Path_29982" data-name="Path 29982" d="M0,7.141,13.695,15.11,26.169,7.969,12.474,0Z" transform="translate(49.124 5.911)" fill="#163e6d"/>
          <path id="Path_29983" data-name="Path 29983" d="M0,7.141l13.878,8.076L26.353,8.076,12.474,0Z" transform="translate(189.216 106.37)" fill="#163e6d"/>
          <path id="Path_29984" data-name="Path 29984" d="M0,7.141l13.878,8.076L26.352,8.076,12.474,0Z" transform="translate(171.856 96.267)" fill="#163e6d"/>
          <g id="Group_1811" data-name="Group 1811" transform="translate(0 34.476)">
            <path id="Path_29985" data-name="Path 29985" d="M0,7.141l13.878,8.076L26.352,8.076,12.474,0Z" transform="translate(17.36 10.102)" fill="#163e6d"/>
            <path id="Path_29986" data-name="Path 29986" d="M0,7.141l13.878,8.076L26.353,8.076,12.474,0Z" fill="#163e6d"/>
          </g>
          <path id="Path_29987" data-name="Path 29987" d="M0,7.141,100.117,65.4l12.474-7.141L12.474,0Z" transform="translate(35.133 54.571)" fill="#163e6d"/>
          <path id="Path_29988" data-name="Path 29988" d="M0,7.141l13.878,8.076L26.353,8.076,12.474,0Z" transform="translate(154.496 86.165)" fill="#163e6d"/>
          <path id="Path_29989" data-name="Path 29989" d="M0,7.141l13.878,8.076L26.352,8.076,12.474,0Z" transform="translate(137.137 76.063)" fill="#163e6d"/>
          <path id="Path_29990" data-name="Path 29990" d="M0,7.141l13.878,8.076L26.352,8.076,12.474,0Z" transform="translate(119.777 65.96)" fill="#163e6d"/>
          <path id="Path_29991" data-name="Path 29991" d="M0,7.141l13.878,8.076L26.352,8.076,12.474,0Z" transform="translate(102.417 55.858)" fill="#163e6d"/>
          <path id="Path_29992" data-name="Path 29992" d="M0,7.141l13.878,8.076L26.352,8.076,12.474,0Z" transform="translate(85.057 45.756)" fill="#163e6d"/>
          <path id="Path_29993" data-name="Path 29993" d="M0,7.141l13.878,8.076L26.352,8.076,12.474,0Z" transform="translate(67.697 35.653)" fill="#163e6d"/>
          <path id="Path_29994" data-name="Path 29994" d="M0,7.141,31.228,25.314,43.7,18.173,12.474,0Z" transform="translate(32.895 15.401)" fill="#163e6d"/>
          <path id="Path_29995" data-name="Path 29995" d="M0,7.141,32.9,26.289l12.474-7.141L12.474,0Z" transform="translate(16.494 24.79)" fill="#163e6d"/>
          <g id="Group_1812" data-name="Group 1812" transform="translate(138.888 117.673)">
            <path id="Path_29996" data-name="Path 29996" d="M0,3.57,32.9,22.718l6.237-3.57L6.237,0Z" fill="#163e6d"/>
            <path id="Path_29997" data-name="Path 29997" d="M0,7.141l11.143,6.485L23.618,6.485,12.474,0Z" transform="translate(10.88 2.761)" fill="#163e6d"/>
          </g>
          <path id="Path_29998" data-name="Path 29998" d="M0,7.141,24.3,21.281,36.773,14.14,12.474,0Z" transform="translate(162.394 109.694)" fill="#163e6d"/>
          <path id="Path_29999" data-name="Path 29999" d="M0,3.764l11.68,6.8L18.255,6.8,6.575,0Z" transform="translate(208.365 83.023)" fill="#163e6d"/>
          <path id="Path_30000" data-name="Path 30000" d="M0,3.764l11.68,6.8L18.255,6.8,6.575,0Z" transform="translate(192.513 73.798)" fill="#163e6d"/>
          <path id="Path_30001" data-name="Path 30001" d="M0,3.764l11.68,6.8L18.255,6.8,6.575,0Z" transform="translate(176.661 64.573)" fill="#163e6d"/>
          <path id="Path_30002" data-name="Path 30002" d="M0,3.764l11.68,6.8L18.255,6.8,6.575,0Z" transform="translate(160.809 55.349)" fill="#163e6d"/>
          <path id="Path_30003" data-name="Path 30003" d="M0,3.764l11.68,6.8L18.255,6.8,6.575,0Z" transform="translate(144.957 46.124)" fill="#163e6d"/>
          <path id="Path_30004" data-name="Path 30004" d="M0,3.764l11.68,6.8L18.255,6.8,6.575,0Z" transform="translate(129.105 36.899)" fill="#163e6d"/>
          <path id="Path_30005" data-name="Path 30005" d="M0,3.764l11.68,6.8L18.255,6.8,6.575,0Z" transform="translate(113.253 27.674)" fill="#163e6d"/>
          <path id="Path_30006" data-name="Path 30006" d="M0,3.764l11.68,6.8L18.255,6.8,6.575,0Z" transform="translate(97.402 18.449)" fill="#163e6d"/>
          <path id="Path_30007" data-name="Path 30007" d="M0,3.764l11.68,6.8L18.255,6.8,6.575,0Z" transform="translate(81.55 9.225)" fill="#163e6d"/>
          <path id="Path_30008" data-name="Path 30008" d="M0,3.764l11.68,6.8L18.255,6.8,6.575,0Z" transform="translate(65.698)" fill="#163e6d"/>
        </g>
        <path id="Path_30009" data-name="Path 30009" d="M105.632,40.245,37.442.875a6.531,6.531,0,0,0-6.53,0L1.167,17.895a2.333,2.333,0,0,0,0,4.042l68.4,39.494a6.248,6.248,0,0,0,6.247,0l29.813-17.059A2.383,2.383,0,0,0,105.632,40.245Z" transform="translate(9.316 73.569)" fill="#163e6d"/>
      </g>
      <path id="Path_30010" data-name="Path 30010" d="M.433,2.692c.608,1.026,1.634,1.543,2.289,1.154s.694-1.537.085-2.563S1.173-.26.518.13-.176,1.666.433,2.692Z" transform="translate(250.351 70.542)" fill="#235091"/>
      <g id="Group_1816" data-name="Group 1816" transform="translate(118.173 22.187)">
        <path id="Path_30011" data-name="Path 30011" d="M223.842,176.316V129.235L0,0V47.008Z" transform="translate(0 7.61)" fill="url(#linear-gradient-7)"/>
        <path id="Path_30012" data-name="Path 30012" d="M0,1.367,2.366,0l223.9,129.271-2.429,1.331Z" transform="translate(0 6.243)" fill="url(#linear-gradient-8)"/>
        <path id="Path_30013" data-name="Path 30013" d="M0,7.61,13.843,0l223.9,129.271-13.906,7.573Z" fill="url(#linear-gradient-9)"/>
        <path id="Path_30014" data-name="Path 30014" d="M0,1.331,2.429,0V47.008L0,48.411Z" transform="translate(223.842 135.514)" fill="url(#linear-gradient-10)"/>
        <path id="Path_30015" data-name="Path 30015" d="M0,8.511,15.3,0V47.008L0,55.592Z" transform="translate(223.842 128.333)" fill="url(#linear-gradient-11)"/>
        <g id="Group_1815" data-name="Group 1815" transform="translate(20.382 45.358)">
          <path id="Path_30016" data-name="Path 30016" d="M7.5,7.531c0,2.754-1.679,4.042-3.75,2.875S0,6.059,0,3.3,1.679-.737,3.75.431,7.5,4.777,7.5,7.531Z" fill="#005448"/>
          <path id="Path_30017" data-name="Path 30017" d="M7.5,7.531c0,2.754-1.679,4.041-3.75,2.874S0,6.059,0,3.305,1.679-.736,3.75.43,7.5,4.777,7.5,7.531Z" transform="translate(12.272 6.915)" fill="#005448"/>
          <path id="Path_30018" data-name="Path 30018" d="M7.5,7.531c0,2.754-1.679,4.042-3.75,2.875S0,6.06,0,3.305,1.679-.737,3.75.431,7.5,4.776,7.5,7.531Z" transform="translate(24.542 13.829)" fill="#005448"/>
          <ellipse id="Ellipse_284" data-name="Ellipse 284" cx="3.27" cy="5.719" rx="3.27" ry="5.719" transform="translate(35.316 22.177) rotate(-23.023)" fill="#005448"/>
          <path id="Path_30019" data-name="Path 30019" d="M7.5,7.532c0,2.754-1.679,4.041-3.75,2.874S0,6.06,0,3.305,1.679-.737,3.75.431,7.5,4.777,7.5,7.532Z" transform="translate(49.084 27.658)" fill="#005448"/>
          <path id="Path_30020" data-name="Path 30020" d="M7.5,7.531c0,2.756-1.679,4.042-3.75,2.875S0,6.06,0,3.305,1.679-.737,3.75.431,7.5,4.776,7.5,7.531Z" transform="translate(61.355 34.573)" fill="#005448"/>
          <path id="Path_30021" data-name="Path 30021" d="M7.5,7.531c0,2.754-1.68,4.041-3.751,2.875S0,6.059,0,3.3,1.679-.737,3.75.431,7.5,4.777,7.5,7.531Z" transform="translate(73.625 41.488)" fill="#005448"/>
          <path id="Path_30022" data-name="Path 30022" d="M7.5,7.532c0,2.754-1.679,4.041-3.75,2.874S0,6.06,0,3.305,1.679-.737,3.75.431,7.5,4.776,7.5,7.532Z" transform="translate(85.897 48.402)" fill="#005448"/>
          <path id="Path_30023" data-name="Path 30023" d="M7.5,7.531c0,2.754-1.679,4.042-3.75,2.875S0,6.06,0,3.306,1.679-.737,3.75.431,7.5,4.777,7.5,7.531Z" transform="translate(98.168 55.317)" fill="#005448"/>
          <path id="Path_30024" data-name="Path 30024" d="M7.5,7.531c0,2.754-1.679,4.041-3.75,2.875S0,6.059,0,3.3,1.679-.737,3.75.431,7.5,4.777,7.5,7.531Z" transform="translate(110.438 62.232)" fill="#005448"/>
          <path id="Path_30025" data-name="Path 30025" d="M7.5,7.532c0,2.754-1.679,4.041-3.75,2.874S0,6.06,0,3.305,1.679-.737,3.75.431,7.5,4.776,7.5,7.532Z" transform="translate(122.71 69.146)" fill="#005448"/>
          <path id="Path_30026" data-name="Path 30026" d="M7.5,7.531c0,2.754-1.679,4.042-3.75,2.875S0,6.06,0,3.306,1.679-.737,3.75.431,7.5,4.777,7.5,7.531Z" transform="translate(134.98 76.061)" fill="#005448"/>
          <path id="Path_30027" data-name="Path 30027" d="M7.5,7.531c0,2.754-1.679,4.041-3.75,2.875S0,6.06,0,3.305,1.679-.736,3.75.43,7.5,4.777,7.5,7.531Z" transform="translate(147.251 82.975)" fill="#005448"/>
          <path id="Path_30028" data-name="Path 30028" d="M7.5,7.531c0,2.755-1.679,4.042-3.75,2.875S0,6.06,0,3.305,1.679-.737,3.75.431,7.5,4.776,7.5,7.531Z" transform="translate(159.522 89.89)" fill="#005448"/>
          <path id="Path_30029" data-name="Path 30029" d="M7.5,7.531c0,2.754-1.679,4.042-3.75,2.875S0,6.06,0,3.3,1.679-.737,3.75.431,7.5,4.777,7.5,7.531Z" transform="translate(171.793 96.805)" fill="#005448"/>
        </g>
      </g>
      <g id="Group_1818" data-name="Group 1818" transform="translate(192.177 143.921)">
        <path id="Path_30030" data-name="Path 30030" d="M63.569,64V36.7L0,0V27.278Z" transform="translate(0 3.225)" fill="url(#linear-gradient-12)"/>
        <path id="Path_30031" data-name="Path 30031" d="M0,3.225,5.568,0,69.155,36.712l-5.586,3.215Z" fill="#e6e6e6"/>
        <path id="Path_30032" data-name="Path 30032" d="M0,3.215,5.586,0V27.278L0,30.514Z" transform="translate(63.569 36.712)" fill="#bfbfbf"/>
        <g id="Group_1817" data-name="Group 1817" transform="translate(5.712 15.385)">
          <path id="Path_30033" data-name="Path 30033" d="M0,0,2.663,1.519A4.7,4.7,0,0,1,5.091,5.682c0,1.261-.716,2.045-1.861,1.559L5.38,13,4.1,12.264,2.171,6.791,1.026,6.138v4.376L0,9.927ZM1.026,4.961l1.347.768C3.187,6.193,4,6.405,4,5.059A2.8,2.8,0,0,0,2.374,2.532L1.026,1.763Z" fill="#fff"/>
          <path id="Path_30034" data-name="Path 30034" d="M0,0,4.888,2.789V4.05l-3.861-2.2V4.807l3.593,2.05V8.119L1.027,6.068V9.252l4.053,2.313v1.262L0,9.927Z" transform="translate(7.075 4.037)" fill="#fff"/>
          <path id="Path_30035" data-name="Path 30035" d="M6.922,6.833v4.893A4.723,4.723,0,0,1,4.056,11,8.943,8.943,0,0,1,0,3.472C0,.527,1.637-.81,3.948.508a6.851,6.851,0,0,1,2.823,2.9l-.727.608a5.456,5.456,0,0,0-2.1-2.248C2.215.781,1.092,1.922,1.092,4.095A6.861,6.861,0,0,0,4.034,9.728a3.2,3.2,0,0,0,1.861.542V7.509L4.216,6.55V5.289Z" transform="translate(13.679 9.297)" fill="#fff"/>
          <path id="Path_30036" data-name="Path 30036" d="M0,0,1.027.586v9.928L0,9.927Z" transform="translate(23.013 13.131)" fill="#fff"/>
          <path id="Path_30037" data-name="Path 30037" d="M.845,7.392A3.934,3.934,0,0,0,2.451,9.374c.673.384,1.508.3,1.508-.794,0-2.286-3.733-3-3.733-6.87C.225.546.974-.639,2.793.4A5.019,5.019,0,0,1,4.975,2.78L4.14,3.3A3.3,3.3,0,0,0,2.793,1.661c-1.134-.647-1.476.055-1.476.673,0,2.509,3.733,3.139,3.733,6.714,0,1.922-1.177,2.4-2.632,1.57A5.791,5.791,0,0,1,0,7.864Z" transform="translate(25.902 15.722)" fill="#fff"/>
          <path id="Path_30038" data-name="Path 30038" d="M2.439,2.654,0,1.262V0L5.905,3.369V4.631L3.466,3.239v8.666l-1.026-.586Z" transform="translate(32.154 18.347)" fill="#fff"/>
          <path id="Path_30039" data-name="Path 30039" d="M0,0,4.888,2.788V4.05l-3.861-2.2V4.807l3.593,2.05V8.119L1.027,6.068V9.252l4.053,2.313v1.262L0,9.927Z" transform="translate(39.69 22.647)" fill="#fff"/>
          <path id="Path_30040" data-name="Path 30040" d="M0,0,2.664,1.52A4.7,4.7,0,0,1,5.092,5.683c0,1.261-.716,2.044-1.861,1.559L5.381,13,4.1,12.265,2.172,6.791,1.027,6.139v4.375L0,9.928ZM1.027,4.961l1.347.769C3.188,6.194,4,6.406,4,5.06A2.8,2.8,0,0,0,2.375,2.532L1.027,1.763Z" transform="translate(46.764 26.683)" fill="#fff"/>
        </g>
      </g>
      <ellipse id="Ellipse_285" data-name="Ellipse 285" cx="79.282" cy="51.404" rx="79.282" ry="51.404" transform="translate(103.567 196.681)" fill="url(#radial-gradient)" style="mix-blend-mode: screen;isolation: isolate"/>
      <g id="Group_1820" data-name="Group 1820" transform="translate(161.223 87.803)">
        <path id="Path_30041" data-name="Path 30041" d="M1.581.372A53.466,53.466,0,0,0,0,6.915C-.143,8.677,4.445,20.28,4.445,20.28l2.184-16.2L3.809,0Z" transform="translate(0 46.202)" fill="#d9d9d9"/>
        <path id="Path_30042" data-name="Path 30042" d="M8.649.141C4.505-.583,1.634,1.512,1.416,5.831l-.022,0L0,14.976s2,2.157,3.944,1.776A4.323,4.323,0,0,0,7.8,12.63c.094-2.481.853-8,.853-8L7.6,4.8C8.241,2.26,8.649.141,8.649.141Z" transform="translate(1.163 31.736)" fill="url(#linear-gradient-13)"/>
        <path id="Path_30043" data-name="Path 30043" d="M.24,3.4C.3,5.146-1.421,10.645,3.546,10.553c3.848.46,11.845-5.895,14.125-7.211S16.1-1.566,6.514.773C4.892,1.53.24,3.4.24,3.4Z" transform="translate(19.565 158.582)" fill="url(#linear-gradient-14)"/>
        <path id="Path_30044" data-name="Path 30044" d="M.241,3.4C.3,5.146-1.421,10.645,3.546,10.554c3.848.459,11.845-5.895,14.126-7.212S16.1-1.566,6.514.773C4.892,1.529.241,3.4.241,3.4Z" transform="translate(3.342 148.606)" fill="url(#linear-gradient-15)"/>
        <path id="Path_30045" data-name="Path 30045" d="M32.318,10.423,10.372,32.379,7.127,28.918S-2.689,30.639.719,34.533s6.76,5.538,10.707,5.9c3.295.3,24.984-26.322,24.984-26.322a12.48,12.48,0,0,0,5.245-8.72C41.312,3.772,39.128.378,36.72,0c-1.677-.041-2.96,3.905-3.394,5.287-.412,1.317-1.027.31-2-.663s-2.066-.311-.394,2.488C31.545,8.138,31,9.572,32.318,10.423Z" transform="translate(34.391 24.879)" fill="#cfcfcf"/>
        <path id="Path_30046" data-name="Path 30046" d="M3.513.648,9.407,0l.567,2.87,6.772,1.338,11.7,2.337L27.415,46.452,25.537,83.284s-3.079,2.737-7.289,0c0,0-4.933-28.18-1.5-38.235C15.493,41,15.676,34.67,13.5,30.677l-.3,15.1-3.8,29.895c-7.346,1.819-7.292-2.6-7.292-2.6A135.065,135.065,0,0,1,2.942,42.25C3.1,32.872-4.13,7.052,3.513.648Z" transform="translate(1.306 80.728)" fill="url(#linear-gradient-16)"/>
        <path id="Path_30047" data-name="Path 30047" d="M20.816,3.269C19,4.911,11.755,3.618,11.884.931,10.225.283,9.045-.285,7.332.156c-4.06,1.048-3.41,7.4-3.791,10.7-.6,5.154.561,16.269.539,27.631C4.069,44.156.148,50.236,0,54.31c0,3.807,9.531,8.561,17.179,9.967,5.287.973,13.586-.96,13.55-2.649s.392-28.1,1.652-32.782S33.76,12.3,31.81,9.924C29.339,6.906,20.816,3.269,20.816,3.269Z" transform="translate(0 31.668)" fill="url(#linear-gradient-17)"/>
        <g id="Group_1819" data-name="Group 1819" transform="translate(4.819 0)">
          <path id="Path_30048" data-name="Path 30048" d="M22.222,6.1c1.287,2.831.027,4.319.127,6.4,0,1.842,1.383,9.545-2.249,10.363a12.01,12.01,0,0,1-4.28.281l-1.866,5.3c-1.028,2.013-9.54,1.135-8.858-3.105l.414-3.72C3.574,20.732,0,17.53,0,11.2S6.745,0,12.827,0,21.865,5.32,22.222,6.1Z" transform="translate(1.811 7.152)" fill="#d9d9d9"/>
          <path id="Path_30049" data-name="Path 30049" d="M18.713,21.272c-1-.588-3.389,2.374-.307,5.05a3.818,3.818,0,0,1-1.135,2.717c-.77.852.649.934-1.419,1.988s-5.7.316-6.4.6c.016-.722-1.229-.34-2.281-2.417C5.753,27.336,3.767,27.323,2.1,23.5A10.114,10.114,0,0,1,.94,19.143a5.223,5.223,0,0,0-.5,2.785s-2.1-6.162,2.883-10.09A4.991,4.991,0,0,0,.278,13.3,7.593,7.593,0,0,1,5.45,9.973c1.966-.888,1.583-2.383,5.7-3.017s3.9-3.449,3.244-4.594c0,0,2.481,1.95,2.294,3.586A5.672,5.672,0,0,0,16.014,0s3.792,1.73,3.619,7.152a8.3,8.3,0,0,0,.315-4.214c.933.307,6.136,7.064,4.434,11.249s-5.467,4.011-5.367,5.4S18.713,21.272,18.713,21.272Z" fill="url(#linear-gradient-18)"/>
        </g>
        <path id="Path_30050" data-name="Path 30050" d="M4.451.222c4.97,1.489,8.265,6.881,12.9,13.952-.081,1.541-3.163,6.819-6.733,8.237,0,0-5.962-6.087-8.065-9.372C-.791,7.818-1.5-1.561,4.451.222Z" transform="translate(24.521 39.136)" fill="url(#linear-gradient-19)"/>
      </g>
    </g>
  </g>
</svg>
