<svg xmlns="http://www.w3.org/2000/svg" width="200.339" height="52" viewBox="0 0 200.339 52">
  <g id="JINZY_logo" data-name="JINZY logo" transform="translate(-150 -48)">
    <g id="Group_11539" data-name="Group 11539" transform="translate(150 48)">
      <rect id="Rectangle_853" data-name="Rectangle 853" width="52" height="52" rx="12" fill="#324368"/>
      <rect id="Rectangle_854" data-name="Rectangle 854" width="31.534" height="32.118" rx="6" transform="translate(10.164 10.164)" fill="#fff"/>
      <g id="Group_11538" data-name="Group 11538" transform="translate(19.312 15.246)">
        <path id="Path_31028" data-name="Path 31028" d="M11.812-19.113a6.58,6.58,0,0,1-1.6,4.735A5.874,5.874,0,0,1,5.751-12.7a6.852,6.852,0,0,1-3.205-.772,7.862,7.862,0,0,1-2.594-2.2l1.37-2.2A7.043,7.043,0,0,0,3.434-16.1a4.861,4.861,0,0,0,2.288.609,3.043,3.043,0,0,0,2.419-.965A4.038,4.038,0,0,0,8.986-19.2V-30.988h-7.2V-33.6H11.812Z" transform="translate(0.718 34.151)" fill="#324368"/>
        <path id="Path_31028_-_Outline" data-name="Path 31028 - Outline" d="M3.376-14.1a7.428,7.428,0,0,1-3.459-.834,8.444,8.444,0,0,1-2.774-2.347l-.235-.3,1.975-3.169.487.586a6.531,6.531,0,0,0,1.947,1.632,4.341,4.341,0,0,0,2.031.545,2.5,2.5,0,0,0,2.005-.777,3.536,3.536,0,0,0,.709-2.384V-32.388h-7.2V-36.1H9.988v15.037a9.032,9.032,0,0,1-.43,2.889,5.947,5.947,0,0,1-1.325,2.226,5.662,5.662,0,0,1-2.12,1.393A7.765,7.765,0,0,1,3.376-14.1Zm-5.125-3.561A7.243,7.243,0,0,0,.424-15.911a6.339,6.339,0,0,0,2.952.71,5.305,5.305,0,0,0,4.061-1.507,6.086,6.086,0,0,0,1.45-4.355V-35H-.037v1.513h7.2v12.335a5.936,5.936,0,0,1-.236,1.739,3.716,3.716,0,0,1-.746,1.369,3.581,3.581,0,0,1-2.832,1.152A5.426,5.426,0,0,1,.8-17.564,7.253,7.253,0,0,1-.972-18.907Z" transform="translate(3.092 36.1)" fill="#324368"/>
      </g>
    </g>
    <g id="Group_2220" data-name="Group 2220" transform="translate(211.825 53.082)">
      <rect id="Rectangle_133" data-name="Rectangle 133" width="138.087" height="1.12" transform="translate(0 30.858)" fill="#324368"/>
      <path id="Path_153" data-name="Path 153" d="M15-15.215a8.351,8.351,0,0,1-2.034,6.009A7.454,7.454,0,0,1,7.311-7.078a8.7,8.7,0,0,1-4.068-.98A9.977,9.977,0,0,1-.048-10.845L1.69-13.633a8.938,8.938,0,0,0,2.681,2.242,6.169,6.169,0,0,0,2.9.772,3.862,3.862,0,0,0,3.069-1.224,5.125,5.125,0,0,0,1.072-3.485V-30.285H2.282V-33.6H15ZM29.8-33.6h3.55V-7.229H29.8Zm37.351,0H70.66V-7.229H67.073L52.28-27.648V-7.229H48.73V-33.6h3.587L67.147-13.143Zm17.233,0H105.2v2.675L88.633-10.506h16.752l-.037,3.278H83.9V-9.9l16.568-20.419H84.343Zm53.66,0L128.35-16.27v9.042H124.8V-16.12L114.963-33.6h3.624l7.988,13.449,7.84-13.449Z" transform="translate(0.048 33.6)" fill="#324368" stroke="#324368" stroke-width="0.5"/>
      <path id="Path_152" data-name="Path 152" d="M3.34-7.72a2.456,2.456,0,0,1,1.68.524,1.859,1.859,0,0,1,.593,1.471,1.972,1.972,0,0,1-.6,1.534,2.4,2.4,0,0,1-1.676.545H1.9V-1.8H1.1V-7.72ZM3.307-4.381a1.737,1.737,0,0,0,1.145-.334,1.212,1.212,0,0,0,.4-.985,1.167,1.167,0,0,0-.4-.959,1.769,1.769,0,0,0-1.145-.325L1.9-6.977v2.6Zm5.9-3.39a3.068,3.068,0,0,1,1.539.4,2.955,2.955,0,0,1,1.108,1.086A2.93,2.93,0,0,1,12.26-4.77a2.975,2.975,0,0,1-.407,1.526,2.968,2.968,0,0,1-1.108,1.1,3.043,3.043,0,0,1-1.539.4,3.043,3.043,0,0,1-1.539-.4,2.968,2.968,0,0,1-1.108-1.1A2.975,2.975,0,0,1,6.153-4.77,2.93,2.93,0,0,1,6.56-6.288a2.964,2.964,0,0,1,1.1-1.086A3.061,3.061,0,0,1,9.207-7.771Zm.008.727a2.183,2.183,0,0,0-1.124.3,2.291,2.291,0,0,0-.826.824A2.211,2.211,0,0,0,6.958-4.77a2.233,2.233,0,0,0,.307,1.15,2.314,2.314,0,0,0,.826.833,2.16,2.16,0,0,0,1.124.309,2.117,2.117,0,0,0,1.116-.309,2.3,2.3,0,0,0,.813-.833,2.257,2.257,0,0,0,.3-1.15,2.234,2.234,0,0,0-.3-1.145,2.279,2.279,0,0,0-.813-.824A2.139,2.139,0,0,0,9.215-7.044Zm11.1-.676h.83L19.18-1.8h-.83l-1.5-4.886L15.322-1.8H14.5L12.542-7.72H13.4l1.535,5.046L16.459-7.72h.8L18.79-2.674Zm1.693,0h4.033v.735H22.806v1.826h2.9v.735h-2.9v1.885h3.336V-1.8H22.01ZM31.179-1.8l-1.153-1.86q-.2.017-.324.017H28.225V-1.8h-.8V-7.72H29.7a2.529,2.529,0,0,1,1.705.52,1.844,1.844,0,0,1,.6,1.475,2.127,2.127,0,0,1-.328,1.209,1.838,1.838,0,0,1-.942.71l1.352,2ZM29.7-4.381a1.737,1.737,0,0,0,1.145-.334,1.212,1.212,0,0,0,.4-.985,1.167,1.167,0,0,0-.4-.959A1.769,1.769,0,0,0,29.7-6.985H28.225v2.6ZM33.427-7.72H37.46v.735H34.224v1.826h2.9v.735h-2.9v1.885h3.336V-1.8H33.427Zm7.783,0a3.071,3.071,0,0,1,1.531.385,2.8,2.8,0,0,1,1.075,1.061,2.974,2.974,0,0,1,.39,1.513,2.949,2.949,0,0,1-.394,1.513,2.824,2.824,0,0,1-1.083,1.061,3.111,3.111,0,0,1-1.543.385h-2.34V-7.72Zm.017,5.182a2.145,2.145,0,0,0,1.1-.287,2.09,2.09,0,0,0,.78-.795,2.264,2.264,0,0,0,.286-1.133,2.255,2.255,0,0,0-.29-1.141,2.133,2.133,0,0,0-.792-.8,2.181,2.181,0,0,0-1.116-.292H39.642v4.446ZM50-7.72a2.238,2.238,0,0,1,1.4.393,1.3,1.3,0,0,1,.51,1.086,1.325,1.325,0,0,1-.282.858,1.368,1.368,0,0,1-.772.469,1.5,1.5,0,0,1,.95.494,1.485,1.485,0,0,1,.344,1,1.409,1.409,0,0,1-.56,1.188,2.5,2.5,0,0,1-1.547.427H47.516V-7.72ZM49.956-5.21a1.318,1.318,0,0,0,.834-.232.8.8,0,0,0,.295-.664.775.775,0,0,0-.295-.651,1.3,1.3,0,0,0-.834-.22H48.313V-5.21Zm0,2.663A1.691,1.691,0,0,0,50.968-2.8a.834.834,0,0,0,.365-.723.808.808,0,0,0-.365-.7,1.753,1.753,0,0,0-1.012-.254H48.313v1.927ZM57.8-7.72,55.623-3.832V-1.8h-.8V-3.8L52.619-7.72h.813L55.225-4.7,56.984-7.72ZM65.14-1.8,64.526-3.24H61.465L60.859-1.8h-.838L62.6-7.72h.83L66-1.8ZM61.78-3.976h2.439L62.991-6.85ZM66.85-7.72H67.8L69.92-3.562,72.027-7.72h.954V-1.8h-.747l-.008-4.725-2.066,4.1h-.49l-2.083-4.1V-1.8H66.85Zm12.164,0L76.84-3.832V-1.8h-.8V-3.8L73.836-7.72h.813L76.442-4.7,78.2-7.72Zm4.248,1.234a3.313,3.313,0,0,0-.842-.393,2.8,2.8,0,0,0-.8-.131,1.456,1.456,0,0,0-.809.2.62.62,0,0,0-.3.545.726.726,0,0,0,.183.511,1.292,1.292,0,0,0,.448.313q.266.114.738.266a8.236,8.236,0,0,1,.954.355,1.658,1.658,0,0,1,.622.5,1.409,1.409,0,0,1,.257.883,1.5,1.5,0,0,1-.27.888,1.732,1.732,0,0,1-.755.587,2.822,2.822,0,0,1-1.116.207,3.194,3.194,0,0,1-1.245-.254,3.368,3.368,0,0,1-1.045-.676l.357-.7a2.993,2.993,0,0,0,.933.638,2.534,2.534,0,0,0,1.008.224,1.589,1.589,0,0,0,.917-.232.728.728,0,0,0,.336-.63.742.742,0,0,0-.183-.516,1.287,1.287,0,0,0-.461-.321,7.738,7.738,0,0,0-.751-.262,7.582,7.582,0,0,1-.946-.347,1.639,1.639,0,0,1-.618-.5A1.392,1.392,0,0,1,79.62-6.2a1.412,1.412,0,0,1,.257-.837,1.628,1.628,0,0,1,.722-.558,2.778,2.778,0,0,1,1.079-.194,3.427,3.427,0,0,1,1.025.156,3.4,3.4,0,0,1,.892.418Zm4.257-1.285a3.068,3.068,0,0,1,1.539.4,2.955,2.955,0,0,1,1.108,1.086,2.93,2.93,0,0,1,.407,1.517,2.975,2.975,0,0,1-.407,1.526,2.968,2.968,0,0,1-1.108,1.1,3.043,3.043,0,0,1-1.539.4,3.043,3.043,0,0,1-1.539-.4,2.968,2.968,0,0,1-1.108-1.1,2.975,2.975,0,0,1-.407-1.526,2.93,2.93,0,0,1,.407-1.517,2.965,2.965,0,0,1,1.1-1.086A3.061,3.061,0,0,1,87.519-7.771Zm.008.727a2.183,2.183,0,0,0-1.124.3,2.291,2.291,0,0,0-.826.824A2.211,2.211,0,0,0,85.27-4.77a2.233,2.233,0,0,0,.307,1.15,2.314,2.314,0,0,0,.826.833,2.16,2.16,0,0,0,1.124.309,2.117,2.117,0,0,0,1.116-.309,2.3,2.3,0,0,0,.813-.833,2.257,2.257,0,0,0,.3-1.15,2.234,2.234,0,0,0-.3-1.145,2.279,2.279,0,0,0-.813-.824A2.139,2.139,0,0,0,87.527-7.044Zm4.19-.676H95.5l-.008.735H92.514v1.944h2.68v.735h-2.68v2.5h-.8Zm3.966,0h4.539v.744H98.347V-1.8h-.8V-6.977H95.684Zm5.451,0h4.033v.735h-3.236v1.826h2.9v.735h-2.9v1.885h3.336V-1.8h-4.132ZM110.76-6.3a2.4,2.4,0,0,0-.772-.554,2.176,2.176,0,0,0-.9-.2,2.176,2.176,0,0,0-1.128.3,2.236,2.236,0,0,0-.813.824,2.259,2.259,0,0,0-.3,1.145,2.265,2.265,0,0,0,.3,1.141,2.226,2.226,0,0,0,.813.828,2.176,2.176,0,0,0,1.128.3,2.238,2.238,0,0,0,.9-.19,2.587,2.587,0,0,0,.78-.52l.481.533a3.235,3.235,0,0,1-1.021.689,2.962,2.962,0,0,1-1.178.249,2.96,2.96,0,0,1-1.518-.4,2.942,2.942,0,0,1-1.087-1.095,3.016,3.016,0,0,1-.4-1.53,2.954,2.954,0,0,1,.4-1.517,2.933,2.933,0,0,1,1.1-1.086,3.046,3.046,0,0,1,1.535-.4,3.074,3.074,0,0,1,1.174.232,2.9,2.9,0,0,1,.983.655Zm1.593-1.42h.8v2.637h3.319V-7.72h.8V-1.8h-.8V-4.348H113.15V-1.8h-.8ZM118.966-2.7a.423.423,0,0,1,.319.135.482.482,0,0,1,.129.347.5.5,0,0,1-.129.351.417.417,0,0,1-.319.139.43.43,0,0,1-.324-.139.488.488,0,0,1-.133-.351.474.474,0,0,1,.133-.347A.436.436,0,0,1,118.966-2.7Zm5.891-3.6a2.4,2.4,0,0,0-.772-.554,2.175,2.175,0,0,0-.9-.2,2.176,2.176,0,0,0-1.128.3,2.236,2.236,0,0,0-.813.824,2.258,2.258,0,0,0-.3,1.145,2.265,2.265,0,0,0,.3,1.141,2.226,2.226,0,0,0,.813.828,2.176,2.176,0,0,0,1.128.3,2.238,2.238,0,0,0,.9-.19,2.586,2.586,0,0,0,.78-.52l.481.533a3.235,3.235,0,0,1-1.021.689,2.962,2.962,0,0,1-1.178.249,2.96,2.96,0,0,1-1.518-.4,2.943,2.943,0,0,1-1.087-1.095,3.016,3.016,0,0,1-.4-1.53,2.954,2.954,0,0,1,.4-1.517,2.933,2.933,0,0,1,1.1-1.086,3.045,3.045,0,0,1,1.535-.4,3.074,3.074,0,0,1,1.174.232,2.9,2.9,0,0,1,.983.655Zm4-1.471a3.068,3.068,0,0,1,1.539.4A2.955,2.955,0,0,1,131.5-6.288a2.931,2.931,0,0,1,.407,1.517,2.976,2.976,0,0,1-.407,1.526,2.967,2.967,0,0,1-1.108,1.1,3.043,3.043,0,0,1-1.539.4,3.043,3.043,0,0,1-1.539-.4,2.968,2.968,0,0,1-1.108-1.1A2.975,2.975,0,0,1,125.8-4.77a2.93,2.93,0,0,1,.407-1.517,2.964,2.964,0,0,1,1.1-1.086A3.062,3.062,0,0,1,128.857-7.771Zm.008.727a2.183,2.183,0,0,0-1.124.3,2.291,2.291,0,0,0-.826.824,2.211,2.211,0,0,0-.307,1.145,2.233,2.233,0,0,0,.307,1.15,2.314,2.314,0,0,0,.826.833,2.16,2.16,0,0,0,1.124.309,2.117,2.117,0,0,0,1.116-.309,2.3,2.3,0,0,0,.813-.833,2.257,2.257,0,0,0,.3-1.15,2.234,2.234,0,0,0-.3-1.145,2.278,2.278,0,0,0-.813-.824A2.139,2.139,0,0,0,128.865-7.044Zm4.19-.676H134l2.124,4.159,2.108-4.159h.954V-1.8h-.747l-.008-4.725-2.066,4.1h-.49l-2.083-4.1V-1.8h-.738Z" transform="translate(-1.1 43.796)" fill="#324368"/>
    </g>
  </g>
</svg>
