<svg width="47" height="45" viewBox="0 0 47 45" fill="none" xmlns="http://www.w3.org/2000/svg">
<g clip-path="url(#clip0_1151_731)">
<path d="M29.6086 34.501C29.2479 34.501 28.919 34.4292 28.6963 34.2379C27.9324 33.5801 28.0491 32.3962 29.1312 31.7983C29.6086 31.5472 30.0542 31.2602 30.4467 30.9253C30.4467 31.6189 30.4467 32.1451 30.4467 32.5158C30.4467 32.6713 30.4467 32.8507 30.4361 33.042C30.4361 33.2453 30.4255 33.3768 30.4255 33.4486C30.4255 33.7715 30.4573 34.0346 30.5315 34.2618C30.2345 34.4173 29.9162 34.501 29.598 34.501M46.5292 32.5039C46.5292 31.9777 46.5292 31.1166 46.561 29.9208H45.6381C45.7336 30.8775 45.776 31.9059 45.776 32.9942C45.776 33.5801 45.6487 33.9748 45.3941 34.19C45.1395 34.3933 44.7894 34.501 44.3439 34.501C43.8559 34.501 43.3997 34.3933 42.9541 34.1661C43.0072 33.9628 43.0284 33.7236 43.0284 33.4486C43.0284 33.3768 43.0284 33.2453 43.0284 33.042C43.0284 32.8387 43.0284 32.6713 43.0284 32.5158C43.0284 31.9896 43.0284 31.1286 43.0496 29.9327H42.1373C42.2115 30.8894 42.254 31.9179 42.254 33.0061C42.254 33.5921 42.1585 33.9867 41.9463 34.202C41.7448 34.4053 41.4689 34.5129 41.1083 34.5129C40.6309 34.5129 40.1747 34.3455 39.761 33.9987C39.7822 33.8313 39.8034 33.6519 39.8034 33.4606C39.8034 33.3888 39.8034 33.2573 39.8034 33.054C39.8034 32.8507 39.8034 32.6832 39.8034 32.5278C39.8034 32.0016 39.8034 31.1406 39.8246 29.9447H38.9123C38.9865 30.9014 39.029 31.9298 39.029 33.0181C39.029 33.6041 38.9335 34.0107 38.7213 34.214C38.4773 34.4412 38.053 34.501 34.9871 34.501C31.9213 34.501 31.794 34.4412 31.603 34.214C31.4121 33.9987 31.2954 33.616 31.2954 33.0181C31.2954 31.9179 31.3378 30.8894 31.4014 29.9447H30.4891C30.4891 29.9447 30.2133 30.3154 28.7705 31.1525C27.4551 31.9179 27.5081 33.2573 27.5081 33.2573C27.5081 33.9389 27.8582 34.6206 28.1658 34.8836C28.4629 35.1587 28.8766 35.2902 29.4176 35.2902C29.9587 35.2902 30.3936 35.1109 30.8392 34.7641C30.871 34.8119 30.9134 34.8478 30.9453 34.8836C31.2423 35.1587 31.6667 35.2902 32.1971 35.2902H38.1273C38.6577 35.2902 39.082 35.1587 39.3791 34.8836C39.4958 34.776 39.5806 34.6564 39.6549 34.489L39.7398 34.5608C40.2384 35.0391 40.79 35.2783 41.3841 35.2783C41.9145 35.2783 42.3388 35.1467 42.6359 34.8717C42.6995 34.8119 42.7526 34.7521 42.8056 34.6803C43.3891 35.075 44.015 35.2783 44.7046 35.2783C45.3941 35.2783 45.6805 35.1467 46.0518 34.8717C46.4337 34.5966 46.6141 34.1302 46.6141 33.4486C46.6141 33.3768 46.6141 33.2453 46.6035 33.042C46.6035 32.8387 46.5929 32.6713 46.5929 32.5158" fill="#606165"/>
<path d="M44.5449 35.5892C44.2797 35.5892 44.0781 35.8164 44.0781 36.1035C44.0781 36.3905 44.2903 36.6057 44.5449 36.6057C44.7995 36.6057 45.0117 36.3785 45.0117 36.1035C45.0117 35.8284 44.7995 35.5892 44.5449 35.5892Z" fill="#606165"/>
<path d="M41.6596 35.5892C41.405 35.5892 41.1929 35.8164 41.1929 36.1035C41.1929 36.3905 41.405 36.6057 41.6596 36.6057C41.9143 36.6057 42.1264 36.3785 42.1264 36.1035C42.1264 35.8284 41.9143 35.5892 41.6596 35.5892Z" fill="#606165"/>
<path d="M40.5879 35.5892C40.3333 35.5892 40.1211 35.8164 40.1211 36.1035C40.1211 36.3905 40.3333 36.6057 40.5879 36.6057C40.8425 36.6057 41.0546 36.3785 41.0546 36.1035C41.0546 35.8284 40.8425 35.5892 40.5879 35.5892Z" fill="#606165"/>
<path d="M30.8813 29.1793C31.1359 29.1793 31.3481 28.9521 31.3481 28.6651C31.3481 28.3781 31.1359 28.1628 30.8813 28.1628C30.6267 28.1628 30.4146 28.3901 30.4146 28.6651C30.4146 28.9402 30.6267 29.1793 30.8813 29.1793Z" fill="#606165"/>
<path d="M29.8208 29.1793C30.0754 29.1793 30.2876 28.9521 30.2876 28.6651C30.2876 28.3781 30.0754 28.1628 29.8208 28.1628C29.5662 28.1628 29.354 28.3901 29.354 28.6651C29.354 28.9402 29.5556 29.1793 29.8208 29.1793Z" fill="#606165"/>
<path d="M39.7501 28.9402C38.8908 28.9402 38.8908 28.7249 38.8908 28.5934C38.8908 28.3901 39.3151 28.3661 39.7713 28.3661V28.0193C39.2939 28.0193 38.5619 28.0193 38.5619 28.5934C38.5619 28.7369 38.5937 28.8445 38.6468 28.9402H38.4771V29.287H39.7395V28.9402H39.7501Z" fill="#606165"/>
<path d="M0 25.4243C0 25.4243 11.0859 41.0305 26.5214 33.2692C26.5214 33.2692 15.9234 18.6677 0 25.4243Z" fill="#D39D29"/>
<path d="M31.5925 6.10352e-05C31.5925 6.10352e-05 17.2603 12.0664 24.3893 28.8565C24.3893 28.8565 37.8091 17.3282 31.5925 6.10352e-05Z" fill="#0D57A2"/>
<path d="M7.48949 0.0598145C7.48949 0.0598145 5.17683 19.6243 21.1215 26.0342C21.1215 26.0342 23.1371 7.55793 7.48949 0.0598145Z" fill="#00A550"/>
<path d="M13.2929 41.9273C13.2929 41.4131 13.1656 40.9706 12.9216 40.6118C12.6776 40.2531 12.3276 40.0737 11.8926 40.0737C11.3304 40.0737 10.9272 40.265 10.6832 40.6358C10.6832 41.8555 10.7045 42.8481 10.7575 43.6015C11.0121 43.8287 11.341 43.9483 11.7547 43.9483C12.2745 43.9483 12.6564 43.757 12.911 43.3623C13.1656 42.9677 13.2929 42.4894 13.2929 41.9273ZM14.131 41.7958C14.131 42.5492 13.9295 43.1949 13.5369 43.745C13.1444 44.2951 12.6034 44.5702 11.9244 44.5702C11.341 44.5702 10.9485 44.4506 10.7469 44.2353H10.7151L10.5984 44.4386H9.89821C9.94065 43.2547 9.96186 41.9871 9.96186 40.6118C9.96186 39.3681 9.90882 38.244 9.80273 37.2156L10.7363 37.1677C10.7045 37.7537 10.6832 38.6865 10.6832 39.9661H10.7257C11.0333 39.5834 11.5213 39.3801 12.1897 39.3801C12.7731 39.3801 13.2399 39.6193 13.59 40.0857C13.9401 40.552 14.1204 41.1261 14.1204 41.7958" fill="#606165"/>
<path d="M17.8649 41.437C17.8649 40.4803 17.4936 39.99 16.7616 39.99C16.0296 39.99 15.5628 40.4923 15.4249 41.4848L17.8649 41.4251V41.437ZM18.6499 41.4251C18.6499 41.5686 18.6499 41.7719 18.6287 42.023L15.3825 42.0828C15.4143 42.585 15.5946 43.0036 15.9129 43.3385C16.2418 43.6733 16.6661 43.8407 17.1965 43.8407C17.6739 43.8407 18.1195 43.7809 18.5438 43.6494L18.4696 44.3789C18.1619 44.5104 17.7163 44.5822 17.1329 44.5822C16.316 44.5822 15.6901 44.343 15.2658 43.8527C14.8308 43.3624 14.6187 42.7764 14.6187 42.0828C14.6187 41.3294 14.8096 40.6956 15.2021 40.1574C15.5946 39.6193 16.1251 39.3442 16.7828 39.3442C17.3875 39.3442 17.8543 39.5356 18.1725 39.9302C18.4908 40.3249 18.6499 40.8271 18.6499 41.437" fill="#606165"/>
<path d="M23.4344 43.446C23.4238 42.9318 23.4132 42.4654 23.4132 42.0469C22.8191 42.0469 22.3736 42.0947 22.0659 42.1904C21.5461 42.3578 21.2915 42.6926 21.2915 43.171C21.2915 43.6493 21.5992 43.8765 22.1932 43.8765C22.7131 43.8765 23.1268 43.733 23.4344 43.458M24.2725 44.4386L23.5299 44.4745C23.4875 44.3071 23.4769 44.1516 23.4769 43.9961H23.4238C23.0419 44.3788 22.5115 44.5702 21.8432 44.5702C21.4825 44.5702 21.1748 44.4506 20.9096 44.2234C20.6444 43.9961 20.5171 43.6613 20.5171 43.2308C20.5171 42.7046 20.7187 42.2741 21.1324 41.9632C21.5355 41.6403 22.2993 41.4728 23.4132 41.4609C23.4132 41.3772 23.4238 41.2815 23.4238 41.1739C23.4238 40.7553 23.3177 40.4683 23.1162 40.3368C22.9146 40.1933 22.5964 40.1215 22.1826 40.1215C21.6946 40.1215 21.2066 40.1933 20.7293 40.3248L20.8141 39.6192C21.2809 39.4757 21.8325 39.392 22.4372 39.392C22.9995 39.392 23.4344 39.5236 23.7315 39.7747C24.0391 40.0258 24.1876 40.4564 24.1876 41.0663C24.1876 41.2337 24.1876 41.5207 24.1664 41.9392C24.1558 42.3578 24.1452 42.6448 24.1452 42.7763C24.1452 43.3982 24.1876 43.9603 24.2725 44.4386Z" fill="#606165"/>
<path d="M28.8874 44.4386H28.0281C28.0918 43.5417 28.1342 42.5731 28.1342 41.5327C28.1342 40.9826 28.0387 40.5999 27.8478 40.4085C27.6568 40.2172 27.3916 40.1215 27.0521 40.1215C26.5854 40.1215 26.1398 40.3009 25.7261 40.6477C25.7261 42.5133 25.7367 43.7809 25.7579 44.4386H24.9304C24.9623 43.5298 24.9729 42.2621 24.9729 40.6118C24.9729 39.1648 24.9304 38.0407 24.835 37.2156L25.7261 37.1677C25.7049 38.2081 25.6943 39.1887 25.6943 40.0737H25.7261C26.1929 39.6193 26.7127 39.392 27.2749 39.392C27.7735 39.392 28.1767 39.5236 28.4525 39.7747C28.7389 40.0259 28.8768 40.4803 28.8768 41.1141C28.8768 41.1859 28.8768 41.3054 28.8768 41.4968C28.8768 41.6881 28.8662 41.8555 28.8662 41.999C28.8662 42.4894 28.8662 43.3025 28.8874 44.4386Z" fill="#606165"/>
<path d="M19.5409 37.1438C19.2121 37.1797 19.0529 37.4547 19.0741 37.9809C19.106 38.6267 19.2333 39.5714 19.4773 40.839H19.6046C19.838 39.5714 19.9759 38.6267 20.0077 37.9809C20.0289 37.4547 19.8698 37.1797 19.5409 37.1438Z" fill="#606165"/>
</g>
<defs>
<clipPath id="clip0_1151_731">
<rect width="46.5503" height="44.5821" fill="white"/>
</clipPath>
</defs>
</svg>
