<svg xmlns="http://www.w3.org/2000/svg" xmlns:xlink="http://www.w3.org/1999/xlink" width="180" height="180" viewBox="0 0 180 180">
  <defs>
    <clipPath id="clip-path">
      <rect id="Rectangle_566" data-name="Rectangle 566" width="110.629" height="91.298" fill="#141774"/>
    </clipPath>
  </defs>
  <g id="Advertise_Bids" data-name="Advertise Bids" transform="translate(-661 -4738)">
    <g id="Ellipse_446" data-name="Ellipse 446" transform="translate(661 4738)" fill="none" stroke="#141774" stroke-width="3">
      <circle cx="90" cy="90" r="90" stroke="none"/>
      <circle cx="90" cy="90" r="88.5" fill="none"/>
    </g>
    <g id="Group_6605" data-name="Group 6605" transform="translate(-164.016 44)">
      <g id="Group_6604" data-name="Group 6604" transform="translate(860.016 4738)">
        <g id="Group_6603" data-name="Group 6603" clip-path="url(#clip-path)">
          <path id="Path_30182" data-name="Path 30182" d="M52.074,25.61a11.914,11.914,0,0,1-2.085-9.665A11.3,11.3,0,0,1,60.041,7.217a51.277,51.277,0,0,1,6.569-.047A28.294,28.294,0,0,0,79.243,5.02C83.608,3.3,88.073,1.844,92.5.283,94.706-.5,95.9.343,95.9,2.706q.017,15.8,0,31.6c0,2.407-1.262,3.243-3.556,2.433q-9.125-3.223-18.259-6.423c-.525-.183-1.087-.26-1.847-.437v1.967q0,8.741-.007,17.482c0,.583.126,1.39-.191,1.7a4.023,4.023,0,0,1-2.278,1.291c-1.11.05-1.788-.859-1.8-2.041-.023-1.971-.006-3.942-.006-6.221-1.686,0-3.258.006-4.83,0-2.286-.012-2.808-.388-3.373-2.554C58.879,38.144,58,34.79,57.2,31.415c-.248-1.052-.637-1.491-1.8-1.487-14.644.04-29.289.01-43.934.037-4.338.008-7.113,2.778-7.128,7.134q-.057,15.878,0,31.756c.017,4.295,2.909,7.091,7.18,7.106,3.9.014,7.8-.008,11.705.008,2.093.008,2.8.713,2.815,2.779.016,1.793,0,3.586,0,5.79a71.7,71.7,0,0,0,5.947-4.879c2.941-2.988,6.282-4.026,10.484-3.784,6.02.348,12.074.095,18.114.086,4.242-.005,6.913-2.422,7.352-6.626.152-1.456,1.142-2.515,2.306-2.321a2.213,2.213,0,0,1,1.983,2.476c.014,5.279-4.387,10.411-9.655,10.6-7.312.267-14.64.182-21.96.138a6.15,6.15,0,0,0-4.336,1.542c-3.417,2.908-6.937,5.694-10.421,8.522-.84.681-1.68,1.379-2.88.767-1.138-.58-1.283-1.589-1.271-2.716.024-2.245-.04-4.492.027-6.735.032-1.077-.377-1.38-1.4-1.362-2.885.048-5.772.04-8.658.01C4.555,80.185.012,75.582.005,68.437q-.013-15.4,0-30.793c0-7.422,4.579-12.028,11.959-12.031q18.921-.008,37.841,0ZM91.567,5.348a4.306,4.306,0,0,0-.717.107c-4.725,1.666-9.435,3.376-14.181,4.98-.964.325-1.025.87-1.022,1.669.018,4.275.031,8.55-.009,12.825a1.491,1.491,0,0,0,1.177,1.727c4.195,1.407,8.353,2.921,12.529,4.385.713.25,1.447.443,2.223.678ZM71.206,11.7c-.154-.08-.29-.211-.426-.211-3.468-.009-6.947-.179-10.4.044a6.947,6.947,0,0,0-6.371,7.315,7.11,7.11,0,0,0,7.009,6.741c2.347.043,4.7.012,7.044.013h3.145ZM61.319,30.034c.769,3.065,1.485,6,2.271,8.924a1.216,1.216,0,0,0,.883.683c1.1.084,2.2.032,3.379.032V30.034Z" transform="translate(0 -0.001)" fill="#141774"/>
          <path id="Path_30183" data-name="Path 30183" d="M317.654,51.006c1.068,0,2.14-.053,3.2.016a2.136,2.136,0,0,1,.03,4.269c-2.132.1-4.275.091-6.407-.006a1.953,1.953,0,0,1-1.975-2.112,2.016,2.016,0,0,1,2.1-2.156c1.011-.06,2.029-.012,3.044-.01" transform="translate(-212.292 -34.636)" fill="#141774"/>
          <path id="Path_30184" data-name="Path 30184" d="M314.653,83.627a12.312,12.312,0,0,1,1.574.525c1.653.87,3.307,1.742,4.926,2.673a2.194,2.194,0,0,1,1.024,3.106,2.093,2.093,0,0,1-3.057.708,52.511,52.511,0,0,1-5.16-2.893,2.929,2.929,0,0,1-.883-2.416c.105-.666,1.073-1.2,1.576-1.7" transform="translate(-212.665 -56.81)" fill="#141774"/>
          <path id="Path_30185" data-name="Path 30185" d="M321.922,11.7a4.654,4.654,0,0,1-1.126,1.348c-1.681,1.029-3.433,1.951-5.2,2.834a2.037,2.037,0,0,1-2.924-.769,2.005,2.005,0,0,1,.732-2.928c1.786-1.062,3.621-2.055,5.5-2.937,1.6-.752,3.121.325,3.014,2.454" transform="translate(-212.17 -6.122)" fill="#141774"/>
          <path id="Path_30186" data-name="Path 30186" d="M214.1,183.092a2.038,2.038,0,0,1-2.153-2.071,2.1,2.1,0,0,1,2.1-2.145,2.048,2.048,0,0,1,2.142,2.092,2.025,2.025,0,0,1-2.094,2.124" transform="translate(-143.978 -121.514)" fill="#141774"/>
        </g>
      </g>
      <path id="Path_30187" data-name="Path 30187" d="M14.554-16.145c0,1.747-1.184,2.724-3.2,2.724H7.181v-5.566h4.086C13.281-18.987,14.554-17.921,14.554-16.145Zm-.5-8.616c0,1.688-1.125,2.576-3.079,2.576H7.181v-5.182h3.79C12.925-27.366,14.05-26.419,14.05-24.761Zm4.708,9.119a5.011,5.011,0,0,0-4-5,4.765,4.765,0,0,0,3.523-4.737c0-3.079-2.4-5.33-6.721-5.33H3.036v20.667h8.912C16.241-10.045,18.758-12.355,18.758-15.641Zm3.316,5.6H26.22V-30.712H22.074ZM37.53-30.712H30.306v20.667H37.53c6.6,0,10.9-4.056,10.9-10.3C48.426-26.626,44.133-30.712,37.53-30.712ZM34.451-13.569v-13.65h2.931c4.352,0,6.81,2.576,6.81,6.869s-2.458,6.78-6.81,6.78Z" transform="translate(870.407 4811.621)" fill="#141774"/>
    </g>
  </g>
</svg>
