<svg xmlns="http://www.w3.org/2000/svg" xmlns:xlink="http://www.w3.org/1999/xlink" width="180" height="180" viewBox="0 0 180 180">
  <defs>
    <clipPath id="clip-path">
      <rect id="Rectangle_547" data-name="Rectangle 547" width="74.755" height="94.132" fill="#141774"/>
    </clipPath>
  </defs>
  <g id="Award_Selected" data-name="Award Selected" transform="translate(-661 -3621)">
    <g id="Ellipse_446" data-name="Ellipse 446" transform="translate(661 3621)" fill="none" stroke="#141774" stroke-width="3">
      <circle cx="90" cy="90" r="90" stroke="none"/>
      <circle cx="90" cy="90" r="88.5" fill="none"/>
    </g>
    <g id="Group_6587" data-name="Group 6587" transform="translate(713.98 3666.934)">
      <g id="Group_6586" data-name="Group 6586" clip-path="url(#clip-path)">
        <path id="Path_30123" data-name="Path 30123" d="M64.605,62.093C67.1,67.892,69.6,73.63,72.012,79.4a2.756,2.756,0,0,1,.092,2.236c-.346.447-1.469.537-2.184.41-3.127-.554-6.238-1.209-9.336-1.906a1.292,1.292,0,0,0-1.65.7c-1.617,2.686-3.25,5.365-4.974,7.983-.431.654-1.25,1.5-1.846,1.47s-1.321-.983-1.635-1.689c-2.014-4.52-3.941-9.08-5.871-13.637a1.735,1.735,0,0,0-1.758-1.281,8.525,8.525,0,0,1-3.356-.976c-2.481-1.271-4.453.242-6.554,1.03-.292.11-.441.661-.612,1.028-2.807,6.007-5.59,12.026-8.439,18.014-.277.581-.966,1.36-1.447,1.349a2.585,2.585,0,0,1-1.71-1.217c-1.692-2.745-3.28-5.555-4.881-8.357a1.272,1.272,0,0,0-1.591-.8Q9.653,84.688,5,85.374c-.776.114-1.938.055-2.333-.417-.367-.439-.158-1.631.158-2.328,2.979-6.57,6.035-13.1,9.1-19.715a3.044,3.044,0,0,0-.6-.356,5.152,5.152,0,0,1-3.815-5.084A5.568,5.568,0,0,0,4.887,52.7C2.392,51.1,1.357,48.838,2.323,45.9a5.749,5.749,0,0,0-1.054-5.61,5.179,5.179,0,0,1,.005-6.8,6.223,6.223,0,0,0,.962-6.025A4.861,4.861,0,0,1,4.3,21.626,6.762,6.762,0,0,0,7.588,15.9a4.821,4.821,0,0,1,4.04-4.715,6.432,6.432,0,0,0,4.865-4.074,5.037,5.037,0,0,1,5.6-3.215,6.373,6.373,0,0,0,5.844-2.128A5,5,0,0,1,34.295.683,6.338,6.338,0,0,0,40.509.668,4.985,4.985,0,0,1,46.853,1.8a6.231,6.231,0,0,0,5.718,2.1,5.112,5.112,0,0,1,5.7,3.272,6.32,6.32,0,0,0,4.773,3.983,5.14,5.14,0,0,1,4.192,5.2,5.534,5.534,0,0,0,2.633,4.773c2.515,1.606,3.5,3.874,2.551,6.794a5.77,5.77,0,0,0,1.065,5.607,5.116,5.116,0,0,1,.046,6.683,6.487,6.487,0,0,0-.992,6.278,4.868,4.868,0,0,1-1.767,5.473,11.74,11.74,0,0,1-1.285,1.012,4.691,4.691,0,0,0-2.2,4c-.135,2.073-.7,3.948-2.687,5.114M51.37,66.909c3.348.064,3.535.117,4.327-1.7A8.518,8.518,0,0,1,62.1,59.877a2.58,2.58,0,0,0,2.2-2.708,7.974,7.974,0,0,1,4.011-7,2.742,2.742,0,0,0,1.27-3.512,8.03,8.03,0,0,1,1.452-7.938,2.633,2.633,0,0,0-.015-3.607,8.016,8.016,0,0,1-1.448-7.94,2.829,2.829,0,0,0-1.346-3.61,7.766,7.766,0,0,1-3.9-6.771,2.794,2.794,0,0,0-2.464-2.939,7.733,7.733,0,0,1-6-5,2.879,2.879,0,0,0-3.431-1.982A7.8,7.8,0,0,1,45.1,4.168a2.819,2.819,0,0,0-3.788-.655,7.716,7.716,0,0,1-7.673.071A3.03,3.03,0,0,0,29.5,4.3a7.394,7.394,0,0,1-6.97,2.575,3.186,3.186,0,0,0-3.807,2.271,7.159,7.159,0,0,1-5.5,4.6,3.183,3.183,0,0,0-2.846,3.388A7.3,7.3,0,0,1,6.7,23.44a3.058,3.058,0,0,0-1.493,3.928A7.706,7.706,0,0,1,3.82,34.932a2.792,2.792,0,0,0-.045,3.838,7.8,7.8,0,0,1,1.441,7.684A3.056,3.056,0,0,0,6.7,50.388,7.292,7.292,0,0,1,10.366,56.7a3.192,3.192,0,0,0,2.855,3.39,7.017,7.017,0,0,1,5.446,4.467,3.338,3.338,0,0,0,4.007,2.381A7.018,7.018,0,0,1,29.3,69.345a3.333,3.333,0,0,0,4.594.8,6.8,6.8,0,0,1,6.9-.014,3.443,3.443,0,0,0,4.72-.83,6.4,6.4,0,0,1,5.86-2.395m-29.2,22.662,7.493-16.1a29.8,29.8,0,0,1-2.5-2.115,4.557,4.557,0,0,0-4.182-1.474c-3.406.475-5.7-.941-7.01-4.089a15.664,15.664,0,0,0-1.2-1.953L6.31,82.018a10.612,10.612,0,0,0,1.214-.06c2.414-.427,4.834-.825,7.233-1.326a2.389,2.389,0,0,1,3.016,1.335c1.321,2.482,2.807,4.877,4.4,7.6m39.67-26.413c-2.027.308-2.691,1.756-3.331,3.164-1.229,2.7-3.291,3.96-6.217,3.56a5.523,5.523,0,0,0-5.6,2.5L52.4,85.659c.365-.535.629-.892.863-1.268,1.318-2.12,2.641-4.238,3.937-6.372a1.915,1.915,0,0,1,2.356-1.072c1.669.424,3.374.7,5.066,1.037,1.224.242,2.451.472,3.923.755L61.839,63.158" transform="translate(0 0)" fill="#141774"/>
        <path id="Path_30124" data-name="Path 30124" d="M39.679,64.529a26.544,26.544,0,1,1,26.366,26.6,26.544,26.544,0,0,1-26.366-26.6M66.28,88.18A23.569,23.569,0,1,0,42.619,64.763,23.657,23.657,0,0,0,66.28,88.18" transform="translate(-28.846 -27.697)" fill="#141774"/>
        <path id="Path_30125" data-name="Path 30125" d="M100.443,74.937c1.952.483,3.838.814,5.622,1.44a12.164,12.164,0,0,1,3.392,1.948,5.186,5.186,0,0,1,2.054,4.142c.027,4.231.014,8.462.025,12.693,0,1.2-.6,1.728-1.775,1.727q-13.442-.008-26.883,0c-1.239,0-1.85-.528-1.845-1.8.019-4.14-.01-8.28.021-12.421a6.007,6.007,0,0,1,3.895-5.612,41.351,41.351,0,0,1,5.7-1.752,15.125,15.125,0,0,1,1.577-.272,10.964,10.964,0,0,1-3.42-10.3c.607-3.641,3.4-5.854,7.384-5.876,4.1-.023,6.938,2.144,7.568,5.821a10.907,10.907,0,0,1-3.315,10.257M83.961,93.829h3.212a8.378,8.378,0,0,0,.095-.857c.01-2.319,0-4.639.017-6.958.006-1,.438-1.71,1.526-1.68,1.019.028,1.384.717,1.377,1.666-.008,1,0,2,0,3,0,1.614,0,3.229,0,4.833h12.134c.024-.515.061-.96.063-1.4.007-2.137.011-4.275,0-6.412,0-.945.337-1.645,1.358-1.684,1.085-.041,1.532.658,1.543,1.661.018,1.637.009,3.274.01,4.911,0,.975,0,1.949,0,2.93h3.353c0-3.337,0-6.6,0-9.86,0-2.595-.792-3.96-3.259-4.709a38.233,38.233,0,0,0-6.649-1.341A25.677,25.677,0,0,0,87.324,79.2c-1.645.566-3.241,1.473-3.319,3.4-.15,3.711-.044,7.432-.044,11.233m17.077-27.3c-.052-.342-.115-.884-.221-1.417-.4-2.026-1.793-3.162-4.068-3.345-2.251-.181-4.173.777-4.768,2.616a7.523,7.523,0,0,0,1.582,7.757,3.5,3.5,0,0,0,5.5-.027,8.131,8.131,0,0,0,1.98-5.585" transform="translate(-58.911 -42.791)" fill="#141774"/>
      </g>
    </g>
  </g>
</svg>
