<svg xmlns="http://www.w3.org/2000/svg" xmlns:xlink="http://www.w3.org/1999/xlink" width="180" height="180" viewBox="0 0 180 180">
  <defs>
    <clipPath id="clip-path">
      <rect id="Rectangle_576" data-name="Rectangle 576" width="95.191" height="79.78" fill="#141774"/>
    </clipPath>
  </defs>
  <g id="Branded_Portal" data-name="Branded Portal" transform="translate(-661 -5890)">
    <g id="Ellipse_446" data-name="Ellipse 446" transform="translate(661 5890)" fill="none" stroke="#141774" stroke-width="3">
      <circle cx="90" cy="90" r="90" stroke="none"/>
      <circle cx="90" cy="90" r="88.5" fill="none"/>
    </g>
    <g id="Group_6623" data-name="Group 6623" transform="translate(703.404 5943.109)">
      <g id="Group_6622" data-name="Group 6622" clip-path="url(#clip-path)">
        <path id="Path_30256" data-name="Path 30256" d="M92.431,18.809H2.8v1.459c0,2.851-.016,5.7.008,8.554.008.977-.37,1.7-1.356,1.718S.031,29.853.033,28.873C.041,21.56-.018,14.247.067,6.936A7.028,7.028,0,0,1,7.11.042Q41.653,0,76.2.021c1.051,0,1.911.3,1.874,1.484-.039,1.232-1,1.332-2,1.331Q42.286,2.824,8.5,2.831c-4.225,0-5.7,1.484-5.7,5.731v7.282H92.379c0-3.08.156-6.154-.051-9.2a4.167,4.167,0,0,0-4.352-3.8c-1.516-.038-3.033-.019-4.55-.009-.989.007-1.638-.431-1.612-1.445C81.837.451,82.485.03,83.394.03c1.747,0,3.5-.085,5.238.034A7.164,7.164,0,0,1,95.182,6.9c.043.872.016,1.747.016,2.621q0,27.524,0,55.05c0,5.29-2.782,8.083-8.066,8.092q-5.516.01-11.032,0c-.881,0-1.582-.317-1.617-1.3-.037-1.052.674-1.423,1.611-1.472.321-.017.643-.006.965-.006q5.033,0,10.066,0c3.695,0,5.3-1.608,5.3-5.283q0-22.075,0-44.15V18.809" transform="translate(-0.015 0)" fill="#141774"/>
        <path id="Path_30257" data-name="Path 30257" d="M49.409,157.512a3.985,3.985,0,0,0,4.045,2.073c4.914-.108,9.831-.039,14.747-.035.412,0,.939-.112,1.209.095.454.346,1.039.919,1.02,1.373a1.733,1.733,0,0,1-1.141,1.223,20.877,20.877,0,0,1-3.435.09c-3.811,0-7.622,0-11.691,0,1.405,2,.29,3.255-1.036,4.465-.543.5-1.04,1.039-1.568,1.552-1.5,1.454-2.551,1.472-4.015.027-1.437-1.418-2.846-2.866-4.4-4.44-1.415,1.408-2.768,2.754-4.12,4.1-1.918,1.911-3.5,1.588-4.434-.911a21.985,21.985,0,0,1-1.079-2.971c-.322-1.487-1.1-1.877-2.591-1.861-7.626.082-15.253.044-22.88.036-5.2-.006-8.015-2.822-8.016-8q0-14.136,0-28.271c0-.456-.1-1.024.122-1.342a2,2,0,0,1,1.33-.9c.439.02.97.571,1.237,1.021.2.344.072.9.072,1.355q0,14.067,0,28.133c0,3.581,1.634,5.214,5.227,5.217q11.1.007,22.191,0h1.566c-.93-2.509-1.8-4.858-2.671-7.207-1.053-2.838-2.1-5.679-3.167-8.513a2.548,2.548,0,0,1,.345-2.947c.918-.943,1.985-.763,3.07-.359q11.535,4.293,23.07,8.588,4.042,1.509.935,4.582c-1.3,1.293-2.635,2.556-3.943,3.821M37.17,166c1.563-1.592,2.99-3.066,4.44-4.517,1.239-1.239,1.753-1.251,2.972-.01,1.624,1.654,3.21,3.346,4.736,4.941l2.574-2.319c-1.63-1.6-3.169-3.1-4.692-4.614-1.644-1.635-1.641-1.947-.031-3.562,1.341-1.346,2.686-2.689,4.19-4.2L28.73,143.3,37.17,166" transform="translate(0 -89.67)" fill="#141774"/>
        <path id="Path_30258" data-name="Path 30258" d="M46.36,130.989c1.1-3.07,2.078-5.808,3.057-8.545.108-.3.132-.683.334-.894.386-.405.9-1.02,1.31-.985a1.949,1.949,0,0,1,1.355,1.066c.983,2.568,1.837,5.186,2.738,7.786.132.379.277.754.568,1.538.832-2.349,1.538-4.345,2.247-6.34q.53-1.49,1.071-2.976a1.383,1.383,0,1,1,2.6.931c-1.522,4.324-3.007,8.662-4.584,12.965-.182.5-.89,1.16-1.3,1.124a2.079,2.079,0,0,1-1.433-1.148c-.94-2.437-1.73-4.931-2.58-7.4-.172-.5-.371-.993-.694-1.855-.985,2.739-1.845,5.132-2.7,7.525a7.123,7.123,0,0,1-.625,1.667c-.354.511-.916,1.2-1.4,1.209a1.99,1.99,0,0,1-1.393-1.174c-1.535-4.221-2.968-8.48-4.436-12.725-.313-.907-.2-1.69.8-2.011.976-.312,1.558.215,1.869,1.128q1.33,3.907,2.68,7.807c.113.326.254.642.521,1.31" transform="translate(-29.213 -87.312)" fill="#141774"/>
        <path id="Path_30259" data-name="Path 30259" d="M231.893,130.994c1.151-3.228,2.135-6.136,3.249-8.992a2.673,2.673,0,0,1,1.467-1.546c.955-.221,1.312.693,1.591,1.532.954,2.865,1.959,5.712,3.064,8.914.863-2.424,1.618-4.538,2.366-6.655.275-.778.53-1.563.8-2.342.316-.9.815-1.625,1.909-1.286,1.142.354,1.052,1.3.758,2.159-1,2.95-2.055,5.882-3.089,8.821-.441,1.255-.8,2.548-1.361,3.746-.25.533-.966,1.267-1.367,1.208a2.3,2.3,0,0,1-1.478-1.3c-1.024-2.7-1.9-5.449-2.836-8.18-.087-.253-.207-.494-.377-.894-1.087,3.042-2.127,5.922-3.141,8.811-.283.806-.55,1.634-1.581,1.642-1.05.009-1.29-.844-1.564-1.645-1.381-4.031-2.782-8.056-4.159-12.088-.315-.922-.479-1.9.744-2.263,1.164-.343,1.616.468,1.939,1.429.964,2.864,1.96,5.716,3.065,8.927" transform="translate(-163.612 -87.211)" fill="#141774"/>
        <path id="Path_30260" data-name="Path 30260" d="M144.609,126.3c-1.045,2.935-1.949,5.561-2.923,8.16-.349.932-.373,2.284-1.78,2.306s-1.466-1.3-1.8-2.256c-1.337-3.852-2.644-7.715-3.986-11.566-.329-.943-.344-1.793.731-2.147,1.04-.343,1.581.263,1.905,1.244.864,2.61,1.792,5.2,2.7,7.8.114.327.253.646.474,1.2,1.023-2.864,1.962-5.494,2.9-8.122a3.559,3.559,0,0,1,.455-1.142c.412-.474.975-1.181,1.435-1.152a2.117,2.117,0,0,1,1.372,1.256c.912,2.4,1.683,4.85,2.511,7.281.176.518.38,1.026.685,1.847.939-2.65,1.784-5.032,2.628-7.414.184-.518.391-1.03.544-1.557.281-.973.841-1.6,1.9-1.261,1.088.351,1.084,1.223.757,2.147q-1.417,4.017-2.829,8.037c-.515,1.471-.933,2.984-1.561,4.4-.255.578-.941,1.312-1.453,1.329-.481.016-1.23-.726-1.447-1.294-.967-2.523-1.785-5.1-2.661-7.662-.129-.377-.287-.745-.558-1.439" transform="translate(-96.989 -87.355)" fill="#141774"/>
        <path id="Path_30261" data-name="Path 30261" d="M65,24.809a2.552,2.552,0,1,1-.043,5.1,2.552,2.552,0,1,1,.043-5.1" transform="translate(-45.19 -17.967)" fill="#141774"/>
        <path id="Path_30262" data-name="Path 30262" d="M93.664,29.912a2.551,2.551,0,1,1,.228-5.1,2.552,2.552,0,1,1-.228,5.1" transform="translate(-66.047 -17.97)" fill="#141774"/>
        <path id="Path_30263" data-name="Path 30263" d="M36.285,29.913a2.551,2.551,0,0,1,.044-5.1,2.551,2.551,0,1,1-.044,5.1" transform="translate(-24.459 -17.969)" fill="#141774"/>
      </g>
    </g>
  </g>
</svg>
