<svg xmlns="http://www.w3.org/2000/svg" xmlns:xlink="http://www.w3.org/1999/xlink" width="180" height="180" viewBox="0 0 180 180">
  <defs>
    <clipPath id="clip-path">
      <rect id="Rectangle_568" data-name="Rectangle 568" width="94.526" height="114.753" fill="#141774"/>
    </clipPath>
  </defs>
  <g id="Collect_Compare_Line" data-name="Collect &amp; Compare Line" transform="translate(-1091 -4738)">
    <g id="Ellipse_445" data-name="Ellipse 445" transform="translate(1091 4738)" fill="none" stroke="#141774" stroke-width="3">
      <circle cx="90" cy="90" r="90" stroke="none"/>
      <circle cx="90" cy="90" r="88.5" fill="none"/>
    </g>
    <g id="Group_6607" data-name="Group 6607" transform="translate(1133.736 4764.332)">
      <g id="Group_6606" data-name="Group 6606" transform="translate(0 6)" clip-path="url(#clip-path)">
        <path id="Path_30188" data-name="Path 30188" d="M55.419,198.866c-5.464-6.838-5.705-13.08-.694-17.9a10.467,10.467,0,0,1,15.051.443c3.612,3.857,5.224,11.3-1.454,17.687a20.12,20.12,0,0,0,2.019-.009,18.675,18.675,0,0,1,12.823,3.183,2.238,2.238,0,0,0,3.011-.162c2.205-1.724,4.523-3.29,6.809-4.9,2.795-1.965,5.869-1.619,7.676.836,1.825,2.48,1.4,5.682-1.121,8.032-3.193,2.979-6.418,5.919-9.621,8.887a5.35,5.35,0,0,1-6.074,1.232c-1.766-.714-3.559-1.353-5.475-2.076v19.329h-3.6c-.034-.538-.095-1.052-.1-1.566q-.01-9.681,0-19.362c0-2.828.956-3.545,3.426-2.589,2.26.876,4.529,1.727,6.763,2.672a2.325,2.325,0,0,0,2.774-.489q4.787-4.471,9.612-8.9c.851-.785,1.364-1.676.511-2.744-.765-.958-1.665-.713-2.551-.089-2.843,2-5.72,3.956-8.534,6a2.655,2.655,0,0,1-3.407.2,22.632,22.632,0,0,0-15.718-3.749,30.138,30.138,0,0,1-3.036.014c1.189,4.053,2.259,7.895,3.46,11.69a4.173,4.173,0,0,1-.446,3.833c-1.256,1.959-2.381,4.01-3.589,6-1.24,2.047-2.59,2.028-3.842-.053-1.262-2.1-2.6-4.155-3.687-6.353a4.938,4.938,0,0,1-.327-3.127c1.018-3.922,2.237-7.786,3.478-11.994a59.732,59.732,0,0,1-7.138-.051c-3.977-.493-7.234,1.377-10.433,3.275a4.32,4.32,0,0,1-5.634-.376c-2.357-1.9-4.935-3.484-7.4-5.235-.939-.668-1.871-.977-2.675.082-.834,1.1-.24,1.969.6,2.735,3.181,2.9,6.31,5.873,9.575,8.666a3.257,3.257,0,0,0,2.7.519c2.465-.765,4.84-1.847,7.261-2.772,1.772-.678,2.95.092,2.961,2.058.039,7.046.01,14.092,0,21.138a2.872,2.872,0,0,1-.154.6H45.782V214.119c-2.036.776-3.863,1.453-5.675,2.169a5.169,5.169,0,0,1-5.79-1.09c-3.384-3.108-6.779-6.2-10.119-9.364a5.766,5.766,0,0,1-.863-7.653,5.152,5.152,0,0,1,7.366-1.128c2.5,1.7,4.984,3.42,7.419,5.215.839.619,1.554.858,2.418.186.178-.139.407-.2.6-.326A18.492,18.492,0,0,1,53.66,199.09a9.354,9.354,0,0,0,1.511-.032c.086,0,.165-.125.247-.192m6.595-1.782a7.341,7.341,0,0,0,7.247-7.625,7.24,7.24,0,1,0-14.459-.033,7.339,7.339,0,0,0,7.212,7.658m.018,10.407c-.914,3.048-1.689,5.611-2.441,8.183a.965.965,0,0,0,.1.661c.726,1.276,1.478,2.535,2.318,3.963.546-.887.974-1.5,1.32-2.167.419-.8,1.22-1.756,1.068-2.454-.568-2.612-1.456-5.146-2.368-8.186" transform="translate(-14.766 -118.738)" fill="#141774"/>
        <path id="Path_30189" data-name="Path 30189" d="M119.311,23.015c.006,12.742-9.74,23.054-21.8,23.061-11.9.007-21.669-10.385-21.648-23.033C75.889,10.334,85.541.048,97.493,0c12.033-.049,21.812,10.267,21.818,23.015m-3.633-.01c-.011-10.62-8.151-19.2-18.193-19.18C87.65,3.847,79.52,12.453,79.5,22.863c-.02,10.713,7.981,19.286,18.019,19.311,10.077.025,18.169-8.517,18.157-19.168" transform="translate(-50.327 0)" fill="#141774"/>
        <path id="Path_30190" data-name="Path 30190" d="M226.76,173.887c-2.3,0-4.6.022-6.893-.006-2.577-.032-3.986-1.475-4-4.158q-.043-7.365,0-14.729c.017-2.535,1.468-4.11,3.881-4.138q6.977-.083,13.955,0c2.445.028,3.949,1.665,3.972,4.287q.063,7.276,0,14.552c-.025,2.638-1.521,4.153-4.019,4.187-2.3.032-4.6.007-6.893.007m7.195-19.087h-5.388v3.707h-3.672v-3.661h-5.246v15.013h14.306Z" transform="translate(-143.18 -101.218)" fill="#141774"/>
        <path id="Path_30191" data-name="Path 30191" d="M21.852,162.385c0,2.425.021,4.851-.005,7.276-.03,2.716-1.4,4.205-3.939,4.223q-6.977.049-13.955,0c-2.386-.019-3.888-1.575-3.915-4.113q-.076-7.364,0-14.729A3.853,3.853,0,0,1,4.1,150.857q6.893-.063,13.787,0c2.5.026,3.926,1.606,3.957,4.251.029,2.425.006,4.85.006,7.276M12.761,158.5H9.029v-3.71H3.777v15.07h14.3V154.813H12.761Z" transform="translate(0 -101.224)" fill="#141774"/>
        <path id="Path_30192" data-name="Path 30192" d="M122.706,34.663h-3.444a7.133,7.133,0,0,1,13.852-2.831c1.307,3.377.191,7.571-2.9,9.243a3.377,3.377,0,0,0-2,3.973,5.653,5.653,0,0,1-.048.973h-3.648c0-1.847-.053-3.664.018-5.475.053-1.34.855-1.844,2.1-2.026a3.607,3.607,0,0,0,3.287-3.62,3.733,3.733,0,0,0-2.752-3.926c-2.055-.609-3.892.874-4.471,3.689" transform="translate(-79.108 -17.418)" fill="#141774"/>
        <rect id="Rectangle_567" data-name="Rectangle 567" width="3.528" height="3.688" transform="translate(45.515 32.685)" fill="#141774"/>
      </g>
    </g>
  </g>
</svg>
