<svg xmlns="http://www.w3.org/2000/svg" xmlns:xlink="http://www.w3.org/1999/xlink" width="180" height="180" viewBox="0 0 180 180">
  <defs>
    <clipPath id="clip-path">
      <rect id="Rectangle_574" data-name="Rectangle 574" width="85.73" height="90.641" fill="#141774"/>
    </clipPath>
  </defs>
  <g id="Electronic_Approvals" data-name="Electronic Approvals" transform="translate(-1513 -5555)">
    <g id="Group_6652" data-name="Group 6652">
      <g id="Ellipse_13" data-name="Ellipse 13" transform="translate(1513 5555)" fill="none" stroke="#141774" stroke-width="3">
        <circle cx="90" cy="90" r="90" stroke="none"/>
        <circle cx="90" cy="90" r="88.5" fill="none"/>
      </g>
      <g id="Group_6619" data-name="Group 6619" transform="translate(1561 5599.586)">
        <g id="Group_6618" data-name="Group 6618" clip-path="url(#clip-path)">
          <path id="Path_30234" data-name="Path 30234" d="M31.465,4.711H28.458c-8.282,0-16.564.009-24.846-.017a3.736,3.736,0,0,1-2.135-.421A2.831,2.831,0,0,1,.336,2.233a3.657,3.657,0,0,1,1.478-2C2.2-.074,2.939.011,3.52.01Q18.187-.007,32.854,0C35.5,0,36.2.7,36.2,3.3c0,3.3,0,6.6,0,10.112,1.393,0,2.656-.02,3.919,0,1.649.033,2.736.963,2.741,2.3s-1.069,2.293-2.717,2.354c-1.224.046-2.451.009-3.81.009V72.552c1.323,0,2.6-.034,3.865.009,1.622.055,2.714,1.055,2.681,2.377-.033,1.339-1.113,2.23-2.778,2.257-1.223.02-2.446,0-3.8,0-.038.552-.1,1.012-.1,1.472-.009,2.832,0,5.664-.005,8.5,0,2.785-.683,3.45-3.527,3.458h-.16q-14.347,0-28.694-.006c-.636,0-1.432.124-1.87-.2-.7-.511-1.568-1.332-1.6-2.052s.769-1.628,1.439-2.156a3.568,3.568,0,0,1,2-.289Q16.7,85.9,29.6,85.914h1.861Z" transform="translate(-0.224 0)" fill="#141774"/>
          <path id="Path_30235" data-name="Path 30235" d="M22.834,85.053v-56.9H21.006c-6.145,0-12.29-.011-18.435,0-1.234,0-2.239-.545-2.382-1.681a4.342,4.342,0,0,1,.906-2.493c.2-.323.957-.414,1.462-.416q11.221-.038,22.443-.01a2.349,2.349,0,0,1,2.622,2.547c.013.267,0,.534,0,.8q0,29.656,0,59.313c0,2.772-.709,3.468-3.521,3.468q-10.34,0-20.679,0a6.028,6.028,0,0,1-1.437-.053A2.229,2.229,0,0,1,.042,87.263,2.105,2.105,0,0,1,2.159,85.09c.531-.042,1.068-.035,1.6-.035q8.657,0,17.313,0h1.761" transform="translate(-0.026 -15.997)" fill="#141774"/>
          <path id="Path_30236" data-name="Path 30236" d="M189.7,102.476a18.321,18.321,0,1,1-18.236-18.494A18.458,18.458,0,0,1,189.7,102.476M171.457,88.683a13.674,13.674,0,1,0,13.663,13.668,13.75,13.75,0,0,0-13.663-13.668" transform="translate(-103.967 -57.047)" fill="#141774"/>
          <path id="Path_30237" data-name="Path 30237" d="M188.916,46.478c-1.369,0-2.582.023-3.794-.005-1.8-.042-2.87-.919-2.89-2.329s1.062-2.314,2.844-2.329c1.924-.017,3.849-.024,5.772,0,1.761.025,2.6.8,2.631,2.506q.065,3.125,0,6.253c-.038,1.62-.923,2.513-2.319,2.488s-2.193-.934-2.233-2.573c-.03-1.27-.006-2.542-.006-4.014" transform="translate(-123.786 -28.393)" fill="#141774"/>
          <path id="Path_30238" data-name="Path 30238" d="M188.9,212.217c0-1.6-.038-2.93.01-4.255a2.2,2.2,0,0,1,2.259-2.376,2.175,2.175,0,0,1,2.276,2.36c.059,2.136.065,4.276,0,6.411a2.346,2.346,0,0,1-2.551,2.489c-2.083.044-4.168.036-6.252-.011a2.3,2.3,0,1,1-.123-4.6c1.38-.08,2.768-.017,4.38-.017" transform="translate(-123.762 -139.649)" fill="#141774"/>
          <path id="Path_30239" data-name="Path 30239" d="M7.3,246.3c-1.6,0-3.2.038-4.8-.011A2.246,2.246,0,0,1,0,243.968a2.28,2.28,0,0,1,2.57-2.238q4.8-.04,9.608,0a2.295,2.295,0,1,1,.081,4.557c-1.653.047-3.309.011-4.964.01" transform="translate(0 -164.188)" fill="#141774"/>
          <path id="Path_30240" data-name="Path 30240" d="M145.465,230.8c-1.014,0-2.03.03-3.043-.006a2.292,2.292,0,0,1-2.458-2.193,2.263,2.263,0,0,1,2.405-2.418c2.187-.068,4.379-.071,6.565.01a2.242,2.242,0,0,1,2.3,2.358,2.269,2.269,0,0,1-2.407,2.241c-1.12.044-2.242.009-3.363.009" transform="translate(-95.072 -153.609)" fill="#141774"/>
          <path id="Path_30241" data-name="Path 30241" d="M145.738,41.809c1.066,0,2.133-.036,3.2.009a2.168,2.168,0,0,1,2.319,2.15,2.071,2.071,0,0,1-2.028,2.408,62.259,62.259,0,0,1-7.183-.006,2.063,2.063,0,0,1-2-2.421,2.135,2.135,0,0,1,2.182-2.116c1.167-.075,2.344-.016,3.516-.016v-.008" transform="translate(-95.12 -28.39)" fill="#141774"/>
          <path id="Path_30242" data-name="Path 30242" d="M188.177,127.9c2.477-2.5,4.794-4.851,7.13-7.186,1.324-1.324,2.754-1.48,3.775-.454s.842,2.4-.509,3.759q-4.168,4.2-8.361,8.372c-1.549,1.537-2.666,1.514-4.238-.042-1.326-1.312-2.652-2.625-3.946-3.968-1.163-1.2-1.23-2.545-.234-3.521,1.037-1.016,2.244-.94,3.522.259.949.89,1.868,1.812,2.862,2.78" transform="translate(-123.015 -81.237)" fill="#141774"/>
        </g>
      </g>
    </g>
  </g>
</svg>
