<svg xmlns="http://www.w3.org/2000/svg" xmlns:xlink="http://www.w3.org/1999/xlink" width="180" height="180" viewBox="0 0 180 180">
  <defs>
    <clipPath id="clip-path">
      <rect id="Rectangle_578" data-name="Rectangle 578" width="100.391" height="82.794" fill="#141774"/>
    </clipPath>
  </defs>
  <g id="Email_Calendar_Alerts" data-name="Email &amp; Calendar Alerts" transform="translate(-1513 -5890)">
    <g id="Ellipse_447" data-name="Ellipse 447" transform="translate(1513 5890)" fill="none" stroke="#141774" stroke-width="3">
      <circle cx="90" cy="90" r="90" stroke="none"/>
      <circle cx="90" cy="90" r="88.5" fill="none"/>
    </g>
    <g id="Group_6627" data-name="Group 6627" transform="translate(1552.805 5938.602)">
      <g id="Group_6626" data-name="Group 6626" clip-path="url(#clip-path)">
        <path id="Path_30275" data-name="Path 30275" d="M56.665,22.528c0-3.048-.017-5.927,0-8.805.028-3.64,1.3-6.8,4.444-8.705,1.868-1.134,4.155-1.577,6.52-2.426.194-.688-.5-2.528,1.439-2.59,2.088-.067,1.353,1.874,1.7,3.1H86.3c.3-1.183-.442-3.11,1.623-3.1,1.991.011,1.308,1.833,1.557,2.866a28.439,28.439,0,0,1,5.07,1.316,9.208,9.208,0,0,1,5.723,8.53c.143,8.681.18,17.368,0,26.048-.118,5.7-4.539,9.521-10.617,9.612-3.146.047-6.293.008-9.655.008,0,.749,0,1.351,0,1.954-.032,7.752.051,15.507-.14,23.255a9.622,9.622,0,0,1-8.824,9.053c-.719.069-1.442.134-2.164.134q-28.847.011-57.694.014c-4.038,0-7.366-1.308-9.646-4.8A10.469,10.469,0,0,1,.015,72.083C.009,59.057-.023,46.032.028,33.006c.025-6.395,4.3-10.462,10.893-10.471q21.79-.033,43.58-.007h2.163M3.616,75.775l.546.194c.354-.442.673-.918,1.067-1.321q7.739-7.935,15.5-15.851c.325-.332.61-.846,1-.942.662-.164,1.648-.34,2.015,0s.215,1.34.074,2c-.083.389-.586.694-.911,1.027Q14.988,68.98,7.073,77.07c-.383.392-.744.8-1.307,1.415a24.337,24.337,0,0,0,2.8,1.048,10.709,10.709,0,0,0,2.463.206q29,.015,58.005.01A7.163,7.163,0,0,0,74.063,78.3c-.419-.453-.784-.871-1.172-1.265q-8.146-8.3-16.3-16.584c-.788-.8-1.467-1.646-.509-2.651,1.018-1.068,1.853-.245,2.617.507.184.181.365.366.546.55Q67.069,66.819,74.9,74.775c.376.381.782.733,1.174,1.1l.6-.137c.9-9.05.119-18.141.451-27.351-3.295,0-6.338.053-9.378-.024a16.067,16.067,0,0,1-4.113-.558,2.181,2.181,0,0,0-2.343.533q-7.3,6.256-14.643,12.451c-4.358,3.7-8.88,3.69-13.265-.022Q18.942,48.547,4.509,36.327c-.44-.372-.906-.715-1.55-1.221,0,12.8-.015,25.257.028,37.713a14.5,14.5,0,0,0,.629,2.957M56.664,25.545H29.313q-9.376,0-18.753,0A7.17,7.17,0,0,0,3.59,29.786a1.624,1.624,0,0,0,.467,2.266q15.825,13.311,31.6,26.687c2.88,2.429,5.884,2.395,8.806-.066q7.168-6.037,14.3-12.121c.344-.292.662-.615,1.016-.946a11.708,11.708,0,0,1-3.128-8.728c.1-3.707.022-7.419.022-11.333m3.069-6.1v1.5c0,5.581-.012,11.162,0,16.743.014,4.828,2.882,7.683,7.733,7.692q11.008.021,22.017,0c4.975-.007,7.79-2.8,7.809-7.761.022-5.581.007-11.162,0-16.743,0-.451-.054-.9-.088-1.43Zm.108-3.223h37.3c.88-6.315-2.446-10.6-7.72-9.835,0,.733-.005,1.494,0,2.255.01,1.1-.111,2.244-1.492,2.257-1.357.013-1.574-1.076-1.548-2.207.018-.8,0-1.611,0-2.375H70.643c0,1.007-.009,1.877,0,2.747.013,1.006-.375,1.8-1.434,1.848-1.182.052-1.563-.817-1.587-1.859-.02-.91,0-1.822,0-2.7-5.38-.554-8.371,3.291-7.778,9.87" transform="translate(0 0)" fill="#141774"/>
        <path id="Path_30276" data-name="Path 30276" d="M223.992,84.223h10.381c.362,0,.724-.013,1.084.01.952.061,1.735.548,1.523,1.508A2.179,2.179,0,0,1,235.5,87.1a36.745,36.745,0,0,1-4.639.087q-8.6,0-17.2,0c-.465,0-.93,0-1.394-.022-.965-.044-1.625-.518-1.585-1.514s.731-1.423,1.687-1.425q4.106-.01,8.212-.007h3.409" transform="translate(-145.34 -58.099)" fill="#141774"/>
        <path id="Path_30277" data-name="Path 30277" d="M218.986,119.3c-2.062,0-4.123.007-6.185,0-1.068-.005-2.072-.289-2.073-1.55s.969-1.52,2.066-1.515q6.185.026,12.369,0c1.021,0,1.924.192,1.973,1.425.052,1.322-.9,1.618-1.966,1.631-2.061.026-4.123.007-6.185.008" transform="translate(-145.372 -80.183)" fill="#141774"/>
      </g>
    </g>
  </g>
</svg>
