<svg xmlns="http://www.w3.org/2000/svg" xmlns:xlink="http://www.w3.org/1999/xlink" width="180" height="180" viewBox="0 0 180 180">
  <defs>
    <clipPath id="clip-path">
      <rect id="Rectangle_543" data-name="Rectangle 543" width="60.965" height="50.822" fill="#141774"/>
    </clipPath>
  </defs>
  <g id="Line_Items_Bidding_with" data-name="Line Items Bidding with" transform="translate(-661 -3286)">
    <g id="Ellipse_11" data-name="Ellipse 11" transform="translate(661 3286)" fill="none" stroke="#141774" stroke-width="3">
      <circle cx="90" cy="90" r="90" stroke="none"/>
      <circle cx="90" cy="90" r="88.5" fill="none"/>
    </g>
    <g id="Group_6579" data-name="Group 6579" transform="translate(-14813.154 -12241.154)">
      <path id="Rectangle_544" data-name="Rectangle 544" d="M15.344,2.557A12.786,12.786,0,0,0,2.557,15.344V70.965A12.786,12.786,0,0,0,15.344,83.751H70.965A12.786,12.786,0,0,0,83.751,70.965V15.344A12.786,12.786,0,0,0,70.965,2.557H15.344m0-2.557H70.965A15.344,15.344,0,0,1,86.309,15.344V70.965A15.344,15.344,0,0,1,70.965,86.309H15.344A15.344,15.344,0,0,1,0,70.965V15.344A15.344,15.344,0,0,1,15.344,0Z" transform="translate(15521 15574)" fill="#141774"/>
      <g id="Group_6578" data-name="Group 6578" transform="translate(15533.786 15592.05)">
        <g id="Group_6577" data-name="Group 6577" clip-path="url(#clip-path)">
          <path id="Path_30093" data-name="Path 30093" d="M109.078,115.02h20.767c.294,0,.591-.011.883.016a1.232,1.232,0,0,1,1.2,1.272,1.219,1.219,0,0,1-1.244,1.234c-.264.015-.53.01-.8.01H88.266c-1.395,0-2.044-.393-2.064-1.245-.02-.873.659-1.288,2.109-1.288h20.767" transform="translate(-70.965 -94.689)" fill="#141774"/>
          <path id="Path_30094" data-name="Path 30094" d="M109.078,2.518H88.407c-.235,0-.471.006-.707,0-.915-.029-1.511-.543-1.489-1.279.021-.71.583-1.188,1.456-1.231.235-.011.471,0,.707,0q20.715,0,41.43,0a6.223,6.223,0,0,1,1.144.055,1.137,1.137,0,0,1,.981,1.189,1.155,1.155,0,0,1-1.034,1.235,5.818,5.818,0,0,1-.969.034q-10.424,0-20.848,0" transform="translate(-70.973 0)" fill="#141774"/>
          <path id="Path_30095" data-name="Path 30095" d="M109.125,230.2h20.762c.294,0,.59-.009.883.014a1.156,1.156,0,0,1,1.154,1.211,1.178,1.178,0,0,1-1.025,1.251,4.209,4.209,0,0,1-.88.041q-20.939,0-41.877,0c-.147,0-.295,0-.442,0-.908-.036-1.508-.556-1.493-1.292s.606-1.221,1.537-1.222q10.69-.008,21.38,0" transform="translate(-70.969 -189.515)" fill="#141774"/>
          <path id="Path_30096" data-name="Path 30096" d="M100.183,45.583q-6.267,0-12.534,0a1.3,1.3,0,0,1-1.442-1.224,1.334,1.334,0,0,1,1.407-1.284c.235-.013.471,0,.706,0h8.65q7.591,0,15.182,0a4.152,4.152,0,0,1,.966.045,1.173,1.173,0,0,1,1.008,1.337,1.147,1.147,0,0,1-1.145,1.121c-.263.021-.529.013-.794.013h-12" transform="translate(-70.97 -35.449)" fill="#141774"/>
          <path id="Path_30097" data-name="Path 30097" d="M100.218,158.166c4.091,0,8.182-.021,12.272.027a2.127,2.127,0,0,1,1.423.619,1.179,1.179,0,0,1-.842,1.855,5.494,5.494,0,0,1-.881.031q-12.007,0-24.015,0c-.177,0-.353,0-.53,0a1.353,1.353,0,0,1-1.449-1.237,1.335,1.335,0,0,1,1.485-1.288q6.268-.014,12.537,0" transform="translate(-70.961 -130.206)" fill="#141774"/>
          <path id="Path_30098" data-name="Path 30098" d="M100.266,275.737q-5.966,0-11.931,0a5.668,5.668,0,0,1-.969-.045,1.235,1.235,0,0,1,.056-2.444,4.412,4.412,0,0,1,.617-.024q12.241,0,24.482,0c.264,0,.616-.072.775.065a2.675,2.675,0,0,1,.913,1.137,1.029,1.029,0,0,1-.869,1.236,4.2,4.2,0,0,1-1.053.072q-6.01.007-12.02,0" transform="translate(-71.076 -224.915)" fill="#141774"/>
          <path id="Path_30099" data-name="Path 30099" d="M10.13,120.125a5.044,5.044,0,0,1-5,5.1,5.072,5.072,0,1,1-.05-10.143,5.042,5.042,0,0,1,5.053,5.047m-2.537.022a2.532,2.532,0,0,0-2.514-2.538,2.541,2.541,0,0,0,0,5.082,2.531,2.531,0,0,0,2.509-2.543" transform="translate(-0.002 -94.738)" fill="#141774"/>
          <path id="Path_30100" data-name="Path 30100" d="M10.13,235.277a5.033,5.033,0,0,1-5.019,5.077,5.057,5.057,0,1,1-.023-10.114,5,5,0,0,1,5.042,5.037m-2.539.048a2.506,2.506,0,0,0-2.479-2.56,2.552,2.552,0,0,0-2.567,2.5,2.6,2.6,0,0,0,2.5,2.581,2.551,2.551,0,0,0,2.544-2.518" transform="translate(0 -189.545)" fill="#141774"/>
          <path id="Path_30101" data-name="Path 30101" d="M10.121,5.343a4.981,4.981,0,0,1-5.37,4.865,5.056,5.056,0,1,1,5.37-4.865M7.6,5.168A2.553,2.553,0,0,0,5.087,2.615,2.61,2.61,0,0,0,2.546,5.16,2.556,2.556,0,0,0,5.079,7.693,2.509,2.509,0,0,0,7.6,5.168" transform="translate(-0.004 -0.088)" fill="#141774"/>
        </g>
      </g>
    </g>
  </g>
</svg>
