<svg xmlns="http://www.w3.org/2000/svg" xmlns:xlink="http://www.w3.org/1999/xlink" width="180" height="180" viewBox="0 0 180 180">
  <defs>
    <clipPath id="clip-path">
      <rect id="Rectangle_561" data-name="Rectangle 561" width="91.615" height="91.595" fill="#141774"/>
    </clipPath>
  </defs>
  <g id="Online_Document" data-name="Online Document" transform="translate(-227 -4403)">
    <g id="Ellipse_10" data-name="Ellipse 10" transform="translate(227 4403)" fill="none" stroke="#141774" stroke-width="3">
      <circle cx="90" cy="90" r="90" stroke="none"/>
      <circle cx="90" cy="90" r="88.5" fill="none"/>
    </g>
    <g id="Group_6594" data-name="Group 6594" transform="translate(271 4447)">
      <g id="Group_6593" data-name="Group 6593" clip-path="url(#clip-path)">
        <path id="Path_30141" data-name="Path 30141" d="M38.5,79.819V76.8H56.071V65.519c-7.7,3.519-15.216,3.45-22.3-1.172S23.482,52.933,23.63,44.319H22.215q-9.293,0-18.585,0C1.048,44.315,0,43.273,0,40.7Q0,22.184,0,3.669C0,1.016,1.03,0,3.718,0Q17.724,0,31.729,0c2.74,0,3.722.993,3.731,3.781.008,2.6,0,5.2,0,7.987H53.085v3.022H35.568v11.28c7.734-3.531,15.247-3.433,22.327,1.208s10.245,11.444,10.093,20h1.474q9.226,0,18.453,0c2.684,0,3.7,1.01,3.7,3.68q0,18.448,0,36.9c0,2.746-1,3.737-3.782,3.738q-13.939,0-27.878,0c-2.834,0-3.792-.969-3.8-3.846-.006-2.6,0-5.193,0-7.929Zm50.062,8.737V50.287H67.532a22.672,22.672,0,0,1-7.946,12.868,1.839,1.839,0,0,0-.46,1.274c-.035,3.759-.023,7.519-.014,11.278a8.1,8.1,0,0,0,.123,1H73.929l-3.916-3.173,1.847-2.3L80.677,78.3l-8.825,7.059-1.834-2.306L73.9,79.9H59.227v8.659ZM24.078,41.331a22.659,22.659,0,0,1,7.889-12.837,2.025,2.025,0,0,0,.518-1.378c.054-2.121.024-4.245.024-6.367V14.916H17.733L21.6,18.073,19.76,20.355,10.941,13.3l8.83-7.061L21.59,8.533l-3.86,3.19H32.414V3.064H3.069V41.331ZM45.832,53.137c1.768,0,3.536-.023,5.3.012a1.014,1.014,0,0,0,1.2-.888,25.086,25.086,0,0,0-.061-12.96,1.425,1.425,0,0,0-1.06-.8c-3.579-.061-7.16-.017-10.74-.053-.781-.008-1.048.3-1.229,1.021a25.869,25.869,0,0,0,.009,12.714,1.073,1.073,0,0,0,1.271.972c1.767-.043,3.536-.014,5.3-.014m-9.348-.005a27.919,27.919,0,0,1-.058-14.67c-2.707,0-5.223-.032-7.736.039a1.415,1.415,0,0,0-.937.841A18.542,18.542,0,0,0,27.768,52.3c.121.334.548.784.842.791,2.556.063,5.114.036,7.874.036m18.673.005c2.547,0,4.965-.033,7.38.019a1.244,1.244,0,0,0,1.41-1.023,19.366,19.366,0,0,0,.433-11.219c-.636-2.451-.626-2.454-3.112-2.454H55.146a27.814,27.814,0,0,1,.012,14.678m-25.491-17.7c2.488,0,4.6-.045,6.7.022.859.028,1.2-.367,1.581-1.045,1.183-2.1,2.455-4.155,3.7-6.222.205-.341.453-.656.893-1.286a19.594,19.594,0,0,0-12.879,8.53m32.061,0c-2.035-4.245-8.865-8.408-12.16-8.262,1.439,2.555,2.909,5.192,4.423,7.8a1.147,1.147,0,0,0,.848.439c2.241.036,4.484.02,6.889.02M42.3,64.314c-.591-.814-1.208-1.611-1.766-2.448a10.317,10.317,0,0,1-1.624-2.7c-.755-2.748-2.528-3.4-5.107-3.034a31.578,31.578,0,0,1-4.14.031c3.256,4.677,7.311,7.391,12.638,8.154M61.942,56.16c-2.479,0-4.589.045-6.7-.022-.857-.027-1.2.363-1.582,1.043-1.182,2.1-2.455,4.156-3.7,6.223-.206.341-.454.656-.683.984A18.257,18.257,0,0,0,61.942,56.16M45.892,27.489C43.929,30.157,41.939,32.4,40.85,35.3H51.132l-5.24-7.812M40.469,56.258l5.25,7.846c1.943-2.628,3.943-4.886,5.058-7.846Z" transform="translate(0 0)" fill="#141774"/>
        <path id="Path_30142" data-name="Path 30142" d="M234.04,37.816a4.341,4.341,0,0,1,4.378-4.372,4.444,4.444,0,0,1,4.442,4.484,4.542,4.542,0,0,1-4.423,4.405,4.417,4.417,0,0,1-4.4-4.517m2.713-.258q0,.315,0,.63c.545.375,1.053.972,1.645,1.072a1.24,1.24,0,0,0,1.452-1.335c.012-.927-.547-1.6-1.47-1.446-.587.1-1.09.7-1.631,1.079" transform="translate(-171.928 -24.568)" fill="#141774"/>
        <path id="Path_30143" data-name="Path 30143" d="M86.753,282.693a4.348,4.348,0,0,1-4.361,4.39,4.448,4.448,0,0,1-4.458-4.469,4.533,4.533,0,0,1,4.407-4.419,4.408,4.408,0,0,1,4.412,4.5m-4.661,1.628.607-.006c.373-.545.969-1.053,1.068-1.643.158-.951-.567-1.46-1.47-1.432-.857.026-1.5.606-1.322,1.456.121.593.728,1.087,1.117,1.624" transform="translate(-57.251 -204.364)" fill="#141774"/>
        <path id="Path_30144" data-name="Path 30144" d="M211.7,44.762h2.75v2.716c-2.741.678-3.061.378-2.75-2.716" transform="translate(-155.443 -32.883)" fill="#141774"/>
        <rect id="Rectangle_550" data-name="Rectangle 550" width="2.754" height="2.806" transform="translate(32.621 76.901)" fill="#141774"/>
        <rect id="Rectangle_551" data-name="Rectangle 551" width="2.831" height="2.831" transform="translate(73.907 11.887)" fill="#141774"/>
        <rect id="Rectangle_552" data-name="Rectangle 552" width="2.837" height="2.803" transform="translate(14.893 76.891)" fill="#141774"/>
        <rect id="Rectangle_553" data-name="Rectangle 553" width="14.554" height="2.909" transform="translate(69.544 59.121)" fill="#141774"/>
        <rect id="Rectangle_554" data-name="Rectangle 554" width="11.581" height="2.816" transform="translate(72.527 65.094)" fill="#141774"/>
        <rect id="Rectangle_555" data-name="Rectangle 555" width="5.793" height="2.859" transform="translate(69.524 53.22)" fill="#141774"/>
        <rect id="Rectangle_556" data-name="Rectangle 556" width="5.766" height="2.851" transform="translate(78.359 53.226)" fill="#141774"/>
        <rect id="Rectangle_557" data-name="Rectangle 557" width="14.602" height="2.829" transform="translate(7.494 29.588)" fill="#141774"/>
        <rect id="Rectangle_558" data-name="Rectangle 558" width="11.651" height="2.822" transform="translate(7.461 35.547)" fill="#141774"/>
        <rect id="Rectangle_559" data-name="Rectangle 559" width="8.716" height="2.801" transform="translate(16.316 23.712)" fill="#141774"/>
        <rect id="Rectangle_560" data-name="Rectangle 560" width="5.757" height="2.792" transform="translate(7.472 23.716)" fill="#141774"/>
      </g>
    </g>
  </g>
</svg>
