<svg xmlns="http://www.w3.org/2000/svg" xmlns:xlink="http://www.w3.org/1999/xlink" width="180" height="180" viewBox="0 0 180 180">
  <defs>
    <clipPath id="clip-path">
      <rect id="Rectangle_549" data-name="Rectangle 549" width="87.094" height="79.452" fill="#141774"/>
    </clipPath>
  </defs>
  <g id="Spend_Control_" data-name="Spend Control &amp;" transform="translate(-1513 -3621)">
    <g id="Ellipse_447" data-name="Ellipse 447" transform="translate(1513 3621)" fill="none" stroke="#141774" stroke-width="3">
      <circle cx="90" cy="90" r="90" stroke="none"/>
      <circle cx="90" cy="90" r="88.5" fill="none"/>
    </g>
    <g id="Group_6592" data-name="Group 6592" transform="translate(1566.543 3673.947)">
      <g id="Group_6591" data-name="Group 6591" clip-path="url(#clip-path)">
        <path id="Path_30131" data-name="Path 30131" d="M69.2,14.135H3.162v62.1H4.673q10.533,0,21.067,0c.478,0,1.09-.125,1.4.115.514.393,1.169,1.057,1.142,1.573s-.787,1.03-1.31,1.437c-.214.166-.652.053-.989.053q-11.76,0-23.52,0C.366,79.413,0,79.063,0,77Q0,39.7,0,2.388C0,.386.381,0,2.345,0Q36.182,0,70.019,0C71.911,0,72.3.394,72.3,2.287Q72.3,19.245,72.3,36.2c0,1.115,0,2.215-1.506,2.289-1.092.054-1.593-.716-1.594-2.4q-.008-10.03,0-20.06v-1.9M3.129,10.871h66V3.266h-66Z" transform="translate(0 0)" fill="#141774"/>
        <path id="Path_30132" data-name="Path 30132" d="M147.242,169.449a27.835,27.835,0,0,0-11.811-21.094c-.679,1.176-1.3,2.232-1.9,3.3-.55.977-1.362,1.474-2.382.9-1.072-.605-.892-1.559-.337-2.5.632-1.067,1.233-2.153,1.9-3.323a26.28,26.28,0,0,0-11.52-3.209c0,1.283-.015,2.473,0,3.662.017,1.062-.173,1.991-1.482,2.012-1.4.022-1.595-.951-1.577-2.069.018-1.146,0-2.292,0-3.579a26.034,26.034,0,0,0-11.5,3.174c.673,1.188,1.285,2.307,1.936,3.4.536.9.64,1.814-.323,2.393-.988.594-1.837.191-2.4-.811-.606-1.08-1.231-2.15-1.844-3.216a22.686,22.686,0,0,0-7.427,7.592c.978.582,1.955,1.177,2.945,1.748.954.55,1.512,1.278.852,2.349-.6.976-1.457.922-2.373.373-.978-.586-1.984-1.125-3.061-1.73a26.327,26.327,0,0,0-2.814,10.621c1.508,0,2.936,0,4.365,0,1.117,0,2.087.268,2.094,1.612.007,1.387-1,1.562-2.107,1.552-1.78-.015-3.56.005-5.339-.007s-2.205-.443-2.189-2.233a30.7,30.7,0,0,1,59.981-8.564,46.23,46.23,0,0,1,1.406,8.78c.175,1.5-.424,2-1.926,2.013-2.068.024-4.137,0-6.206.01-1.057.007-1.878-.394-1.895-1.509-.018-1.185.835-1.643,1.937-1.65,1.581-.009,3.162,0,4.99,0" transform="translate(-63.278 -99.833)" fill="#141774"/>
        <path id="Path_30133" data-name="Path 30133" d="M42.168,89.523c-3.508,0-7.016.011-10.524,0-1.731-.008-2.249-.521-2.254-2.23q-.019-7.5,0-15c0-1.678.58-2.267,2.235-2.269q10.668-.016,21.337,0c1.655,0,2.11.484,2.113,2.176q.013,7.571,0,15.141c0,1.792-.389,2.171-2.238,2.179-3.556.014-7.113,0-10.669,0M51.838,73.3H32.644V86.376H51.838Z" transform="translate(-20.9 -49.805)" fill="#141774"/>
        <path id="Path_30134" data-name="Path 30134" d="M174.5,211.765c.9,4.5-.519,7.834-4.044,9.321a6.92,6.92,0,0,1-7.791-1.185,1.539,1.539,0,0,0-2.324-.173,4.455,4.455,0,0,1-1.884,1.008,2.545,2.545,0,0,1-1.961-.549,1.262,1.262,0,0,1,.466-2.064c2.369-.942,3.083-2.473,3.377-5.089.609-5.417,6.952-7.843,11.393-4.65a1.755,1.755,0,0,0,2.269.062c3.993-2.308,8.016-4.567,12.035-6.829,1.422-.8,2.82-.372,2.719.9a2.79,2.79,0,0,1-1.279,1.823c-4.1,2.414-8.256,4.724-12.393,7.07-.2.116-.4.247-.582.36m-6.975,6.841a4.238,4.238,0,1,0-.122-8.473,4.281,4.281,0,0,0-4.249,4.217,4.325,4.325,0,0,0,4.371,4.256" transform="translate(-111.069 -143.131)" fill="#141774"/>
        <path id="Path_30135" data-name="Path 30135" d="M147.6,70.024h10.679c1.07,0,1.972.3,1.986,1.559.016,1.355-.94,1.627-2.063,1.627q-6.134,0-12.267,0-4.329,0-8.659,0c-1.753,0-2.614-.512-2.641-1.558-.027-1.062.858-1.625,2.573-1.626q5.2,0,10.391,0" transform="translate(-95.772 -49.811)" fill="#141774"/>
        <path id="Path_30136" data-name="Path 30136" d="M147.515,105.506c-3.557,0-7.115-.02-10.671.012-1.1.01-2.033-.263-2.065-1.464-.034-1.271.916-1.648,2.071-1.646q10.744.013,21.487,0c1.121,0,2.069.28,2.031,1.65-.036,1.319-.987,1.453-2.037,1.449-3.605-.014-7.21-.005-10.816-.005" transform="translate(-95.874 -72.848)" fill="#141774"/>
        <path id="Path_30137" data-name="Path 30137" d="M38.533,167.515c-2.308,0-4.617-.027-6.925.012-1.129.019-2-.367-1.986-1.546.017-1.156.908-1.568,2.018-1.565,4.617.013,9.234,0,13.85.007,1.075,0,1.954.317,1.95,1.591,0,1.306-.9,1.518-1.981,1.508-2.308-.02-4.617-.006-6.925-.006" transform="translate(-21.071 -116.958)" fill="#141774"/>
        <path id="Path_30138" data-name="Path 30138" d="M35.038,200.119c-1.2,0-2.392.008-3.588,0-1.058-.009-1.836-.531-1.834-1.592,0-1.077.77-1.53,1.856-1.517,2.392.03,4.784.025,7.176,0,1.082-.011,1.838.428,1.824,1.535-.014,1.088-.794,1.565-1.845,1.572-1.2.009-2.392,0-3.588,0" transform="translate(-21.067 -140.141)" fill="#141774"/>
        <path id="Path_30139" data-name="Path 30139" d="M26.247,18.987c1.164,0,1.946.353,1.935,1.538-.012,1.251-.873,1.614-1.942,1.6-1.023-.013-1.809-.427-1.814-1.585-.006-1.279.856-1.58,1.821-1.553" transform="translate(-17.376 -13.505)" fill="#141774"/>
        <path id="Path_30140" data-name="Path 30140" d="M55.168,20.459a1.617,1.617,0,0,1-1.809,1.665c-1.067.025-1.94-.321-1.973-1.568-.031-1.171.718-1.55,1.78-1.571,1.088-.021,1.892.272,2,1.474" transform="translate(-36.553 -13.504)" fill="#141774"/>
      </g>
    </g>
  </g>
</svg>
