<svg xmlns="http://www.w3.org/2000/svg" xmlns:xlink="http://www.w3.org/1999/xlink" width="180" height="180" viewBox="0 0 180 180">
  <defs>
    <clipPath id="clip-path">
      <rect id="Rectangle_585" data-name="Rectangle 585" width="103.971" height="79.739" fill="#141774"/>
    </clipPath>
  </defs>
  <g id="Track_Purchase_Order" data-name="Track Purchase Order" transform="translate(-227 -6645)">
    <g id="Ellipse_10" data-name="Ellipse 10" transform="translate(227 6645)" fill="none" stroke="#141774" stroke-width="3">
      <circle cx="90" cy="90" r="90" stroke="none"/>
      <circle cx="90" cy="90" r="88.5" fill="none"/>
    </g>
    <g id="Group_6629" data-name="Group 6629" transform="translate(266.257 6695.391)">
      <g id="Group_6628" data-name="Group 6628" clip-path="url(#clip-path)">
        <path id="Path_30278" data-name="Path 30278" d="M82.508,71.469c-1.722-2.247-3.333-3.756-6.326-3.586-5.02.284-10.068.077-15.305.077V93.927H57.484V68h-8.6v-3.51c.552-.025,1.073-.069,1.594-.069,9.007,0,18.014.021,27.021-.021a6.971,6.971,0,0,1,5.3,2.186Q92.81,76.7,102.919,86.716a3.772,3.772,0,0,1,1.273,2.944c-.061,5.9-.02,11.792-.031,17.689-.006,3.646-2.006,5.622-5.673,5.64-.962,0-1.925,0-2.707,0a40.641,40.641,0,0,1-2.352,5.03,11.486,11.486,0,0,1-9.223,5.363c-.693.055-1.393.05-2.089.05q-39.888,0-79.776,0H.326v-3.361H25.865l-3.489-7.093c-.927,0-2.2.047-3.477-.01-2.4-.107-4.651-1.893-4.723-4.238-.166-5.447-.053-10.9-.053-16.447H17.57v5.491c0,3.055,0,6.111,0,9.166,0,2.284.288,2.554,2.632,2.565a1.98,1.98,0,0,1,.321,0c1.59.268,2.359-.282,2.879-1.956a11.838,11.838,0,0,1,11.65-8.393,12.141,12.141,0,0,1,11.441,8.756c.142.46.269.923.431,1.483H71.262c2.48-6.893,6.22-10.114,11.849-10.238,5.859-.129,9.453,2.82,12.506,10.331a17.253,17.253,0,0,0,3.467-.067c.6-.125,1.128-.888,1.564-1.459.185-.242.059-.728.059-1.1,0-4.223,0-8.445,0-12.85H98.836q-11.58,0-23.16,0c-3.1,0-4.356-1.262-4.358-4.378q0-7.156,0-14.312c.007-2.643,1.193-3.833,3.816-3.849,2.388-.015,4.775,0,7.372,0m18.5,18.918a10.935,10.935,0,0,0-1.1-1.724q-6.444-6.5-12.943-12.95c-.324-.323-.769-.737-1.164-.743-3.62-.057-7.242-.034-10.928-.034v15.45ZM26.242,111.319A8.681,8.681,0,0,0,34.92,120a8.8,8.8,0,0,0,8.6-8.809,8.6,8.6,0,0,0-8.809-8.505,8.473,8.473,0,0,0-8.469,8.629m57.237-8.629a8.5,8.5,0,0,0-8.692,8.576,8.628,8.628,0,1,0,17.255-.017,8.539,8.539,0,0,0-8.563-8.559m-9.127,17.261-3.39-6.911H47.294l-3.416,6.911Z" transform="translate(-0.221 -43.694)" fill="#141774"/>
        <path id="Path_30279" data-name="Path 30279" d="M22.548,0A22.558,22.558,0,1,1,0,22.385,22.548,22.548,0,0,1,22.548,0M41.5,22.586a19.022,19.022,0,1,0-19,19.027,19.075,19.075,0,0,0,19-19.027" transform="translate(0 0)" fill="#141774"/>
        <rect id="Rectangle_579" data-name="Rectangle 579" width="8.497" height="3.337" transform="translate(0.101 60.695)" fill="#141774"/>
        <rect id="Rectangle_580" data-name="Rectangle 580" width="6.62" height="3.235" transform="translate(66.002 53.868)" fill="#141774"/>
        <rect id="Rectangle_581" data-name="Rectangle 581" width="5.005" height="3.217" transform="translate(3.573 53.874)" fill="#141774"/>
        <rect id="Rectangle_582" data-name="Rectangle 582" width="3.332" height="3.377" transform="translate(5.235 46.841)" fill="#141774"/>
        <rect id="Rectangle_583" data-name="Rectangle 583" width="3.28" height="3.353" transform="translate(32.959 65.907)" fill="#141774"/>
        <rect id="Rectangle_584" data-name="Rectangle 584" width="3.404" height="3.248" transform="translate(81.501 65.936)" fill="#141774"/>
        <path id="Path_30280" data-name="Path 30280" d="M31.89,33.964c.407-5.524,2.672-9.365,7.384-11.459A12.055,12.055,0,0,1,55.358,37.98c-2.185,5.412-5.845,9.808-9.8,13.982a1.75,1.75,0,0,1-2.81.026c-4.088-4.277-7.867-8.785-9.973-14.421a27.194,27.194,0,0,1-.881-3.6M44.12,48.4c3.324-3.755,6.515-7.454,8.085-12.16a9.7,9.7,0,0,0,.212-4.841c-.99-4.726-6.24-7.551-10.887-6.077a8.534,8.534,0,0,0-5.5,11.06c1.719,4.594,4.8,8.274,8.089,12.018" transform="translate(-21.636 -14.549)" fill="#141774"/>
        <path id="Path_30281" data-name="Path 30281" d="M59.052,43.238a5.122,5.122,0,0,1,5.22,5.124,5.192,5.192,0,0,1-5.153,5.23,5.136,5.136,0,0,1-5.184-5.168,5.029,5.029,0,0,1,5.117-5.186m1.966,4.8c-.647-.458-1.253-1.2-1.951-1.3A1.379,1.379,0,0,0,57.455,48.4a2.533,2.533,0,0,0,1.558,1.581c1.022.265,1.657-.468,2.005-1.946" transform="translate(-36.592 -29.334)" fill="#141774"/>
      </g>
    </g>
  </g>
</svg>
