<svg xmlns="http://www.w3.org/2000/svg" xmlns:xlink="http://www.w3.org/1999/xlink" width="180" height="180" viewBox="0 0 180 180">
  <defs>
    <clipPath id="clip-path">
      <rect id="Rectangle_565" data-name="Rectangle 565" width="79.392" height="91.299" fill="#141774"/>
    </clipPath>
  </defs>
  <g id="Vendor_Registration" data-name="Vendor Registration" transform="translate(-227 -4738)">
    <g id="Ellipse_444" data-name="Ellipse 444" transform="translate(227 4738)" fill="none" stroke="#141774" stroke-width="3">
      <circle cx="90" cy="90" r="90" stroke="none"/>
      <circle cx="90" cy="90" r="88.5" fill="none"/>
    </g>
    <g id="Group_6602" data-name="Group 6602" transform="translate(277.111 4782.352)">
      <g id="Group_6601" data-name="Group 6601" clip-path="url(#clip-path)">
        <path id="Path_30172" data-name="Path 30172" d="M48,71.02a20.457,20.457,0,0,0,1.974,4.121c1.992,2.466,4.2,4.764,6.376,7.07.612.647,1.38,1.3.835,2.122a2.67,2.67,0,0,1-1.967.863q-14.28.082-28.561,0a2.617,2.617,0,0,1-1.944-.907c-.533-.854.288-1.459.918-2.077a88.475,88.475,0,0,0,6.324-6.541c.984-1.188,1.379-2.863,2.191-4.649H31.968q-12.8,0-25.607,0c-4.386,0-6.356-1.968-6.357-6.36Q0,45.313,0,25.967c0-4.4,1.965-6.363,6.347-6.365h3.665V17.988q0-7.879,0-15.758c0-1.8.408-2.224,2.244-2.224q27.436-.01,54.872,0c1.824,0,2.231.425,2.232,2.237.005,5.716,0,11.433,0,17.36,1.421,0,2.761,0,4.1,0,3.712.014,5.895,2.105,5.9,5.816q.04,19.909,0,39.818c-.008,3.7-2.173,5.771-5.937,5.779q-11.678.024-23.356.005H48M13.022,60.8H66.369V3.02H13.022ZM3.07,64.013c-.353,3.294.313,4.046,3.437,4.047q33.329,0,66.658,0c2.827,0,3.729-1.186,3.056-4.045ZM9.964,22.52c-1.376,0-2.586-.007-3.8,0-2.479.018-3.212.735-3.213,3.163q0,16.933,0,33.865c0,.452.042.9.063,1.341H9.964Zm59.5.035V60.894h6.848a1.262,1.262,0,0,0,.079-.239q.018-17.845.022-35.689a2.2,2.2,0,0,0-2.237-2.388c-1.529-.1-3.071-.023-4.712-.023M52.069,82.26c-3.049-3.419-5.978-6.648-6.782-11.167H36.76c-.58,4.642-3.57,7.83-6.683,11.167Z" transform="translate(0)" fill="#141774"/>
        <path id="Path_30173" data-name="Path 30173" d="M91.162,316.714q-9.349,0-18.7,0c-.468,0-1.028.13-1.382-.078-.535-.315-1.335-.931-1.282-1.316.077-.559.774-1.076,1.293-1.507.2-.165.634-.053.962-.053q18.978,0,37.957,0c.374,0,.853-.112,1.1.073.513.385,1.242.93,1.246,1.416,0,.467-.729,1.045-1.261,1.376-.345.215-.912.089-1.379.089q-9.279.005-18.557,0" transform="translate(-50.16 -225.452)" fill="#141774"/>
        <path id="Path_30174" data-name="Path 30174" d="M49.34,312.777c.8.394,1.621.564,2.009,1.067a2.135,2.135,0,0,1-.155,1.672,13.09,13.09,0,0,1-3.463.092,1.993,1.993,0,0,1-.322-1.615,6.315,6.315,0,0,1,1.932-1.215" transform="translate(-34.016 -224.775)" fill="#141774"/>
        <path id="Path_30175" data-name="Path 30175" d="M230.349,313.848c1.5.014,2.349.69,2.117,1.736-.267,1.2-1.248,1.217-2.208,1.22s-1.938-.049-2.194-1.246c-.231-1.077.664-1.726,2.286-1.711" transform="translate(-163.87 -225.544)" fill="#141774"/>
        <path id="Path_30176" data-name="Path 30176" d="M96.672,45.322c4.217-4.125,10.013-4.7,15.106.04a27.016,27.016,0,0,0,1.311-2.422c.43-1.021,1.084-1.621,2.161-1.154,1.049.456.929,1.373.566,2.286a12.539,12.539,0,1,1-2.323-13c.249.277.659.584.659.877a2.784,2.784,0,0,1-.407,1.82c-.295.288-1.171.12-1.728-.048-.345-.1-.57-.593-.859-.9A9.605,9.605,0,0,0,95.875,44.24a12.606,12.606,0,0,0,.8,1.082m12.985,1.89c-3.1-3.509-8.33-3.451-10.919.035a9.123,9.123,0,0,0,10.919-.035" transform="translate(-65.879 -19.32)" fill="#141774"/>
        <path id="Path_30177" data-name="Path 30177" d="M91.084,138.623q8.5,0,17,0c.467,0,1.052-.127,1.373.1a2.329,2.329,0,0,1,1.028,1.422c.025.411-.57,1-1.032,1.255a3.389,3.389,0,0,1-1.518.112q-17,.006-34.008,0c-1.093,0-2.409.261-2.6-1.38-.129-1.081.665-1.509,2.613-1.509H91.084" transform="translate(-51.248 -99.597)" fill="#141774"/>
        <path id="Path_30178" data-name="Path 30178" d="M115.453,162.213c2.714,0,5.428.005,8.143,0,1.035,0,1.939.2,1.914,1.48s-.933,1.445-1.965,1.443q-8.072-.014-16.145,0c-1.053,0-1.926-.24-1.915-1.493.011-1.281.947-1.434,1.966-1.431,2.667.009,5.335,0,8,0" transform="translate(-75.806 -116.571)" fill="#141774"/>
        <path id="Path_30179" data-name="Path 30179" d="M129.723,48c-.056,2.438-2.077,4.646-4.207,4.6-2.195-.051-4.134-2.386-4.053-4.881a4.132,4.132,0,0,1,8.26.284m-2.006-.108c-.98-.712-1.536-1.417-2.18-1.509-.836-.119-1.434.552-1.472,1.495-.039.977.878,2.243,1.524,1.959.691-.3,1.188-1.051,2.128-1.945" transform="translate(-87.287 -31.421)" fill="#141774"/>
        <path id="Path_30180" data-name="Path 30180" d="M160.385,50.422c1-1.211,1.963-2.345,2.894-3.5.665-.827,1.441-1.311,2.384-.542.9.734.568,1.557-.072,2.326q-1.839,2.211-3.654,4.444a1.6,1.6,0,0,1-2.543.287c-.723-.593-1.471-1.16-2.156-1.794a1.446,1.446,0,1,1,1.864-2.21c.406.3.8.619,1.283.992" transform="translate(-112.584 -33.051)" fill="#141774"/>
        <path id="Path_30181" data-name="Path 30181" d="M130.264,184.405c.937,0,1.875-.008,2.812,0,.9.012,1.557.565,1.385,1.376a2.134,2.134,0,0,1-1.364,1.434,32.038,32.038,0,0,1-5.752,0c-.5-.046-1.221-.9-1.323-1.47-.146-.815.531-1.336,1.43-1.341.937-.005,1.875,0,2.812,0" transform="translate(-90.551 -132.519)" fill="#141774"/>
      </g>
    </g>
  </g>
</svg>
