<svg id="Group_41708" data-name="Group 41708" xmlns="http://www.w3.org/2000/svg" width="250.201" height="70.891" viewBox="0 0 250.201 70.891">
  <g id="Group_6760" data-name="Group 6760" transform="translate(1.639)">
    <path id="Path_23653" data-name="Path 23653" d="M4.535,39.478,20.292,0h5.849L42.933,39.478H36.748L31.962,27.522H14.806L10.3,39.478ZM16.373,23.267H30.284L26,12.334q-1.959-4.981-2.91-8.187a48.87,48.87,0,0,1-2.211,7.54Z" transform="translate(-4.535)" fill="#fff"/>
    <path id="Path_23654" data-name="Path 23654" d="M121.427,39.478V0H129.6l9.711,27.953q1.343,3.9,1.959,5.844.7-2.154,2.185-6.329L153.277,0h7.3V39.478h-5.233V6.436L143.426,39.478h-4.9L126.66,5.871V39.478Z" transform="translate(-78.859)" fill="#fff"/>
    <path id="Path_23655" data-name="Path 23655" d="M257.127,39.478V22.755L241.315,0h6.605l8.088,11.9q2.239,3.34,4.17,6.679,1.848-3.1,4.479-6.975L272.605,0h6.325L262.558,22.755V39.478Z" transform="translate(-155.088)" fill="#fff"/>
  </g>
  <g id="Group_6761" data-name="Group 6761" transform="translate(0 41.865)">
    <path id="Path_23656" data-name="Path 23656" d="M0,142.259,2.411,142a7.2,7.2,0,0,0,.876,3.078,4.948,4.948,0,0,0,1.953,1.772,6.035,6.035,0,0,0,2.861.67,5.121,5.121,0,0,0,3.545-1.133,3.769,3.769,0,0,0,1.261-2.942,3.62,3.62,0,0,0-.458-1.85,3.468,3.468,0,0,0-1.384-1.3,25.658,25.658,0,0,0-3.995-1.428,14,14,0,0,1-3.89-1.657,5.731,5.731,0,0,1-1.8-2.115,6.971,6.971,0,0,1,1.206-7.652A6.737,6.737,0,0,1,7.569,125.6a7.867,7.867,0,0,1,3.769.867,6.1,6.1,0,0,1,2.508,2.483,8.262,8.262,0,0,1,.957,3.8l-2.46.229a5.2,5.2,0,0,0-1.374-3.462,4.617,4.617,0,0,0-3.319-1.127,4.921,4.921,0,0,0-3.311.988A3.222,3.222,0,0,0,3.2,131.936a2.964,2.964,0,0,0,.838,2.254,9.913,9.913,0,0,0,3.76,1.62,24.42,24.42,0,0,1,4.016,1.395,6.545,6.545,0,0,1,2.67,2.411,6.761,6.761,0,0,1,.9,3.564,7.507,7.507,0,0,1-.947,3.743,6.42,6.42,0,0,1-2.58,2.57,8.18,8.18,0,0,1-3.93.88,7.61,7.61,0,0,1-5.714-2.188A8.412,8.412,0,0,1,0,142.259Z" transform="translate(0 -125.598)" fill="#fff"/>
    <path id="Path_23657" data-name="Path 23657" d="M49.834,138.314q0-6.124,2.652-9.414a8.165,8.165,0,0,1,6.607-3.291,7.966,7.966,0,0,1,4.661,1.47,9.889,9.889,0,0,1,3.335,4.27,16.513,16.513,0,0,1,1.229,6.671,14.634,14.634,0,0,1-2.379,8.671,8.184,8.184,0,0,1-13.744-.1A14.236,14.236,0,0,1,49.834,138.314Zm2.636.041a10.876,10.876,0,0,0,1.921,6.873,5.714,5.714,0,0,0,9.387-.023q1.905-2.466,1.9-7.257a14.688,14.688,0,0,0-.981-5.524,6.776,6.776,0,0,0-2.275-2.983,5.473,5.473,0,0,0-3.319-1.12,5.753,5.753,0,0,0-4.766,2.452q-1.872,2.452-1.873,7.582Z" transform="translate(-31.686 -125.606)" fill="#fff"/>
    <path id="Path_23658" data-name="Path 23658" d="M110,150.823v-23.94h13.037v2.825H112.553v7.414h9.068v2.826h-9.068v10.875Z" transform="translate(-69.94 -126.455)" fill="#fff"/>
    <path id="Path_23659" data-name="Path 23659" d="M157.282,150.823V129.708h-6.366v-2.825h15.319v2.825h-6.4v21.115Z" transform="translate(-95.958 -126.455)" fill="#fff"/>
    <path id="Path_23660" data-name="Path 23660" d="M200.221,150.823v-23.94H214.19v2.825H202.777v7.316h10.69v2.825h-10.69V148H214.64v2.825Z" transform="translate(-127.308 -126.455)" fill="#fff"/>
    <path id="Path_23661" data-name="Path 23661" d="M261.826,141.581l2.572.8a11.136,11.136,0,0,1-2.982,6.017,7.325,7.325,0,0,1-5.184,1.984,7.805,7.805,0,0,1-4.588-1.331,9.414,9.414,0,0,1-3.118-4.273,18.122,18.122,0,0,1-1.214-6.945,16.464,16.464,0,0,1,1.214-6.691,9.412,9.412,0,0,1,3.291-4.133,8.115,8.115,0,0,1,4.634-1.4,7.046,7.046,0,0,1,4.811,1.767,9.6,9.6,0,0,1,2.816,5.189l-2.507.733q-1.288-4.98-5.167-4.981a5.637,5.637,0,0,0-3.348,1.006,6.766,6.766,0,0,0-2.262,3.13,14.664,14.664,0,0,0-.845,5.377q0,4.919,1.7,7.379a5.262,5.262,0,0,0,4.533,2.46,4.941,4.941,0,0,0,3.609-1.51A8.2,8.2,0,0,0,261.826,141.581Z" transform="translate(-157.247 -125.607)" fill="#fff"/>
    <path id="Path_23662" data-name="Path 23662" d="M302.983,150.823v-23.94h2.556v9.831h10.047v-9.831h2.556v23.94h-2.556V139.539H305.539v11.284Z" transform="translate(-192.648 -126.455)" fill="#fff"/>
  </g>
  <g id="Group_6762" data-name="Group 6762" transform="translate(147.414 1.314)" opacity="0.99">
    <path id="Path_23663" data-name="Path 23663" d="M404.808,20.218V3.943h2.986l3.563,11.523.713,2.409q.262-.9.8-2.609l3.6-11.323h2.673V20.218h-1.91V6.606l-4.377,13.612h-1.784L406.72,6.372V20.218Z" transform="translate(-404.808 -3.943)" fill="#fff"/>
    <path id="Path_23664" data-name="Path 23664" d="M465.421,27.184a6.868,6.868,0,0,1-1.923,1.288,5.152,5.152,0,0,1-2.072.433,3.9,3.9,0,0,1-2.71-.91,3.135,3.135,0,0,1-1.011-2.454,3.438,3.438,0,0,1,.473-1.809,3.327,3.327,0,0,1,1.3-1.233,7.468,7.468,0,0,1,2.5-.655,15.415,15.415,0,0,0,3.3-.7l.013-.511a2.368,2.368,0,0,0-.487-1.7,2.814,2.814,0,0,0-2.11-.711,3.215,3.215,0,0,0-1.923.474,2.976,2.976,0,0,0-.936,1.779l-1.811-.267a4.334,4.334,0,0,1,1.566-2.764,5.654,5.654,0,0,1,3.378-.867,5.321,5.321,0,0,1,2.685.572,2.522,2.522,0,0,1,1.23,1.416,9,9,0,0,1,.255,2.464V23.7a30.214,30.214,0,0,0,.119,3.525,4.828,4.828,0,0,0,.468,1.416h-1.923A4.508,4.508,0,0,1,465.421,27.184Zm-.15-4.463a12.791,12.791,0,0,1-3.009.755,6.2,6.2,0,0,0-1.623.4,1.71,1.71,0,0,0-.718.644,1.8,1.8,0,0,0-.255.96,1.687,1.687,0,0,0,.587,1.349,2.408,2.408,0,0,0,1.623.505,3.572,3.572,0,0,0,1.792-.455,2.968,2.968,0,0,0,1.205-1.216,4.867,4.867,0,0,0,.4-2.215Z" transform="translate(-438.438 -12.363)" fill="#fff"/>
    <path id="Path_23665" data-name="Path 23665" d="M498.821,20.218V3.943h1.836v9.3l4.375-4.811h2.386l-4.159,4.378,4.572,7.412h-2.26l-3.612-6.043-1.3,1.369v4.674Z" transform="translate(-464.585 -3.943)" fill="#fff"/>
    <path id="Path_23666" data-name="Path 23666" d="M534.753,6.241v-2.3h1.835v2.3Zm0,13.977V8.428h1.835v11.79Z" transform="translate(-487.432 -3.943)" fill="#fff"/>
    <path id="Path_23667" data-name="Path 23667" d="M554.774,28.657V16.867h1.661v1.667a3.822,3.822,0,0,1,3.453-1.932,4.2,4.2,0,0,1,1.614.305,3.3,3.3,0,0,1,1.2.8,3.117,3.117,0,0,1,.68,1.282,9.56,9.56,0,0,1,.224,2.42v7.25h-1.836V21.48a5.294,5.294,0,0,0-.25-1.9,1.931,1.931,0,0,0-.78-.928,2.292,2.292,0,0,0-1.23-.328,2.7,2.7,0,0,0-2.11.878,4.517,4.517,0,0,0-.787,3.012V28.66Z" transform="translate(-500.162 -12.382)" fill="#fff"/>
    <path id="Path_23668" data-name="Path 23668" d="M592.4,29.628l1.8.289a1.983,1.983,0,0,0,.749,1.413,2.863,2.863,0,0,0,1.736.464,3.243,3.243,0,0,0,1.93-.516,2.605,2.605,0,0,0,.98-1.538,13.024,13.024,0,0,0,.163-2.62,4.132,4.132,0,0,1-1.348,1.147,3.574,3.574,0,0,1-1.661.386,4.12,4.12,0,0,1-3.234-1.467,6.629,6.629,0,0,1-1.473-4.518,7.918,7.918,0,0,1,.649-3.319,4.658,4.658,0,0,1,1.7-2.087,4.341,4.341,0,0,1,2.367-.667,3.7,3.7,0,0,1,1.754.419,4.149,4.149,0,0,1,1.4,1.257V16.86h1.7V27.051a10.711,10.711,0,0,1-.5,3.88,3.867,3.867,0,0,1-1.635,1.833,5.284,5.284,0,0,1-2.734.672,4.728,4.728,0,0,1-3.246-1.01A3.455,3.455,0,0,1,592.4,29.628Zm1.524-7.083a5.39,5.39,0,0,0,.863,3.394,2.622,2.622,0,0,0,2.115,1.068,2.676,2.676,0,0,0,2.127-1.046,5.141,5.141,0,0,0,.876-3.328,5.105,5.105,0,0,0-.9-3.311,2.746,2.746,0,0,0-2.189-1.085,2.543,2.543,0,0,0-2.021,1.085,5.08,5.08,0,0,0-.869,3.222Z" transform="translate(-523.858 -12.377)" fill="#fff"/>
  </g>
  <g id="Group_6763" data-name="Group 6763" transform="translate(147.476 26.347)" opacity="0.99">
    <path id="Path_23669" data-name="Path 23669" d="M404.945,95.325V79.05H410.6a10.245,10.245,0,0,1,2.947.311,3.891,3.891,0,0,1,2.072,1.567,4.884,4.884,0,0,1,.774,2.809,5.119,5.119,0,0,1-1.261,3.586q-1.261,1.388-4.358,1.388H406.93v6.617Zm1.985-8.537h3.883a4.033,4.033,0,0,0,2.684-.738,2.794,2.794,0,0,0,.849-2.226,3.122,3.122,0,0,0-.418-1.654,2.232,2.232,0,0,0-1.011-.944,6.108,6.108,0,0,0-2.141-.255H406.93Z" transform="translate(-404.945 -79.042)" fill="#fff"/>
    <path id="Path_23670" data-name="Path 23670" d="M447.974,97.882a6.55,6.55,0,0,1,1.443-4.607,5.046,5.046,0,0,1,7.285,0,6.3,6.3,0,0,1,1.461,4.485,6.769,6.769,0,0,1-1.436,4.729,5.056,5.056,0,0,1-7.3-.006A6.527,6.527,0,0,1,447.974,97.882Zm1.886-.005a5.22,5.22,0,0,0,.936,3.407,2.911,2.911,0,0,0,2.323,1.117,2.8,2.8,0,0,0,2.229-1.128,5.25,5.25,0,0,0,.93-3.4,5.2,5.2,0,0,0-.937-3.4,2.911,2.911,0,0,0-2.322-1.117,2.8,2.8,0,0,0-2.235,1.123,5.254,5.254,0,0,0-.924,3.39Z" transform="translate(-432.305 -87.494)" fill="#fff"/>
    <path id="Path_23671" data-name="Path 23671" d="M487.2,100.239l1.835-.311a2.779,2.779,0,0,0,.885,1.857,3.415,3.415,0,0,0,3.768.081,1.646,1.646,0,0,0,.654-1.338,1.248,1.248,0,0,0-.562-1.088,7.605,7.605,0,0,0-1.873-.667,14.664,14.664,0,0,1-2.872-1,2.958,2.958,0,0,1-1.124-1.1,3.06,3.06,0,0,1-.4-1.567,3.094,3.094,0,0,1,1.086-2.453,4.443,4.443,0,0,1,3.009-.944,5.429,5.429,0,0,1,2.129.389,3.306,3.306,0,0,1,1.4,1.043,4.2,4.2,0,0,1,.674,1.876l-1.8.267a2.072,2.072,0,0,0-2.36-1.932,3.054,3.054,0,0,0-1.785.426,1.3,1.3,0,0,0-.587,1.089,1.175,1.175,0,0,0,.563,1.029,10.624,10.624,0,0,0,2,.707,16.29,16.29,0,0,1,2.96,1.029,2.74,2.74,0,0,1,1.045,1.046,3.154,3.154,0,0,1,.373,1.574,3.446,3.446,0,0,1-1.2,2.736,4.852,4.852,0,0,1-3.29,1.045Q487.822,104.036,487.2,100.239Z" transform="translate(-457.245 -87.486)" fill="#fff"/>
    <path id="Path_23672" data-name="Path 23672" d="M523.232,100.239l1.835-.311a2.78,2.78,0,0,0,.885,1.857,3.414,3.414,0,0,0,3.768.081,1.645,1.645,0,0,0,.655-1.338,1.248,1.248,0,0,0-.562-1.088,7.6,7.6,0,0,0-1.873-.667,14.638,14.638,0,0,1-2.872-1,2.96,2.96,0,0,1-1.123-1.1,3.063,3.063,0,0,1-.4-1.567,3.1,3.1,0,0,1,1.086-2.453,4.443,4.443,0,0,1,3.009-.944,5.427,5.427,0,0,1,2.129.389,3.3,3.3,0,0,1,1.4,1.043,4.2,4.2,0,0,1,.674,1.876l-1.8.267a2.072,2.072,0,0,0-2.36-1.932,3.055,3.055,0,0,0-1.785.426,1.3,1.3,0,0,0-.587,1.089,1.174,1.174,0,0,0,.563,1.029,10.619,10.619,0,0,0,2,.707,16.336,16.336,0,0,1,2.96,1.029,2.735,2.735,0,0,1,1.045,1.046,3.157,3.157,0,0,1,.374,1.574,3.446,3.446,0,0,1-1.205,2.736,4.85,4.85,0,0,1-3.29,1.045Q523.857,104.036,523.232,100.239Z" transform="translate(-480.156 -87.486)" fill="#fff"/>
    <path id="Path_23673" data-name="Path 23673" d="M561.22,81.364v-2.3h1.835v2.3Zm0,13.977V83.55h1.835V95.34Z" transform="translate(-504.31 -79.058)" fill="#fff"/>
    <path id="Path_23674" data-name="Path 23674" d="M582.882,95.341h-1.711V79.066h1.848v5.806a3.966,3.966,0,0,1,1.33-1.194A3.478,3.478,0,0,1,586,83.285a4.162,4.162,0,0,1,2.316.677,4.646,4.646,0,0,1,1.667,2.054,8.05,8.05,0,0,1,.624,3.342,6.837,6.837,0,0,1-1.413,4.624,4.26,4.26,0,0,1-3.3,1.626,3.343,3.343,0,0,1-1.707-.439,3.848,3.848,0,0,1-1.307-1.3Zm-.027-5.984a7.579,7.579,0,0,0,.375,2.742,3.043,3.043,0,0,0,1.064,1.388,2.619,2.619,0,0,0,1.527.477,2.537,2.537,0,0,0,2.022-1.138,7.124,7.124,0,0,0,.032-6.811,2.468,2.468,0,0,0-4.125.05A5.225,5.225,0,0,0,582.855,89.357Z" transform="translate(-516.996 -79.058)" fill="#fff"/>
    <path id="Path_23675" data-name="Path 23675" d="M620.328,95.341V79.066h1.835V95.341Z" transform="translate(-541.894 -79.058)" fill="#fff"/>
    <path id="Path_23676" data-name="Path 23676" d="M646.84,99.984l1.9.255a4.982,4.982,0,0,1-1.717,2.848,4.885,4.885,0,0,1-3.078.96,4.835,4.835,0,0,1-3.74-1.56,6.432,6.432,0,0,1-1.43-4.5,6.746,6.746,0,0,1,1.442-4.657,4.7,4.7,0,0,1,3.652-1.6,4.529,4.529,0,0,1,3.521,1.576,6.627,6.627,0,0,1,1.411,4.563l-.012.533h-8.117a4.717,4.717,0,0,0,1.037,3,2.93,2.93,0,0,0,2.247,1.01Q646.028,102.4,646.84,99.984Zm-6.056-3.231h6.069a4.141,4.141,0,0,0-.737-2.287,2.775,2.775,0,0,0-2.26-1.1,2.81,2.81,0,0,0-2.11.916A3.746,3.746,0,0,0,640.783,96.753Z" transform="translate(-553.621 -87.498)" fill="#fff"/>
    <path id="Path_23677" data-name="Path 23677" d="M681.034,123.34v-2.276h2.1v2.276a4.12,4.12,0,0,1-.437,2.07,2.857,2.857,0,0,1-1.275,1.149l-.512-.855a1.832,1.832,0,0,0,.849-.794,3.56,3.56,0,0,0,.312-1.571Z" transform="translate(-580.412 -107.057)" fill="#fff"/>
  </g>
  <g id="Group_6764" data-name="Group 6764" transform="translate(146.376 49.83)" opacity="0.99">
    <path id="Path_23678" data-name="Path 23678" d="M406.907,165.768V151.414h-4.945v-1.921h11.9v1.921h-4.97v14.354Z" transform="translate(-401.962 -149.493)" fill="#fff"/>
    <path id="Path_23679" data-name="Path 23679" d="M438.374,168.309a6.552,6.552,0,0,1,1.442-4.607,5.046,5.046,0,0,1,7.286,0,6.309,6.309,0,0,1,1.46,4.485,6.769,6.769,0,0,1-1.436,4.729,5.054,5.054,0,0,1-7.3-.006A6.517,6.517,0,0,1,438.374,168.309Zm1.885-.005a5.218,5.218,0,0,0,.937,3.407,2.911,2.911,0,0,0,2.322,1.117,2.8,2.8,0,0,0,2.229-1.128,5.249,5.249,0,0,0,.93-3.4,5.2,5.2,0,0,0-.937-3.4,2.91,2.91,0,0,0-2.322-1.117,2.8,2.8,0,0,0-2.235,1.123,5.26,5.26,0,0,0-.924,3.391Z" transform="translate(-425.114 -157.929)" fill="#fff"/>
    <path id="Path_23680" data-name="Path 23680" d="M477.925,175.178l1.8.289a1.984,1.984,0,0,0,.749,1.413,2.862,2.862,0,0,0,1.736.464,3.243,3.243,0,0,0,1.93-.516,2.6,2.6,0,0,0,.98-1.538,13.022,13.022,0,0,0,.162-2.62,4.128,4.128,0,0,1-1.347,1.147,3.573,3.573,0,0,1-1.661.386,4.119,4.119,0,0,1-3.234-1.467,6.627,6.627,0,0,1-1.473-4.518,7.917,7.917,0,0,1,.649-3.319,4.659,4.659,0,0,1,1.7-2.087,4.342,4.342,0,0,1,2.367-.667,3.7,3.7,0,0,1,1.754.419,4.146,4.146,0,0,1,1.4,1.257v-1.41h1.7V172.6a10.713,10.713,0,0,1-.5,3.88,3.866,3.866,0,0,1-1.636,1.832,5.288,5.288,0,0,1-2.734.672,4.723,4.723,0,0,1-3.247-1.01A3.46,3.46,0,0,1,477.925,175.178Zm1.524-7.083a5.391,5.391,0,0,0,.863,3.394,2.623,2.623,0,0,0,2.115,1.067,2.675,2.675,0,0,0,2.127-1.046,6.644,6.644,0,0,0-.025-6.638,2.746,2.746,0,0,0-2.19-1.085,2.543,2.543,0,0,0-2.02,1.085,5.077,5.077,0,0,0-.87,3.224Z" transform="translate(-450.031 -157.926)" fill="#fff"/>
    <path id="Path_23681" data-name="Path 23681" d="M525.127,170.407l1.9.255a4.979,4.979,0,0,1-1.717,2.848,4.886,4.886,0,0,1-3.079.96,4.837,4.837,0,0,1-3.739-1.56,6.434,6.434,0,0,1-1.43-4.5,6.745,6.745,0,0,1,1.442-4.657,4.7,4.7,0,0,1,3.652-1.6,4.53,4.53,0,0,1,3.521,1.576,6.63,6.63,0,0,1,1.411,4.563l-.013.533h-8.116a4.722,4.722,0,0,0,1.036,3,2.93,2.93,0,0,0,2.247,1.01Q524.315,172.828,525.127,170.407Zm-6.056-3.231h6.069a4.137,4.137,0,0,0-.737-2.287,2.776,2.776,0,0,0-2.261-1.1,2.809,2.809,0,0,0-2.11.916,3.749,3.749,0,0,0-.961,2.471Z" transform="translate(-475.145 -157.929)" fill="#fff"/>
    <path id="Path_23682" data-name="Path 23682" d="M560.507,164.714l.25,1.767a6.1,6.1,0,0,1-1.373.178,3.084,3.084,0,0,1-1.548-.339,1.761,1.761,0,0,1-.805-.927,8.035,8.035,0,0,1-.218-2.343v-6.783h-1.347v-1.554h1.347v-2.92l1.835-1.2v4.119h1.861v1.554h-1.861v6.894a2.92,2.92,0,0,0,.163,1.233.946.946,0,0,0,.887.4A5.45,5.45,0,0,0,560.507,164.714Z" transform="translate(-499.564 -150.227)" fill="#fff"/>
    <path id="Path_23683" data-name="Path 23683" d="M581.313,165.768V149.493h1.836v5.839a4.377,4.377,0,0,1,1.467-1.216,4.012,4.012,0,0,1,1.8-.4,3.755,3.755,0,0,1,2.74.982q1.005.982,1.005,3.6v7.471H588.33V158.3a3.2,3.2,0,0,0-.612-2.2,2.178,2.178,0,0,0-1.686-.667,2.76,2.76,0,0,0-2.041.855,4.279,4.279,0,0,0-.843,3.031v6.45Z" transform="translate(-516 -149.493)" fill="#fff"/>
    <path id="Path_23684" data-name="Path 23684" d="M626.886,170.407l1.9.255a4.982,4.982,0,0,1-1.717,2.848,5.327,5.327,0,0,1-6.818-.6,6.435,6.435,0,0,1-1.43-4.5,6.745,6.745,0,0,1,1.443-4.657,4.7,4.7,0,0,1,3.652-1.6,4.529,4.529,0,0,1,3.521,1.576,6.626,6.626,0,0,1,1.411,4.563l-.012.533h-8.116a4.72,4.72,0,0,0,1.036,3,2.932,2.932,0,0,0,2.248,1.01Q626.074,172.828,626.886,170.407Zm-6.056-3.231H626.9a4.136,4.136,0,0,0-.736-2.287,2.777,2.777,0,0,0-2.26-1.1,2.809,2.809,0,0,0-2.11.916,3.745,3.745,0,0,0-.961,2.471Z" transform="translate(-539.848 -157.929)" fill="#fff"/>
    <path id="Path_23685" data-name="Path 23685" d="M659.827,174.205v-11.79h1.661V164.2a5.006,5.006,0,0,1,1.167-1.649,1.918,1.918,0,0,1,1.193-.4,3.383,3.383,0,0,1,1.885.644l-.624,1.854a2.506,2.506,0,0,0-1.336-.433,1.746,1.746,0,0,0-1.074.367,1.944,1.944,0,0,0-.687,1.021,8.275,8.275,0,0,0-.349,2.431v6.172Z" transform="translate(-565.922 -157.931)" fill="#fff"/>
  </g>
  <g id="Group_6765" data-name="Group 6765" transform="translate(132.658)">
    <line id="Line_12" data-name="Line 12" y2="66.652" transform="translate(1.666)" fill="none"/>
    <rect id="Rectangle_2190" data-name="Rectangle 2190" width="3.331" height="66.652" transform="translate(0)" fill="#fff"/>
  </g>
</svg>
