<svg id="Group_41609" data-name="Group 41609" xmlns="http://www.w3.org/2000/svg" width="242.636" height="58.054" viewBox="0 0 242.636 58.054">
  <g id="Group_6569" data-name="Group 6569" transform="translate(70.336 9.81)">
    <path id="Path_30066" data-name="Path 30066" d="M5.094-15.459a3.11,3.11,0,0,1,2.083.63,2.222,2.222,0,0,1,.736,1.786,2.353,2.353,0,0,1-.736,1.853,3.027,3.027,0,0,1-2.083.656H3.135v2.353H2.42v-7.278Zm-.031,4.28a2.425,2.425,0,0,0,1.6-.474,1.686,1.686,0,0,0,.565-1.369,1.623,1.623,0,0,0-.56-1.333,2.478,2.478,0,0,0-1.607-.458H3.135v3.634Zm7.359-4.342a3.766,3.766,0,0,1,1.9.495A3.743,3.743,0,0,1,15.7-13.689a3.525,3.525,0,0,1,.508,1.853A3.58,3.58,0,0,1,15.7-9.972a3.758,3.758,0,0,1-1.373,1.354,3.736,3.736,0,0,1-1.9.5,3.736,3.736,0,0,1-1.9-.5A3.758,3.758,0,0,1,9.147-9.972a3.58,3.58,0,0,1-.508-1.864,3.525,3.525,0,0,1,.508-1.853,3.743,3.743,0,0,1,1.373-1.338A3.766,3.766,0,0,1,12.423-15.522Zm.01.646a3.02,3.02,0,0,0-1.534.406,3.055,3.055,0,0,0-1.119,1.1,2.941,2.941,0,0,0-.415,1.531,3,3,0,0,0,.415,1.541A3.071,3.071,0,0,0,10.9-9.175a2.99,2.99,0,0,0,1.534.411,2.944,2.944,0,0,0,1.519-.411,3.083,3.083,0,0,0,1.114-1.119,3,3,0,0,0,.415-1.541,2.941,2.941,0,0,0-.415-1.531,3.067,3.067,0,0,0-1.114-1.1A2.973,2.973,0,0,0,12.433-14.876Zm13.921-.594h.757L24.654-8.181h-.746l-2.042-6.383L19.8-8.181h-.736L16.62-15.47H17.4l2.063,6.529,2.052-6.529h.726L24.3-8.941Zm1.959.01h4.851v.646H29.028v2.6h3.7v.646h-3.7v2.738H33.3v.646H28.313ZM39.828-8.181l-1.565-2.374q-.332.021-.508.021h-1.99v2.353H35.05v-7.278h2.705a3.148,3.148,0,0,1,2.1.63,2.215,2.215,0,0,1,.741,1.786,2.515,2.515,0,0,1-.435,1.51,2.271,2.271,0,0,1-1.244.843l1.741,2.509Zm-2.073-3a2.4,2.4,0,0,0,1.6-.474,1.694,1.694,0,0,0,.56-1.369,1.623,1.623,0,0,0-.56-1.333,2.46,2.46,0,0,0-1.6-.458h-1.99v3.634Zm4.789-4.28H47.4v.646H43.259v2.6h3.7v.646h-3.7v2.738H47.53v.646H42.544Zm9.65,0a3.8,3.8,0,0,1,1.892.479,3.541,3.541,0,0,1,1.347,1.317,3.582,3.582,0,0,1,.492,1.848,3.555,3.555,0,0,1-.492,1.843A3.543,3.543,0,0,1,54.081-8.66a3.854,3.854,0,0,1-1.907.479H49.282v-7.278Zm.021,6.633a2.949,2.949,0,0,0,1.5-.4A2.94,2.94,0,0,0,54.8-10.3a2.945,2.945,0,0,0,.4-1.515,2.943,2.943,0,0,0-.4-1.52A2.956,2.956,0,0,0,53.7-14.418a3,3,0,0,0-1.519-.4H50v5.987ZM63.389-15.47a2.7,2.7,0,0,1,1.705.484,1.607,1.607,0,0,1,.617,1.338,1.655,1.655,0,0,1-.358,1.083,1.693,1.693,0,0,1-1,.573A1.958,1.958,0,0,1,65.6-11.4a1.77,1.77,0,0,1,.446,1.239A1.717,1.717,0,0,1,65.348-8.7a3.154,3.154,0,0,1-1.928.521H60.352V-15.47Zm-.031,3.217a1.869,1.869,0,0,0,1.192-.338,1.16,1.16,0,0,0,.425-.963,1.122,1.122,0,0,0-.425-.937,1.847,1.847,0,0,0-1.192-.323H61.067v2.561Zm0,3.426A2.442,2.442,0,0,0,64.8-9.2a1.2,1.2,0,0,0,.513-1.036,1.177,1.177,0,0,0-.518-1.02,2.473,2.473,0,0,0-1.441-.364H61.067v2.791Zm9.692-6.633-2.788,4.686v2.593h-.715v-2.593l-2.83-4.686h.746l2.446,3.915L72.3-15.459Zm9.464,7.278-.86-1.937H77.631l-.85,1.937h-.767l3.265-7.278h.746L83.29-8.181Zm-4.6-2.582h3.462L79.631-14.7Zm6.572-4.706h.891L88.214-10l2.809-5.467h.891v7.289h-.663l-.01-6.289L88.4-8.962h-.394l-2.85-5.508v6.289h-.674Zm14.957.01-2.788,4.686v2.593h-.715v-2.593l-2.83-4.686h.746L96.3-11.544l2.394-3.915Zm5.224,1.187a3.741,3.741,0,0,0-.974-.432,3.631,3.631,0,0,0-1-.151,2.148,2.148,0,0,0-1.2.3.92.92,0,0,0-.451.807,1.059,1.059,0,0,0,.249.729,1.759,1.759,0,0,0,.612.443,9.631,9.631,0,0,0,1,.359,8.526,8.526,0,0,1,1.187.432,2.1,2.1,0,0,1,.767.62,1.7,1.7,0,0,1,.316,1.072,1.7,1.7,0,0,1-.326,1.031,2.093,2.093,0,0,1-.917.692,3.525,3.525,0,0,1-1.358.245,3.787,3.787,0,0,1-1.477-.3,3.978,3.978,0,0,1-1.239-.8l.332-.594a3.575,3.575,0,0,0,1.13.75,3.241,3.241,0,0,0,1.265.271,2.271,2.271,0,0,0,1.316-.338,1.056,1.056,0,0,0,.487-.911,1.115,1.115,0,0,0-.249-.75,1.649,1.649,0,0,0-.612-.448q-.363-.156-1.016-.364a10.4,10.4,0,0,1-1.182-.432,1.993,1.993,0,0,1-.757-.6,1.659,1.659,0,0,1-.311-1.046,1.574,1.574,0,0,1,.311-.968,1.965,1.965,0,0,1,.871-.64,3.472,3.472,0,0,1,1.3-.224,4.151,4.151,0,0,1,1.187.177,4.12,4.12,0,0,1,1.052.469Zm5.359-1.249a3.767,3.767,0,0,1,1.9.495,3.744,3.744,0,0,1,1.373,1.338,3.525,3.525,0,0,1,.508,1.853,3.58,3.58,0,0,1-.508,1.864,3.758,3.758,0,0,1-1.373,1.354,3.736,3.736,0,0,1-1.9.5,3.736,3.736,0,0,1-1.9-.5,3.758,3.758,0,0,1-1.373-1.354,3.58,3.58,0,0,1-.508-1.864,3.525,3.525,0,0,1,.508-1.853,3.743,3.743,0,0,1,1.373-1.338A3.767,3.767,0,0,1,110.022-15.522Zm.01.646a3.02,3.02,0,0,0-1.534.406,3.055,3.055,0,0,0-1.119,1.1,2.941,2.941,0,0,0-.415,1.531,3,3,0,0,0,.415,1.541A3.071,3.071,0,0,0,108.5-9.175a2.99,2.99,0,0,0,1.534.411,2.944,2.944,0,0,0,1.519-.411,3.083,3.083,0,0,0,1.114-1.119,3,3,0,0,0,.415-1.541,2.941,2.941,0,0,0-.415-1.531,3.067,3.067,0,0,0-1.114-1.1A2.973,2.973,0,0,0,110.033-14.876Zm5.349-.583h4.54v.646H116.1v2.8h3.41v.646H116.1v3.186h-.715Zm4.778-.01h5.5v.656h-2.394v6.633h-.715v-6.633H120.16Zm6.758.01h4.851v.646h-4.136v2.6h3.7v.646h-3.7v2.738H131.9v.646h-4.986Zm12,1.479a3.182,3.182,0,0,0-1.005-.666,3.022,3.022,0,0,0-1.182-.239,3.011,3.011,0,0,0-1.539.406,3.015,3.015,0,0,0-1.109,1.109,3,3,0,0,0-.409,1.536,2.97,2.97,0,0,0,.409,1.531A3.067,3.067,0,0,0,135.195-9.2a2.982,2.982,0,0,0,1.539.411,3.054,3.054,0,0,0,1.171-.234,3.327,3.327,0,0,0,1.016-.651l.435.469a4.175,4.175,0,0,1-1.234.791,3.636,3.636,0,0,1-1.42.292,3.689,3.689,0,0,1-1.886-.5,3.73,3.73,0,0,1-1.363-1.354,3.608,3.608,0,0,1-.5-1.864,3.526,3.526,0,0,1,.508-1.853,3.743,3.743,0,0,1,1.373-1.338,3.747,3.747,0,0,1,1.892-.495,3.762,3.762,0,0,1,1.42.276,3.807,3.807,0,0,1,1.2.765Zm2-1.479h.715v3.332h4.53v-3.332h.715v7.278h-.715v-3.3h-4.53v3.3h-.715Zm8.106,6.414a.45.45,0,0,1,.332.135.454.454,0,0,1,.135.333.472.472,0,0,1-.135.338.441.441,0,0,1-.332.141.433.433,0,0,1-.326-.135.477.477,0,0,1-.13-.344.463.463,0,0,1,.13-.333A.433.433,0,0,1,149.027-9.045Zm7.411-4.936a3.182,3.182,0,0,0-1.005-.666,3.022,3.022,0,0,0-1.182-.239,3.011,3.011,0,0,0-1.539.406,3.015,3.015,0,0,0-1.109,1.109,3,3,0,0,0-.409,1.536A2.97,2.97,0,0,0,151.6-10.3,3.067,3.067,0,0,0,152.712-9.2a2.982,2.982,0,0,0,1.539.411,3.054,3.054,0,0,0,1.171-.234,3.327,3.327,0,0,0,1.016-.651l.435.469a4.175,4.175,0,0,1-1.233.791,3.637,3.637,0,0,1-1.42.292,3.688,3.688,0,0,1-1.886-.5,3.729,3.729,0,0,1-1.363-1.354,3.608,3.608,0,0,1-.5-1.864,3.526,3.526,0,0,1,.508-1.853,3.743,3.743,0,0,1,1.373-1.338,3.747,3.747,0,0,1,1.892-.495,3.762,3.762,0,0,1,1.42.276,3.807,3.807,0,0,1,1.2.765Zm4.892-1.541a3.766,3.766,0,0,1,1.9.495,3.744,3.744,0,0,1,1.373,1.338,3.526,3.526,0,0,1,.508,1.853,3.58,3.58,0,0,1-.508,1.864,3.759,3.759,0,0,1-1.373,1.354,3.736,3.736,0,0,1-1.9.5,3.736,3.736,0,0,1-1.9-.5,3.758,3.758,0,0,1-1.373-1.354,3.58,3.58,0,0,1-.508-1.864,3.526,3.526,0,0,1,.508-1.853,3.743,3.743,0,0,1,1.373-1.338A3.766,3.766,0,0,1,161.331-15.522Zm.01.646a3.02,3.02,0,0,0-1.534.406,3.055,3.055,0,0,0-1.119,1.1,2.941,2.941,0,0,0-.415,1.531,3,3,0,0,0,.415,1.541,3.071,3.071,0,0,0,1.119,1.119,2.991,2.991,0,0,0,1.534.411,2.944,2.944,0,0,0,1.518-.411,3.084,3.084,0,0,0,1.114-1.119,3,3,0,0,0,.415-1.541,2.941,2.941,0,0,0-.415-1.531,3.068,3.068,0,0,0-1.114-1.1A2.973,2.973,0,0,0,161.341-14.876Zm5.348-.594h.891L170.421-10l2.809-5.467h.891v7.289h-.663l-.01-6.289-2.84,5.508h-.394l-2.85-5.508v6.289h-.674Z" transform="translate(-2.04 46.254)" fill="#090961"/>
    <path id="Path_30067" data-name="Path 30067" d="M13.793-25.2a9.29,9.29,0,0,1,5.744,1.592,5.218,5.218,0,0,1,2.1,4.4,5.321,5.321,0,0,1-1.159,3.476,5.634,5.634,0,0,1-3.171,1.9,6.2,6.2,0,0,1,3.9,2,5.963,5.963,0,0,1,1.415,4.058,5.678,5.678,0,0,1-2.3,4.812,10.374,10.374,0,0,1-6.358,1.729H3.6V-25.2Zm-.17,10.171a5.469,5.469,0,0,0,3.426-.942,3.206,3.206,0,0,0,1.21-2.688,3.122,3.122,0,0,0-1.21-2.637,5.4,5.4,0,0,0-3.426-.89H6.873v7.157Zm0,10.788a7.026,7.026,0,0,0,4.159-1.01,3.365,3.365,0,0,0,1.5-2.928,3.26,3.26,0,0,0-1.5-2.842,7.283,7.283,0,0,0-4.159-1.027H6.873v7.808ZM31.282-25.2h3.273V-1.228H31.282Zm23.216,0a12.758,12.758,0,0,1,6.29,1.558,11.437,11.437,0,0,1,4.415,4.3,11.917,11.917,0,0,1,1.6,6.13,11.819,11.819,0,0,1-1.619,6.13,11.528,11.528,0,0,1-4.449,4.3A12.924,12.924,0,0,1,54.4-1.228H44.783V-25.2Zm.068,20.993a8.91,8.91,0,0,0,4.517-1.164,8.526,8.526,0,0,0,3.2-3.219,9.072,9.072,0,0,0,1.176-4.589A9.036,9.036,0,0,0,62.272-17.8a8.705,8.705,0,0,0-3.256-3.236,9.06,9.06,0,0,0-4.585-1.181H48.056V-4.207ZM74.886-25.2h3.886L87.5-8.351,96.159-25.2h3.921V-1.228H97.011l-.034-19.144L88.488-3.762H86.477L77.92-20.371V-1.228H74.886ZM128.035-1.228l-2.523-5.822h-12.58l-2.489,5.822H107L117.6-25.2h3.409L131.58-1.228Zm-13.807-8.8h10.023l-5.046-11.644ZM133.115-25.2h18.648v3.014h-7.7V-1.228h-3.273V-22.186h-7.671Zm25.807,0h16.569v2.979h-13.3v7.4h11.9v2.979h-11.9v7.637h13.7v2.979H158.922Z" transform="translate(-3.6 25.2)" fill="#090961"/>
  </g>
  <g id="Group_6568" data-name="Group 6568">
    <path id="Ellipse_503" data-name="Ellipse 503" d="M29.027,1.628A27.407,27.407,0,0,0,18.362,54.274,27.407,27.407,0,0,0,39.691,3.78,27.226,27.226,0,0,0,29.027,1.628m0-1.628A29.027,29.027,0,1,1,0,29.027,29.027,29.027,0,0,1,29.027,0Z" fill="#090961"/>
    <g id="Group_6566" data-name="Group 6566" transform="translate(9.494 19.006)">
      <path id="Path_30087" data-name="Path 30087" d="M.383-33.128-2.686-37.6H9.936q5.979,0,5.979,5.979c0,1.329-1.066,2.436-1.508,3.321.443.886,1.508,1.993,1.508,3.321Q15.914-19,9.936-19H8.062L4.98-23.468H9.936c.443,0,.664-1.066.664-1.508s-.221-1.508-.664-1.508H4.223L1.154-30.111H9.936c.443,0,.664-1.066.664-1.508s-.221-1.508-.664-1.508Z" transform="translate(2.686 38.334)" fill="#090961"/>
      <path id="Path_30088" data-name="Path 30088" d="M4.249-30.361V-22H0V-41.18L8.913-32.9l8.913-8.276v17.9l-4.249,2.546v-9.63L8.913-26.809Z" transform="translate(20.788 41.18)" fill="#090961"/>
    </g>
  </g>
</svg>
