<svg width="18" height="18" viewBox="0 0 18 18" fill="none" xmlns="http://www.w3.org/2000/svg">
<g clip-path="url(#clip0_199_66)">
<circle cx="9" cy="9" r="3" fill="#FDB714"/>
<path d="M16.7415 8.37172C16.9424 8.62773 17.1 8.84314 17.2102 8.99893C17.0991 9.15486 16.9403 9.37064 16.7379 9.62713C16.3057 10.1749 15.6782 10.9043 14.897 11.6322C13.3193 13.1023 11.1906 14.496 8.82617 14.496C6.2828 14.496 4.1958 13.0989 2.71466 11.6416C1.9786 10.9174 1.40615 10.1916 1.01787 9.64669C0.827591 9.37966 0.682314 9.15715 0.584419 9.00105C0.68316 8.84483 0.829729 8.62197 1.02156 8.35445C1.41245 7.80933 1.98806 7.08329 2.72633 6.35881C4.21241 4.9005 6.29944 3.50391 8.82617 3.50391C11.207 3.50391 13.3357 4.89809 14.9085 6.36732C15.6875 7.09496 16.3119 7.82414 16.7415 8.37172ZM9.73171 9.00013V9.00048C9.73171 9.46491 9.3554 9.84122 8.89097 9.84122C8.42667 9.84122 8.05023 9.46452 8.05023 9.00048C8.05023 8.53644 8.42667 8.15973 8.89097 8.15973C9.35598 8.15973 9.73204 8.53655 9.73171 9.00013ZM5.68069 9.00665C5.68069 10.7706 7.10997 12.2005 8.87451 12.2005C10.6384 12.2005 12.0689 10.7707 12.0689 9.00665C12.0689 7.24268 10.6385 5.81231 8.87451 5.81231C7.11042 5.81231 5.68069 7.2428 5.68069 9.00665Z" stroke="#979797"/>
</g>
<defs>
<clipPath id="clip0_199_66">
<rect width="18" height="18" fill="white"/>
</clipPath>
</defs>
</svg>
