<svg width="78" height="88" viewBox="0 0 78 88" fill="none" xmlns="http://www.w3.org/2000/svg">
<path d="M73.7547 18.8112L77.2798 16.7854L73.7547 14.7596C70.5139 12.9004 67.9364 9.33985 66.5908 4.86725L65.1252 0L63.6595 4.86725C62.3139 9.33985 59.7365 12.9004 56.4957 14.7596L52.9706 16.7854L56.4957 18.8112C59.7365 20.6704 62.3139 24.231 63.6595 28.7036L65.1252 33.5708L66.5908 28.7036C67.9364 24.231 70.5139 20.6704 73.7547 18.8112Z" fill="white"/>
<path d="M53.8992 30.7732C53.5897 30.9311 53.2801 31.0801 52.9643 31.2292C49.0349 33.0972 44.8465 34.7635 40.6454 34.4741C37.4299 34.2548 34.7892 32.3342 32.2118 29.8348C29.9501 27.6424 27.6885 25.713 24.8204 25.8621C21.3396 26.0463 17.9535 28.1861 14.7632 29.9138C13.544 30.5715 12.3121 31.238 11.0676 31.8607V45.4626C11.3771 45.3136 11.6803 45.1557 11.9836 45.0066C15.496 43.2088 18.9579 40.9111 22.641 39.8675C25.5848 39.0344 28.1813 39.7447 30.6893 41.9986C33.1025 44.1647 35.2946 46.6553 38.1627 47.6112C42.0416 48.9004 46.2426 47.6814 49.9888 46.1642C51.3091 45.6293 52.6042 45.0154 53.8992 44.3752V30.7732Z" fill="#1D335A"/>
<path d="M68.0314 65.6687C66.6669 65.3968 65.2644 65.4231 63.8114 65.8353C60.0842 66.8877 56.5528 69.0801 52.9645 70.7815C49.0351 72.6495 44.8467 74.3157 40.6457 74.0263C37.4302 73.8071 34.7895 71.8865 32.212 69.3871C29.9504 67.1946 27.6888 65.2653 24.8207 65.4144C23.1972 65.5021 21.5926 66.0195 20.0195 66.7211V80.3581C20.8787 79.9898 21.7505 79.6653 22.6286 79.411C25.5725 78.5779 28.1689 79.2882 30.6769 81.542C33.0901 83.7082 35.2823 86.1988 38.1503 87.1547C42.0292 88.4439 46.2302 87.2249 49.9764 85.7077C53.8616 84.1379 57.5762 81.8753 61.4551 80.2704C63.1671 79.5601 64.9549 78.9549 66.749 79.0163C67.1723 79.0339 67.5955 79.0953 68.0188 79.1742V65.6687H68.0314Z" fill="#1D335A"/>
<path d="M77.2865 52.1723C76.1304 50.927 74.8922 49.8045 73.6288 48.8223C70.5459 46.4369 67.3241 45.2266 63.8179 46.2176C60.0907 47.27 56.5593 49.4625 52.971 51.1638C49.0416 53.0318 44.8532 54.698 40.6522 54.4086C37.4366 54.1894 34.796 52.2688 32.2185 49.7694C29.9569 47.577 27.6953 45.6476 24.8272 45.7967C21.3463 45.9808 17.9602 48.1207 14.77 49.8483C11.0617 51.8566 7.23969 53.9701 3.22817 54.3736C2.1479 54.4788 1.06763 54.3911 0 54.1455V67.8177C0.195838 67.8615 0.397993 67.9054 0.593831 67.9317C4.47269 68.5105 8.38945 66.7653 11.984 64.9324C15.4965 63.1346 18.9584 60.8369 22.6414 59.7933C25.5853 58.9602 28.1817 59.6705 30.6897 61.9244C33.1029 64.0905 35.2951 66.5811 38.1631 67.537C42.042 68.8262 46.243 67.6072 49.9892 66.09C53.8744 64.5202 57.589 62.2576 61.4679 60.6527C63.1799 59.9512 64.9677 59.3373 66.7618 59.3987C68.7391 59.4688 70.6659 60.3809 72.4285 61.5648C74.1278 62.7049 75.7767 64.1256 77.2802 65.7568V52.1723H77.2865Z" fill="#1D335A"/>
</svg>
