<svg width="18" height="18" viewBox="0 0 18 18" fill="none" xmlns="http://www.w3.org/2000/svg">
<g clip-path="url(#clip0_1127_714)">
<mask id="path-1-inside-1_1127_714" fill="white">
<path d="M8.86279 6.14899L11.4395 8.72568L11.4518 8.59071C11.4518 7.23691 10.3516 6.13672 8.99776 6.13672L8.86279 6.14899Z"/>
</mask>
<path d="M8.86279 6.14899L8.77226 5.1531L6.64599 5.3464L8.15569 6.8561L8.86279 6.14899ZM11.4395 8.72568L10.7324 9.43278L12.2421 10.9425L12.4354 8.81622L11.4395 8.72568ZM11.4518 8.59071L12.4476 8.68125L12.4518 8.63607V8.59071H11.4518ZM8.99776 6.13672V5.13672H8.9524L8.90722 5.14083L8.99776 6.13672ZM8.15569 6.8561L10.7324 9.43278L12.1466 8.01857L9.5699 5.44188L8.15569 6.8561ZM12.4354 8.81622L12.4476 8.68125L10.4559 8.50017L10.4436 8.63514L12.4354 8.81622ZM12.4518 8.59071C12.4518 6.68463 10.9038 5.13672 8.99776 5.13672V7.13672C9.79927 7.13672 10.4518 7.7892 10.4518 8.59071H12.4518ZM8.90722 5.14083L8.77226 5.1531L8.95333 7.14488L9.0883 7.13261L8.90722 5.14083Z" fill="black" fill-opacity="0.55" mask="url(#path-1-inside-1_1127_714)"/>
<path d="M13.5879 8.59102C13.5879 6.05721 11.5318 4.00103 8.99795 4.00103C8.51924 4.00103 8.06189 4.08127 7.63589 4.21556L6.67666 3.25855C7.4179 3.06205 8.19522 2.95605 8.99798 2.95605C12.8087 2.95605 16.0684 5.28072 17.4601 8.59103C16.9454 9.81528 16.1742 10.9051 15.2127 11.7918L13.3747 9.95391C13.511 9.52525 13.5879 9.06767 13.5879 8.59102Z" stroke="black" stroke-opacity="0.55"/>
<path d="M1.86088 1.93616L15.6522 15.7313L15.318 16.0642L13.2864 14.0291L13.2861 14.0288L12.9384 13.6812L12.7048 13.4475L12.3983 13.5708C11.3482 13.9932 10.2009 14.2259 8.99797 14.2259C5.19083 14.2259 1.92738 11.9008 0.539633 8.59075C1.15096 7.13002 2.13292 5.86492 3.36318 4.90308L3.80825 4.55511L3.40877 4.15563L3.03657 3.78343L1.52509 2.27195L1.86088 1.93616ZM5.69508 6.43783L5.20145 5.9442L4.89298 6.57046C4.59373 7.17802 4.40798 7.8585 4.40798 8.59097C4.40798 11.1248 6.46416 13.181 8.99797 13.181C9.73028 13.181 10.4112 12.9953 11.0157 12.6953L11.6391 12.3859L11.147 11.8939L9.88323 10.6301L9.69089 10.4377L9.42491 10.4947C9.27685 10.5264 9.13732 10.545 8.99797 10.545C7.92031 10.545 7.04398 9.66862 7.04398 8.59097C7.04398 8.45177 7.06245 8.31185 7.09473 8.15762L7.15013 7.89289L6.95888 7.70164L5.69508 6.43783Z" stroke="black" stroke-opacity="0.55"/>
<path d="M3.77598 5.79472C3.11901 6.86074 2.86885 8.09724 3.06515 9.30832C3.26145 10.5194 3.89298 11.6358 4.85969 12.4807C5.82641 13.3256 7.07302 13.8506 8.40205 13.9726C9.73109 14.0946 11.0665 13.8067 12.1968 13.1543L11.8513 12.6512C10.8431 13.233 9.65206 13.4899 8.46669 13.381C7.28133 13.2722 6.16947 12.8039 5.30726 12.0504C4.44505 11.2968 3.88178 10.3011 3.7067 9.22094C3.53162 8.14078 3.75474 7.03795 4.3407 6.08716L3.77598 5.79472Z" fill="#00A9E2"/>
<line x1="2.35355" y1="1.64645" x2="16.3536" y2="15.6464" stroke="#FDB714"/>
</g>
<defs>
<clipPath id="clip0_1127_714">
<rect width="18" height="18" fill="white"/>
</clipPath>
</defs>
</svg>
