<svg width="24" height="24" viewBox="0 0 24 24" fill="none" xmlns="http://www.w3.org/2000/svg">
<g clip-path="url(#clip0_2167_1678)">
<path d="M8.89645 2.97656C7.2539 2.97656 5.92242 4.30809 5.92242 5.95059C5.92242 7.2455 6.75001 8.34713 7.90511 8.75539V10.9073H4.93108C3.28857 10.9073 1.95705 12.2388 1.95705 13.8813V15.0419C0.801948 15.4501 -0.0256348 16.5518 -0.0256348 17.8467C-0.0256348 19.4893 1.30589 20.8207 2.94839 20.8207C4.5909 20.8207 5.92242 19.4893 5.92242 17.8467C5.92242 16.5518 5.09484 15.4501 3.93974 15.0419V13.8813C3.93974 13.3338 4.38358 12.89 4.93108 12.89H12.8618C13.4093 12.89 13.8532 13.3338 13.8532 13.8813V15.0419C12.6981 15.4501 11.8705 16.5518 11.8705 17.8467C11.8705 19.4893 13.202 20.8207 14.8445 20.8207C16.4871 20.8207 17.8185 19.4893 17.8185 17.8467C17.8185 16.5518 16.991 15.4501 15.8359 15.0419V13.8813C15.8359 12.2388 14.5044 10.9073 12.8618 10.9073H9.8878V8.75539C11.0429 8.34713 11.8705 7.2455 11.8705 5.95059C11.8705 4.30809 10.539 2.97656 8.89645 2.97656Z" fill="black"/>
<circle cx="17.2753" cy="18.2074" r="2.33431" fill="#FDB714"/>
<circle cx="6.07185" cy="18.2074" r="2.33431" fill="#00A9E2"/>
</g>
<defs>
<clipPath id="clip0_2167_1678">
<rect width="23.7922" height="23.7922" fill="white"/>
</clipPath>
</defs>
</svg>
