<svg width="26" height="28" viewBox="0 0 26 28" fill="none" xmlns="http://www.w3.org/2000/svg">
<path d="M2.7999 0.199951V2.59995H0.399902V27.8H6.9999V22.4H9.3999V27.8H15.9999V2.59995H13.5999V0.199951H2.7999ZM3.9999 4.99995H5.1999V6.19995H3.9999V4.99995ZM6.3999 4.99995H7.5999V6.19995H6.3999V4.99995ZM8.7999 4.99995H9.9999V6.19995H8.7999V4.99995ZM11.1999 4.99995H12.3999V6.19995H11.1999V4.99995ZM17.1999 7.39995V9.79995H18.3999V11H17.1999V12.2H18.3999V13.4H17.1999V14.6H18.3999V15.8H17.1999V17H18.3999V18.2H17.1999V19.4H18.3999V20.6H17.1999V21.8H18.3999V23H17.1999V24.2H18.3999V25.4H17.1999V27.8H25.5999V7.39995H17.1999ZM3.9999 7.99995H5.1999V10.4H3.9999V7.99995ZM6.3999 7.99995H7.5999V10.4H6.3999V7.99995ZM8.7999 7.99995H9.9999V10.4H8.7999V7.99995ZM11.1999 7.99995H12.3999V10.4H11.1999V7.99995ZM19.5999 9.79995H20.7999V11H19.5999V9.79995ZM21.9999 9.79995H23.1999V11H21.9999V9.79995ZM3.9999 11.6H5.1999V14H3.9999V11.6ZM6.3999 11.6H7.5999V14H6.3999V11.6ZM8.7999 11.6H9.9999V14H8.7999V11.6ZM11.1999 11.6H12.3999V14H11.1999V11.6ZM19.5999 12.2H20.7999V13.4H19.5999V12.2ZM21.9999 12.2H23.1999V13.4H21.9999V12.2ZM19.5999 14.6H20.7999V15.8H19.5999V14.6ZM21.9999 14.6H23.1999V15.8H21.9999V14.6ZM3.9999 15.2H5.1999V17.6H3.9999V15.2ZM6.3999 15.2H7.5999V17.6H6.3999V15.2ZM8.7999 15.2H9.9999V17.6H8.7999V15.2ZM11.1999 15.2H12.3999V17.6H11.1999V15.2ZM19.5999 17H20.7999V18.2H19.5999V17ZM21.9999 17H23.1999V18.2H21.9999V17ZM3.9999 18.8H5.1999V21.2H3.9999V18.8ZM6.3999 18.8H7.5999V21.2H6.3999V18.8ZM8.7999 18.8H9.9999V21.2H8.7999V18.8ZM11.1999 18.8H12.3999V21.2H11.1999V18.8ZM19.5999 19.4H20.7999V20.6H19.5999V19.4ZM21.9999 19.4H23.1999V20.6H21.9999V19.4ZM19.5999 21.8H20.7999V23H19.5999V21.8ZM21.9999 21.8H23.1999V23H21.9999V21.8ZM3.9999 22.4H5.1999V25.4H3.9999V22.4ZM11.1999 22.4H12.3999V25.4H11.1999V22.4ZM19.5999 24.2H20.7999V25.4H19.5999V24.2ZM21.9999 24.2H23.1999V25.4H21.9999V24.2Z" fill="black" fill-opacity="0.55"/>
</svg>
