<svg width="23" height="23" viewBox="0 0 23 23" fill="none" xmlns="http://www.w3.org/2000/svg">
<path d="M18.2721 13.585C15.6709 13.585 13.5887 15.6652 13.5887 18.2664C13.5887 20.8675 15.6709 22.9579 18.2721 22.9579C20.8733 22.9579 22.9617 20.8675 22.9617 18.2664C22.9617 15.6652 20.8733 13.585 18.2721 13.585ZM17.5031 16.2054C17.6399 16.2059 17.7752 16.2334 17.9014 16.2863C18.0276 16.3391 18.1421 16.4163 18.2385 16.5134C18.3348 16.6105 18.4111 16.7256 18.4629 16.8522C18.5148 16.9788 18.5412 17.1143 18.5407 17.2511V18.2908H19.5864C19.7232 18.2913 19.8586 18.3188 19.9847 18.3716C20.1109 18.4245 20.2254 18.5016 20.3218 18.5987C20.4181 18.6959 20.4944 18.811 20.5463 18.9376C20.5981 19.0642 20.6245 19.1997 20.624 19.3365C20.6229 19.6114 20.5133 19.8747 20.3189 20.069C20.1246 20.2634 19.8613 20.373 19.5864 20.3741H17.5031C17.2268 20.3752 16.9615 20.2664 16.7653 20.0719C16.5692 19.8773 16.4584 19.6128 16.4573 19.3365V17.2511C16.4568 17.1137 16.4835 16.9774 16.5358 16.8503C16.5882 16.7232 16.6652 16.6077 16.7624 16.5105C16.8596 16.4133 16.9751 16.3363 17.1023 16.2839C17.2294 16.2315 17.3656 16.2049 17.5031 16.2054Z" fill="#FDB714"/>
<path d="M6.29107 0.0424886C6.01605 0.0434366 5.75256 0.153109 5.55809 0.34758C5.36362 0.542051 5.25395 0.805538 5.253 1.08056V3.16442C5.25246 3.30125 5.27889 3.43685 5.33077 3.56347C5.38266 3.69009 5.45898 3.80524 5.55538 3.90236C5.65178 3.99947 5.76637 4.07664 5.8926 4.12945C6.01883 4.18227 6.15423 4.20969 6.29107 4.21017C6.42855 4.21071 6.56479 4.18403 6.69191 4.13167C6.81903 4.07931 6.93453 4.0023 7.03175 3.90509C7.12897 3.80788 7.20598 3.69238 7.25835 3.56525C7.31071 3.43813 7.3374 3.3019 7.33686 3.16442V1.08056C7.33639 0.943721 7.30896 0.808317 7.25614 0.682082C7.20332 0.555847 7.12615 0.441256 7.02903 0.344855C6.93192 0.248455 6.81676 0.172133 6.69013 0.120252C6.56351 0.068371 6.42791 0.0419466 6.29107 0.0424886Z" fill="#00A9E2"/>
<path d="M15.6646 0.0424886C15.3896 0.0434366 15.1261 0.153109 14.9316 0.34758C14.7372 0.542051 14.6275 0.805538 14.6265 1.08056V3.16442C14.626 3.30125 14.6524 3.43685 14.7043 3.56347C14.7562 3.69009 14.8325 3.80524 14.9289 3.90236C15.0253 3.99947 15.1399 4.07664 15.2661 4.12945C15.3924 4.18227 15.5278 4.20969 15.6646 4.21017C15.8021 4.21071 15.9383 4.18403 16.0654 4.13167C16.1926 4.07931 16.3081 4.0023 16.4053 3.90509C16.5025 3.80788 16.5795 3.69238 16.6319 3.56525C16.6842 3.43813 16.7109 3.3019 16.7104 3.16442V1.08056C16.7099 0.943721 16.6825 0.808317 16.6297 0.682082C16.5769 0.555847 16.4997 0.441256 16.4026 0.344855C16.3054 0.248455 16.1903 0.172133 16.0637 0.120252C15.937 0.068371 15.8014 0.0419466 15.6646 0.0424886Z" fill="#00A9E2"/>
<path d="M4.69186 2.12646C2.1354 2.12646 0.0389404 4.21474 0.0389404 6.77124V15.1839C0.0389404 17.7404 2.1354 19.8348 4.69186 19.8348H11.6967C11.5761 19.3303 11.5054 18.8065 11.5054 18.2662C11.5054 14.5391 14.5451 11.4994 18.2722 11.4994C19.6128 11.4994 20.8614 11.8986 21.916 12.5757V6.77124C21.916 4.21474 19.8277 2.12646 17.2712 2.12646H4.69186ZM2.17111 6.29517H19.7858C19.8138 6.44954 19.8326 6.60747 19.8326 6.77124V8.3785H2.12428V6.77124C2.12428 6.60747 2.14308 6.44954 2.17111 6.29517ZM5.25338 9.83114H7.33671C7.4735 9.83167 7.60885 9.85914 7.73503 9.91198C7.86121 9.96483 7.97574 10.042 8.07209 10.1391C8.16844 10.2362 8.24472 10.3513 8.29657 10.4779C8.34842 10.6045 8.37484 10.7401 8.3743 10.8769C8.37323 11.1517 8.26357 11.415 8.06922 11.6094C7.87486 11.8037 7.61157 11.9134 7.33671 11.9145H5.25338C5.11658 11.915 4.98102 11.8886 4.85444 11.8367C4.72785 11.7849 4.61272 11.7086 4.51561 11.6123C4.41851 11.5159 4.34133 11.4014 4.28849 11.2752C4.23564 11.149 4.20817 11.0137 4.20764 10.8769C4.2071 10.7394 4.23378 10.6032 4.28614 10.4761C4.33851 10.3489 4.41552 10.2334 4.51273 10.1362C4.60994 10.039 4.72544 9.962 4.85255 9.90964C4.97967 9.85728 5.1159 9.8306 5.25338 9.83114ZM11.5441 9.83114H13.6274C13.7642 9.83167 13.8995 9.85914 14.0257 9.91198C14.1519 9.96482 14.2664 10.042 14.3628 10.1391C14.4591 10.2362 14.5354 10.3513 14.5873 10.4779C14.6391 10.6045 14.6655 10.7401 14.665 10.8769C14.6639 11.1517 14.5543 11.415 14.3599 11.6094C14.1656 11.8037 13.9023 11.9134 13.6274 11.9145H11.5441C11.4073 11.915 11.2717 11.8886 11.1451 11.8367C11.0185 11.7849 10.9034 11.7086 10.8063 11.6122C10.7092 11.5159 10.632 11.4014 10.5792 11.2752C10.5263 11.149 10.4989 11.0137 10.4983 10.8769C10.4978 10.7394 10.5245 10.6032 10.5768 10.4761C10.6292 10.3489 10.7062 10.2334 10.8034 10.1362C10.9006 10.039 11.0161 9.96201 11.1432 9.90964C11.2704 9.85728 11.4066 9.8306 11.5441 9.83114ZM5.25338 14.2521H7.33671C7.61192 14.2532 7.87552 14.3631 8.06993 14.5579C8.26434 14.7527 8.37377 15.0165 8.3743 15.2917C8.37484 15.4285 8.34842 15.5641 8.29657 15.6907C8.24472 15.8173 8.16844 15.9324 8.07209 16.0295C7.97574 16.1266 7.86121 16.2038 7.73503 16.2566C7.60885 16.3095 7.4735 16.3369 7.33671 16.3375H5.25338C5.1159 16.338 4.97967 16.3113 4.85255 16.259C4.72544 16.2066 4.60994 16.1296 4.51273 16.0324C4.41552 15.9352 4.33851 15.8197 4.28614 15.6926C4.23378 15.5655 4.2071 15.4292 4.20764 15.2917C4.2079 15.1548 4.23518 15.0192 4.2879 14.8928C4.34063 14.7664 4.41776 14.6516 4.51489 14.5551C4.61203 14.4585 4.72725 14.382 4.85397 14.33C4.98069 14.2781 5.11641 14.2516 5.25338 14.2521Z" fill="black" fill-opacity="0.55"/>
</svg>
