<svg width="26" height="26" viewBox="0 0 26 26" fill="none" xmlns="http://www.w3.org/2000/svg">
<rect x="8" y="4" width="6" height="17" fill="#00A9E2"/>
<rect x="16" y="9" width="4.23529" height="12" fill="#FDB714"/>
<path d="M20.6273 14.8299C20.6273 13.6764 20.5308 8.3552 19.4139 8.3552H15.167M11.1224 16.7097H11.1325M17.1894 16.7097H17.1995M7.07782 16.7097H7.08793M11.1224 12.5324H11.1325M17.1894 12.5324H17.1995M7.07782 12.5324H7.08793M11.1224 8.3552H11.1325M7.07782 8.3552H7.08793M15.167 20.8869V6.26659C15.167 5.11308 14.2617 4.17798 13.1447 4.17798H5.05551C3.93862 4.17798 3.0332 5.11308 3.0332 6.26659V20.8869H15.167Z" stroke="black" stroke-width="1.46617" stroke-linecap="round" stroke-linejoin="round"/>
<path fill-rule="evenodd" clip-rule="evenodd" d="M19.9406 18.3931C20.0919 18.5495 20.0919 18.8029 19.9406 18.9593L18.2766 20.6778L19.9406 22.3963C20.0919 22.5526 20.0919 22.8061 19.9406 22.9624C19.7892 23.1188 19.5438 23.1188 19.3924 22.9624L17.4543 20.9608C17.303 20.8045 17.303 20.551 17.4543 20.3947L19.3924 18.3931C19.5438 18.2368 19.7892 18.2368 19.9406 18.3931ZM21.718 18.3931C21.8694 18.2368 22.1148 18.2368 22.2662 18.3931L24.2043 20.3947C24.3556 20.551 24.3556 20.8045 24.2043 20.9608L22.2662 22.9624C22.1148 23.1188 21.8694 23.1188 21.718 22.9624C21.5667 22.8061 21.5667 22.5526 21.718 22.3963L23.382 20.6778L21.718 18.9593C21.5667 18.8029 21.5667 18.5495 21.718 18.3931Z" fill="black"/>
</svg>
