<svg width="33" height="33" viewBox="0 0 33 33" fill="none" xmlns="http://www.w3.org/2000/svg">
<path d="M24.1801 9.3275C24.1801 7.7675 20.6376 6.5 16.2501 6.5C11.8626 6.5 8.32007 7.7675 8.32007 9.3275V10.3025C8.32007 11.8625 11.8626 13.13 16.2501 13.13C20.6376 13.13 24.1801 11.8625 24.1801 10.3025V9.3275ZM8.32007 12.5775C8.32007 13.8125 11.8626 14.7875 16.2501 14.7875C20.6376 14.7875 24.1801 13.8125 24.1801 12.5775V14.5925C24.1801 16.1525 20.6376 17.42 16.2501 17.42C11.8626 17.42 8.32007 16.1525 8.32007 14.5925V12.5775ZM8.32007 12.5775C8.32007 13.8125 11.8626 14.7875 16.2501 14.7875C20.6376 14.7875 24.1801 13.8125 24.1801 12.5775V14.5925C24.1801 16.1525 20.6376 17.42 16.2501 17.42C11.8626 17.42 8.32007 16.1525 8.32007 14.5925V12.5775ZM8.32007 16.8675C8.32007 18.1025 11.8626 19.0775 16.2501 19.0775C20.6376 19.0775 24.1801 18.1025 24.1801 16.8675V18.85C24.1801 20.41 20.6376 21.6775 16.2501 21.6775C11.8626 21.6775 8.32007 20.4425 8.32007 18.915V16.8675ZM8.32007 21.19C8.32007 22.425 11.8951 23.4 16.2501 23.4C20.6051 23.4 24.1801 22.425 24.1801 21.19V23.205C24.1801 24.765 20.6376 26.0325 16.2501 26.0325C11.8626 26.0325 8.32007 24.765 8.32007 23.205V21.19Z" fill="black" fill-opacity="0.55"/>
<path d="M24 9.5C24 10.8807 20.3137 13 17 13C13.6863 13 8.5 10.8807 8.5 9.5C8.5 8.11929 12.6863 6.5 16 6.5C19.3137 6.5 24 8.11929 24 9.5Z" fill="#00A9E2"/>
</svg>
