<svg width="26" height="26" viewBox="0 0 26 26" fill="none" xmlns="http://www.w3.org/2000/svg">
<path fill-rule="evenodd" clip-rule="evenodd" d="M12.74 1.70996L22.2954 7.22678V13.8028H20.1719V9.55609L13.8017 13.2339V23.1642L12.74 23.7772L3.18457 18.2604V7.22678L12.74 1.70996ZM20.172 14.8646L20.1719 18.0497H23.3571V20.1731L20.1719 20.1731L20.172 23.3583H18.0485L18.0485 20.1731L14.8634 20.1731V18.0497H18.0485L18.0485 14.8646H20.172ZM5.30796 9.55604L5.30799 17.0344L11.6782 20.7123V13.2339L5.30796 9.55604ZM12.74 4.16188L6.47588 7.77846L12.74 11.395L19.0041 7.77846L12.74 4.16188Z" fill="black"/>
<path d="M6.00098 7.29541L13.001 3.5L20.501 7.29541L13.001 11.5L6.00098 7.29541Z" fill="#00A9E2"/>
<path d="M4.99938 17.5001L4.99898 8.50008L12.0008 13L12.0008 21.5001L4.99938 17.5001Z" fill="#FDB714"/>
</svg>
