<svg width="60" height="60" viewBox="0 0 60 60" fill="none" xmlns="http://www.w3.org/2000/svg">
<path d="M50 7.5C50.663 7.5 51.2989 7.23661 51.7678 6.76777C52.2366 6.29893 52.5 5.66304 52.5 5C52.5 4.33696 52.2366 3.70107 51.7678 3.23223C51.2989 2.76339 50.663 2.5 50 2.5H10C9.33696 2.5 8.70107 2.76339 8.23223 3.23223C7.76339 3.70107 7.5 4.33696 7.5 5C7.5 5.66304 7.76339 6.29893 8.23223 6.76777C8.70107 7.23661 9.33696 7.5 10 7.5H12.6225C12.9875 12.09 14.48 21.875 20.6075 27.5C14.145 33.7775 12.83 46.835 12.5675 52.5H10C9.33696 52.5 8.70107 52.7634 8.23223 53.2322C7.76339 53.7011 7.5 54.337 7.5 55C7.5 55.663 7.76339 56.2989 8.23223 56.7678C8.70107 57.2366 9.33696 57.5 10 57.5H50C50.663 57.5 51.2989 57.2366 51.7678 56.7678C52.2366 56.2989 52.5 55.663 52.5 55C52.5 54.337 52.2366 53.7011 51.7678 53.2322C51.2989 52.7634 50.663 52.5 50 52.5H47.4325C47.17 46.84 45.855 33.7825 39.3925 27.5C45.52 21.87 47.0125 12.085 47.3775 7.5H50ZM33.95 25.315C33.5528 25.5356 33.2233 25.8602 32.9967 26.254C32.7702 26.6478 32.6553 27.0959 32.6643 27.5501C32.6733 28.0043 32.8059 28.4475 33.0478 28.832C33.2898 29.2165 33.6319 29.5278 34.0375 29.7325C40.13 32.8025 42.0375 45.51 42.425 52.5H17.575C17.9525 45.5 19.87 32.8025 25.9625 29.7325C26.3681 29.5278 26.7102 29.2165 26.9522 28.832C27.1941 28.4475 27.3267 28.0043 27.3357 27.5501C27.3447 27.0959 27.2298 26.6478 27.0033 26.254C26.7767 25.8602 26.4472 25.5356 26.05 25.315C19.7025 21.7925 18.0675 12.11 17.645 7.5H42.355C41.9325 12.11 40.2975 21.7925 33.95 25.315ZM30 32.5C30 32.5 37.5 38.5 37.5 41.5V50H22.5V41.5C22.5 38.5 30 32.5 30 32.5Z" fill="#00A9E2"/>
</svg>
