<svg width="40" height="40" viewBox="0 0 40 40" fill="none" xmlns="http://www.w3.org/2000/svg">
<path d="M19.726 0C8.83171 0 0 8.68888 0 19.407C0 30.1251 8.83171 38.814 19.726 38.814C30.6203 38.814 39.4521 30.1251 39.4521 19.407C39.4521 8.68888 30.6203 0 19.726 0Z" fill="#F3F5F8"/>
<g filter="url(#filter0_i_1803_6004)">
<path d="M20 0.6469C8.96 0.6469 0 9.46199 0 20.3234C0 31.1849 8.96 40 20 40C31.04 40 40 31.1849 40 20.3234C40 9.46199 31.04 0.6469 20 0.6469ZM20 6.54987C23.32 6.54987 26 9.18652 26 12.4528C26 15.7191 23.32 18.3558 20 18.3558C16.68 18.3558 14 15.7191 14 12.4528C14 9.18652 16.68 6.54987 20 6.54987ZM20 34.4906C15 34.4906 10.58 31.972 8 28.1547C8.06 24.2391 16 22.0943 20 22.0943C23.98 22.0943 31.94 24.2391 32 28.1547C29.42 31.972 25 34.4906 20 34.4906Z" fill="#989BA1"/>
</g>
<defs>
<filter id="filter0_i_1803_6004" x="0" y="0.6469" width="40" height="41.2938" filterUnits="userSpaceOnUse" color-interpolation-filters="sRGB">
<feFlood flood-opacity="0" result="BackgroundImageFix"/>
<feBlend mode="normal" in="SourceGraphic" in2="BackgroundImageFix" result="shape"/>
<feColorMatrix in="SourceAlpha" type="matrix" values="0 0 0 0 0 0 0 0 0 0 0 0 0 0 0 0 0 0 127 0" result="hardAlpha"/>
<feOffset dy="1.9407"/>
<feGaussianBlur stdDeviation="0.97035"/>
<feComposite in2="hardAlpha" operator="arithmetic" k2="-1" k3="1"/>
<feColorMatrix type="matrix" values="0 0 0 0 0 0 0 0 0 0 0 0 0 0 0 0 0 0 0.25 0"/>
<feBlend mode="normal" in2="shape" result="effect1_innerShadow_1803_6004"/>
</filter>
</defs>
</svg>
