<svg width="40" height="40" viewBox="0 0 40 40" fill="none" xmlns="http://www.w3.org/2000/svg">
<g clip-path="url(#clip0_1803_6012)">
<path d="M20 0C8.95437 0 0 8.95437 0 20C0 31.0456 8.95437 40 20 40C31.0456 40 40 31.0456 40 20C40 8.95437 31.0456 0 20 0Z" fill="#F3F5F8"/>
<g filter="url(#filter0_i_1803_6012)">
<path d="M40.0001 20.001C40.0001 23.9565 38.8271 27.8231 36.6296 31.112C34.432 34.4009 31.3086 36.9642 27.6542 38.4779C23.9998 39.9916 19.9786 40.3877 16.0991 39.616C12.2196 38.8443 8.65608 36.9396 5.85913 34.1426C3.06218 31.3457 1.15743 27.7822 0.385755 23.9027C-0.385922 20.0232 0.0101302 16.002 1.52383 12.3476C3.03753 8.69321 5.60089 5.56975 8.88976 3.3722C12.1786 1.17465 16.0453 0.00170708 20.0008 0.00170708C22.6271 0.00170708 25.2277 0.519004 27.6542 1.52406C30.0806 2.52912 32.2853 4.00226 34.1424 5.85936C35.9995 7.71647 37.4726 9.92118 38.4777 12.3476C39.4828 14.774 40.0001 17.3747 40.0001 20.001ZM32.6768 25.1467C32.6606 23.2718 31.9054 21.479 30.5751 20.1576L18.1314 7.7089C17.9432 7.52443 17.6898 7.4217 17.4262 7.42303C17.1627 7.42436 16.9103 7.52965 16.7239 7.71601C16.5376 7.90237 16.4323 8.15475 16.4309 8.41831C16.4296 8.68186 16.5323 8.93529 16.7168 9.12353L29.1655 21.5722C30.1241 22.5243 30.6687 23.8159 30.6812 25.1669C30.6937 25.8177 30.5756 26.4645 30.334 27.0689C30.0923 27.6733 29.7319 28.2231 29.2741 28.6859C28.8163 29.1486 28.2703 29.5149 27.6685 29.7631C27.0668 30.0112 26.4213 30.1363 25.7704 30.1307H25.7174C24.3655 30.1189 23.0729 29.5743 22.1202 28.6151L10.1817 16.6817C9.62471 16.1246 9.31178 15.369 9.31178 14.5812C9.31178 13.7934 9.62471 13.0378 10.1817 12.4807L10.2979 12.3645C10.8553 11.8089 11.6102 11.4969 12.3971 11.4969C13.1841 11.4969 13.939 11.8089 14.4964 12.3645L26.6369 24.5051C26.8476 24.7154 26.9661 25.0009 26.9663 25.2986C26.9666 25.5964 26.8485 25.882 26.6381 26.0927C26.534 26.1971 26.4103 26.2799 26.2741 26.3364C26.138 26.3929 25.992 26.4221 25.8446 26.4222C25.5468 26.4224 25.2612 26.3044 25.0505 26.094L16.8355 17.8765C16.743 17.7821 16.6327 17.707 16.5109 17.6554C16.3891 17.6039 16.2583 17.577 16.1261 17.5764C15.9939 17.5757 15.8629 17.6013 15.7406 17.6515C15.6183 17.7018 15.5072 17.7759 15.4137 17.8694C15.3202 17.9628 15.2462 18.0739 15.1959 18.1962C15.1456 18.3185 15.1201 18.4495 15.1207 18.5818C15.1214 18.714 15.1483 18.8447 15.1998 18.9665C15.2513 19.0883 15.3265 19.1986 15.4209 19.2912L23.6359 27.5036C23.9231 27.8046 24.2676 28.0452 24.6492 28.2112C25.0308 28.3772 25.4417 28.4652 25.8577 28.4702C26.2738 28.4751 26.6867 28.3968 27.0721 28.2399C27.4574 28.083 27.8076 27.8507 28.1019 27.5565C28.3962 27.2624 28.6288 26.9124 28.7859 26.5271C28.943 26.1418 29.0215 25.729 29.0168 25.3129C29.0121 24.8968 28.9243 24.4859 28.7586 24.1042C28.5928 23.7225 28.3524 23.3779 28.0515 23.0904L15.9085 10.9474C14.9757 10.018 13.7126 9.49612 12.3959 9.49612C11.0791 9.49612 9.81606 10.018 8.88331 10.9474L8.76711 11.0636C7.83693 11.9964 7.31459 13.2601 7.31459 14.5774C7.31459 15.8948 7.83693 17.1584 8.76711 18.0913L20.7056 30.0297C22.0266 31.3589 23.8182 32.114 25.6921 32.1314H25.7679C26.683 32.1366 27.59 31.9589 28.4355 31.6088C29.2811 31.2586 30.0481 30.7431 30.6917 30.0925C31.3353 29.4418 31.8424 28.6692 32.1833 27.8199C32.5242 26.9706 32.692 26.0617 32.6768 25.1467Z" fill="#989BA1"/>
</g>
</g>
<defs>
<filter id="filter0_i_1803_6012" x="0.00146484" y="0.00170708" width="39.9985" height="41.9393" filterUnits="userSpaceOnUse" color-interpolation-filters="sRGB">
<feFlood flood-opacity="0" result="BackgroundImageFix"/>
<feBlend mode="normal" in="SourceGraphic" in2="BackgroundImageFix" result="shape"/>
<feColorMatrix in="SourceAlpha" type="matrix" values="0 0 0 0 0 0 0 0 0 0 0 0 0 0 0 0 0 0 127 0" result="hardAlpha"/>
<feOffset dy="1.9407"/>
<feGaussianBlur stdDeviation="0.97035"/>
<feComposite in2="hardAlpha" operator="arithmetic" k2="-1" k3="1"/>
<feColorMatrix type="matrix" values="0 0 0 0 0 0 0 0 0 0 0 0 0 0 0 0 0 0 0.25 0"/>
<feBlend mode="normal" in2="shape" result="effect1_innerShadow_1803_6012"/>
</filter>
<clipPath id="clip0_1803_6012">
<rect width="40" height="40" fill="white"/>
</clipPath>
</defs>
</svg>
