<svg width="40" height="40" viewBox="0 0 40 40" fill="none" xmlns="http://www.w3.org/2000/svg">
<ellipse cx="14.4761" cy="14.5602" rx="14.4761" ry="13.5898" fill="#F3F5F8"/>
<g filter="url(#filter0_i_1803_5995)">
<path d="M20.0809 0.555258C22.7446 0.555258 25.2554 1.06507 27.6132 2.08469C29.9711 3.10428 32.0485 4.51261 33.8455 6.30968C35.6426 8.10675 37.0509 10.181 38.0704 12.5325C39.0902 14.8839 39.6001 17.3915 39.6001 20.0553C39.6001 22.719 39.0902 25.2266 38.0704 27.5781C37.0509 29.9295 35.6426 32.0038 33.8455 33.8009C32.0485 35.5979 29.9743 37.0062 27.6228 38.0259C25.2713 39.0455 22.7637 39.5553 20.1 39.5553C17.4363 39.5553 14.9287 39.0455 12.5773 38.0259C10.2258 37.0062 8.15155 35.5979 6.35449 33.8009C4.55743 32.0038 3.1491 29.9295 2.12951 27.5781C1.1099 25.2266 0.600098 22.719 0.600098 20.0553C0.600098 17.3915 1.1099 14.8839 2.12951 12.5325C3.1491 10.181 4.55424 8.10675 6.34494 6.30968C8.1356 4.51261 10.2067 3.10428 12.5581 2.08469C14.9096 1.06507 17.4172 0.555258 20.0809 0.555258ZM22.8721 11.3567H10.0442C9.41968 11.3567 8.92901 11.5543 8.57214 11.9494C8.25096 12.305 8.07432 12.7638 8.0422 13.3259L8.03684 13.517V30.9523C9.51525 32.5964 11.2932 33.8996 13.3706 34.8619C15.4481 35.8241 17.6912 36.3053 20.1 36.3053C20.9285 36.3053 21.7441 36.2447 22.5471 36.1236C23.1894 36.0268 23.8155 35.8952 24.4252 35.7291L24.8794 35.5979V13.517C24.8794 12.867 24.7042 12.3445 24.3537 11.9494C24.0032 11.5543 23.5093 11.3567 22.8721 11.3567ZM31.9147 16.2317H26.3706V35.0626C27.4157 34.6293 28.4034 34.0908 29.3338 33.4472C30.2642 32.8035 31.1149 32.0739 31.886 31.2582C32.5469 30.559 33.14 29.8084 33.6651 29.0062L33.922 28.6009V18.392C33.922 17.7293 33.7436 17.2036 33.3867 16.8148C33.0299 16.4261 32.5392 16.2317 31.9147 16.2317ZM14.6133 29.3082C14.8886 29.3082 15.04 29.4321 15.0675 29.6798L15.0721 29.767V31.7935C15.0721 32.0688 14.9482 32.2202 14.7004 32.2477L14.6133 32.2523H12.5295C12.2656 32.2523 12.1205 32.1284 12.0941 31.8807L12.0897 31.7935V29.767C12.0897 29.4917 12.2085 29.3403 12.4459 29.3128L12.5295 29.3082H14.6133ZM20.3486 29.3082C20.6239 29.3082 20.7753 29.4321 20.8028 29.6798L20.8074 29.767V31.7935C20.8074 32.0688 20.6835 32.2202 20.4357 32.2477L20.3486 32.2523H18.2647C18.0009 32.2523 17.8558 32.1284 17.8294 31.8807L17.825 31.7935V29.767C17.825 29.4917 17.9438 29.3403 18.1812 29.3128L18.2647 29.3082H20.3486ZM31.0353 28.142C31.2392 28.142 31.3525 28.2427 31.3751 28.4441L31.3794 28.5244V30.2641C31.3794 30.468 31.2888 30.5813 31.1075 30.604L31.0353 30.6082H29.2382C29.0116 30.6082 28.8858 30.5176 28.8606 30.3363L28.8559 30.2641V28.5244C28.8559 28.2978 28.9566 28.1719 29.158 28.1467L29.2382 28.142H31.0353ZM14.6133 24.4523C14.8886 24.4523 15.04 24.5762 15.0675 24.824L15.0721 24.9112V26.9376C15.0721 27.2129 14.9482 27.3643 14.7004 27.3918L14.6133 27.3964H12.5295C12.2656 27.3964 12.1205 27.2725 12.0941 27.0248L12.0897 26.9376V24.9112C12.0897 24.6359 12.2085 24.4844 12.4459 24.4569L12.5295 24.4523H14.6133ZM20.3486 24.4523C20.6239 24.4523 20.7753 24.5762 20.8028 24.824L20.8074 24.9112V26.9376C20.8074 27.2129 20.6835 27.3643 20.4357 27.3918L20.3486 27.3964H18.2647C18.1373 27.3964 18.0321 27.3518 17.9493 27.2626C17.883 27.1912 17.8433 27.1076 17.83 27.0118L17.825 26.9376V24.9112C17.825 24.6359 17.9438 24.4844 18.1812 24.4569L18.2647 24.4523H20.3486ZM31.0353 23.8023C31.2392 23.8023 31.3525 23.898 31.3751 24.0893L31.3794 24.1656V25.867C31.3794 26.0936 31.2888 26.2195 31.1075 26.2446L31.0353 26.2494H29.2382C29.0116 26.2494 28.8858 26.1487 28.8606 25.9473L28.8559 25.867V24.1656C28.8559 23.9503 28.9566 23.8307 29.158 23.8068L29.2382 23.8023H31.0353ZM14.6133 19.5964C14.8886 19.5964 15.04 19.7255 15.0675 19.9836L15.0721 20.0744V22.0817C15.0721 22.357 14.9482 22.5084 14.7004 22.536L14.6133 22.5406H12.5295C12.2656 22.5406 12.1205 22.4167 12.0941 22.1689L12.0897 22.0817V20.0744C12.0897 19.7876 12.2085 19.6299 12.4459 19.6012L12.5295 19.5964H14.6133ZM20.3486 19.5964C20.6239 19.5964 20.7753 19.7255 20.8028 19.9836L20.8074 20.0744V22.0817C20.8074 22.357 20.6835 22.5084 20.4357 22.536L20.3486 22.5406H18.2647C18.0009 22.5406 17.8558 22.4167 17.8294 22.1689L17.825 22.0817V20.0744C17.825 19.9342 17.8665 19.8195 17.9493 19.7302C18.0156 19.6589 18.0961 19.6161 18.1909 19.6018L18.2647 19.5964H20.3486ZM31.0353 19.4244C31.2392 19.4244 31.3525 19.52 31.3751 19.7114L31.3794 19.7876V21.5082C31.3794 21.7348 31.2888 21.8607 31.1075 21.8858L31.0353 21.8906H29.2382C29.0116 21.8906 28.8858 21.7899 28.8606 21.5885L28.8559 21.5082V19.7876C28.8559 19.5724 28.9566 19.4528 29.158 19.4289L29.2382 19.4244H31.0353ZM14.6133 14.7979C14.8886 14.7979 15.04 14.9218 15.0675 15.1696L15.0721 15.2568V17.2832C15.0721 17.5585 14.9482 17.7099 14.7004 17.7374L14.6133 17.742H12.5295C12.2656 17.742 12.1205 17.6181 12.0941 17.3704L12.0897 17.2832V15.2568C12.0897 14.9815 12.2085 14.83 12.4459 14.8025L12.5295 14.7979H14.6133ZM20.3486 14.7979C20.6239 14.7979 20.7753 14.9218 20.8028 15.1696L20.8074 15.2568V17.2832C20.8074 17.5585 20.6835 17.7099 20.4357 17.7374L20.3486 17.742H18.2647C18.0009 17.742 17.8558 17.6181 17.8294 17.3704L17.825 17.2832V15.2568C17.825 14.9815 17.9438 14.83 18.1812 14.8025L18.2647 14.7979H20.3486Z" fill="#989BA1"/>
</g>
<defs>
<filter id="filter0_i_1803_5995" x="0.600098" y="0.555258" width="39" height="40.9407" filterUnits="userSpaceOnUse" color-interpolation-filters="sRGB">
<feFlood flood-opacity="0" result="BackgroundImageFix"/>
<feBlend mode="normal" in="SourceGraphic" in2="BackgroundImageFix" result="shape"/>
<feColorMatrix in="SourceAlpha" type="matrix" values="0 0 0 0 0 0 0 0 0 0 0 0 0 0 0 0 0 0 127 0" result="hardAlpha"/>
<feOffset dy="1.9407"/>
<feGaussianBlur stdDeviation="0.97035"/>
<feComposite in2="hardAlpha" operator="arithmetic" k2="-1" k3="1"/>
<feColorMatrix type="matrix" values="0 0 0 0 0 0 0 0 0 0 0 0 0 0 0 0 0 0 0.25 0"/>
<feBlend mode="normal" in2="shape" result="effect1_innerShadow_1803_5995"/>
</filter>
</defs>
</svg>
