<svg width="40" height="40" viewBox="0 0 40 40" fill="none" xmlns="http://www.w3.org/2000/svg">
<path d="M20.0004 0.727278C9.15558 0.727278 0.364014 9.51885 0.364014 20.3636C0.364014 31.2084 9.15558 40 20.0004 40C30.8452 40 39.6367 31.2084 39.6367 20.3636C39.6367 9.51885 30.8452 0.727278 20.0004 0.727278Z" fill="#F3F5F8"/>
<g filter="url(#filter0_i_1803_6008)">
<path fill-rule="evenodd" clip-rule="evenodd" d="M20 0C8.95431 0 0 8.95431 0 20C0 31.0456 8.95431 40 20 40C31.0456 40 40 31.0456 40 20C40 8.95431 31.0456 0 20 0ZM17.9862 14.4267C18.4027 13.6028 18.7129 13.2119 18.9691 13.0093C19.1616 12.8569 19.4251 12.7273 20 12.7273C21.1362 12.7273 21.8182 13.5814 21.8182 14.5055C21.8182 15.0111 21.7205 15.2612 21.4504 15.5817C21.0742 16.0283 20.3791 16.5733 18.9991 17.4831L18.1818 18.022V21.8182C18.1818 22.8224 18.9958 23.6364 20 23.6364C21.0042 23.6364 21.8182 22.8224 21.8182 21.8182V19.9691C22.8035 19.2889 23.6307 18.6376 24.2313 17.9247C25.0976 16.8965 25.4545 15.7981 25.4545 14.5055C25.4545 11.8331 23.3949 9.09091 20 9.09091C18.7565 9.09091 17.6564 9.41089 16.7127 10.1576C15.8324 10.8541 15.2335 11.8118 14.741 12.7861C14.2879 13.6822 14.6471 14.7759 15.5433 15.229C16.4395 15.6821 17.5331 15.3229 17.9862 14.4267ZM21.8182 28.1818C21.8182 27.1776 21.0042 26.3636 20 26.3636C18.9958 26.3636 18.1818 27.1776 18.1818 28.1818V29.0909C18.1818 30.0951 18.9958 30.9091 20 30.9091C21.0042 30.9091 21.8182 30.0951 21.8182 29.0909V28.1818Z" fill="#989BA1"/>
</g>
<defs>
<filter id="filter0_i_1803_6008" x="0" y="0" width="40" height="41.9407" filterUnits="userSpaceOnUse" color-interpolation-filters="sRGB">
<feFlood flood-opacity="0" result="BackgroundImageFix"/>
<feBlend mode="normal" in="SourceGraphic" in2="BackgroundImageFix" result="shape"/>
<feColorMatrix in="SourceAlpha" type="matrix" values="0 0 0 0 0 0 0 0 0 0 0 0 0 0 0 0 0 0 127 0" result="hardAlpha"/>
<feOffset dy="1.9407"/>
<feGaussianBlur stdDeviation="0.97035"/>
<feComposite in2="hardAlpha" operator="arithmetic" k2="-1" k3="1"/>
<feColorMatrix type="matrix" values="0 0 0 0 0 0 0 0 0 0 0 0 0 0 0 0 0 0 0.25 0"/>
<feBlend mode="normal" in2="shape" result="effect1_innerShadow_1803_6008"/>
</filter>
</defs>
</svg>
